<?xml version="1.0" standalone="no"?>
<!DOCTYPE svg PUBLIC "-//W3C//DTD SVG 1.1//EN" "http://www.w3.org/Graphics/SVG/1.1/DTD/svg11.dtd" >
<svg xmlns="http://www.w3.org/2000/svg">
<metadata></metadata>
<defs>
<font id="avianceregular" horiz-adv-x="0" >
<font-face units-per-em="2048" ascent="1638" descent="-410" />
<missing-glyph horiz-adv-x="585" />
<glyph unicode="&#xe2f;&#xe2f;" horiz-adv-x="1439" d="M963 0h-177v549q-122 -82 -311 -82q-167 0 -272 93.5t-105 252.5q0 154 90 244t250 90q124 0 207 -39l-24 -133l-9 -2q-60 31 -151 31q-87 0 -133.5 -48.5t-46.5 -132.5q0 -107 60.5 -154.5t180.5 -47.5q167 0 264 88v417h177v-1126zM1270 0h-176v1126h176v-1126z" />
<glyph unicode="&#xe4f;&#x22;" horiz-adv-x="1298" d="M1200 514q0 -246 -149.5 -390t-401.5 -144t-401.5 144t-149.5 390q0 245 149.5 387.5t401.5 142.5t401.5 -142.5t149.5 -387.5zM649 131q178 0 275.5 100t97.5 283q0 184 -97 280.5t-276 96.5t-276 -96.5t-97 -280.5q0 -183 98 -283t275 -100zM649 293q-101 0 -157 57.5 t-56 161.5q0 105 55.5 160t157.5 55t157.5 -55t55.5 -160q0 -104 -56 -161.5t-157 -57.5zM596 1116h-166l-12 363h190zM868 1116h-166l-12 363h191z" />
<glyph unicode="&#xe24;&#xe32;" horiz-adv-x="1984" d="M1825 -410h-176v1127q0 148 -54 215t-200 67q-169 0 -299 -102q34 -84 34 -201v-1106h-176v1104q0 152 -84.5 228.5t-234.5 76.5q-98 0 -189 -39t-147 -104l154 -141v-17q-57 -48 -76 -97t-19 -132v-229q0 -56 34.5 -84.5t90.5 -28.5q63 0 105 18l8 -4v-131 q-62 -30 -156 -30q-117 0 -187.5 66.5t-70.5 180.5v236q0 148 88 233l-172 152v20q102 134 243 206.5t302 72.5q241 0 369 -125q155 125 389 125q227 0 325.5 -108.5t98.5 -331.5v-1117z" />
<glyph unicode="&#xe26;&#xe32;" horiz-adv-x="2066" d="M1907 -410h-176v1127q0 148 -54 215t-200 67q-169 0 -299 -102q34 -84 34 -201v-1106h-176v1104q0 152 -84.5 228.5t-234.5 76.5q-98 0 -189 -39t-147 -104l174 -141v-17q-48 -46 -61 -93.5t-13 -135.5v-242q0 -118 -57 -182.5t-170 -64.5q-94 0 -156 30v131l8 4 q42 -18 105 -18q52 0 73 26.5t21 86.5v223q0 168 68 233l-193 152v20q102 134 243 206.5t302 72.5q241 0 369 -125q155 125 389 125q227 0 325.5 -108.5t98.5 -331.5v-1117z" />
<glyph unicode="fi" horiz-adv-x="1306" d="M1112 0h-172v883h-504q4 -62 4 -99v-784h-172v883h-190v141h190v145q0 156 91.5 232t248.5 76q120 0 195 -35v-135l-15 -7q-23 11 -70.5 22t-92.5 11q-97 0 -155 -39t-58 -125q0 -39 12 -145h688v-1024zM1137 1317q0 -47 -30 -78t-81 -31t-81 31t-30 78t30 77.5t81 30.5 t81 -30.5t30 -77.5z" />
<glyph unicode="fl" horiz-adv-x="1298" d="M1128 0h-172v883h-520q4 -62 4 -99v-784h-172v883h-190v141h190v145q0 156 91.5 232t248.5 76q120 0 195 -35v-135l-15 -7q-23 11 -70.5 22t-92.5 11q-97 0 -155 -39t-58 -125q0 -39 12 -145h532v410h172v-1434z" />
<glyph unicode="&#xd;" horiz-adv-x="585" />
<glyph unicode=" "  horiz-adv-x="585" />
<glyph unicode="&#x09;" horiz-adv-x="585" />
<glyph unicode="&#xa0;" horiz-adv-x="585" />
<glyph unicode="!" horiz-adv-x="593" d="M383 369h-172v1065h172v-1065zM424 104q0 -51 -37.5 -87.5t-89.5 -36.5q-55 0 -91 36t-36 88q0 53 36 89t91 36q53 0 90 -36.5t37 -88.5z" />
<glyph unicode="&#x22;" horiz-adv-x="659" d="M276 1051h-165l-13 403h191zM549 1051h-166l-12 403h190z" />
<glyph unicode="#" horiz-adv-x="1626" d="M1425 373h-305l-110 -373h-174l110 373h-450l-111 -373h-174l111 373h-224v157h271l123 414h-291v158h338l98 332h174l-98 -332h450l99 332h174l-99 -332h191v-158h-238l-123 -414h258v-157zM993 530l123 414h-450l-123 -414h450z" />
<glyph unicode="$" horiz-adv-x="1245" d="M725 -205h-176v209q-236 25 -451 172l72 148h16q63 -49 158 -94.5t205 -63.5v508q-74 28 -125.5 51.5t-107.5 59.5t-90.5 74.5t-56.5 92t-22 117.5q0 155 105.5 249.5t296.5 111.5v208h176v-211q128 -12 224.5 -54.5t156.5 -92.5l-68 -139h-16q-119 105 -297 129v-477 l18 -7q55 -21 92 -36t83 -38t76.5 -45t62 -53t49.5 -64.5t29.5 -78t11.5 -96.5q0 -168 -108.5 -265t-313.5 -110v-205zM725 610v-452q238 17 238 202q0 93 -59.5 148t-178.5 102zM549 858v412q-103 -14 -160 -63.5t-57 -129.5q0 -77 53 -125.5t164 -93.5z" />
<glyph unicode="%" horiz-adv-x="1644" d="M403 -20h-204l1040 1474h205zM444 913q86 0 138.5 54t52.5 139q0 84 -52 138t-139 54q-86 0 -138 -53.5t-52 -138.5t52 -139t138 -54zM444 758q-150 0 -248 100.5t-98 247.5t98 247.5t248 100.5t248.5 -100.5t98.5 -247.5t-98.5 -247.5t-248.5 -100.5zM1198 135 q86 0 138.5 54t52.5 139q0 84 -52 138t-139 54q-86 0 -138 -53.5t-52 -138.5t52 -139t138 -54zM1198 -20q-150 0 -248 100.5t-98 247.5t98 247.5t248 100.5t248 -100.5t98 -247.5t-98 -247.5t-248 -100.5z" />
<glyph unicode="&#x26;" horiz-adv-x="1497" d="M578 852q119 70 169 128.5t50 137.5q0 88 -53.5 139.5t-145.5 51.5q-93 0 -147 -51.5t-54 -139.5q0 -67 41.5 -123t139.5 -143zM967 266l-418 412q-277 -111 -277 -318q0 -113 96 -175t238 -62q218 0 361 143zM1477 0h-230l-155 145q-207 -168 -484 -168 q-226 0 -368 100.5t-142 282.5q0 138 75.5 239t244.5 187q-101 93 -148 169.5t-47 168.5q0 150 103 240t272 90q163 0 267 -94.5t104 -235.5q0 -111 -61.5 -190t-207.5 -174l373 -373q75 120 94 307l148 -24l6 -4q-11 -114 -41 -204t-92 -190z" />
<glyph unicode="'" horiz-adv-x="387" d="M276 1051h-165l-13 403h191z" />
<glyph unicode="(" horiz-adv-x="638" d="M541 -170l-140 -96q-139 167 -221 416.5t-82 515.5t82 515t221 416l140 -96v-8q-126 -166 -192 -377t-66 -450t66 -450.5t192 -377.5v-8z" />
<glyph unicode=")" horiz-adv-x="638" d="M238 -266l-140 96v8q126 166 192 377.5t66 450.5t-66 450t-192 377v8l140 96q139 -167 221 -416t82 -515t-82 -515.5t-221 -416.5z" />
<glyph unicode="*" horiz-adv-x="913" d="M764 897l-135 -121l-172 211l-172 -211l-135 121l192 199l-244 92l76 151l203 -98l-6 213h172l-6 -213l202 98l76 -151l-244 -92z" />
<glyph unicode="+" horiz-adv-x="1056" d="M977 549h-359v-330h-180v330h-358v158h358v329h180v-329h359v-158z" />
<glyph unicode="," horiz-adv-x="499" d="M272 -207h-174l105 424h198z" />
<glyph unicode="-" horiz-adv-x="940" d="M842 637h-744v158h744v-158z" />
<glyph unicode="." horiz-adv-x="438" d="M340 98q0 -47 -36 -82.5t-85 -35.5q-52 0 -86.5 35t-34.5 83q0 50 34.5 84.5t86.5 34.5q50 0 85.5 -35t35.5 -84z" />
<glyph unicode="/" horiz-adv-x="1011" d="M283 -20h-185l631 1474h184z" />
<glyph unicode="0" horiz-adv-x="1572" d="M786 -20q-315 0 -501.5 199.5t-186.5 539.5t186.5 537.5t501.5 197.5t502 -197.5t187 -537.5t-187 -539.5t-502 -199.5zM786 139q230 0 367 152.5t137 427.5q0 274 -136.5 424.5t-367.5 150.5q-230 0 -366.5 -150t-136.5 -425t136.5 -427.5t366.5 -152.5z" />
<glyph unicode="1" horiz-adv-x="837" d="M586 0h-180v1243l-228 -74l-49 158l457 139v-1466z" />
<glyph unicode="2" horiz-adv-x="1183" d="M1085 0h-987v152l412 397q24 24 78.5 74.5t84.5 79.5t73 78t66 88t40.5 90t17.5 102q0 113 -74 173t-225 60q-133 0 -230.5 -40t-156.5 -93h-16l-68 139q72 61 192.5 107.5t285.5 46.5q122 0 216 -32.5t149.5 -88.5t83.5 -124.5t28 -147.5q0 -59 -22 -122t-52 -114 t-83 -113.5t-93.5 -104.5t-104.5 -103l-364 -348h749v-156z" />
<glyph unicode="3" horiz-adv-x="1208" d="M111 119l-13 160l17 4q91 -74 211.5 -109t234.5 -35q168 0 254 67.5t86 190.5q0 250 -293 250h-213v156h213q140 0 212.5 69.5t72.5 186.5q0 107 -80.5 171t-230.5 64q-133 0 -230.5 -40t-156.5 -93h-17l-67 139q72 61 192 107.5t285 46.5q123 0 219.5 -34.5t154 -92.5 t86.5 -128t29 -148q0 -106 -49 -185t-158 -141q215 -90 215 -344q0 -81 -32.5 -152.5t-94.5 -127.5t-160 -88.5t-220 -32.5q-298 0 -467 139z" />
<glyph unicode="4" horiz-adv-x="1306" d="M989 0h-180v332h-711v155l711 947h180v-947h219v-155h-219v-332zM809 487v693l-514 -693h514z" />
<glyph unicode="5" horiz-adv-x="1230" d="M121 106l-12 160l16 4q176 -131 442 -131q185 0 283 87.5t98 240.5q0 141 -81 209.5t-246 68.5h-476l41 689h865v-156h-703l-22 -377h325q221 0 351.5 -120.5t130.5 -319.5q0 -96 -34.5 -181.5t-100.5 -153t-172.5 -107t-241.5 -39.5q-140 0 -253.5 26.5t-209.5 99.5z " />
<glyph unicode="6" horiz-adv-x="1257" d="M975 459q-2 154 -90 233.5t-258 79.5q-147 0 -243.5 -83.5t-96.5 -229.5q0 -138 90.5 -229t247.5 -91q165 0 257.5 86.5t92.5 233.5zM1061 1208l-17 -4q-152 90 -323 90q-199 0 -307 -127.5t-131 -390.5q71 75 176 116.5t225 41.5q211 0 343 -128t132 -341t-144.5 -349 t-389.5 -136q-114 0 -209.5 38.5t-166.5 113t-111 192.5t-40 268q0 411 157 636.5t450 225.5q101 0 194.5 -23t149.5 -63z" />
<glyph unicode="7" horiz-adv-x="1167" d="M475 0h-190l594 1276h-811v158h1001v-156z" />
<glyph unicode="8" horiz-adv-x="1277" d="M954 1040q0 120 -84 187t-231 67t-231 -67t-84 -187q0 -122 85.5 -182.5t229.5 -60.5t229.5 60.5t85.5 182.5zM995 389q0 134 -94 197t-262 63q-166 0 -261 -63t-95 -197q0 -125 94 -187.5t262 -62.5t262 62.5t94 187.5zM922 731q114 -37 186 -129t72 -219 q0 -181 -141 -292t-400 -111t-400 111t-141 292q0 127 72 219t186 129q-217 106 -217 322q0 62 17.5 119t57 109t96.5 90t141.5 60.5t187.5 22.5t187.5 -22.5t141.5 -60.5t96.5 -90t57 -109t17.5 -119q0 -216 -217 -322z" />
<glyph unicode="9" horiz-adv-x="1257" d="M967 979q0 137 -89.5 226t-244.5 89q-163 0 -256.5 -85.5t-93.5 -229.5q0 -156 88.5 -236.5t259.5 -80.5q147 0 241.5 84.5t94.5 232.5zM209 66l-12 159l16 4q152 -90 344 -90q408 0 420 514q-69 -74 -175.5 -113.5t-228.5 -39.5q-211 0 -343 128t-132 341t145 349 t390 136q126 0 220 -35.5t164 -113.5t106 -211.5t36 -321.5q0 -397 -143.5 -594.5t-442.5 -197.5q-244 0 -364 86z" />
<glyph unicode=":" horiz-adv-x="450" d="M352 104q0 -51 -37.5 -87.5t-89.5 -36.5q-55 0 -91 36t-36 88q0 53 36 89t91 36q53 0 90 -36.5t37 -88.5zM352 846q0 -51 -37.5 -88t-89.5 -37q-55 0 -91 36.5t-36 88.5q0 53 36 89t91 36q53 0 90 -36.5t37 -88.5z" />
<glyph unicode=";" horiz-adv-x="512" d="M414 846q0 -51 -37.5 -88t-89.5 -37q-55 0 -91 36.5t-36 88.5q0 53 36 89t91 36q53 0 90 -36.5t37 -88.5zM272 -207h-174l105 424h198z" />
<glyph unicode="&#x3c;" horiz-adv-x="1056" d="M848 104l-733 465v115l733 465l76 -139l-629 -383l629 -383z" />
<glyph unicode="=" horiz-adv-x="1056" d="M920 696h-783v154h783v-154zM920 387h-783v154h783v-154z" />
<glyph unicode="&#x3e;" horiz-adv-x="1056" d="M942 569l-733 -465l-76 140l629 383l-629 383l76 139l733 -465v-115z" />
<glyph unicode="?" horiz-adv-x="1148" d="M627 369h-172v104q0 83 21.5 142.5t61 103.5t111.5 96q93 67 134 104.5t62 79.5t21 101q0 96 -79 146t-220 50q-235 0 -385 -135h-16l-68 139q72 61 191 107.5t284 46.5q227 0 352.5 -95t125.5 -267q0 -111 -61.5 -192t-205.5 -187q-51 -38 -76 -59t-46.5 -50t-28 -60 t-6.5 -77v-98zM668 104q0 -51 -37.5 -87.5t-89.5 -36.5q-55 0 -91 36t-36 88q0 53 36 89t91 36q53 0 90 -36.5t37 -88.5z" />
<glyph unicode="@" horiz-adv-x="1718" d="M1382 281l-12 -156q-177 -145 -516 -145q-223 0 -395.5 94t-266.5 261.5t-94 381.5q0 162 56.5 299.5t155.5 233.5t238.5 150t301.5 54q164 0 299.5 -40.5t236.5 -120t157 -206.5t56 -290q0 -206 -93.5 -328.5t-248.5 -122.5q-63 0 -118 28t-76 81q-97 -142 -293 -142 q-118 0 -194 66.5t-76 175.5q0 59 20.5 103.5t59.5 73t85 46t107 29.5q24 5 65 12q126 23 149 37q24 14 24 49q0 59 -37.5 82t-118.5 23q-147 0 -252 -88h-10l-39 125q49 35 129 63.5t176 28.5q299 0 299 -254v-303q0 -47 27 -74t73 -27q74 0 120 90t46 230q0 165 -73.5 278 t-200.5 166t-299 53q-120 0 -224 -40t-181 -113t-121.5 -183t-44.5 -243q0 -258 164 -421t427 -163q296 0 496 150zM1010 633v104q-40 -27 -189 -55q-89 -17 -129.5 -42.5t-40.5 -82.5t36.5 -82.5t119.5 -25.5q94 0 148.5 46t54.5 138z" />
<glyph unicode="A" horiz-adv-x="1560" d="M1462 0h-192l-146 373h-688l-145 -373h-193l578 1434h209zM1065 524l-285 721l-284 -721h569z" />
<glyph unicode="B" horiz-adv-x="1384" d="M791 0h-621v1434h598q209 0 323.5 -96.5t114.5 -262.5q0 -113 -55.5 -195.5t-161.5 -123.5q141 -38 219 -132t78 -227q0 -186 -135.5 -291.5t-359.5 -105.5zM350 154h418q152 0 243 65t91 193q0 129 -89.5 194.5t-234.5 65.5h-428v-518zM350 823h387q135 0 211 61t76 173 q0 111 -77 167t-220 56h-377v-457z" />
<glyph unicode="C" horiz-adv-x="1507" d="M1378 305l-12 -160q-93 -81 -226.5 -123t-285.5 -42q-223 0 -395.5 94t-266.5 261.5t-94 381.5q0 162 55 299.5t152.5 233.5t235 150t297.5 54q183 0 333 -68t238 -184l-98 -108h-21q-69 94 -185 147t-255 53q-160 0 -288 -69t-203.5 -201t-75.5 -305q0 -258 162 -419 t425 -161q139 0 269 45t223 125z" />
<glyph unicode="D" horiz-adv-x="1536" d="M698 0h-528v1434h528q215 0 383.5 -89.5t262.5 -252.5t94 -373t-94 -374t-262.5 -254.5t-383.5 -90.5zM350 156h322q260 0 420.5 152.5t160.5 408.5t-160.5 408.5t-420.5 152.5h-322v-1122z" />
<glyph unicode="E" horiz-adv-x="1243" d="M1145 0h-975v1434h952v-158h-772v-481h729v-156h-729v-481h795v-158z" />
<glyph unicode="F" horiz-adv-x="1150" d="M1010 629h-660v-629h-180v1434h883v-158h-703v-490h660v-157z" />
<glyph unicode="G" horiz-adv-x="1536" d="M1266 233v480h170v-563q-94 -74 -251.5 -122t-326.5 -48q-235 0 -409 97t-262.5 264t-88.5 382q0 331 204.5 531t541.5 200q194 0 352 -68t242 -184l-99 -108h-16q-70 92 -194.5 146t-276.5 54q-255 0 -412 -152.5t-157 -416.5q0 -262 156 -425t433 -163q110 0 219 25.5 t175 70.5z" />
<glyph unicode="H" horiz-adv-x="1542" d="M1372 0h-180v641h-842v-641h-180v1434h180v-637h842v637h180v-1434z" />
<glyph unicode="I" horiz-adv-x="520" d="M350 0h-180v1434h180v-1434z" />
<glyph unicode="J" horiz-adv-x="876" d="M537 332v1102h180v-1119q0 -169 -97.5 -252t-254.5 -83q-90 0 -169 26t-118 62v157h14q96 -92 238 -92q94 0 150.5 48.5t56.5 150.5z" />
<glyph unicode="K" horiz-adv-x="1507" d="M1409 0h-235l-562 705l-262 -254v-451h-180v1434h180v-760l776 760h238l-623 -605z" />
<glyph unicode="L" horiz-adv-x="1171" d="M1094 0h-924v1434h180v-1276h744v-158z" />
<glyph unicode="M" horiz-adv-x="1687" d="M1518 0h-179v1061l-456 -754h-78l-457 754v-1061h-178v1434h139l535 -887l534 887h140v-1434z" />
<glyph unicode="N" horiz-adv-x="1564" d="M1395 0h-168l-877 1151v-1151h-180v1434h166l878 -1149v1149h181v-1434z" />
<glyph unicode="O" horiz-adv-x="1675" d="M1577 717q0 -214 -95 -382.5t-263.5 -261.5t-380.5 -93t-380.5 93t-264 261.5t-95.5 382.5t95.5 382.5t264 261.5t380.5 93t380.5 -93t263.5 -261.5t95 -382.5zM838 139q116 0 218 41.5t176.5 115.5t117.5 183t43 238t-43 238t-117.5 183t-176.5 115t-218 41t-218 -41 t-176.5 -115t-117.5 -183t-43 -238t43 -238t117.5 -183t176.5 -115.5t218 -41.5z" />
<glyph unicode="P" horiz-adv-x="1320" d="M350 0h-180v1434h532q239 0 380 -124.5t141 -324.5q0 -207 -140.5 -330t-380.5 -123h-352v-532zM350 686h326q171 0 266.5 78.5t95.5 220.5q0 139 -96 217t-266 78h-326v-594z" />
<glyph unicode="Q" horiz-adv-x="1675" d="M1493 -233l-184 -48l-277 283q-96 -22 -194 -22q-212 0 -380.5 93t-264 261.5t-95.5 382.5t95.5 382.5t264 261.5t380.5 93t380.5 -93t263.5 -261.5t95 -382.5q0 -225 -105 -398t-288 -262l309 -274v-16zM838 139q116 0 218 41.5t176.5 115.5t117.5 183t43 238t-43 238 t-117.5 183t-176.5 115t-218 41t-218 -41t-176.5 -115t-117.5 -183t-43 -238t43 -238t117.5 -183t176.5 -115.5t218 -41.5z" />
<glyph unicode="R" horiz-adv-x="1396" d="M1298 0h-213l-440 614h-295v-614h-180v1434h559q233 0 357 -116t124 -298q0 -165 -101 -275t-269 -129zM350 762h346q164 0 247 72.5t83 189.5q0 116 -82.5 186t-247.5 70h-346v-518z" />
<glyph unicode="S" horiz-adv-x="1245" d="M98 156l72 147h16q85 -63 211 -115.5t269 -52.5q137 0 217 56.5t80 168.5q0 51 -19 91t-49 68t-79 53t-98 43.5t-116 41.5l-4.5 1.5t-3.5 1l-4 1t-4 1.5q-77 26 -134.5 51t-118 62.5t-99 80t-63 103t-24.5 131.5q0 172 127.5 268t354.5 96q165 0 285 -46.5t192 -107.5 l-68 -139h-16q-60 54 -157 94.5t-230 40.5q-141 0 -222 -51t-81 -147q0 -38 12 -70t40.5 -59.5t58.5 -49t84.5 -46.5t97.5 -42t118 -45q59 -22 92 -35.5t82.5 -37t77.5 -43.5t61 -51.5t50 -65t29 -79t12 -99.5q0 -187 -127.5 -292.5t-362.5 -105.5q-298 0 -559 179z" />
<glyph unicode="T" horiz-adv-x="1339" d="M760 0h-180v1276h-502v158h1184v-158h-502v-1276z" />
<glyph unicode="U" horiz-adv-x="1538" d="M1198 553v881h180v-871q0 -140 -45.5 -251.5t-127.5 -183.5t-193 -110t-244 -38q-132 0 -243 38t-192.5 110t-127 183.5t-45.5 251.5v871h180v-881q0 -197 117 -305.5t311 -108.5q195 0 312.5 108.5t117.5 305.5z" />
<glyph unicode="V" horiz-adv-x="1552" d="M881 0h-209l-574 1434h193l485 -1250l486 1250h192z" />
<glyph unicode="W" horiz-adv-x="2170" d="M1642 0h-190l-367 1151l-366 -1151h-191l-430 1434h193l346 -1190l373 1190h151l373 -1190l346 1190h193z" />
<glyph unicode="X" horiz-adv-x="1503" d="M1405 0h-211l-442 586l-443 -586h-211l549 719l-545 715h209l441 -582l440 582h209l-545 -715z" />
<glyph unicode="Y" horiz-adv-x="1462" d="M821 0h-180v547l-543 887h199l434 -727l434 727h199l-543 -887v-547z" />
<glyph unicode="Z" horiz-adv-x="1339" d="M1241 0h-1143v102l873 1174h-832v158h1082v-103l-871 -1173h891v-158z" />
<glyph unicode="[" horiz-adv-x="751" d="M653 -205h-483v1843h461v-157h-281v-1528h303v-158z" />
<glyph unicode="\" horiz-adv-x="1011" d="M913 -20h-184l-631 1474h185z" />
<glyph unicode="]" horiz-adv-x="751" d="M582 -205h-484v158h303v1528h-280v157h461v-1843z" />
<glyph unicode="^" horiz-adv-x="991" d="M893 909h-184l-213 389l-213 -389h-185l305 545h185z" />
<glyph unicode="_" horiz-adv-x="948" d="M948 -260h-948v158h948v-158z" />
<glyph unicode="`" horiz-adv-x="540" d="M442 1556h-174l-170 404h199z" />
<glyph unicode="a" horiz-adv-x="1167" d="M1090 125l-19 -102q-39 -39 -117 -39q-72 0 -117.5 39.5t-52.5 115.5q-49 -81 -137 -120t-194 -39q-158 0 -256.5 82.5t-98.5 222.5q0 134 93.5 206.5t263.5 100.5q93 16 142 25.5t91 21t58 24.5t24 29.5t8 42.5q0 90 -54.5 127t-162.5 37q-199 0 -340 -121h-14l-45 140 q65 51 170 88.5t241 37.5q178 0 278.5 -76t100.5 -239v-541q0 -40 15 -56.5t47 -16.5q36 0 63 20zM776 369v172q-57 -37 -256 -76q-51 -10 -83 -18t-66.5 -21.5t-53 -30t-31 -42t-12.5 -58.5q0 -79 58.5 -127.5t167.5 -48.5q71 0 131.5 25t102.5 83.5t42 141.5z" />
<glyph unicode="b" horiz-adv-x="1304" d="M287 0h-117v1434h172v-578q54 89 151.5 138.5t219.5 49.5q217 0 355 -145t138 -385q0 -242 -140 -388t-357 -146q-268 0 -383 208zM686 127q150 0 247 106.5t97 280.5q0 172 -97 277.5t-247 105.5q-149 0 -246.5 -106.5t-97.5 -276.5q0 -172 97 -279.5t247 -107.5z" />
<glyph unicode="c" horiz-adv-x="1124" d="M1014 229l-15 -159q-125 -90 -337 -90q-173 0 -301.5 69.5t-195.5 190t-67 276.5q0 235 148.5 381.5t392.5 146.5q120 0 220.5 -37t166.5 -98l-80 -116h-10q-45 47 -121.5 75.5t-161.5 28.5q-167 0 -273 -106t-106 -275q0 -172 113 -280.5t295 -108.5q188 0 317 106z" />
<glyph unicode="d" horiz-adv-x="1304" d="M1135 0h-168v158q-55 -81 -147 -129.5t-210 -48.5q-221 0 -366.5 146.5t-145.5 387.5q0 120 39.5 220.5t107.5 168t160.5 104.5t198.5 37q114 0 208 -42.5t151 -120.5v553h172v-1434zM621 127q151 0 247.5 108t96.5 283q0 174 -96.5 276.5t-245.5 102.5 q-152 0 -250.5 -105.5t-98.5 -277.5q0 -174 99 -280.5t248 -106.5z" />
<glyph unicode="e" horiz-adv-x="1185" d="M1012 236l-17 -154q-64 -50 -158.5 -76t-189.5 -26q-250 0 -399.5 153t-149.5 391q0 230 142.5 375t363.5 145q216 0 348.5 -131.5t132.5 -341.5v-108h-811q15 -154 121.5 -244t282.5 -90q85 0 172 31.5t147 79.5zM274 600h644q0 132 -83.5 214.5t-228.5 82.5 q-136 0 -227.5 -80.5t-104.5 -216.5z" />
<glyph unicode="f" horiz-adv-x="819" d="M440 0h-172v883h-190v141h190v145q0 157 79.5 232.5t219.5 75.5q99 0 174 -35v-135l-14 -7q-69 33 -143 33q-172 0 -172 -164q0 -39 12 -145h287v-141h-275q4 -62 4 -99v-784z" />
<glyph unicode="g" horiz-adv-x="1140" d="M463 221h293q140 0 213 -69.5t73 -190.5q0 -157 -123.5 -252.5t-355.5 -95.5q-119 0 -211.5 27t-146 71t-80.5 96t-27 107q0 85 55 144.5t148 80.5q-100 43 -100 140q0 96 102 153q-87 41 -133.5 114t-46.5 167q0 142 107 232t302 99l461 23v-119l-198 8 q149 -78 149 -249q0 -145 -112 -233.5t-297 -88.5q-66 0 -113 8q-68 -31 -68 -92q0 -36 28 -58t81 -22zM707 61h-328q-43 -10 -75 -46t-32 -87q0 -75 75.5 -125.5t217.5 -50.5t222.5 53t80.5 138q0 118 -161 118zM766 709q0 87 -64.5 141.5t-169.5 54.5q-104 0 -169.5 -55 t-65.5 -141q0 -85 65 -138t173 -53q105 0 168 53t63 138z" />
<glyph unicode="h" horiz-adv-x="1230" d="M1071 0h-172v645q0 121 -62.5 186.5t-191.5 65.5q-134 0 -218.5 -94.5t-84.5 -245.5v-557h-172v1434h172v-557q48 80 136 123.5t210 43.5q186 0 284.5 -94t98.5 -268v-682z" />
<glyph unicode="i" horiz-adv-x="561" d="M367 0h-172v1024h172v-1024zM391 1317q0 -47 -29.5 -78t-80.5 -31t-81 31t-30 78t30 77.5t81 30.5t80.5 -30.5t29.5 -77.5z" />
<glyph unicode="j" horiz-adv-x="737" d="M94 -403l-37 118l13 13q59 -11 86 -11q120 0 168.5 76t48.5 219v1012h172v-969q0 -242 -87 -357.5t-268 -115.5q-38 0 -96 15zM567 1317q0 -47 -29.5 -78t-80.5 -31t-81 31t-30 78t30 77.5t81 30.5t80.5 -30.5t29.5 -77.5z" />
<glyph unicode="k" horiz-adv-x="1155" d="M1051 0h-215l-355 485l-139 -131v-354h-172v1434h172v-863l485 453h230l-451 -422z" />
<glyph unicode="l" horiz-adv-x="512" d="M342 0h-172v1434h172v-1434z" />
<glyph unicode="m" horiz-adv-x="1769" d="M1671 0h-172v666q0 109 -62.5 170t-170.5 61q-115 0 -183.5 -67.5t-68.5 -190.5v-639h-172v672q0 111 -64.5 168t-169.5 57q-120 0 -193 -76.5t-73 -220.5v-600h-172v1024h168v-125q44 68 123 106.5t184 38.5q109 0 191.5 -45.5t119.5 -134.5q42 83 126.5 131.5 t207.5 48.5q171 0 276 -92.5t105 -261.5v-690z" />
<glyph unicode="n" horiz-adv-x="1230" d="M1071 0h-172v645q0 121 -62.5 186.5t-191.5 65.5q-132 0 -217.5 -92t-85.5 -230v-575h-172v1024h168v-150q46 81 136.5 125.5t213.5 44.5q186 0 284.5 -94t98.5 -268v-682z" />
<glyph unicode="o" horiz-adv-x="1261" d="M631 127q155 0 255.5 106.5t100.5 278.5t-100.5 278.5t-255.5 106.5t-256 -106.5t-101 -278.5t101 -278.5t256 -106.5zM631 -20q-233 0 -383 146.5t-150 385.5t150 385.5t383 146.5t382.5 -146.5t149.5 -385.5t-149.5 -385.5t-382.5 -146.5z" />
<glyph unicode="p" horiz-adv-x="1304" d="M342 -410h-172v1434h168v-176q50 89 151 142.5t228 53.5q213 0 351 -146.5t138 -385.5q0 -241 -140 -386.5t-359 -145.5q-117 0 -215.5 45.5t-149.5 130.5v-566zM684 129q150 0 248 104.5t98 276.5q0 174 -98 280.5t-248 106.5q-149 0 -246.5 -107.5t-97.5 -279.5 q0 -168 98 -274.5t246 -106.5z" />
<glyph unicode="q" horiz-adv-x="1304" d="M1135 -410h-172v564q-51 -85 -147.5 -129.5t-211.5 -44.5q-222 0 -364 145.5t-142 386.5q0 238 141 385t357 147q123 0 221.5 -53t149.5 -141v174h168v-1434zM618 129q149 0 247 106t98 275q0 171 -98 279t-247 108q-150 0 -247 -106.5t-97 -280.5q0 -172 97 -276.5 t247 -104.5z" />
<glyph unicode="r" horiz-adv-x="794" d="M342 0h-172v1024h166v-154q40 83 119 128.5t182 45.5q53 0 80 -10v-149l-15 -6q-40 18 -96 18q-116 0 -190 -85.5t-74 -258.5v-553z" />
<glyph unicode="s" horiz-adv-x="976" d="M98 102l54 140h10q161 -119 332 -119q97 0 154 34.5t57 100.5q0 16 -3.5 30t-13 26.5t-19 23t-28 22t-33 19.5t-41 20.5t-45 20.5t-52.5 22.5t-56 24.5q-71 32 -117.5 58.5t-86.5 62.5t-58.5 81t-18.5 103q0 132 101.5 202t267.5 70q111 0 200.5 -29.5t145.5 -72.5 l-53 -139h-13q-47 37 -120.5 66.5t-161.5 29.5q-191 0 -191 -115q0 -58 54 -93.5t220 -105.5q11 -5 17 -7q141 -59 210 -127t69 -175q0 -141 -104 -218.5t-283 -77.5q-219 0 -394 122z" />
<glyph unicode="t" horiz-adv-x="831" d="M733 154v-134q-75 -40 -196 -40q-138 0 -207.5 69t-69.5 213v621h-182v141h182v262h172v-262h266v-141h-266v-588q0 -90 33.5 -128t109.5 -38q87 0 144 35z" />
<glyph unicode="u" horiz-adv-x="1220" d="M1051 0h-168v143q-46 -76 -137 -119.5t-209 -43.5q-180 0 -278.5 94.5t-98.5 269.5v680h172v-641q0 -123 59 -188.5t180 -65.5q135 0 221.5 78t86.5 223v594h172v-1024z" />
<glyph unicode="v" horiz-adv-x="1212" d="M694 0h-176l-420 1024h181l327 -856l328 856h180z" />
<glyph unicode="w" horiz-adv-x="1720" d="M1274 0h-158l-256 803l-256 -803h-158l-348 1024h181l251 -821l252 821h156l252 -821l252 821h180z" />
<glyph unicode="x" horiz-adv-x="1167" d="M1069 0h-201l-284 406l-285 -406h-201l377 512l-373 512h201l281 -406l280 406h201l-373 -512z" />
<glyph unicode="y" horiz-adv-x="1204" d="M496 -410h-177l191 433l-412 1001h191l305 -823l334 823h178z" />
<glyph unicode="z" horiz-adv-x="1019" d="M922 0h-824v82l588 801h-545v141h774v-82l-577 -801h584v-141z" />
<glyph unicode="{" horiz-adv-x="856" d="M758 -203h-199q-131 0 -186.5 70t-55.5 215v414q0 143 -131 143h-88v156h88q131 0 131 143v414q0 145 55.5 214.5t186.5 69.5h199v-157h-162q-57 0 -77.5 -24t-20.5 -101v-412q0 -141 -113 -225q113 -84 113 -225v-412q0 -77 20.5 -101t77.5 -24h162v-158z" />
<glyph unicode="|" horiz-adv-x="520" d="M350 -205h-180v1843h180v-1843z" />
<glyph unicode="}" horiz-adv-x="856" d="M297 -203h-199v158h162q57 0 77.5 24t20.5 101v412q0 141 113 225q-113 84 -113 225v412q0 77 -20.5 101t-77.5 24h-162v157h199q131 0 186.5 -69.5t55.5 -214.5v-414q0 -143 131 -143h88v-156h-88q-131 0 -131 -143v-414q0 -145 -55.5 -215t-186.5 -70z" />
<glyph unicode="~" horiz-adv-x="1189" d="M1092 858l-15 -186q-85 -94 -225 -94q-52 0 -114.5 21t-110 45.5t-103 45.5t-96.5 21q-141 0 -240 -119h-10l-80 145q125 150 301 150q54 0 117.5 -21t113 -45.5t110.5 -45.5t108 -21q144 0 229 108z" />
<glyph horiz-adv-x="1024" />
<glyph unicode="&#xa1;" horiz-adv-x="593" d="M211 655h172v-1065h-172v1065zM424 920q0 -52 -37 -88.5t-90 -36.5q-55 0 -91 36t-36 89q0 52 36 88t91 36q52 0 89.5 -36.5t37.5 -87.5z" />
<glyph unicode="&#xa2;" horiz-adv-x="1124" d="M725 -205h-176v193q-211 32 -331 175t-120 353q0 211 122 352.5t329 169.5v191h176v-191q180 -20 301 -129l-80 -116h-10q-76 76 -211 98v-764q160 11 274 106l15 -4l-15 -159q-103 -75 -274 -88v-187zM549 143v742q-126 -31 -200.5 -130t-74.5 -239q0 -138 73.5 -238 t201.5 -135z" />
<glyph unicode="&#xa3;" horiz-adv-x="972" d="M874 0h-776v141h119q92 89 92 312v307h-190v141h190v248q0 82 28 146.5t75.5 103t108 58.5t128.5 20q99 0 174 -35v-135l-14 -7q-69 33 -143 33q-84 0 -134.5 -47.5t-50.5 -136.5v-248h291v-141h-291v-301q0 -108 -18.5 -182t-63.5 -136h475v-141z" />
<glyph unicode="&#xa4;" horiz-adv-x="1232" d="M616 313q103 0 173.5 71.5t70.5 174.5q0 104 -71 176t-173 72q-103 0 -173 -72t-70 -176q0 -103 70.5 -174.5t172.5 -71.5zM1032 100l-180 140q-98 -76 -236 -76q-137 0 -235 76l-180 -140l-101 125l174 129q-63 85 -63 205q0 122 61 205l-174 129l105 129l178 -143 q93 75 235 75q143 0 236 -75l178 143l105 -129l-174 -129q61 -83 61 -205q0 -118 -64 -205l175 -129z" />
<glyph unicode="&#xa5;" horiz-adv-x="1460" d="M1151 170h-330v-170h-180v170h-330v147h330v121h-330v148h305l-518 848h199l434 -727l432 727h199l-520 -848h309v-148h-330v-121h330v-147z" />
<glyph unicode="&#xa6;" horiz-adv-x="520" d="M350 897h-180v741h180v-741zM350 -205h-180v742h180v-742z" />
<glyph unicode="&#xa7;" horiz-adv-x="1245" d="M98 -209l72 148h16q85 -63 211 -115.5t269 -52.5q137 0 217 56.5t80 168.5q0 50 -18.5 90.5t-48.5 68t-78.5 52.5t-97 43t-115.5 41q-13 4 -19 6q-78 26 -135 50.5t-117.5 62t-99 80t-63 103t-24.5 132.5q0 103 48 182q-48 76 -48 183q0 172 127.5 268t354.5 96 q165 0 285 -46.5t192 -107.5l-68 -139h-16q-60 54 -157 94.5t-230 40.5q-141 0 -222 -51t-81 -147q0 -38 12 -70t40.5 -59.5t58.5 -49t84.5 -46.5t97.5 -42t118 -45q59 -22 92 -35.5t82.5 -37t77.5 -43.5t61 -51.5t50 -65t29 -79t12 -99.5q0 -108 -43 -187q43 -78 43 -178 q0 -187 -127.5 -292t-362.5 -105q-300 0 -559 178zM967 315q4 24 4 50q0 28 -5 52t-11.5 43t-21.5 36.5t-27 30t-36 26t-41 22t-49.5 21t-53 20t-61.5 21t-65 22.5q-161 58 -270 127q-6 -24 -6 -57q0 -102 90 -166q62 -45 242 -112l42 -15l1 -1h1l1 -1h1h1l1 -1h1h1l1 -1h1 l1 -1h1h1l1 -1h1q175 -66 254 -115z" />
<glyph unicode="&#xa8;" horiz-adv-x="937" d="M352 1729q0 -54 -34.5 -89.5t-92.5 -35.5q-60 0 -93.5 35.5t-33.5 89.5t33.5 89t93.5 35q59 0 93 -35t34 -89zM840 1729q0 -54 -34.5 -89.5t-92.5 -35.5q-60 0 -93.5 35.5t-33.5 89.5t33.5 89t93.5 35q59 0 93 -35t34 -89z" />
<glyph unicode="&#xa9;" horiz-adv-x="1675" d="M838 -20q-212 0 -380.5 93.5t-264 262.5t-95.5 383t95.5 382t264 260.5t380.5 92.5t380.5 -92.5t263.5 -260.5t95 -382t-95 -383t-263.5 -262.5t-380.5 -93.5zM838 129q118 0 222 42.5t179.5 118t119.5 186.5t44 243q0 131 -44 242t-119.5 186t-179.5 116.5t-222 41.5 t-222 -41.5t-180 -116.5t-120 -186t-44 -242q0 -175 75.5 -310.5t204 -207.5t286.5 -72zM1194 463l-14 -152q-114 -82 -306 -82q-232 0 -361.5 134.5t-129.5 351.5q0 214 126.5 345.5t344.5 131.5q109 0 200 -33.5t150 -89.5l-74 -113h-10q-41 42 -109 68.5t-143 26.5 q-163 0 -240 -88.5t-77 -247.5q0 -161 85 -252.5t257 -91.5t287 96z" />
<glyph unicode="&#xaa;" horiz-adv-x="884" d="M786 848l-12 -90q-40 -27 -92 -27q-42 0 -73 31t-31 76q-33 -55 -99 -81t-141 -26q-103 0 -171.5 56t-68.5 151q0 94 60.5 146t183.5 73q141 24 180 39t39 57q0 86 -149 86q-128 0 -219 -79h-9l-43 108q40 33 117 59.5t162 26.5q127 0 200.5 -54.5t73.5 -160.5v-346 q0 -28 10 -39.5t33 -11.5q25 0 41 16zM559 1020v88q-40 -30 -176 -53q-79 -13 -113 -35.5t-34 -73.5q0 -104 137 -104q75 0 130.5 48t55.5 130z" />
<glyph unicode="&#xab;" horiz-adv-x="1232" d="M573 227l-475 404v61l475 404l97 -123l-365 -311l365 -312zM1038 227l-475 404v61l475 404l97 -123l-365 -311l365 -312z" />
<glyph unicode="&#xac;" horiz-adv-x="1017" d="M920 367h-181v270h-641v158h822v-428z" />
<glyph unicode="&#xad;" horiz-adv-x="940" d="M842 637h-744v158h744v-158z" />
<glyph unicode="&#xae;" horiz-adv-x="1675" d="M838 -20q-212 0 -380.5 93.5t-264 262.5t-95.5 383t95.5 382t264 260.5t380.5 92.5t380.5 -92.5t263.5 -260.5t95 -382t-95 -383t-263.5 -262.5t-380.5 -93.5zM838 129q118 0 222 42.5t179.5 118t119.5 186.5t44 243q0 131 -44 242t-119.5 186t-179.5 116.5t-222 41.5 t-222 -41.5t-180 -116.5t-120 -186t-44 -242q0 -175 75.5 -310.5t204 -207.5t286.5 -72zM1212 291h-157l-256 364h-148v-383h-135v918h358q154 0 233 -69.5t79 -196.5q0 -116 -65 -187t-175 -82zM651 770h203q107 0 148.5 38t41.5 118q0 78 -40.5 111.5t-149.5 33.5h-203 v-301z" />
<glyph unicode="&#xaf;" horiz-adv-x="878" d="M780 1647h-682v155h682v-155z" />
<glyph unicode="&#xb0;" horiz-adv-x="759" d="M662 1171q0 -126 -80 -202t-205 -76q-122 0 -200.5 76t-78.5 202q0 127 78.5 205t200.5 78q126 0 205.5 -77.5t79.5 -205.5zM377 1028q62 0 101.5 38.5t39.5 104.5q0 69 -39.5 108.5t-101.5 39.5q-57 0 -97 -40t-40 -108q0 -65 40 -104t97 -39z" />
<glyph unicode="&#xb1;" horiz-adv-x="1056" d="M958 549h-340v-326h-180v326h-340v158h340v325h180v-325h340v-158zM958 0h-860v158h860v-158z" />
<glyph unicode="&#xb2;" horiz-adv-x="698" d="M600 1024h-502v119l174 157q8 7 32.5 28.5t34 30.5t29 28t28.5 32t20 30.5t15.5 34.5t4.5 34q0 47 -29 72.5t-83 25.5q-79 0 -152 -64h-8l-64 105q32 28 95 52t137 24q117 0 182.5 -57t65.5 -152q0 -71 -35 -126.5t-107 -119.5l-143 -127h305v-127z" />
<glyph unicode="&#xb3;" horiz-adv-x="706" d="M338 1317h-96v117h96q68 0 94.5 21t26.5 71q0 47 -31 68.5t-96 21.5q-106 0 -185 -64h-6l-32 107q84 74 227 74q132 0 198 -57t66 -140q0 -109 -98 -162q55 -20 80.5 -59.5t25.5 -102.5q0 -87 -68.5 -140.5t-209.5 -53.5q-133 0 -226 67l-6 117l8 2q44 -35 103 -52 t113 -17q80 0 112.5 24.5t32.5 71.5q0 46 -29.5 66t-99.5 20z" />
<glyph unicode="&#xb4;" horiz-adv-x="540" d="M272 1556h-174l146 404h198z" />
<glyph unicode="&#xb5;" horiz-adv-x="1230" d="M1061 0h-168v143q-46 -76 -137 -119.5t-209 -43.5q-58 0 -112 20.5t-91 52.5v-440h-174v1411h174v-641q0 -254 238 -254q135 0 220 78t85 223v594h174v-1024z" />
<glyph unicode="&#xb6;" horiz-adv-x="1380" d="M1210 -387h-180v1663h-362v-1663h-181v1049h-36q-62 0 -122.5 23t-113 67.5t-85 120.5t-32.5 171q0 75 21.5 140t57 110t82 77.5t95.5 47.5t97 15h759v-1821z" />
<glyph unicode="&#xb7;" horiz-adv-x="438" d="M340 733q0 -48 -36 -83.5t-85 -35.5q-51 0 -86 35.5t-35 83.5q0 50 34.5 84.5t86.5 34.5q50 0 85.5 -35t35.5 -84z" />
<glyph unicode="&#xb8;" horiz-adv-x="632" d="M109 -467l-11 117l11 2q79 -47 180 -47q57 0 87 23.5t30 66.5t-34 62.5t-104 19.5h-96l74 223h149l-41 -125q85 -5 133 -50.5t48 -129.5q0 -97 -65 -152t-165 -55q-115 0 -196 45z" />
<glyph unicode="&#xb9;" horiz-adv-x="643" d="M449 1024h-156v528l-166 -55l-49 133l371 111v-717z" />
<glyph unicode="&#xba;" horiz-adv-x="923" d="M461 731q-158 0 -260.5 100t-102.5 265q0 162 102 261t261 99q160 0 262 -99t102 -261q0 -165 -102.5 -265t-261.5 -100zM463 850q97 0 161 67.5t64 178.5q0 108 -64 174.5t-161 66.5q-98 0 -162.5 -66.5t-64.5 -174.5q0 -111 64.5 -178.5t162.5 -67.5z" />
<glyph unicode="&#xbb;" horiz-adv-x="1232" d="M1135 631l-476 -404l-96 123l365 312l-365 311l96 123l476 -404v-61zM670 631l-475 -404l-97 123l365 312l-365 311l97 123l475 -404v-61z" />
<glyph unicode="&#xbc;" horiz-adv-x="1441" d="M324 -20h-195l1040 1474h195zM479 717h-160v524l-161 -55l-49 137l370 111v-717zM1231 0h-131v168h-355v119l355 430h131v-430h108v-119h-108v-168zM1100 287v241l-195 -241h195z" />
<glyph unicode="&#xbd;" horiz-adv-x="1466" d="M479 717h-160v524l-161 -55l-49 137l370 111v-717zM1368 0h-502v119l174 157q8 7 32.5 28.5t34 30.5t29 28t28.5 32t20 30.5t15.5 34.5t4.5 34q0 47 -29 72.5t-83 25.5q-79 0 -152 -64h-8l-64 105q32 28 95 52t137 24q117 0 182.5 -57t65.5 -152q0 -71 -35 -126.5 t-107 -119.5l-143 -127h305v-127zM303 -20h-194l1040 1474h194z" />
<glyph unicode="&#xbe;" horiz-adv-x="1462" d="M1251 0h-131v168h-354v119l354 430h131v-430h109v-119h-109v-168zM338 1038h-96v117h96q69 0 97 21t28 71q0 90 -131 90q-111 0 -189 -63h-6l-33 106q84 74 232 74q132 0 200 -57.5t68 -139.5q0 -106 -102 -161q55 -20 80.5 -59.5t25.5 -102.5q0 -87 -68.5 -141 t-209.5 -54q-132 0 -226 68l-6 117l8 2q44 -35 103.5 -52.5t112.5 -17.5q80 0 112.5 24.5t32.5 71.5q0 46 -29.5 66t-99.5 20zM1120 287v241l-194 -241h194zM344 -20h-194l1040 1474h194z" />
<glyph unicode="&#xbf;" horiz-adv-x="1148" d="M510 655h172v-104q0 -83 -22 -143t-61.5 -103.5t-111.5 -95.5q-93 -67 -134 -104.5t-62 -79.5t-21 -101q0 -96 79 -146t220 -50q235 0 385 135h17l67 -139q-72 -61 -191 -107.5t-284 -46.5q-227 0 -352 95t-125 267q0 58 16 106.5t52.5 94.5t81.5 85.5t116 92.5 q68 50 96.5 77.5t45 67.5t16.5 101v98zM469 920q0 51 37.5 87.5t89.5 36.5q55 0 91 -36t36 -88q0 -53 -36 -89t-91 -36q-53 0 -90 36.5t-37 88.5z" />
<glyph unicode="&#xc0;" horiz-adv-x="1560" d="M1462 0h-192l-146 373h-688l-145 -373h-193l578 1434h209zM1065 524l-285 721l-284 -721h569zM860 1556h-174l-170 404h199z" />
<glyph unicode="&#xc1;" horiz-adv-x="1560" d="M1462 0h-192l-146 373h-688l-145 -373h-193l578 1434h209zM1065 524l-285 721l-284 -721h569zM882 1556h-174l146 404h198z" />
<glyph unicode="&#xc2;" horiz-adv-x="1560" d="M1462 0h-192l-146 373h-688l-145 -373h-193l578 1434h209zM1065 524l-285 721l-284 -721h569zM1178 1556h-199l-198 287l-199 -287h-199l305 406h185z" />
<glyph unicode="&#xc3;" horiz-adv-x="1560" d="M1462 0h-192l-146 373h-688l-145 -373h-193l578 1434h209zM1065 524l-285 721l-284 -721h569zM1167 1778l-14 -158q-67 -74 -154 -74q-65 0 -175 46t-156 46q-57 0 -97.5 -23t-81.5 -75h-10l-80 117q45 60 109.5 94.5t126.5 34.5q61 0 124.5 -23t121.5 -46t106 -23 q50 0 84.5 18t81.5 70z" />
<glyph unicode="&#xc4;" horiz-adv-x="1560" d="M1462 0h-192l-146 373h-688l-145 -373h-193l578 1434h209zM1065 524l-285 721l-284 -721h569zM663 1672q0 -54 -34.5 -89.5t-92.5 -35.5q-60 0 -93.5 35.5t-33.5 89.5t33.5 89t93.5 35q59 0 93 -35t34 -89zM1151 1672q0 -54 -34.5 -89.5t-92.5 -35.5q-60 0 -93.5 35.5 t-33.5 89.5t33.5 89t93.5 35q59 0 93 -35t34 -89z" />
<glyph unicode="&#xc5;" horiz-adv-x="1560" d="M1462 0h-192l-146 373h-688l-145 -373h-193l578 1434h209zM1065 524l-285 721l-284 -721h569zM1040 1749q0 -116 -73.5 -186t-188.5 -70q-112 0 -184 70.5t-72 185.5q0 117 72 188.5t184 71.5q116 0 189 -71t73 -189zM778 1618q57 0 94 35.5t37 95.5q0 63 -37 99t-94 36 q-52 0 -89.5 -36.5t-37.5 -98.5q0 -59 37.5 -95t89.5 -36z" />
<glyph unicode="&#xc6;" horiz-adv-x="1904" d="M1806 0h-872v373h-498l-145 -373h-193l578 1434h1108v-158h-670v-481h627v-156h-627v-481h692v-158zM934 524v781h-129l-309 -781h438z" />
<glyph unicode="&#xc7;" horiz-adv-x="1507" d="M1378 305l-12 -160q-91 -78 -217 -120t-270 -45l-33 -105q85 -5 132.5 -50.5t47.5 -129.5q0 -97 -64.5 -152t-164.5 -55q-116 0 -197 45l-10 117l10 2q79 -47 180 -47q57 0 87 23.5t30 66.5q0 44 -33.5 63t-103.5 19h-96l69 211q-289 37 -462 235.5t-173 493.5 q0 162 55 299.5t152.5 233.5t235 150t297.5 54q183 0 333 -68t238 -184l-98 -108h-21q-69 94 -185 147t-255 53q-160 0 -288 -69t-203.5 -201t-75.5 -305q0 -258 162 -419t425 -161q139 0 269 45t223 125z" />
<glyph unicode="&#xc8;" horiz-adv-x="1243" d="M1145 0h-975v1434h952v-158h-772v-481h729v-156h-729v-481h795v-158zM813 1556h-174l-170 404h199z" />
<glyph unicode="&#xc9;" horiz-adv-x="1243" d="M1145 0h-975v1434h952v-158h-772v-481h729v-156h-729v-481h795v-158zM684 1556h-174l145 404h199z" />
<glyph unicode="&#xca;" horiz-adv-x="1243" d="M1145 0h-975v1434h952v-158h-772v-481h729v-156h-729v-481h795v-158zM1059 1556h-199l-198 287l-199 -287h-199l305 406h185z" />
<glyph unicode="&#xcb;" horiz-adv-x="1243" d="M1145 0h-975v1434h952v-158h-772v-481h729v-156h-729v-481h795v-158zM524 1671q0 -54 -34.5 -89.5t-92.5 -35.5q-60 0 -93.5 35.5t-33.5 89.5t33.5 89.5t93.5 35.5q58 0 92.5 -35.5t34.5 -89.5zM1012 1671q0 -54 -34.5 -89.5t-92.5 -35.5q-60 0 -93.5 35.5t-33.5 89.5 t33.5 89.5t93.5 35.5q58 0 92.5 -35.5t34.5 -89.5z" />
<glyph unicode="&#xcc;" horiz-adv-x="552" d="M367 0h-181v1434h181v-1434zM358 1556h-174l-170 404h199z" />
<glyph unicode="&#xcd;" horiz-adv-x="552" d="M367 0h-181v1434h181v-1434zM365 1556h-175l146 404h199z" />
<glyph unicode="&#xce;" horiz-adv-x="552" d="M367 0h-181v1434h181v-1434zM674 1556h-199l-199 287l-198 -287h-199l305 406h185z" />
<glyph unicode="&#xcf;" horiz-adv-x="552" d="M367 0h-181v1434h181v-1434zM160 1671q0 -54 -34.5 -89.5t-92.5 -35.5q-60 0 -93.5 35.5t-33.5 89.5t33.5 89.5t93.5 35.5q58 0 92.5 -35.5t34.5 -89.5zM647 1671q0 -54 -34.5 -89.5t-92.5 -35.5q-60 0 -93.5 35.5t-33.5 89.5t33.5 89.5t93.5 35.5q58 0 92.5 -35.5 t34.5 -89.5z" />
<glyph unicode="&#xd0;" horiz-adv-x="1617" d="M780 0h-528v639h-174v156h174v639h528q215 0 383.5 -89.5t262.5 -252.5t94 -373t-94 -374t-262.5 -254.5t-383.5 -90.5zM430 156h324q260 0 420.5 152.5t160.5 408.5t-160.5 408.5t-420.5 152.5h-324v-483h391v-156h-391v-483z" />
<glyph unicode="&#xd1;" horiz-adv-x="1564" d="M1395 0h-168l-877 1151v-1151h-180v1434h166l878 -1149v1149h181v-1434zM1153 1784l-14 -158q-66 -73 -154 -73q-65 0 -175 46t-156 46q-57 0 -97.5 -23t-81.5 -76h-10l-80 117q45 60 109.5 94.5t126.5 34.5q61 0 124.5 -23t121.5 -46t106 -23q50 0 84.5 18t81.5 70z" />
<glyph unicode="&#xd2;" horiz-adv-x="1675" d="M1577 717q0 -214 -95 -382.5t-263.5 -261.5t-380.5 -93t-380.5 93t-264 261.5t-95.5 382.5t95.5 382.5t264 261.5t380.5 93t380.5 -93t263.5 -261.5t95 -382.5zM838 139q116 0 218 41.5t176.5 115.5t117.5 183t43 238t-43 238t-117.5 183t-176.5 115t-218 41t-218 -41 t-176.5 -115t-117.5 -183t-43 -238t43 -238t117.5 -183t176.5 -115.5t218 -41.5zM940 1556h-174l-170 404h199z" />
<glyph unicode="&#xd3;" horiz-adv-x="1675" d="M1577 717q0 -214 -95 -382.5t-263.5 -261.5t-380.5 -93t-380.5 93t-264 261.5t-95.5 382.5t95.5 382.5t264 261.5t380.5 93t380.5 -93t263.5 -261.5t95 -382.5zM838 139q116 0 218 41.5t176.5 115.5t117.5 183t43 238t-43 238t-117.5 183t-176.5 115t-218 41t-218 -41 t-176.5 -115t-117.5 -183t-43 -238t43 -238t117.5 -183t176.5 -115.5t218 -41.5zM924 1556h-174l145 404h199z" />
<glyph unicode="&#xd4;" horiz-adv-x="1675" d="M1577 717q0 -214 -95 -382.5t-263.5 -261.5t-380.5 -93t-380.5 93t-264 261.5t-95.5 382.5t95.5 382.5t264 261.5t380.5 93t380.5 -93t263.5 -261.5t95 -382.5zM838 139q116 0 218 41.5t176.5 115.5t117.5 183t43 238t-43 238t-117.5 183t-176.5 115t-218 41t-218 -41 t-176.5 -115t-117.5 -183t-43 -238t43 -238t117.5 -183t176.5 -115.5t218 -41.5zM1235 1556h-199l-198 287l-199 -287h-199l305 406h185z" />
<glyph unicode="&#xd5;" horiz-adv-x="1675" d="M1577 717q0 -214 -95 -382.5t-263.5 -261.5t-380.5 -93t-380.5 93t-264 261.5t-95.5 382.5t95.5 382.5t264 261.5t380.5 93t380.5 -93t263.5 -261.5t95 -382.5zM838 139q116 0 218 41.5t176.5 115.5t117.5 183t43 238t-43 238t-117.5 183t-176.5 115t-218 41t-218 -41 t-176.5 -115t-117.5 -183t-43 -238t43 -238t117.5 -183t176.5 -115.5t218 -41.5zM1222 1784l-14 -158q-66 -73 -154 -73q-65 0 -175 46t-156 46q-57 0 -97.5 -23t-81.5 -76h-10l-80 117q45 60 109.5 94.5t126.5 34.5q61 0 124.5 -23t121.5 -46t106 -23q50 0 84.5 18t81.5 70 z" />
<glyph unicode="&#xd6;" horiz-adv-x="1675" d="M1577 717q0 -214 -95 -382.5t-263.5 -261.5t-380.5 -93t-380.5 93t-264 261.5t-95.5 382.5t95.5 382.5t264 261.5t380.5 93t380.5 -93t263.5 -261.5t95 -382.5zM838 139q116 0 218 41.5t176.5 115.5t117.5 183t43 238t-43 238t-117.5 183t-176.5 115t-218 41t-218 -41 t-176.5 -115t-117.5 -183t-43 -238t43 -238t117.5 -183t176.5 -115.5t218 -41.5zM721 1671q0 -54 -34.5 -89.5t-92.5 -35.5q-60 0 -93.5 35.5t-33.5 89.5t33.5 89.5t93.5 35.5q58 0 92.5 -35.5t34.5 -89.5zM1208 1671q0 -54 -34.5 -89.5t-92.5 -35.5q-60 0 -93.5 35.5 t-33.5 89.5t33.5 89.5t93.5 35.5q58 0 92.5 -35.5t34.5 -89.5z" />
<glyph unicode="&#xd7;" horiz-adv-x="1056" d="M803 223l-275 275l-274 -275l-119 119l275 274l-275 275l119 119l274 -275l275 275l119 -119l-275 -275l275 -274z" />
<glyph unicode="&#xd8;" horiz-adv-x="1675" d="M569 -133h-184l84 199q-173 92 -272 262t-99 389q0 214 95.5 382.5t264 261.5t380.5 93q102 0 213 -27l47 107h184l-74 -170q172 -92 270.5 -261.5t98.5 -385.5q0 -214 -95 -382.5t-263.5 -261.5t-380.5 -93q-110 0 -209 24zM537 221l450 1055q-70 18 -149 18 q-116 0 -218 -41t-176.5 -115t-117.5 -183t-43 -238q0 -166 67.5 -294t186.5 -202zM1143 1208l-451 -1052q80 -17 146 -17q116 0 218 41.5t176.5 115.5t117.5 183t43 238q0 164 -66.5 290.5t-183.5 200.5z" />
<glyph unicode="&#xd9;" horiz-adv-x="1538" d="M1198 553v881h180v-871q0 -140 -45.5 -251.5t-127.5 -183.5t-193 -110t-244 -38q-132 0 -243 38t-192.5 110t-127 183.5t-45.5 251.5v871h180v-881q0 -197 117 -305.5t311 -108.5q195 0 312.5 108.5t117.5 305.5zM868 1556h-174l-170 404h199z" />
<glyph unicode="&#xda;" horiz-adv-x="1538" d="M1198 553v881h180v-871q0 -140 -45.5 -251.5t-127.5 -183.5t-193 -110t-244 -38q-132 0 -243 38t-192.5 110t-127 183.5t-45.5 251.5v871h180v-881q0 -197 117 -305.5t311 -108.5q195 0 312.5 108.5t117.5 305.5zM840 1556h-174l145 404h199z" />
<glyph unicode="&#xdb;" horiz-adv-x="1538" d="M1198 553v881h180v-871q0 -140 -45.5 -251.5t-127.5 -183.5t-193 -110t-244 -38q-132 0 -243 38t-192.5 110t-127 183.5t-45.5 251.5v871h180v-881q0 -197 117 -305.5t311 -108.5q195 0 312.5 108.5t117.5 305.5zM1165 1556h-198l-199 287l-199 -287h-198l305 406h184z " />
<glyph unicode="&#xdc;" horiz-adv-x="1538" d="M1198 553v881h180v-871q0 -140 -45.5 -251.5t-127.5 -183.5t-193 -110t-244 -38q-132 0 -243 38t-192.5 110t-127 183.5t-45.5 251.5v871h180v-881q0 -197 117 -305.5t311 -108.5q195 0 312.5 108.5t117.5 305.5zM651 1671q0 -54 -34.5 -89.5t-92.5 -35.5 q-60 0 -93.5 35.5t-33.5 89.5t33.5 89.5t93.5 35.5q58 0 92.5 -35.5t34.5 -89.5zM1139 1671q0 -54 -34.5 -89.5t-92.5 -35.5q-60 0 -93.5 35.5t-33.5 89.5t33.5 89.5t93.5 35.5q58 0 92.5 -35.5t34.5 -89.5z" />
<glyph unicode="&#xdd;" horiz-adv-x="1462" d="M821 0h-180v547l-543 887h199l434 -727l434 727h199l-543 -887v-547zM792 1556h-174l146 404h198z" />
<glyph unicode="&#xde;" horiz-adv-x="1320" d="M702 266h-354v-266h-178v1434h178v-267h354q239 0 380 -124t141 -324q0 -207 -140.5 -330t-380.5 -123zM348 420h328q171 0 266.5 78.5t95.5 220.5q0 139 -96 217t-266 78h-328v-594z" />
<glyph unicode="&#xdf;" horiz-adv-x="1320" d="M444 70l-14 159l14 4q57 -47 146.5 -76.5t181.5 -29.5q140 0 203 73t63 212q0 129 -89.5 194.5t-233.5 65.5h-172v151h131q135 0 211 61t76 173q0 60 -14.5 105.5t-48 83t-96.5 57.5t-153 20q-151 0 -231 -81.5t-80 -209.5v-1032h-178v1036q0 90 29.5 167.5t87 139.5 t153.5 98t219 36q124 0 220 -32t155 -88t89 -127.5t30 -154.5q0 -113 -55.5 -195.5t-161.5 -123.5q141 -38 219 -132t78 -227q0 -195 -108 -306t-322 -111q-97 0 -193.5 23.5t-155.5 66.5z" />
<glyph unicode="&#xe0;" horiz-adv-x="1167" d="M1090 125l-19 -102q-39 -39 -117 -39q-72 0 -117.5 39.5t-52.5 115.5q-49 -81 -137 -120t-194 -39q-158 0 -256.5 82.5t-98.5 222.5q0 134 93.5 206.5t263.5 100.5q93 16 142 25.5t91 21t58 24.5t24 29.5t8 42.5q0 90 -54.5 127t-162.5 37q-199 0 -340 -121h-14l-45 140 q65 51 170 88.5t241 37.5q178 0 278.5 -76t100.5 -239v-541q0 -40 15 -56.5t47 -16.5q36 0 63 20zM776 369v172q-57 -37 -256 -76q-51 -10 -83 -18t-66.5 -21.5t-53 -30t-31 -42t-12.5 -58.5q0 -79 58.5 -127.5t167.5 -48.5q71 0 131.5 25t102.5 83.5t42 141.5zM686 1146 h-174l-170 404h199z" />
<glyph unicode="&#xe1;" horiz-adv-x="1167" d="M1090 125l-19 -102q-39 -39 -117 -39q-72 0 -117.5 39.5t-52.5 115.5q-49 -81 -137 -120t-194 -39q-158 0 -256.5 82.5t-98.5 222.5q0 134 93.5 206.5t263.5 100.5q93 16 142 25.5t91 21t58 24.5t24 29.5t8 42.5q0 90 -54.5 127t-162.5 37q-199 0 -340 -121h-14l-45 140 q65 51 170 88.5t241 37.5q178 0 278.5 -76t100.5 -239v-541q0 -40 15 -56.5t47 -16.5q36 0 63 20zM776 369v172q-57 -37 -256 -76q-51 -10 -83 -18t-66.5 -21.5t-53 -30t-31 -42t-12.5 -58.5q0 -79 58.5 -127.5t167.5 -48.5q71 0 131.5 25t102.5 83.5t42 141.5zM653 1147 h-174l146 403h198z" />
<glyph unicode="&#xe2;" horiz-adv-x="1167" d="M1090 125l-19 -102q-39 -39 -117 -39q-72 0 -117.5 39.5t-52.5 115.5q-49 -81 -137 -120t-194 -39q-158 0 -256.5 82.5t-98.5 222.5q0 134 93.5 206.5t263.5 100.5q93 16 142 25.5t91 21t58 24.5t24 29.5t8 42.5q0 90 -54.5 127t-162.5 37q-199 0 -340 -121h-14l-45 140 q65 51 170 88.5t241 37.5q178 0 278.5 -76t100.5 -239v-541q0 -40 15 -56.5t47 -16.5q36 0 63 20zM776 369v172q-57 -37 -256 -76q-51 -10 -83 -18t-66.5 -21.5t-53 -30t-31 -42t-12.5 -58.5q0 -79 58.5 -127.5t167.5 -48.5q71 0 131.5 25t102.5 83.5t42 141.5zM967 1147 h-199l-199 287l-198 -287h-199l305 405h185z" />
<glyph unicode="&#xe3;" horiz-adv-x="1167" d="M1090 125l-19 -102q-39 -39 -117 -39q-72 0 -117.5 39.5t-52.5 115.5q-49 -81 -137 -120t-194 -39q-158 0 -256.5 82.5t-98.5 222.5q0 134 93.5 206.5t263.5 100.5q93 16 142 25.5t91 21t58 24.5t24 29.5t8 42.5q0 90 -54.5 127t-162.5 37q-199 0 -340 -121h-14l-45 140 q65 51 170 88.5t241 37.5q178 0 278.5 -76t100.5 -239v-541q0 -40 15 -56.5t47 -16.5q36 0 63 20zM776 369v172q-57 -37 -256 -76q-51 -10 -83 -18t-66.5 -21.5t-53 -30t-31 -42t-12.5 -58.5q0 -79 58.5 -127.5t167.5 -48.5q71 0 131.5 25t102.5 83.5t42 141.5zM936 1374 l-14 -157q-67 -74 -154 -74q-65 0 -175.5 46t-156.5 46q-57 0 -97 -23t-81 -75h-10l-80 116q45 60 109 94.5t126 34.5q61 0 125 -23t122 -46t106 -23q50 0 84.5 18t81.5 70z" />
<glyph unicode="&#xe4;" horiz-adv-x="1167" d="M1090 125l-19 -102q-39 -39 -117 -39q-72 0 -117.5 39.5t-52.5 115.5q-49 -81 -137 -120t-194 -39q-158 0 -256.5 82.5t-98.5 222.5q0 134 93.5 206.5t263.5 100.5q93 16 142 25.5t91 21t58 24.5t24 29.5t8 42.5q0 90 -54.5 127t-162.5 37q-199 0 -340 -121h-14l-45 140 q65 51 170 88.5t241 37.5q178 0 278.5 -76t100.5 -239v-541q0 -40 15 -56.5t47 -16.5q36 0 63 20zM776 369v172q-57 -37 -256 -76q-51 -10 -83 -18t-66.5 -21.5t-53 -30t-31 -42t-12.5 -58.5q0 -79 58.5 -127.5t167.5 -48.5q71 0 131.5 25t102.5 83.5t42 141.5zM428 1262 q0 -54 -34.5 -89.5t-92.5 -35.5q-60 0 -93.5 35.5t-33.5 89.5t33.5 89t93.5 35q59 0 93 -35t34 -89zM916 1262q0 -54 -34.5 -89.5t-92.5 -35.5q-60 0 -93.5 35.5t-33.5 89.5t33.5 89t93.5 35q59 0 93 -35t34 -89z" />
<glyph unicode="&#xe5;" horiz-adv-x="1167" d="M1090 125l-19 -102q-39 -39 -117 -39q-72 0 -117.5 39.5t-52.5 115.5q-49 -81 -137 -120t-194 -39q-158 0 -256.5 82.5t-98.5 222.5q0 134 93.5 206.5t263.5 100.5q93 16 142 25.5t91 21t58 24.5t24 29.5t8 42.5q0 90 -54.5 127t-162.5 37q-199 0 -340 -121h-14l-45 140 q65 51 170 88.5t241 37.5q178 0 278.5 -76t100.5 -239v-541q0 -40 15 -56.5t47 -16.5q36 0 63 20zM776 369v172q-57 -37 -256 -76q-51 -10 -83 -18t-66.5 -21.5t-53 -30t-31 -42t-12.5 -58.5q0 -79 58.5 -127.5t167.5 -48.5q71 0 131.5 25t102.5 83.5t42 141.5zM840 1382 q0 -116 -73.5 -186t-188.5 -70q-112 0 -184 70.5t-72 185.5q0 117 72 188.5t184 71.5q116 0 189 -71t73 -189zM578 1251q57 0 94 35.5t37 95.5q0 63 -37 99.5t-94 36.5q-52 0 -89.5 -37t-37.5 -99q0 -59 37.5 -95t89.5 -36z" />
<glyph unicode="&#xe6;" horiz-adv-x="1845" d="M1671 236l-16 -154q-64 -50 -158.5 -76t-189.5 -26q-143 0 -253 55.5t-177 148.5q-34 -50 -68 -84.5t-82 -63t-113.5 -42.5t-150.5 -14q-165 0 -265 82t-100 223q0 134 93.5 206.5t263.5 100.5q93 16 142 25.5t91 21t58 24.5t24 29.5t8 42.5q0 90 -54.5 127t-162.5 37 q-199 0 -340 -121h-14l-45 140q65 51 170 88.5t241 37.5q119 0 196 -39.5t122 -119.5q69 74 166 116.5t207 42.5q216 0 348.5 -131.5t132.5 -341.5v-108h-811q15 -155 119 -244.5t284 -89.5q85 0 173 31.5t147 79.5zM934 600h643q0 132 -83 214.5t-228 82.5 q-136 0 -227.5 -80.5t-104.5 -216.5zM776 369v172q-57 -37 -256 -76q-51 -10 -83 -18t-66.5 -21.5t-53 -30t-31 -42t-12.5 -58.5q0 -79 58.5 -127.5t167.5 -48.5q71 0 131.5 25t102.5 83.5t42 141.5z" />
<glyph unicode="&#xe7;" horiz-adv-x="1124" d="M414 -467l-11 117l11 2q79 -47 180 -47q57 0 87 23.5t30 66.5t-34 62.5t-104 19.5h-96l70 211q-210 32 -329.5 175t-119.5 353q0 235 148.5 381.5t392.5 146.5q120 0 220.5 -37t166.5 -98l-80 -116h-10q-45 47 -121.5 75.5t-161.5 28.5q-167 0 -273 -106t-106 -275 q0 -172 113 -280.5t295 -108.5q188 0 317 106l15 -4l-15 -159q-111 -80 -305 -90l-35 -105q85 -5 133 -50.5t48 -129.5q0 -97 -65 -152t-165 -55q-115 0 -196 45z" />
<glyph unicode="&#xe8;" horiz-adv-x="1185" d="M1012 236l-17 -154q-64 -50 -158.5 -76t-189.5 -26q-250 0 -399.5 153t-149.5 391q0 230 142.5 375t363.5 145q216 0 348.5 -131.5t132.5 -341.5v-108h-811q15 -154 121.5 -244t282.5 -90q85 0 172 31.5t147 79.5zM274 600h644q0 132 -83.5 214.5t-228.5 82.5 q-136 0 -227.5 -80.5t-104.5 -216.5zM743 1147h-174l-170 403h199z" />
<glyph unicode="&#xe9;" horiz-adv-x="1185" d="M1012 236l-17 -154q-64 -50 -158.5 -76t-189.5 -26q-250 0 -399.5 153t-149.5 391q0 230 142.5 375t363.5 145q216 0 348.5 -131.5t132.5 -341.5v-108h-811q15 -154 121.5 -244t282.5 -90q85 0 172 31.5t147 79.5zM274 600h644q0 132 -83.5 214.5t-228.5 82.5 q-136 0 -227.5 -80.5t-104.5 -216.5zM676 1147h-174l145 403h199z" />
<glyph unicode="&#xea;" horiz-adv-x="1185" d="M1012 236l-17 -154q-64 -50 -158.5 -76t-189.5 -26q-250 0 -399.5 153t-149.5 391q0 230 142.5 375t363.5 145q216 0 348.5 -131.5t132.5 -341.5v-108h-811q15 -154 121.5 -244t282.5 -90q85 0 172 31.5t147 79.5zM274 600h644q0 132 -83.5 214.5t-228.5 82.5 q-136 0 -227.5 -80.5t-104.5 -216.5zM1010 1147h-199l-199 287l-198 -287h-199l305 405h185z" />
<glyph unicode="&#xeb;" horiz-adv-x="1185" d="M1012 236l-17 -154q-64 -50 -158.5 -76t-189.5 -26q-250 0 -399.5 153t-149.5 391q0 230 142.5 375t363.5 145q216 0 348.5 -131.5t132.5 -341.5v-108h-811q15 -154 121.5 -244t282.5 -90q85 0 172 31.5t147 79.5zM274 600h644q0 132 -83.5 214.5t-228.5 82.5 q-136 0 -227.5 -80.5t-104.5 -216.5zM496 1262q0 -54 -34.5 -89.5t-92.5 -35.5q-60 0 -93.5 35.5t-33.5 89.5t33.5 89t93.5 35q59 0 93 -35t34 -89zM983 1262q0 -54 -34.5 -89.5t-92.5 -35.5q-60 0 -93.5 35.5t-33.5 89.5t33.5 89t93.5 35q59 0 93 -35t34 -89z" />
<glyph unicode="&#xec;" horiz-adv-x="569" d="M371 0h-172v1024h172v-1024zM372 1146h-174l-170 404h199z" />
<glyph unicode="&#xed;" horiz-adv-x="569" d="M371 0h-172v1024h172v-1024zM377 1147h-174l145 403h199z" />
<glyph unicode="&#xee;" horiz-adv-x="569" d="M371 0h-172v1024h172v-1024zM682 1146h-199l-198 287l-199 -287h-199l305 406h185z" />
<glyph unicode="&#xef;" horiz-adv-x="569" d="M371 0h-172v1024h172v-1024zM168 1262q0 -54 -34.5 -89.5t-92.5 -35.5q-60 0 -93.5 35.5t-33.5 89.5t33.5 89t93.5 35q59 0 93 -35t34 -89zM655 1262q0 -54 -34.5 -89.5t-92.5 -35.5q-60 0 -93.5 35.5t-33.5 89.5t33.5 89t93.5 35q59 0 93 -35t34 -89z" />
<glyph unicode="&#xf0;" horiz-adv-x="1257" d="M1145 1413l-152 -127q166 -201 166 -624q0 -188 -36 -321.5t-106 -211.5t-164 -113.5t-220 -35.5q-245 0 -390 136t-145 349q0 212 131.5 336.5t343.5 124.5q122 0 228 -40t176 -114q0 260 -115 402l-217 -185l-98 119l188 162q-59 24 -131 24q-178 0 -330 -90l-16 4 l12 160q136 86 351 86q147 0 256 -65l165 143zM967 451q0 148 -94 230.5t-242 82.5q-170 0 -259 -76.5t-89 -228.5q0 -147 92.5 -233.5t257.5 -86.5q155 0 244.5 88t89.5 224z" />
<glyph unicode="&#xf1;" horiz-adv-x="1230" d="M1071 0h-172v645q0 121 -62.5 186.5t-191.5 65.5q-132 0 -217.5 -92t-85.5 -230v-575h-172v1024h168v-150q46 81 136.5 125.5t213.5 44.5q186 0 284.5 -94t98.5 -268v-682zM1009 1374l-14 -158q-66 -73 -154 -73q-65 0 -175 46t-156 46q-57 0 -97.5 -23t-81.5 -76h-10 l-80 117q45 60 109.5 94.5t126.5 34.5q61 0 124.5 -23t121.5 -46t106 -23q50 0 84.5 18t81.5 70z" />
<glyph unicode="&#xf2;" horiz-adv-x="1261" d="M631 127q155 0 255.5 106.5t100.5 278.5t-100.5 278.5t-255.5 106.5t-256 -106.5t-101 -278.5t101 -278.5t256 -106.5zM631 -20q-233 0 -383 146.5t-150 385.5t150 385.5t383 146.5t382.5 -146.5t149.5 -385.5t-149.5 -385.5t-382.5 -146.5zM725 1146h-174l-170 404h199z " />
<glyph unicode="&#xf3;" horiz-adv-x="1261" d="M631 127q155 0 255.5 106.5t100.5 278.5t-100.5 278.5t-255.5 106.5t-256 -106.5t-101 -278.5t101 -278.5t256 -106.5zM631 -20q-233 0 -383 146.5t-150 385.5t150 385.5t383 146.5t382.5 -146.5t149.5 -385.5t-149.5 -385.5t-382.5 -146.5zM727 1147h-174l145 403h199z " />
<glyph unicode="&#xf4;" horiz-adv-x="1261" d="M631 127q155 0 255.5 106.5t100.5 278.5t-100.5 278.5t-255.5 106.5t-256 -106.5t-101 -278.5t101 -278.5t256 -106.5zM631 -20q-233 0 -383 146.5t-150 385.5t150 385.5t383 146.5t382.5 -146.5t149.5 -385.5t-149.5 -385.5t-382.5 -146.5zM1026 1147h-199l-198 287 l-199 -287h-199l306 405h184z" />
<glyph unicode="&#xf5;" horiz-adv-x="1261" d="M631 127q155 0 255.5 106.5t100.5 278.5t-100.5 278.5t-255.5 106.5t-256 -106.5t-101 -278.5t101 -278.5t256 -106.5zM631 -20q-233 0 -383 146.5t-150 385.5t150 385.5t383 146.5t382.5 -146.5t149.5 -385.5t-149.5 -385.5t-382.5 -146.5zM1016 1376l-15 -157 q-67 -74 -153 -74q-65 0 -175.5 46t-156.5 46q-57 0 -97 -23t-81 -75h-10l-80 116q45 60 109 94.5t126 34.5q61 0 125 -23t122 -46t106 -23q50 0 84 18t81 70z" />
<glyph unicode="&#xf6;" horiz-adv-x="1261" d="M631 127q155 0 255.5 106.5t100.5 278.5t-100.5 278.5t-255.5 106.5t-256 -106.5t-101 -278.5t101 -278.5t256 -106.5zM631 -20q-233 0 -383 146.5t-150 385.5t150 385.5t383 146.5t382.5 -146.5t149.5 -385.5t-149.5 -385.5t-382.5 -146.5zM514 1262q0 -54 -34.5 -89.5 t-92.5 -35.5q-60 0 -93.5 35.5t-33.5 89.5t33.5 89t93.5 35q59 0 93 -35t34 -89zM1002 1262q0 -54 -34.5 -89.5t-92.5 -35.5q-60 0 -93.5 35.5t-33.5 89.5t33.5 89t93.5 35q59 0 93 -35t34 -89z" />
<glyph unicode="&#xf7;" horiz-adv-x="1056" d="M956 549h-856v158h856v-158zM653 301q0 -53 -36 -89t-91 -36t-91 36t-36 89t36 89t91 36t91 -36t36 -89zM653 954q0 -53 -36 -89t-91 -36t-91 36t-36 89t36 89t91 36t91 -36t36 -89z" />
<glyph unicode="&#xf8;" horiz-adv-x="1261" d="M440 -133h-172l78 184q-116 67 -182 186.5t-66 274.5q0 239 150 385.5t383 146.5q58 0 133 -14l55 127h172l-78 -184q118 -67 184 -186t66 -275q0 -239 -149.5 -385.5t-382.5 -146.5q-77 0 -137 14zM850 823l-295 -690q38 -6 76 -6q155 0 255.5 106.5t100.5 278.5 q0 99 -36.5 179.5t-100.5 131.5zM410 201l295 688q-33 8 -74 8q-155 0 -256 -106.5t-101 -278.5q0 -100 36 -180.5t100 -130.5z" />
<glyph unicode="&#xf9;" horiz-adv-x="1220" d="M1051 0h-168v143q-46 -76 -137 -119.5t-209 -43.5q-180 0 -278.5 94.5t-98.5 269.5v680h172v-641q0 -123 59 -188.5t180 -65.5q135 0 221.5 78t86.5 223v594h172v-1024zM706 1146h-174l-170 404h199z" />
<glyph unicode="&#xfa;" horiz-adv-x="1220" d="M1051 0h-168v143q-46 -76 -137 -119.5t-209 -43.5q-180 0 -278.5 94.5t-98.5 269.5v680h172v-641q0 -123 59 -188.5t180 -65.5q135 0 221.5 78t86.5 223v594h172v-1024zM690 1147h-174l146 403h198z" />
<glyph unicode="&#xfb;" horiz-adv-x="1220" d="M1051 0h-168v143q-46 -76 -137 -119.5t-209 -43.5q-180 0 -278.5 94.5t-98.5 269.5v680h172v-641q0 -123 59 -188.5t180 -65.5q135 0 221.5 78t86.5 223v594h172v-1024zM1006 1147h-199l-199 287l-198 -287h-199l305 405h184z" />
<glyph unicode="&#xfc;" horiz-adv-x="1220" d="M1051 0h-168v143q-46 -76 -137 -119.5t-209 -43.5q-180 0 -278.5 94.5t-98.5 269.5v680h172v-641q0 -123 59 -188.5t180 -65.5q135 0 221.5 78t86.5 223v594h172v-1024zM500 1262q0 -54 -34.5 -89.5t-92.5 -35.5q-60 0 -93.5 35.5t-33.5 89.5t33.5 89t93.5 35 q59 0 93 -35t34 -89zM987 1262q0 -54 -34.5 -89.5t-92.5 -35.5q-60 0 -93.5 35.5t-33.5 89.5t33.5 89t93.5 35q59 0 93 -35t34 -89z" />
<glyph unicode="&#xfd;" horiz-adv-x="1204" d="M496 -410h-177l191 433l-412 1001h191l305 -823l334 823h178zM651 1146h-174l146 404h198z" />
<glyph unicode="&#xfe;" horiz-adv-x="1304" d="M342 -410h-172v1842h168v-584q50 89 151 142.5t228 53.5q213 0 351 -146.5t138 -385.5q0 -241 -140 -386.5t-359 -145.5q-117 0 -215.5 45.5t-149.5 130.5v-566zM684 129q150 0 247 104.5t97 276.5q0 174 -97 280.5t-247 106.5q-149 0 -246.5 -107.5t-97.5 -279.5 q0 -168 98 -274.5t246 -106.5z" />
<glyph unicode="&#xff;" horiz-adv-x="1204" d="M496 -410h-177l191 433l-412 1001h191l305 -823l334 823h178zM496 1262q0 -54 -34.5 -89.5t-92.5 -35.5q-60 0 -93.5 35.5t-33.5 89.5t33.5 89t93.5 35q59 0 93 -35t34 -89zM983 1262q0 -54 -34.5 -89.5t-92.5 -35.5q-60 0 -93.5 35.5t-33.5 89.5t33.5 89t93.5 35 q59 0 93 -35t34 -89z" />
<glyph unicode="&#x131;" horiz-adv-x="569" d="M371 0h-172v1024h172v-1024z" />
<glyph unicode="&#x141;" horiz-adv-x="1325" d="M1247 0h-923v559l-168 -96l-78 135l246 141v695h180v-590l217 127l80 -135l-297 -172v-506h743v-158z" />
<glyph unicode="&#x142;" horiz-adv-x="878" d="M516 0h-172v571l-188 -108l-78 135l266 154v682h172v-582l205 119l80 -135l-285 -166v-670z" />
<glyph unicode="&#x152;" horiz-adv-x="2469" d="M2372 0h-975v227q-90 -119 -237.5 -183t-321.5 -64q-212 0 -380.5 93t-264 261.5t-95.5 382.5t95.5 382.5t264 261.5t380.5 93q174 0 321.5 -64.5t237.5 -183.5v228h952v-158h-772v-481h729v-156h-729v-481h795v-158zM838 139q116 0 218 41.5t176.5 115.5t117.5 183 t43 238t-43 238t-117.5 183t-176.5 115t-218 41t-218 -41t-176.5 -115t-117.5 -183t-43 -238t43 -238t117.5 -183t176.5 -115.5t218 -41.5z" />
<glyph unicode="&#x153;" horiz-adv-x="2078" d="M1905 236l-17 -154q-64 -50 -158.5 -76t-189.5 -26q-153 0 -271.5 60t-189.5 167q-69 -108 -186 -167.5t-262 -59.5q-233 0 -383 146.5t-150 385.5t150 385.5t383 146.5q142 0 257.5 -58t184.5 -163q67 104 177.5 162.5t246.5 58.5q216 0 348.5 -131.5t132.5 -341.5v-108 h-811q15 -154 121.5 -244t282.5 -90q85 0 172 31.5t147 79.5zM631 127q155 0 255.5 106.5t100.5 278.5t-100.5 278.5t-255.5 106.5t-256 -106.5t-101 -278.5t101 -278.5t256 -106.5zM1167 600h643q0 132 -83 214.5t-228 82.5q-136 0 -227.5 -80.5t-104.5 -216.5z" />
<glyph unicode="&#x160;" horiz-adv-x="1245" d="M98 156l72 147h16q85 -63 211 -115.5t269 -52.5q137 0 217 56.5t80 168.5q0 51 -19 91t-49 68t-79 53t-98 43.5t-116 41.5l-4.5 1.5t-3.5 1l-4 1t-4 1.5q-77 26 -134.5 51t-118 62.5t-99 80t-63 103t-24.5 131.5q0 172 127.5 268t354.5 96q165 0 285 -46.5t192 -107.5 l-68 -139h-16q-60 54 -157 94.5t-230 40.5q-141 0 -222 -51t-81 -147q0 -38 12 -70t40.5 -59.5t58.5 -49t84.5 -46.5t97.5 -42t118 -45q59 -22 92 -35.5t82.5 -37t77.5 -43.5t61 -51.5t50 -65t29 -79t12 -99.5q0 -187 -127.5 -292.5t-362.5 -105.5q-298 0 -559 179z M742 1556h-185l-305 406h199l199 -287l198 287h199z" />
<glyph unicode="&#x161;" horiz-adv-x="976" d="M98 102l54 140h10q161 -119 332 -119q97 0 154 34.5t57 100.5q0 16 -3.5 30t-13 26.5t-19 23t-28 22t-33 19.5t-41 20.5t-45 20.5t-52.5 22.5t-56 24.5q-71 32 -117.5 58.5t-86.5 62.5t-58.5 81t-18.5 103q0 132 101.5 202t267.5 70q111 0 200.5 -29.5t145.5 -72.5 l-53 -139h-13q-47 37 -120.5 66.5t-161.5 29.5q-191 0 -191 -115q0 -58 54 -93.5t220 -105.5q11 -5 17 -7q141 -59 210 -127t69 -175q0 -141 -104 -218.5t-283 -77.5q-219 0 -394 122zM588 1147h-185l-305 405h199l199 -286l198 286h199z" />
<glyph unicode="&#x178;" horiz-adv-x="1462" d="M821 0h-180v547l-543 887h199l434 -727l434 727h199l-543 -887v-547zM614 1671q0 -54 -34.5 -89.5t-92.5 -35.5q-60 0 -93.5 35.5t-33.5 89.5t33.5 89.5t93.5 35.5q58 0 92.5 -35.5t34.5 -89.5zM1102 1671q0 -54 -34.5 -89.5t-92.5 -35.5q-60 0 -93.5 35.5t-33.5 89.5 t33.5 89.5t93.5 35.5q58 0 92.5 -35.5t34.5 -89.5z" />
<glyph unicode="&#x17d;" horiz-adv-x="1339" d="M1241 0h-1143v102l873 1174h-832v158h1082v-103l-871 -1173h891v-158zM803 1556h-185l-305 406h199l199 -287l198 287h199z" />
<glyph unicode="&#x17e;" horiz-adv-x="1019" d="M922 0h-824v82l588 801h-545v141h774v-82l-577 -801h584v-141zM637 1147h-184l-306 405h199l199 -286l198 286h199z" />
<glyph unicode="&#x192;" horiz-adv-x="878" d="M-92 -393l-12 119l14 12q51 -10 84 -10q64 0 112 20.5t79.5 61.5t51.5 91.5t35 121.5l160 757h-211l31 142h211l53 247q33 160 124 234t241 74q98 0 166 -35l-29 -135l-17 -7q-55 33 -135 33q-162 0 -196 -164q-7 -33 -13 -70.5t-13 -89t-13 -87.5h295l-31 -142h-291 l-151 -714q-52 -247 -158 -360.5t-295 -113.5q-38 0 -92 15z" />
<glyph unicode="&#x2c6;" horiz-adv-x="991" d="M893 1556h-199l-198 287l-199 -287h-199l305 406h185z" />
<glyph unicode="&#x2c7;" horiz-adv-x="991" d="M588 1556h-185l-305 406h199l199 -287l198 287h199z" />
<glyph unicode="&#x2d8;" horiz-adv-x="911" d="M625 1931h188q0 -173 -99 -264.5t-263 -91.5q-160 0 -256.5 91.5t-96.5 264.5h185q0 -94 42 -146t126 -52q174 0 174 198z" />
<glyph unicode="&#x2d9;" horiz-adv-x="438" d="M346 1729q0 -54 -34.5 -89.5t-92.5 -35.5q-60 0 -93.5 35.5t-33.5 89.5t33.5 89t93.5 35q59 0 93 -35t34 -89z" />
<glyph unicode="&#x2da;" horiz-adv-x="714" d="M616 1749q0 -116 -73.5 -186t-188.5 -70q-112 0 -184 70.5t-72 185.5q0 117 72 188.5t184 71.5q116 0 189 -71t73 -189zM354 1618q57 0 94 35.5t37 95.5q0 63 -37 99t-94 36q-52 0 -89.5 -36.5t-37.5 -98.5q0 -59 37.5 -95t89.5 -36z" />
<glyph unicode="&#x2db;" horiz-adv-x="595" d="M498 -244l-15 -151q-89 -56 -190 -56q-81 0 -138 46t-57 137q0 80 43 150.5t111 117.5h160q-156 -116 -156 -231q0 -35 21.5 -56.5t54.5 -21.5q79 0 151 69z" />
<glyph unicode="&#x2dc;" horiz-adv-x="964" d="M866 1833l-14 -158q-66 -73 -154 -73q-65 0 -175 46t-156 46q-57 0 -97.5 -23t-81.5 -76h-10l-80 117q45 60 109.5 94.5t126.5 34.5q61 0 124.5 -23t121.5 -46t106 -23q50 0 84.5 18t81.5 70z" />
<glyph unicode="&#x2dd;" horiz-adv-x="897" d="M262 1556h-164l146 404h188zM629 1556h-164l145 404h189z" />
<glyph unicode="&#x3a9;" horiz-adv-x="1683" d="M1585 0h-575v147q391 216 391 582q0 253 -155.5 409t-403.5 156t-403.5 -156t-155.5 -409q0 -366 391 -582v-147h-576v158h293q-129 92 -210 243.5t-81 327.5q0 157 53 291t148.5 230t235 150t305.5 54t305.5 -54t234.5 -150t148 -230t53 -291q0 -176 -81 -327.5 t-210 -243.5h293v-158z" />
<glyph unicode="&#x3bc;" horiz-adv-x="1230" d="M1061 0h-168v143q-46 -76 -137 -119.5t-209 -43.5q-58 0 -112 20.5t-91 52.5v-440h-174v1411h174v-641q0 -254 238 -254q135 0 220 78t85 223v594h174v-1024z" />
<glyph unicode="&#x3c0;" horiz-adv-x="1460" d="M1362 154v-134q-75 -40 -197 -40q-272 0 -272 294v609h-412v-883h-172v883h-211v141h1174v-141h-211v-588q0 -90 33.5 -128t109.5 -38q86 0 144 35z" />
<glyph unicode="&#xe00;" horiz-adv-x="399" />
<glyph unicode="&#xe01;" horiz-adv-x="1290" d="M1130 0h-176v694q0 152 -84.5 228.5t-234.5 76.5q-98 0 -189 -39t-147 -104l154 -141v-17q-57 -48 -76 -97t-19 -132v-469h-176v463q0 148 88 233l-172 152v20q102 134 243 206.5t302 72.5q227 0 357 -113t130 -338v-696z" />
<glyph unicode="&#xe02;" horiz-adv-x="1146" d="M811 430v696h176v-686q0 -224 -105 -342t-331 -118q-224 0 -329 115t-105 325v67q0 50 24 104t58.5 100.5t68.5 89.5t58 85t24 74q0 35 -17 49.5t-57 14.5q-88 0 -145 -37l-8 2l-25 133q82 45 207 45q221 0 221 -178q0 -50 -24 -105t-58.5 -102.5t-68.5 -94t-58 -94.5 t-24 -88v-75q0 -135 58 -207t200 -72q145 0 202.5 75t57.5 224z" />
<glyph unicode="&#xe03;" horiz-adv-x="1146" d="M811 430v696h176v-686q0 -224 -105 -342t-331 -118q-222 0 -328 112.5t-106 304.5v21q0 49 24 109.5t58.5 115.5t69.5 106.5t59 97.5t24 75q-56 -43 -129 -43q-69 0 -113 34.5t-44 96.5q0 64 30 116h131l4 -8q-18 -40 -18 -74q0 -28 13 -40.5t48 -12.5q55 0 75 33.5 t22 101.5h125q30 -68 30 -145q0 -62 -24 -126.5t-58.5 -118t-68.5 -105.5t-58 -107t-24 -104v-10q0 -135 58 -207t200 -72q145 0 202.5 75t57.5 224z" />
<glyph unicode="&#xe04;" horiz-adv-x="1333" d="M1174 0h-177v635q0 178 -77 268t-254 90q-176 0 -253 -90.5t-77 -267.5v-160q41 70 116 106.5t162 36.5q94 0 156 -30v-131l-8 -4q-42 18 -119 18q-121 0 -203.5 -62.5t-103.5 -185.5v-223h-176v625q0 253 124.5 387.5t381.5 134.5q258 0 383 -134t125 -388v-625z" />
<glyph unicode="&#xe05;" horiz-adv-x="1333" d="M1174 0h-177v778q0 120 -24.5 168.5t-100.5 48.5q-57 0 -89.5 -40t-41.5 -93h-147q-9 53 -41.5 93t-89.5 40q-76 0 -101.5 -49t-25.5 -168v-303q41 70 116 106.5t162 36.5q94 0 156 -30v-131l-8 -4q-42 18 -119 18q-121 0 -203.5 -62.5t-103.5 -185.5v-223h-176v768 q0 188 67 283.5t215 95.5q78 0 137.5 -36.5t88.5 -96.5q29 60 88 96.5t137 36.5q148 0 214.5 -95.5t66.5 -283.5v-768z" />
<glyph unicode="&#xe06;" horiz-adv-x="1292" d="M956 416v710h177v-735q0 -195 -108.5 -303t-309.5 -108q-130 0 -227 46.5t-148 127.5v-154h-170v438q0 69 37 146t81 132.5t81 113.5t37 92q-56 -43 -130 -43q-69 0 -113 34.5t-44 96.5t31 116h131l4 -8q-19 -43 -19 -74q0 -28 13.5 -40.5t48.5 -12.5q55 0 74.5 33.5 t21.5 101.5h125q31 -71 31 -145q0 -62 -24 -124t-58.5 -112t-69 -96.5t-58.5 -95t-24 -90.5v-14q0 -129 98 -222.5t238 -93.5q133 0 203.5 75t70.5 208z" />
<glyph unicode="&#xe07;" horiz-adv-x="1171" d="M500 0h-72l-350 887h176l289 -733q155 0 253.5 128t98.5 330q0 188 -90.5 286.5t-231.5 98.5q-101 0 -151 -26l-8 2l-25 135q76 39 203 39q215 0 348 -148t133 -387q0 -131 -36.5 -241t-106 -193.5t-180 -130.5t-250.5 -47z" />
<glyph unicode="&#xe08;" horiz-adv-x="1181" d="M567 0h-155l-103 457h-180v149h309l107 -465q360 0 360 420q0 228 -86.5 331t-279.5 103q-137 0 -246.5 -40.5t-179.5 -100.5l-15 4l17 170q80 55 196.5 87t247.5 32q255 0 389.5 -150.5t134.5 -429.5q0 -268 -141.5 -417.5t-374.5 -149.5z" />
<glyph unicode="&#xe09;" horiz-adv-x="1232" d="M1073 0h-170v152q-49 -80 -143 -126t-221 -46q-200 0 -304 107.5t-104 303.5v244h176v-219q0 -134 66 -208.5t198 -74.5q145 0 235.5 90t90.5 252v254q0 142 -91 204t-261 62q-123 0 -248 -38t-184 -87l-15 4l15 162q63 45 193 78t259 33q113 0 203 -23t159.5 -71.5 t107.5 -131.5t38 -196v-725z" />
<glyph unicode="&#xe0a;" horiz-adv-x="1193" d="M1034 500v-60q0 -222 -112.5 -341t-341.5 -119q-226 0 -339.5 107t-113.5 300v100q0 61 35 130t76.5 120t76.5 108t35 95q0 35 -17 49.5t-57 14.5q-88 0 -145 -37l-8 2l-25 133q82 45 207 45q217 0 217 -178q0 -50 -22.5 -105t-55 -102.5t-64.5 -94t-54.5 -94.5 t-22.5 -88v-108q0 -246 277 -246q149 0 213.5 73.5t64.5 225.5v76q0 94 -47 139t-129 45h-82l25 150h90q137 102 143 307h172q-6 -117 -47.5 -202.5t-124.5 -151.5q84 -39 130 -118.5t46 -174.5z" />
<glyph unicode="&#xe0b;" horiz-adv-x="1216" d="M1057 500v-60q0 -222 -113 -341t-342 -119q-226 0 -339 107t-113 300v35q0 55 24 117t59 115.5t69.5 102t58.5 92.5t24 73q-56 -43 -129 -43q-69 0 -113.5 34.5t-44.5 96.5t31 116h131l4 -8q-18 -40 -18 -74q0 -28 13 -40.5t48 -12.5q55 0 74.5 33.5t21.5 101.5h125 q31 -71 31 -145q0 -62 -24 -126.5t-58.5 -118t-68.5 -105.5t-58 -107t-24 -104v-43q0 -246 276 -246q149 0 214 73.5t65 225.5v76q0 95 -46 139.5t-128 44.5h-82l24 150h90q138 103 144 307h172q-6 -117 -47.5 -202.5t-124.5 -151.5q84 -39 129 -118t45 -175z" />
<glyph unicode="&#xe0c;" horiz-adv-x="1992" d="M1657 416v710h176v-735q0 -196 -101 -303.5t-294 -107.5q-124 0 -216 45.5t-139 124.5v-150h-170v694q0 305 -299 305q-95 0 -176.5 -38t-138.5 -105l154 -141v-17q-57 -48 -76 -97t-19 -132v-229q0 -56 34.5 -84.5t90.5 -28.5q63 0 105 18l8 -4v-131q-62 -30 -156 -30 q-117 0 -187.5 66.5t-70.5 180.5v236q0 148 88 233l-172 152v20q212 279 525 279q225 0 346 -112t121 -339v-221q1 -161 89 -251.5t226 -90.5q125 0 188.5 74.5t63.5 208.5z" />
<glyph unicode="&#xe0d;" horiz-adv-x="2002" d="M987 -236l-16 170l14 5q76 -63 184 -99.5t234 -36.5q141 0 213 39.5t72 108.5q0 67 -50 112q-111 -63 -266 -63q-211 0 -335 114t-124 308v272q0 305 -299 305q-95 0 -176.5 -38t-138.5 -105l154 -141v-17q-57 -48 -76 -97t-19 -132v-229q0 -56 34.5 -84.5t90.5 -28.5 q63 0 105 18l8 -4v-131q-62 -30 -156 -30q-117 0 -187.5 66.5t-70.5 180.5v236q0 148 88 233l-172 152v20q212 279 525 279q225 0 346 -112t121 -339v-260q0 -137 73 -209.5t209 -72.5t210.5 72.5t74.5 209.5v690h176v-704q0 -157 -86 -266q96 -75 96 -215 q0 -130 -113.5 -209.5t-328.5 -79.5q-119 0 -229 27.5t-185 84.5z" />
<glyph unicode="&#xe0e;" horiz-adv-x="1372" d="M1212 -410h-157q-94 117 -320 117q-184 0 -336 -125l-14 4l14 166q143 107 342 107q84 0 165 -20t130 -54v909q0 152 -84.5 228.5t-234.5 76.5q-98 0 -189 -39t-147 -104l174 -141v-17q-48 -46 -61 -93.5t-13 -135.5v-242q0 -118 -57 -182.5t-170 -64.5q-94 0 -156 30 v131l8 4q42 -18 105 -18q52 0 73 26.5t21 86.5v223q0 168 68 233l-193 152v20q102 134 243 206.5t302 72.5q227 0 357 -113t130 -338v-1106z" />
<glyph unicode="&#xe0f;" horiz-adv-x="1372" d="M1036 -111v805q0 152 -84.5 228.5t-234.5 76.5q-98 0 -189 -39t-147 -104l174 -141v-17q-48 -46 -61 -93.5t-13 -135.5v-242q0 -118 -57 -182.5t-170 -64.5q-94 0 -156 30v131l8 4q42 -18 105 -18q52 0 73 26.5t21 86.5v223q0 168 68 233l-193 152v20q102 134 243 206.5 t302 72.5q227 0 357 -113t130 -338v-796q0 -155 -66.5 -237.5t-189.5 -82.5q-79 0 -141 38.5t-86 109.5q-30 -73 -89 -110.5t-138 -37.5q-125 0 -215 62l-15 155l15 4q58 -40 107 -54.5t108 -14.5q116 0 149 121h156q11 -58 46.5 -89.5t78.5 -31.5q60 0 82 34t22 123z" />
<glyph unicode="&#xe10;" horiz-adv-x="1253" d="M1106 -80v-33q0 -143 -74 -225t-194 -82q-80 0 -143 38.5t-87 109.5q-30 -73 -89 -110.5t-138 -37.5q-125 0 -215 62l-14 155l14 4q58 -40 107 -54.5t108 -14.5q116 0 149 121h156q11 -58 47.5 -89.5t79.5 -31.5q117 0 117 149v39h176zM567 0h-155l-103 457h-180v149h309 l107 -465q360 0 360 420q0 228 -86.5 331t-279.5 103q-137 0 -246.5 -40.5t-179.5 -100.5l-15 4l17 170q80 55 196.5 87t247.5 32q216 0 340 -100q107 56 123 149h156q-11 -84 -64.5 -145.5t-130.5 -94.5q100 -141 100 -389q0 -268 -141.5 -417.5t-374.5 -149.5z" />
<glyph unicode="&#xe11;" horiz-adv-x="1335" d="M1176 0h-177v807q0 92 -54 139t-136 47q-79 0 -154 -60t-125 -148.5t-80 -186.5t-30 -178v-420h-176v422q0 67 22 146.5t48.5 138.5t48.5 120t22 95q-56 -43 -129 -43q-69 0 -113.5 34.5t-44.5 96.5t31 116h131l4 -8q-18 -40 -18 -74q0 -28 13 -40.5t48 -12.5 q55 0 74.5 33.5t21.5 101.5h125q15 -37 15 -88q0 -27 -11 -80l9 -2q126 185 313 185q148 0 235 -82.5t87 -247.5v-811z" />
<glyph unicode="&#xe12;" horiz-adv-x="2103" d="M1767 416v710h177v-735q0 -196 -101.5 -303.5t-294.5 -107.5q-124 0 -215.5 45t-138.5 125v-150h-170v778q0 118 -27 167.5t-104 49.5q-57 0 -90.5 -40t-42.5 -93h-148q-5 53 -35 93t-85 40q-104 0 -160 -123t-56 -321q0 -215 90 -321.5t259 -106.5q91 0 151 31l8 -2 l25 -134q-81 -38 -207 -38q-243 0 -373.5 153.5t-130.5 417.5q0 161 40 294t124.5 217.5t200.5 84.5q174 0 223 -133q28 60 88.5 96.5t138.5 36.5q149 0 218 -96t69 -283v-293q0 -161 89 -251.5t227 -90.5q125 0 188 74.5t63 208.5z" />
<glyph unicode="&#xe13;" horiz-adv-x="2000" d="M1833 0h-170v150q-48 -80 -140 -125t-214 -45q-193 0 -294.5 107.5t-101.5 303.5v303q0 305 -299 305q-95 0 -176.5 -38t-138.5 -105l154 -141v-17q-57 -48 -76 -97t-19 -132v-229q0 -56 34.5 -84.5t90.5 -28.5q63 0 105 18l8 -4v-131q-62 -30 -156 -30 q-117 0 -187.5 66.5t-70.5 180.5v236q0 148 88 233l-172 152v20q212 279 525 279q225 0 346 -112t121 -339v-280q0 -134 63 -208.5t188 -74.5q138 0 227 90.5t89 251.5v651h176v-1126z" />
<glyph unicode="&#xe14;" horiz-adv-x="1359" d="M1200 0h-176v641q0 354 -354 354q-184 0 -289 -112.5t-105 -331.5q0 -212 90.5 -320t258.5 -108q91 0 151 31l8 -2l25 -134q-81 -38 -207 -38q-242 0 -373 155t-131 416q0 272 150 434t422 162q256 0 393 -134t137 -382v-631z" />
<glyph unicode="&#xe15;" horiz-adv-x="1359" d="M1200 0h-176v778q0 118 -27 167.5t-104 49.5q-57 0 -90.5 -40t-42.5 -93h-148q-5 53 -35 93t-85 40q-104 0 -160 -123t-56 -321q0 -215 90 -321.5t259 -106.5q91 0 151 31l8 -2l25 -134q-81 -38 -207 -38q-243 0 -373.5 153.5t-130.5 417.5q0 161 40 294t124.5 217.5 t200.5 84.5q174 0 223 -133q28 60 88.5 96.5t138.5 36.5q149 0 218 -96t69 -283v-768z" />
<glyph unicode="&#xe16;" horiz-adv-x="1290" d="M1130 0h-176v694q0 152 -84.5 228.5t-234.5 76.5q-98 0 -189 -39t-147 -104l154 -141v-17q-57 -48 -76 -97t-19 -132v-229q0 -56 34.5 -84.5t90.5 -28.5q63 0 105 18l8 -4v-131q-62 -30 -156 -30q-117 0 -187.5 66.5t-70.5 180.5v236q0 148 88 233l-172 152v20 q102 134 243 206.5t302 72.5q227 0 357 -113t130 -338v-696z" />
<glyph unicode="&#xe17;" horiz-adv-x="1292" d="M1133 0h-177v711q0 133 -68.5 207.5t-201.5 74.5q-147 0 -243.5 -91t-96.5 -251v-651h-176v1126h170v-172q49 89 146.5 141t232.5 52q201 0 307.5 -108.5t106.5 -303.5v-735z" />
<glyph unicode="&#xe18;" horiz-adv-x="1134" d="M938 893h-12q-42 37 -145.5 69.5t-213.5 32.5q-293 0 -293 -127q0 -21 9.5 -38t30.5 -31t44 -24.5t59.5 -21.5t67 -19t78 -20.5t80.5 -21.5q114 -33 181.5 -61t119 -69.5t72 -96.5t20.5 -135q0 -156 -117.5 -253t-357.5 -97q-221 0 -340 87.5t-119 258.5v161h177v-149 q0 -120 66 -163.5t222 -43.5q160 0 226.5 51t66.5 148q0 26 -5 48t-12 39t-23.5 32.5t-29.5 26.5t-40 22.5t-45.5 19t-55.5 17.5t-61 15.5t-70 16.5t-73 17.5t-68.5 18t-66 21t-58 24t-53 29t-41 35t-33.5 43.5t-19.5 51.5t-7.5 61.5q0 90 61.5 154t165 94.5t238.5 30.5 t263.5 -39.5t177.5 -81.5z" />
<glyph unicode="&#xe19;" horiz-adv-x="1290" d="M1122 0h-170v154q-51 -81 -148 -127.5t-226 -46.5q-201 0 -309.5 108t-108.5 303v735h176v-710q0 -133 70.5 -208t203.5 -75q146 0 241 90.5t95 251.5v651h176v-1126z" />
<glyph unicode="&#xe1a;" horiz-adv-x="1302" d="M967 420v706h176v-696q0 -216 -129 -333t-363 -117t-362.5 117t-128.5 333v696h176v-706q0 -140 81.5 -214.5t233.5 -74.5t234 75t82 214z" />
<glyph unicode="&#xe1b;" horiz-adv-x="1302" d="M967 420v1014h176v-1004q0 -216 -129 -333t-363 -117t-362.5 117t-128.5 333v696h176v-706q0 -140 81.5 -214.5t233.5 -74.5t234 75t82 214z" />
<glyph unicode="&#xe1c;" horiz-adv-x="1386" d="M1219 0h-164l-361 629l-360 -629h-164v899q0 117 62 182.5t176 65.5q91 0 155 -31v-131l-8 -4q-42 18 -104 18q-105 0 -105 -112v-590l293 502h111l292 -502v829h177v-1126z" />
<glyph unicode="&#xe1d;" horiz-adv-x="1386" d="M1219 0h-164l-361 629l-360 -629h-164v899q0 117 62 182.5t176 65.5q91 0 155 -31v-131l-8 -4q-42 18 -104 18q-105 0 -105 -112v-590l293 502h111l292 -502v1239h177v-1536z" />
<glyph unicode="&#xe1e;" horiz-adv-x="1564" d="M1225 0h-146l-297 901l-297 -901h-145l-242 1126h172l160 -839l275 839h155l275 -839l159 839h172z" />
<glyph unicode="&#xe1f;" horiz-adv-x="1550" d="M1225 0h-146l-297 901l-297 -901h-145l-242 1126h172l160 -839l275 839h155l275 -839l196 1147h162z" />
<glyph unicode="&#xe20;" horiz-adv-x="1372" d="M1212 0h-176v694q0 152 -84.5 228.5t-234.5 76.5q-98 0 -189 -39t-147 -104l174 -141v-17q-48 -46 -61 -93.5t-13 -135.5v-242q0 -118 -57 -182.5t-170 -64.5q-94 0 -156 30v131l8 4q42 -18 105 -18q52 0 73 26.5t21 86.5v223q0 168 68 233l-193 152v20 q102 134 243 206.5t302 72.5q227 0 357 -113t130 -338v-696z" />
<glyph unicode="&#xe21;" horiz-adv-x="1292" d="M956 416v710h177v-735q0 -195 -108.5 -303t-309.5 -108q-130 0 -227 46.5t-148 127.5v-154h-170v1126h176v-651q0 -161 95 -251.5t241 -90.5q133 0 203.5 75t70.5 208z" />
<glyph unicode="&#xe22;" horiz-adv-x="1267" d="M932 442v684h176v-698q0 -214 -125 -331t-375 -117q-232 0 -362.5 95.5t-130.5 272.5q0 200 166 266q-69 26 -113.5 89.5t-44.5 164.5q0 126 87.5 202.5t235.5 76.5q124 0 207 -39l-24 -139l-8 -2q-58 30 -144 30q-83 0 -129.5 -37.5t-46.5 -109.5q0 -76 49 -118t135 -42 h177v-149h-173q-94 0 -144 -51.5t-50 -133.5q0 -105 78.5 -165t230.5 -60q175 0 251.5 78.5t76.5 232.5z" />
<glyph unicode="&#xe23;" horiz-adv-x="1071" d="M874 893h-12q-116 102 -307 102q-242 0 -242 -139q0 -20 3.5 -37.5t14.5 -32.5t20 -26.5t30.5 -24.5t35 -21t45.5 -21t48.5 -19.5t58 -21.5t62.5 -23q47 -18 74.5 -29t68.5 -30.5t65.5 -36.5t53 -43t44 -53.5t26 -64.5t10.5 -79q0 -147 -108.5 -230t-315.5 -83 q-253 0 -451 141l66 133h12q63 -47 164 -85t215 -38q117 0 179.5 35t62.5 121q0 26 -6 48t-15 38t-27.5 31t-33.5 24.5t-44 22t-48.5 19.5t-56.5 20t-60 22q-57 22 -94 37.5t-85 39.5t-78 49t-58 57.5t-41 73t-13 87.5q0 134 114.5 212.5t299.5 78.5q131 0 233 -37.5 t156 -83.5z" />
<glyph unicode="&#xe24;" horiz-adv-x="1290" d="M1130 -410h-176v1104q0 152 -84.5 228.5t-234.5 76.5q-98 0 -189 -39t-147 -104l154 -141v-17q-57 -48 -76 -97t-19 -132v-229q0 -56 34.5 -84.5t90.5 -28.5q63 0 105 18l8 -4v-131q-62 -30 -156 -30q-117 0 -187.5 66.5t-70.5 180.5v236q0 148 88 233l-172 152v20 q102 134 243 206.5t302 72.5q227 0 357 -113t130 -338v-1106z" />
<glyph unicode="&#xe25;" horiz-adv-x="1239" d="M1192 131l-21 -108q-16 -16 -55 -29.5t-84 -13.5q-82 0 -121 49.5t-39 150.5v414q-34 -23 -97.5 -40t-190.5 -42q-58 -11 -98.5 -21.5t-83.5 -27.5t-68 -38.5t-41.5 -53t-16.5 -72.5q0 -83 60.5 -129.5t171.5 -46.5q91 0 151 31l9 -2l24 -134q-81 -38 -207 -38 q-183 0 -285 88t-102 241q0 64 22.5 116t59 87.5t91.5 63.5t112.5 45t128.5 30q236 43 288 61q59 22 70 60q4 14 4 35q0 66 -41 109.5t-104 61t-145 17.5q-121 0 -230 -37t-170 -88l-14 4l14 162q65 47 179.5 79t240.5 32q94 0 172 -19.5t140.5 -59t97.5 -107.5t35 -158 v-610q0 -40 12.5 -57t44.5 -17q43 0 72 22z" />
<glyph unicode="&#xe26;" horiz-adv-x="1372" d="M1212 -410h-176v1104q0 152 -84.5 228.5t-234.5 76.5q-98 0 -189 -39t-147 -104l174 -141v-17q-48 -46 -61 -93.5t-13 -135.5v-242q0 -118 -57 -182.5t-170 -64.5q-94 0 -156 30v131l8 4q42 -18 105 -18q52 0 73 26.5t21 86.5v223q0 168 68 233l-193 152v20 q102 134 243 206.5t302 72.5q227 0 357 -113t130 -338v-1106z" />
<glyph unicode="&#xe27;" horiz-adv-x="1146" d="M98 119l80 117h10q59 -52 144.5 -80.5t163.5 -28.5q167 0 270.5 119.5t103.5 331.5q0 208 -107.5 312.5t-281.5 104.5q-212 0 -364 -125l-15 4l15 162q66 47 169.5 79t215.5 32q258 0 402.5 -154t144.5 -415q0 -173 -65 -308t-188 -212.5t-284 -77.5q-265 0 -414 139z " />
<glyph unicode="&#xe28;" horiz-adv-x="1343" d="M1174 0h-177v635q0 178 -77 268t-254 90q-176 0 -253 -90.5t-77 -267.5v-160q41 70 116 106.5t162 36.5q94 0 156 -30v-131l-8 -4q-42 18 -119 18q-121 0 -203.5 -62.5t-103.5 -185.5v-223h-176v625q0 253 124.5 387.5t381.5 134.5q205 0 333 -92q97 50 113 141h156 q-21 -161 -183 -229q89 -130 89 -342v-625z" />
<glyph unicode="&#xe29;" horiz-adv-x="1337" d="M1260 596h-117v-166q0 -216 -129 -333t-363 -117t-362.5 117t-128.5 333v696h176v-706q0 -140 81.5 -214.5t233.5 -74.5t234 75t82 214v176h-265v149h265v381h176v-381h117v-149z" />
<glyph unicode="&#xe2a;" horiz-adv-x="1220" d="M1051 0h-177v598q-37 -24 -100.5 -42t-193.5 -44q-59 -12 -98.5 -22.5t-82 -27.5t-67 -38t-40.5 -52.5t-16 -72.5q0 -82 62 -129t174 -47q40 0 84 9.5t68 21.5l8 -2l24 -134q-81 -38 -207 -38q-184 0 -287.5 88t-103.5 241q0 79 31.5 138.5t92 98.5t127.5 62.5t159 42.5 q30 6 84 17q173 35 229 58.5t56 80.5q0 97 -80.5 142.5t-216.5 45.5q-120 0 -227 -37t-169 -88l-14 4l14 162q66 47 178 79t238 32q204 0 326 -86q86 49 102 135h156q-22 -162 -176 -227q43 -72 43 -166v-803z" />
<glyph unicode="&#xe2b;" horiz-adv-x="1288" d="M1118 0h-176v375q0 152 -71 222.5t-230 70.5q-167 0 -295 -64v-604h-176v1126h176v-378q62 27 146.5 46t148.5 19q57 0 127 -8q174 122 174 342h176q0 -135 -45.5 -228.5t-144.5 -162.5q190 -100 190 -377v-379z" />
<glyph unicode="&#xe2c;" horiz-adv-x="1433" d="M1153 0h-145l-297 737l-297 -737h-146l-170 1126h172l105 -860l258 645h155l259 -645l94 486q12 59 12 100q0 72 -34.5 103.5t-106.5 31.5h-78l22 139h105q137 102 143 308h172q-12 -230 -174 -359q103 -68 103 -211q0 -41 -15 -129z" />
<glyph unicode="&#xe2d;" horiz-adv-x="1292" d="M627 479h-348q-3 -18 -3 -30q0 -135 95.5 -226.5t249.5 -91.5q172 0 278.5 115t106.5 307q0 199 -118 320.5t-315 121.5q-123 0 -228.5 -40t-172.5 -101l-14 4l16 170q72 58 186.5 88.5t233.5 30.5q270 0 430 -162t160 -426q0 -262 -155.5 -420.5t-401.5 -158.5 q-236 0 -382.5 141.5t-146.5 372.5q0 72 13 135h516v-150z" />
<glyph unicode="&#xe2e;" horiz-adv-x="1292" d="M627 479h-348q-3 -18 -3 -30q0 -135 95.5 -226.5t249.5 -91.5q172 0 278.5 115t106.5 307q0 199 -118 320.5t-315 121.5q-123 0 -228.5 -40t-172.5 -101l-14 4l16 170q72 58 186.5 88.5t233.5 30.5q193 0 338 -90q92 49 108 139h156q-10 -80 -54 -135.5t-110 -85.5 q152 -162 152 -416q0 -262 -155.5 -420.5t-401.5 -158.5q-236 0 -382.5 141.5t-146.5 372.5q0 72 13 135h516v-150z" />
<glyph unicode="&#xe2f;" horiz-adv-x="1132" d="M963 0h-177v549q-122 -82 -311 -82q-167 0 -272 93.5t-105 252.5q0 154 90 244t250 90q124 0 207 -39l-24 -133l-9 -2q-60 31 -151 31q-88 0 -136.5 -49t-48.5 -132q0 -107 63 -154.5t183 -47.5q167 0 264 88v417h177v-1126z" />
<glyph unicode="&#xe30;" horiz-adv-x="712" d="M614 731h-315q-95 0 -148 44t-53 126q0 69 33 137h143l5 -8q-21 -50 -21 -90q0 -35 16 -47t62 -12h278v-150zM614 123h-315q-95 0 -148 44t-53 126q0 69 33 137h143l5 -8q-21 -50 -21 -90q0 -35 16 -47.5t62 -12.5h278v-149z" />
<glyph unicode="&#xe31;" d="M29 1319h-514q-95 0 -149 44t-54 126q0 73 29 133h147l4 -8q-16 -44 -16 -90q0 -35 18 -49.5t64 -14.5h471v-141z" />
<glyph unicode="&#xe32;" horiz-adv-x="1026" d="M866 0h-176v717q0 148 -54 215t-200 67q-185 0 -315 -114h-10l-80 116q72 67 178 106.5t233 39.5q227 0 325.5 -108.5t98.5 -331.5v-707z" />
<glyph unicode="&#xe33;" horiz-adv-x="1026" d="M-66 1452q0 -96 -62 -155.5t-159 -59.5q-93 0 -154 59.5t-61 155.5q0 97 61 158t154 61q98 0 159.5 -60.5t61.5 -158.5zM-195 1452q0 43 -26.5 68.5t-65.5 25.5q-34 0 -60 -26t-26 -68q0 -40 26 -65t60 -25q39 0 65.5 25t26.5 65zM866 0h-176v717q0 148 -54 215t-200 67 q-185 0 -315 -114h-10l-80 116q72 67 178 106.5t233 39.5q227 0 325.5 -108.5t98.5 -331.5v-707z" />
<glyph unicode="&#xe34;" d="M-160 1319h-844l25 141h819v-141z" />
<glyph unicode="&#xe35;" d="M-160 1319h-844l25 141h647v193h172v-334z" />
<glyph unicode="&#xe36;" d="M-272 1319h-732l25 141h526q-8 19 -8 47q0 86 52.5 135.5t136.5 49.5q87 0 139.5 -49t52.5 -136q0 -86 -51 -137t-141 -51zM-193 1507q0 39 -22 60.5t-57 21.5q-31 0 -54.5 -22t-23.5 -60q0 -34 23.5 -55.5t54.5 -21.5q34 0 56.5 21t22.5 56z" />
<glyph unicode="&#xe37;" d="M-160 1319h-844l25 141h367v193h172v-193h108v193h172v-334z" />
<glyph unicode="&#xe38;" d="M-160 -594h-166v234q0 46 -16 65t-55 19q-51 0 -103 -19l-8 4v127q64 31 154 31q102 0 148 -45t46 -152v-264z" />
<glyph unicode="&#xe39;" d="M-315 -369v226h155v-248q0 -92 -73.5 -150.5t-192.5 -58.5q-122 0 -193 57t-71 152v65q0 26 -9.5 35.5t-33.5 9.5q-39 0 -80 -16l-8 4v131q60 29 133 29q84 0 116.5 -35t32.5 -117v-84q0 -44 28.5 -72t82.5 -28q59 0 86 27.5t27 72.5z" />
<glyph unicode="&#xe3a;" d="M-129 -268q0 -49 -34 -84t-87 -35q-55 0 -88 35t-33 84q0 51 32.5 84.5t88.5 33.5q53 0 87 -34t34 -84z" />
<glyph unicode="&#xe3f;" horiz-adv-x="1384" d="M748 -205h-181v205h-397v1434h397v204h181v-204h20q209 0 323.5 -96.5t114.5 -262.5q0 -113 -55.5 -195.5t-161.5 -123.5q141 -38 219 -132t78 -227q0 -186 -135.5 -291.5t-359.5 -105.5h-43v-205zM748 154h20q152 0 243 65t91 193q0 129 -89.5 194.5t-234.5 65.5h-30 v-518zM567 154v518h-219v-518h219zM748 1280v-457q130 2 203 63t73 171q0 106 -71 162t-205 61zM567 823v457h-219v-457h219z" />
<glyph unicode="&#xe40;" horiz-adv-x="610" d="M553 141v-131q-62 -30 -152 -30q-112 0 -171.5 63.5t-59.5 183.5v899h176v-890q0 -61 21 -85t73 -24q63 0 105 18z" />
<glyph unicode="&#xe41;" horiz-adv-x="1093" d="M553 141v-131q-62 -30 -152 -30q-112 0 -171.5 63.5t-59.5 183.5v899h176v-890q0 -61 21 -85t73 -24q63 0 105 18zM1036 141v-131q-62 -30 -151 -30q-113 0 -172.5 63.5t-59.5 183.5v899h176v-890q0 -61 21.5 -85t73.5 -24q62 0 104 18z" />
<glyph unicode="&#xe42;" horiz-adv-x="815" d="M723 141v-131q-62 -30 -152 -30q-112 0 -171.5 63.5t-59.5 183.5v979q0 87 -17 127.5t-63 63.5l-203 98v178q66 60 169.5 96.5t203.5 36.5q201 0 326 -67l12 -152l-16 -4q-132 72 -306 72q-70 0 -133 -17t-98 -41v-12l141 -69q100 -50 130 -115.5t30 -204.5v-960 q0 -61 21 -85t73 -24q63 0 105 18z" />
<glyph unicode="&#xe43;" horiz-adv-x="733" d="M641 141v-131q-62 -30 -152 -30q-112 0 -171.5 63.5t-59.5 183.5v828q0 76 25.5 141.5t61.5 110t72 83t61.5 76t25.5 72.5q0 117 -154 117q-144 0 -276 -72l-17 4l13 152q125 67 309 67q141 0 222 -65t81 -195q0 -54 -25.5 -102t-62 -87t-73 -80t-62 -98.5t-25.5 -125.5 v-817q0 -61 21 -85t73 -24q63 0 105 18z" />
<glyph unicode="&#xe44;" horiz-adv-x="745" d="M653 141v-131q-62 -30 -151 -30q-113 0 -172.5 63.5t-59.5 183.5v977q0 138 47.5 246.5t139.5 165.5h-400v149h631v-141q-131 -61 -186.5 -153.5t-55.5 -258.5v-976q0 -61 21.5 -85t73.5 -24q62 0 104 18z" />
<glyph unicode="&#xe45;" horiz-adv-x="1026" d="M866 -410h-176v1127q0 148 -54 215t-200 67q-185 0 -315 -114h-10l-80 116q72 67 178 106.5t233 39.5q227 0 325.5 -108.5t98.5 -331.5v-1117z" />
<glyph unicode="&#xe46;" horiz-adv-x="1230" d="M1071 0h-176v778q0 121 -23 169t-98 48q-100 0 -123 -133h-147q-13 133 -111 133q-117 0 -117 -198q0 -183 154 -183q92 0 152 31l8 -2l24 -133q-83 -39 -206 -39q-140 0 -225 83t-85 243q0 149 73.5 249.5t193.5 100.5q91 0 140 -34.5t73 -98.5q29 61 84.5 97t132.5 36 q147 0 211.5 -95t64.5 -284v-768z" />
<glyph unicode="&#xe47;" d="M-260 1309h-105q-68 0 -116.5 28t-61.5 68q-16 -41 -69.5 -73t-122.5 -32q-109 0 -178.5 63t-69.5 161q0 126 77 194t214 68h192q184 0 254 39l8 -2l-6 -123q-71 -41 -264 -41h-170q-160 0 -160 -121q0 -54 31 -82.5t84 -28.5q55 0 81 29.5t34 83.5h135q8 -54 33.5 -79 t79.5 -25h100v-127z" />
<glyph unicode="&#xe48;" d="M-164 1780h-164v305h164v-305z" />
<glyph unicode="&#xe49;" d="M0 1778h-483v149q0 25 -9.5 35t-33.5 10h-109l12 133h142q80 0 110.5 -30t30.5 -93v-71h340v-133z" />
<glyph unicode="&#xe4a;" d="M-135 1780h-119v147q0 45 -12.5 65.5t-44.5 20.5q-60 0 -60 -82v-30h-108v30q0 82 -58 82q-33 0 -49 -22t-16 -74q0 -57 41 -131l-4 -6h-131q-37 69 -37 151q0 98 49.5 149.5t124.5 51.5q54 0 84.5 -18t50.5 -56q33 74 131 74q152 0 152 -166v-72h16q25 0 37 13t12 45 v174h115v-176q0 -170 -174 -170z" />
<glyph unicode="&#xe4b;" d="M2 1919h-170v-139h-156v139h-172v117h172v139h156v-139h170v-117z" />
<glyph unicode="&#xe4c;" d="M-45 1833h-342q-44 0 -61 -16.5t-17 -53.5q0 -41 21 -90l-5 -8h-143q-33 68 -33 133q0 83 49.5 125.5t143.5 42.5h387v-133z" />
<glyph unicode="&#xe4d;" d="M-66 1452q0 -96 -62 -155.5t-159 -59.5q-93 0 -154 59.5t-61 155.5q0 97 61 158t154 61q98 0 159.5 -60.5t61.5 -158.5zM-195 1452q0 43 -26.5 68.5t-65.5 25.5q-34 0 -60 -26t-26 -68q0 -40 26 -65t60 -25q39 0 65.5 25t26.5 65z" />
<glyph unicode="&#xe4e;" d="M-360 1415l16 -90q-67 -27 -141 -27q-242 0 -242 168q0 78 51 123t129 51q-43 30 -43 91q0 60 54.5 96.5t129.5 36.5q72 0 121 -27l9 -96l-11 -2q-42 28 -96 28q-72 0 -72 -53q0 -51 80 -69v-95q-50 13 -86 13q-63 0 -91 -20.5t-28 -69.5q0 -76 109 -76q71 0 104 20z" />
<glyph unicode="&#xe4f;" horiz-adv-x="1298" d="M1200 514q0 -246 -149.5 -390t-401.5 -144t-401.5 144t-149.5 390q0 245 149.5 387.5t401.5 142.5t401.5 -142.5t149.5 -387.5zM649 131q178 0 275.5 100t97.5 283q0 184 -97 280.5t-276 96.5t-276 -96.5t-97 -280.5q0 -183 98 -283t275 -100zM649 293q-101 0 -157 57.5 t-56 161.5q0 105 55.5 160t157.5 55t157.5 -55t55.5 -160q0 -104 -56 -161.5t-157 -57.5z" />
<glyph unicode="&#xe50;" horiz-adv-x="1310" d="M1212 514q0 -246 -152.5 -390t-404.5 -144t-404.5 144t-152.5 390q0 244 152.5 387t404.5 143t404.5 -143t152.5 -387zM655 131q179 0 279 100.5t100 282.5q0 183 -99.5 280t-279.5 97t-279.5 -97t-99.5 -280q0 -182 100.5 -282.5t278.5 -100.5z" />
<glyph unicode="&#xe51;" horiz-adv-x="1331" d="M645 -203l-37 148l4 8q243 50 343 176.5t100 359.5q0 402 -385 402q-89 0 -158 -17t-123.5 -55t-83.5 -105t-29 -161q0 -79 21 -136.5t58.5 -89t82.5 -45.5t101 -14q91 0 151 31l8 -2l25 -133q-83 -39 -207 -39q-187 0 -302.5 114t-115.5 314q0 234 153 362.5t419 128.5 q279 0 421 -149.5t142 -409.5q0 -101 -19 -188.5t-62.5 -169t-110.5 -144.5t-167.5 -111.5t-228.5 -74.5z" />
<glyph unicode="&#xe52;" horiz-adv-x="1433" d="M1159 461v215q0 120 -25.5 169.5t-101.5 49.5q-60 0 -90.5 -38t-30.5 -97v-94h-143v94q0 135 -109 135q-131 0 -131 -211q0 -87 41.5 -130.5t112.5 -43.5t131 31l8 -2l25 -131q-83 -39 -195 -39q-57 0 -108.5 18t-94 54t-67.5 98.5t-25 144.5q0 163 67.5 261.5 t207.5 98.5q90 0 137.5 -34t71.5 -99q63 133 213 133q148 0 215 -95.5t67 -282.5v-195q0 -225 -167 -358t-478 -133q-267 0 -429.5 133.5t-162.5 353.5v668h176v-678q0 -155 114.5 -240.5t303.5 -85.5q201 0 334 88.5t133 241.5z" />
<glyph unicode="&#xe53;" horiz-adv-x="1392" d="M1233 0h-176v676q0 114 -33.5 165.5t-112.5 51.5q-63 0 -105 -38.5t-42 -94.5v-264h-148v264q0 60 -32.5 96.5t-91.5 36.5q-107 0 -161.5 -100.5t-54.5 -292.5q0 -107 19 -181.5t57.5 -116.5t89.5 -60.5t121 -18.5q40 0 84 9.5t68 21.5l8 -2l25 -134q-81 -38 -207 -38 q-218 0 -330.5 131.5t-112.5 388.5q0 244 95 394t270 150q178 0 227 -133q28 59 95.5 96t146.5 37q150 0 225.5 -97t75.5 -281v-666z" />
<glyph unicode="&#xe54;" horiz-adv-x="1347" d="M1233 0h-180q-179 0 -256 66q-86 -86 -238 -86q-222 0 -341.5 130.5t-119.5 358.5q0 257 169.5 396t510.5 139q317 0 457 131l14 -5l-16 -169q-135 -109 -453 -109q-257 0 -380.5 -85t-123.5 -298q0 -161 78 -253.5t205 -92.5q86 0 129 37q-51 61 -51 157q0 142 102 229 t273 87q124 0 207 -39l-25 -139l-8 -2q-58 30 -154 30q-105 0 -161 -38.5t-56 -129.5q0 -44 12.5 -74t33.5 -48t59.5 -27.5t79.5 -12.5t104 -3h129v-150z" />
<glyph unicode="&#xe55;" horiz-adv-x="1347" d="M1233 0h-180q-179 0 -256 66q-86 -86 -238 -86q-222 0 -341.5 130.5t-119.5 358.5q0 193 108 318t320 167q-60 63 -67 179h172q5 -73 44 -116.5t118 -43.5q268 0 442 162l14 -5l-16 -169q-78 -63 -195.5 -96.5t-257.5 -33.5q-128 0 -217.5 -17t-156 -57.5t-98.5 -111.5 t-32 -176q0 -161 78 -253.5t205 -92.5q86 0 129 37q-51 61 -51 157q0 142 102 229t273 87q124 0 207 -39l-25 -139l-8 -2q-58 30 -154 30q-105 0 -161 -38.5t-56 -129.5q0 -44 12.5 -74t33.5 -48t59.5 -27.5t79.5 -12.5t104 -3h129v-150z" />
<glyph unicode="&#xe56;" horiz-adv-x="1384" d="M344 55l25 133l8 2q41 -24 141.5 -45.5t181.5 -21.5q213 0 310.5 99t97.5 298q0 185 -90 278t-260 93q-123 0 -207.5 -53t-138.5 -174h-181l-174 471h166l111 -304q136 213 436 213q122 0 221 -41t163 -112t98 -166t34 -205q0 -93 -19 -172.5t-62.5 -148t-109.5 -116.5 t-163.5 -75.5t-220.5 -27.5q-97 0 -207.5 23t-159.5 52z" />
<glyph unicode="&#xe57;" horiz-adv-x="1785" d="M1296 0h-284v676q0 115 -32 166t-110 51q-62 0 -100.5 -38t-38.5 -95v-264h-147v264q0 61 -29.5 97t-87.5 36q-191 0 -191 -393q0 -107 19 -181.5t57.5 -116.5t89.5 -60.5t121 -18.5q40 0 84 9.5t68 21.5l8 -2l25 -134q-81 -38 -207 -38q-218 0 -330.5 131.5 t-112.5 388.5q0 161 36.5 281.5t114.5 191.5t189 71q170 0 219 -133q28 59 92 96t142 37q297 0 297 -378v-514h106q75 0 115.5 36.5t40.5 139.5v807h176v-797q0 -338 -330 -338z" />
<glyph unicode="&#xe58;" horiz-adv-x="1351" d="M1253 393v-67q0 -160 -88 -253t-237 -93q-94 0 -158 36.5t-86 96.5q-28 -60 -96 -96.5t-156 -36.5q-162 0 -248 124t-86 367q0 284 155.5 428.5t500.5 144.5q354 0 481 91l14 -5l-16 -163q-72 -46 -188 -60t-289 -14q-122 0 -208 -20.5t-148.5 -68.5t-93 -130.5 t-30.5 -202.5q0 -340 177 -340q76 0 116.5 37.5t40.5 95.5v152h148v-152q0 -60 37 -96.5t104 -36.5q184 0 184 195v55q0 131 -106 131q-63 0 -105 -18l-8 4v131q62 30 156 30q113 0 173 -72t60 -194z" />
<glyph unicode="&#xe59;" horiz-adv-x="1546" d="M1053 0h-168l-252 760q-25 73 -56.5 103t-99.5 30q-94 0 -147.5 -102.5t-53.5 -290.5q0 -107 18.5 -181.5t55 -116.5t83.5 -60.5t110 -18.5q91 0 151 31l8 -2l25 -134q-81 -38 -207 -38q-203 0 -312.5 132.5t-109.5 387.5q0 158 43.5 280.5t129.5 193t202 70.5 q165 0 242 -94q108 94 241 94q102 0 164 -60.5t82 -160.5q54 35 81.5 88t33.5 133h172q-6 -115 -72.5 -211t-177.5 -159h-149q0 120 -32.5 175.5t-113.5 55.5q-100 0 -168 -78z" />
<glyph unicode="&#xe5b;" horiz-adv-x="2506" d="M2408 541h-77q-63 0 -99.5 -46.5t-50.5 -117.5h-94l-98 229h-15l-86 -284h-96l-119 317h-16l-82 -365h-121l-96 365h-4q13 -289 -167 -464t-489 -175q-281 0 -440.5 151t-159.5 427q0 244 148 396t389 152q452 0 452 -413q0 -204 -105 -311t-275 -107q-124 0 -215 43 l28 133l6 2q25 -12 73.5 -21.5t90.5 -9.5q122 0 183 64t61 207q0 123 -73.5 195.5t-225.5 72.5q-172 0 -269.5 -107.5t-97.5 -295.5q0 -204 107.5 -318.5t322.5 -114.5q260 0 388 142t128 413v220h181l108 -355h17l65 322h148l98 -320h14l62 275h106l107 -264h14 q16 49 61 81.5t109 32.5h104v-151z" />
<glyph unicode="&#x2000;" horiz-adv-x="1087" />
<glyph unicode="&#x2001;" horiz-adv-x="2175" />
<glyph unicode="&#x2002;" horiz-adv-x="1087" />
<glyph unicode="&#x2003;" horiz-adv-x="2175" />
<glyph unicode="&#x2004;" horiz-adv-x="725" />
<glyph unicode="&#x2005;" horiz-adv-x="543" />
<glyph unicode="&#x2006;" horiz-adv-x="362" />
<glyph unicode="&#x2007;" horiz-adv-x="362" />
<glyph unicode="&#x2008;" horiz-adv-x="271" />
<glyph unicode="&#x2009;" horiz-adv-x="435" />
<glyph unicode="&#x200a;" horiz-adv-x="120" />
<glyph unicode="&#x2010;" horiz-adv-x="708" d="M610 637h-512v158h512v-158z" />
<glyph unicode="&#x2011;" horiz-adv-x="940" d="M842 637h-744v158h744v-158z" />
<glyph unicode="&#x2012;" horiz-adv-x="940" d="M842 637h-744v158h744v-158z" />
<glyph unicode="&#x2013;" horiz-adv-x="1421" d="M1323 637h-1225v158h1225v-158z" />
<glyph unicode="&#x2014;" horiz-adv-x="1544" d="M1446 637h-1348v158h1348v-158z" />
<glyph unicode="&#x2018;" horiz-adv-x="479" d="M297 963h-199l109 491h174z" />
<glyph unicode="&#x2019;" horiz-adv-x="479" d="M272 963h-174l84 491h199z" />
<glyph unicode="&#x201a;" horiz-adv-x="479" d="M272 -274h-174l84 491h199z" />
<glyph unicode="&#x201c;" horiz-adv-x="786" d="M604 963h-188l108 491h164zM287 963h-189l109 491h164z" />
<glyph unicode="&#x201d;" horiz-adv-x="786" d="M262 963h-164l84 491h189zM580 963h-164l84 491h188z" />
<glyph unicode="&#x201e;" horiz-adv-x="786" d="M262 -274h-164l84 491h189zM580 -274h-164l84 491h188z" />
<glyph unicode="&#x2020;" horiz-adv-x="1093" d="M637 -225h-180v1112h-359v157h359v390h180v-390h358v-157h-358v-1112z" />
<glyph unicode="&#x2021;" horiz-adv-x="1093" d="M637 -225h-180v389h-359v158h359v565h-359v157h359v390h180v-390h358v-157h-358v-565h358v-158h-358v-389z" />
<glyph unicode="&#x2022;" horiz-adv-x="655" d="M328 436q-98 0 -164 67.5t-66 174.5q0 106 66 171.5t164 65.5t163.5 -65.5t65.5 -171.5q0 -107 -65.5 -174.5t-163.5 -67.5z" />
<glyph unicode="&#x2026;" horiz-adv-x="1253" d="M340 98q0 -47 -36 -82.5t-85 -35.5q-52 0 -86.5 35t-34.5 83q0 50 34.5 84.5t86.5 34.5q50 0 85.5 -35t35.5 -84zM748 98q0 -47 -36 -82.5t-85 -35.5q-52 0 -86.5 35t-34.5 83q0 50 34.5 84.5t86.5 34.5q50 0 85.5 -35t35.5 -84zM1155 98q0 -47 -36 -82.5t-85 -35.5 q-52 0 -86.5 35t-34.5 83q0 50 34.5 84.5t86.5 34.5q50 0 85.5 -35t35.5 -84z" />
<glyph unicode="&#x202f;" horiz-adv-x="435" />
<glyph unicode="&#x2030;" horiz-adv-x="2418" d="M403 -20h-204l1040 1474h205zM444 913q86 0 138.5 54t52.5 139q0 84 -52 138t-139 54q-86 0 -138 -53.5t-52 -138.5t52 -139t138 -54zM444 758q-150 0 -248 100.5t-98 247.5t98 247.5t248 100.5t248.5 -100.5t98.5 -247.5t-98.5 -247.5t-248.5 -100.5zM1198 135 q86 0 138.5 54t52.5 139q0 84 -52 138t-139 54q-86 0 -138 -53.5t-52 -138.5t52 -139t138 -54zM1198 -20q-150 0 -248 100.5t-98 247.5t98 247.5t248 100.5t248 -100.5t98 -247.5t-98 -247.5t-248 -100.5zM1974 135q86 0 138.5 54t52.5 139q0 84 -52 138t-139 54 q-86 0 -138 -53.5t-52 -138.5t52 -139t138 -54zM1974 -20q-150 0 -248 100.5t-98 247.5t98 247.5t248 100.5t248 -100.5t98 -247.5t-98 -247.5t-248 -100.5z" />
<glyph unicode="&#x2039;" horiz-adv-x="768" d="M573 227l-475 404v61l475 404l97 -123l-365 -311l365 -312z" />
<glyph unicode="&#x203a;" horiz-adv-x="768" d="M670 631l-475 -404l-97 123l365 312l-365 311l97 123l475 -404v-61z" />
<glyph unicode="&#x2044;" horiz-adv-x="581" d="M68 -20h-185l631 1474h184z" />
<glyph unicode="&#x205f;" horiz-adv-x="543" />
<glyph unicode="&#x20ac;" horiz-adv-x="1294" d="M1190 279l-12 -160q-93 -77 -186.5 -108t-231.5 -31q-203 0 -333.5 115t-184.5 323h-144v155h117q-6 67 -6 144v65h-111v156h129q44 240 180.5 378t346.5 138q158 0 258 -44t184 -148l-98 -109h-21q-72 82 -143.5 111.5t-177.5 29.5q-139 0 -226 -91.5t-120 -264.5h534 v-156h-551v-63q0 -79 6 -146h545v-155h-518q78 -279 350 -279q118 0 209 33.5t189 110.5z" />
<glyph unicode="&#x2113;" horiz-adv-x="952" d="M662 301h151q0 -147 -69 -234t-209 -87q-141 0 -209 85.5t-68 231.5v229q-80 -32 -160 -53v168q111 27 160 57v406q0 164 73 257t222 93q301 0 301 -338q0 -183 -112 -309.5t-316 -214.5v-285q0 -100 28 -142t91 -42q61 0 89 42t28 136zM420 1108v-350 q139 63 200.5 150.5t61.5 209.5q0 100 -30.5 146.5t-94.5 46.5q-74 0 -105.5 -53t-31.5 -150z" />
<glyph unicode="&#x2122;" horiz-adv-x="1234" d="M1153 928h-104v329l-168 -258h-31l-168 256v-327h-104v526h90l196 -305l197 305h92v-526zM369 928h-107v428h-164v98h434v-98h-163v-428z" />
<glyph unicode="&#x2126;" horiz-adv-x="1683" d="M1585 0h-575v147q391 216 391 582q0 253 -155.5 409t-403.5 156t-403.5 -156t-155.5 -409q0 -366 391 -582v-147h-576v158h293q-129 92 -210 243.5t-81 327.5q0 157 53 291t148.5 230t235 150t305.5 54t305.5 -54t234.5 -150t148 -230t53 -291q0 -176 -81 -327.5 t-210 -243.5h293v-158z" />
<glyph unicode="&#x212e;" horiz-adv-x="1705" d="M1298 766v494q-69 69 -184 111t-260 42q-282 0 -444 -149v-498h888zM1466 309h64q-119 -190 -269 -265t-376 -75q-160 0 -305.5 58.5t-251 157.5t-168 237.5t-62.5 292.5q0 142 40.5 264t111 210t166 150t207 92.5t231.5 30.5q148 0 285 -52.5t241 -144t166 -225 t62 -286.5v-39h-1198v-512q63 -78 197 -131.5t278 -53.5q204 0 341.5 66.5t239.5 224.5z" />
<glyph unicode="&#x2202;" horiz-adv-x="1337" d="M991 532q0 113 -77.5 176.5t-202.5 63.5q-190 0 -308 -106t-118 -297q0 -109 72.5 -169.5t220.5 -60.5q104 0 199 52t154.5 143.5t59.5 197.5zM383 1204l-14 4l45 160q65 40 163 63t199 23q227 0 344 -137.5t117 -396.5q0 -93 -10 -183.5t-33.5 -184.5t-59 -176.5 t-90 -156t-122.5 -126t-161 -83t-202 -30.5q-220 0 -339.5 101.5t-119.5 270.5q0 170 83 304.5t220 206t299 71.5q236 0 353 -158q10 95 10 156q0 186 -80 274t-258 88q-173 0 -344 -90z" />
<glyph unicode="&#x2206;" horiz-adv-x="1419" d="M1321 0h-1223v135l516 1319h191l516 -1319v-135zM1135 158l-426 1085l-426 -1085h852z" />
<glyph unicode="&#x220f;" horiz-adv-x="1349" d="M1180 -123h-181v1460h-649v-1460h-180v1618h1010v-1618z" />
<glyph unicode="&#x2211;" horiz-adv-x="1304" d="M1206 -272h-1108v116l568 738l-568 737v115h1108v-158h-860l535 -694l-535 -697h860v-157z" />
<glyph unicode="&#x2212;" horiz-adv-x="1056" d="M956 549h-856v158h856v-158z" />
<glyph unicode="&#x2215;" horiz-adv-x="581" d="M68 -20h-185l631 1474h184z" />
<glyph unicode="&#x2219;" horiz-adv-x="438" d="M340 733q0 -48 -36 -83.5t-85 -35.5q-51 0 -86 35.5t-35 83.5q0 50 34.5 84.5t86.5 34.5q50 0 85.5 -35t35.5 -84z" />
<glyph unicode="&#x221a;" horiz-adv-x="1513" d="M786 0h-176l-274 750h-238v155h373l229 -655l529 1454h186z" />
<glyph unicode="&#x221e;" horiz-adv-x="1679" d="M758 702q-107 195 -281 195q-97 0 -150 -55.5t-53 -139.5q0 -87 52.5 -142.5t150.5 -55.5q176 0 281 198zM840 567q-65 -107 -152.5 -158t-218.5 -51q-165 0 -268 97t-103 247q0 147 101 244.5t262 97.5q131 0 229.5 -58.5t149.5 -149.5q51 91 149.5 149.5t229.5 58.5 q161 0 261.5 -97.5t100.5 -244.5t-101 -245.5t-261 -98.5q-135 0 -224 50.5t-155 158.5zM922 702q51 -96 118 -147t162 -51q98 0 150.5 55.5t52.5 142.5q0 84 -53 139.5t-150 55.5q-173 0 -280 -195z" />
<glyph unicode="&#x222b;" horiz-adv-x="970" d="M98 -375v135l15 7q69 -33 143 -33q172 0 172 164q0 42 -14.5 165t-14.5 220v886q0 157 79.5 232.5t219.5 75.5q99 0 174 -35v-135l-14 -7q-69 33 -143 33q-172 0 -172 -164q0 -42 14 -165t14 -220v-886q0 -157 -79.5 -232.5t-219.5 -75.5q-99 0 -174 35z" />
<glyph unicode="&#x2248;" horiz-adv-x="1083" d="M985 608l-12 -166q-78 -84 -203 -84q-58 0 -129.5 30t-137.5 59.5t-112 29.5q-71 0 -120 -27.5t-93 -78.5h-8l-72 129q108 135 269 135q48 0 105 -18.5t101.5 -41t98.5 -41t96 -18.5q129 0 205 96zM985 901l-12 -164q-80 -86 -203 -86q-46 0 -101.5 18.5t-98 41t-92.5 41 t-87 18.5q-71 0 -120 -27.5t-93 -78.5h-8l-72 129q108 135 269 135q48 0 105 -18.5t101.5 -41t98.5 -41t96 -18.5q127 0 205 96z" />
<glyph unicode="&#x2260;" horiz-adv-x="1056" d="M920 387h-406l-84 -199h-172l84 199h-205v154h271l67 155h-338v154h404l94 219h172l-94 -219h207v-154h-273l-67 -155h340v-154z" />
<glyph unicode="&#x2264;" horiz-adv-x="1056" d="M848 260l-733 434v115l733 434l76 -139l-629 -352l629 -353zM958 0h-860v158h860v-158z" />
<glyph unicode="&#x2265;" horiz-adv-x="1056" d="M942 694l-733 -434l-76 139l629 353l-629 352l76 139l733 -434v-115zM958 0h-860v158h860v-158z" />
<glyph unicode="&#x25ca;" horiz-adv-x="1216" d="M668 0h-119l-451 715l453 719h115l452 -719zM608 207l328 508l-328 508l-323 -508z" />
<glyph unicode="&#x25fc;" horiz-adv-x="1024" d="M0 1024h1024v-1024h-1024v1024z" />
<glyph unicode="&#xf700;" horiz-adv-x="1253" d="M567 0h-155l-103 457h-180v149h309l107 -465q360 0 360 420q0 228 -86.5 331t-279.5 103q-137 0 -246.5 -40.5t-179.5 -100.5l-15 4l17 170q80 55 196.5 87t247.5 32q216 0 340 -100q107 56 123 149h156q-11 -84 -64.5 -145.5t-130.5 -94.5q100 -141 100 -389 q0 -268 -141.5 -417.5t-374.5 -149.5z" />
<glyph unicode="&#xf701;" d="M-440 1319h-742l25 141h717v-141z" />
<glyph unicode="&#xf702;" d="M-440 1319h-742l25 141h545v193h172v-334z" />
<glyph unicode="&#xf703;" d="M-592 1319h-590l25 141h385q-8 19 -8 47q0 86 52 135.5t136 49.5q88 0 140.5 -49t52.5 -136q0 -86 -51.5 -137t-141.5 -51zM-512 1507q0 39 -22.5 60.5t-57.5 21.5q-31 0 -54.5 -22t-23.5 -60q0 -34 23.5 -55.5t54.5 -21.5q34 0 57 21t23 56z" />
<glyph unicode="&#xf704;" d="M-440 1319h-742l25 141h295v193h162v-193h98v193h162v-334z" />
<glyph unicode="&#xf705;" d="M-588 1319h-172v354h172v-354z" />
<glyph unicode="&#xf706;" d="M-442 1319h-492v164q0 25 -9.5 35t-33.5 10h-119l13 129h151q83 0 121.5 -29.5t38.5 -89.5v-86h330v-133z" />
<glyph unicode="&#xf707;" d="M-582 1319h-123v156q0 50 -11.5 71t-43.5 21q-34 0 -45.5 -21t-11.5 -65v-33h-115v31q0 43 -12 65.5t-43 22.5q-35 0 -50.5 -22t-15.5 -77q0 -68 43 -143l-4 -6h-135q-39 70 -39 162q0 105 48.5 159t127.5 54q57 0 87.5 -19.5t50.5 -60.5q37 78 133 78q161 0 161 -174 v-78h9q27 0 40 14t13 47v185h121v-187q0 -180 -185 -180z" />
<glyph unicode="&#xf708;" d="M-457 1456h-166v-137h-163v137h-168v119h168v139h163v-139h166v-119z" />
<glyph unicode="&#xf709;" d="M-422 1487h-256q-44 0 -61 -16.5t-17 -53.5q0 -41 21 -90l-4 -8h-144q-32 66 -32 133q0 83 49 126.5t143 43.5h301v-135z" />
<glyph unicode="&#xf70a;" d="M-160 1319h-172v358h172v-358z" />
<glyph unicode="&#xf70b;" d="M-10 1319h-602v164q0 25 -9.5 35t-33.5 10h-119l12 129h152q83 0 121 -29.5t38 -89.5v-86h441v-133z" />
<glyph unicode="&#xf70c;" d="M-266 1319h-127v156q0 48 -13.5 70t-46.5 22q-35 0 -49 -21.5t-14 -64.5v-33h-115v31q0 88 -61 88q-35 0 -52.5 -24t-17.5 -79q0 -64 43 -139l-4 -6h-139q-39 70 -39 162q0 104 52 158.5t132 54.5q58 0 91 -20t53 -60q37 78 139 78q162 0 162 -174v-78h16q27 0 40 14 t13 47v185h121v-187q0 -89 -44 -134.5t-140 -45.5z" />
<glyph unicode="&#xf70d;" d="M-158 1456h-166v-137h-163v137h-168v119h168v139h163v-139h166v-119z" />
<glyph unicode="&#xf70e;" d="M-45 1487h-342q-44 0 -61 -16.5t-17 -53.5q0 -41 21 -90l-5 -8h-143q-33 68 -33 133q0 83 49.5 126.5t143.5 43.5h387v-135z" />
<glyph unicode="&#xf70f;" horiz-adv-x="1892" d="M1657 416v710h176v-725q0 -193 -125 -307t-336 -114t-335 114t-124 307v293q0 305 -299 305q-95 0 -176.5 -38t-138.5 -105l154 -141v-17q-57 -48 -76 -97t-19 -132v-229q0 -56 34.5 -84.5t90.5 -28.5q63 0 105 18l8 -4v-131q-62 -30 -156 -30q-117 0 -187.5 66.5 t-70.5 180.5v236q0 148 88 233l-172 152v20q212 279 525 279q225 0 346 -112t121 -339v-280q0 -137 73 -210t209 -73t210.5 73t74.5 210z" />
<glyph unicode="&#xf710;" d="M-473 1319h-432q-95 0 -149 44t-54 126q0 73 29 133h147l4 -8q-16 -44 -16 -90q0 -35 18 -49.5t64 -14.5h389v-141z" />
<glyph unicode="&#xf711;" d="M-506 1452q0 -96 -62 -155.5t-159 -59.5q-93 0 -154 59.5t-61 155.5q0 97 61 158t154 61q98 0 159.5 -60.5t61.5 -158.5zM-635 1452q0 43 -26.5 68.5t-65.5 25.5q-34 0 -60 -26t-26 -68q0 -40 26 -65t60 -25q39 0 65.5 25t26.5 65z" />
<glyph unicode="&#xf712;" d="M-449 1309h-94q-68 0 -114.5 28t-59.5 68q-16 -42 -67.5 -73.5t-120.5 -31.5q-108 0 -173 62.5t-65 161.5q0 127 73 194.5t208 67.5h178q180 0 250 39l8 -2l-6 -123q-71 -41 -260 -41h-156q-78 0 -114.5 -29t-36.5 -92q0 -111 106 -111q55 0 80 29t33 84h131 q8 -55 32 -79.5t78 -24.5h90v-127z" />
<glyph unicode="&#xf713;" d="M-444 1780h-164v305h164v-305z" />
<glyph unicode="&#xf714;" d="M-225 1778h-484v149q0 25 -9.5 35t-33.5 10h-108l12 133h141q81 0 111.5 -30t30.5 -93v-71h340v-133z" />
<glyph unicode="&#xf715;" d="M-463 1780h-119v147q0 45 -12.5 65.5t-44.5 20.5q-59 0 -59 -82v-30h-109v30q0 82 -57 82q-34 0 -50 -22t-16 -74q0 -57 41 -131l-4 -6h-131q-37 69 -37 151q0 98 49.5 149.5t124.5 51.5q54 0 84.5 -18t50.5 -56q33 74 131 74q152 0 152 -166v-72h16q26 0 38 13.5 t12 44.5v174h114v-176q0 -170 -174 -170z" />
<glyph unicode="&#xf716;" d="M-279 1919h-170v-139h-155v139h-172v117h172v139h155v-139h170v-117z" />
<glyph unicode="&#xf717;" d="M-229 1833h-342q-44 0 -61 -16.5t-17 -53.5q0 -43 20 -90l-4 -8h-143q-33 68 -33 133q0 83 49.5 125.5t143.5 42.5h387v-133z" />
<glyph unicode="&#xf718;" d="M-160 -850h-164v213q0 45 -17.5 64.5t-57.5 19.5q-51 0 -101 -18l-8 4v127q62 30 154 30q102 0 148 -44.5t46 -151.5v-244z" />
<glyph unicode="&#xf719;" d="M-317 -625v205h157v-227q0 -92 -73.5 -150.5t-192.5 -58.5q-122 0 -193 57t-71 152v45q0 26 -9.5 35.5t-33.5 9.5q-39 0 -80 -16l-8 4v131q58 28 133 28q85 0 118 -35t33 -116v-64q0 -44 27.5 -72t81.5 -28q111 0 111 100z" />
<glyph unicode="&#xf71a;" d="M-127 -612q0 -49 -34 -84t-87 -35q-55 0 -88 35t-33 84q0 51 32.5 84.5t88.5 33.5q53 0 87 -34t34 -84z" />
<glyph unicode="&#xf71b;" horiz-adv-x="1372" d="M1212 -328h-157q-94 117 -320 117q-184 0 -336 -125l-14 4l14 166q143 107 342 107q84 0 165 -20t130 -54v827q0 152 -84.5 228.5t-234.5 76.5q-98 0 -189 -39t-147 -104l174 -141v-17q-48 -46 -61 -93.5t-13 -135.5v-242q0 -118 -57 -182.5t-170 -64.5q-94 0 -156 30 v131l8 4q42 -18 105 -18q52 0 73 26.5t21 86.5v223q0 168 68 233l-193 152v20q102 134 243 206.5t302 72.5q227 0 357 -113t130 -338v-1024z" />
<glyph unicode="&#xf71c;" horiz-adv-x="1372" d="M1036 -29v723q0 152 -84.5 228.5t-234.5 76.5q-98 0 -189 -39t-147 -104l174 -141v-17q-48 -46 -61 -93.5t-13 -135.5v-242q0 -118 -57 -182.5t-170 -64.5q-94 0 -156 30v131l8 4q42 -18 105 -18q52 0 73 26.5t21 86.5v223q0 168 68 233l-193 152v20q102 134 243 206.5 t302 72.5q227 0 357 -113t130 -338v-714q0 -155 -66.5 -237.5t-189.5 -82.5q-79 0 -141 38.5t-86 109.5q-30 -73 -89 -110.5t-138 -37.5q-125 0 -215 62l-15 155l15 4q58 -40 107 -54.5t108 -14.5q116 0 149 120h156q11 -58 46.5 -89t78.5 -31q60 0 82 34t22 123z" />
<glyph unicode="&#xf71d;" horiz-adv-x="1380" d="M1120 0h-145l-281 657l-280 -657h-146l-170 1126h172l105 -860l248 557h143l248 -557l73 377q13 63 13 100q0 72 -35 104t-107 32h-77l22 139h105q112 64 143 221h172q0 -73 -51.5 -153.5t-122.5 -118.5q102 -68 102 -211q0 -47 -14 -129z" />
<glyph unicode="&#xf8ff;" horiz-adv-x="1650" d="M1292 37q-149 -55 -467 -55t-467 55q-148 55 -204 205q-56 151 -56 467t56 467q55 149 204 204q151 56 467 56t467 -56q150 -56 205 -204q55 -149 55 -467t-55 -467q-55 -150 -205 -205zM1262 293v457q0 173 -125.5 287t-311.5 114t-311 -113.5t-125 -287.5v-457h174 l195 209q33 -13 67 -13q78 0 131.5 53t53.5 132t-53.5 131.5t-131.5 52.5q-79 0 -132.5 -52.5t-53.5 -131.5q0 -52 27 -99l-134 -145v320q0 121 84 196.5t209 75.5t209 -75.5t84 -196.5v-457h144zM825 596q-31 0 -54 23t-23 55q0 31 23 53.5t54 22.5t53.5 -22t22.5 -54 t-22.5 -55t-53.5 -23z" />
<glyph horiz-adv-x="1026" d="M-506 1452q0 -96 -62 -155.5t-159 -59.5q-93 0 -154 59.5t-61 155.5q0 97 61 158t154 61q98 0 159.5 -60.5t61.5 -158.5zM-635 1452q0 43 -26.5 68.5t-65.5 25.5q-34 0 -60 -26t-26 -68q0 -40 26 -65t60 -25q39 0 65.5 25t26.5 65zM866 0h-176v717q0 148 -54 215t-200 67 q-185 0 -315 -114h-10l-80 116q72 67 178 106.5t233 39.5q227 0 325.5 -108.5t98.5 -331.5v-707z" />
<glyph d="M-528 1415l16 -90q-67 -27 -141 -27q-242 0 -242 168q0 78 51 123t129 51q-43 30 -43 91q0 60 55 96.5t130 36.5q71 0 120 -27l9 -96l-11 -2q-42 28 -96 28q-72 0 -72 -53q0 -51 80 -69v-95q-50 13 -86 13q-63 0 -91 -20.5t-28 -69.5q0 -76 109 -76q71 0 104 20z" />
<glyph horiz-adv-x="1304" d="M963 72v82q-51 -85 -148 -129.5t-215 -44.5q-218 0 -360 145.5t-142 384.5t141 386.5t355 147.5q125 0 224 -51.5t149 -140.5v172h168v-950q0 -130 -39 -228t-110.5 -157t-166 -88t-213.5 -29q-234 0 -395 115l-14 174l14 4q64 -61 166 -102.5t223 -41.5q171 0 267 84.5 t96 266.5zM618 129q151 0 248 106.5t97 276.5t-98 277.5t-247 107.5q-150 0 -247 -106.5t-97 -280.5q0 -172 97 -276.5t247 -104.5z" />
</font>
</defs>
</svg>
