<?xml version="1.0" standalone="no"?>
<!DOCTYPE svg PUBLIC "-//W3C//DTD SVG 1.1//EN" "http://www.w3.org/Graphics/SVG/1.1/DTD/svg11.dtd" >
<svg xmlns="http://www.w3.org/2000/svg">
<metadata></metadata>
<defs>
<font id="aviancebold" horiz-adv-x="0" >
<font-face units-per-em="2048" ascent="1638" descent="-410" />
<missing-glyph horiz-adv-x="634" />
<glyph unicode="&#xe2f;&#xe2f;" horiz-adv-x="1550" d="M1008 0h-316v475q-100 -41 -211 -41q-120 0 -214.5 39t-152 120.5t-57.5 194.5q0 161 97 260t249 99q64 0 129.5 -17t100.5 -43l-39 -198l-12 -4q-58 35 -129 35q-42 0 -72.5 -30.5t-30.5 -80.5q0 -66 48.5 -95.5t125.5 -29.5q124 0 189 39v403h295v-1126zM1421 0h-315 v1126h315v-1126z" />
<glyph unicode="&#xe4f;&#x22;" horiz-adv-x="1216" d="M555 1116h-207l-12 363h231zM868 1116h-206l-13 363h232zM1159 514q0 -246 -149.5 -390t-401.5 -144t-401.5 144t-149.5 390q0 245 149.5 387.5t401.5 142.5t401.5 -142.5t149.5 -387.5zM608 193q151 0 232.5 83t81.5 238q0 154 -81 234.5t-233 80.5t-232.5 -80.5 t-80.5 -234.5q0 -155 81.5 -238t231.5 -83zM608 293q-101 0 -157 57.5t-56 161.5q0 105 55.5 160t157.5 55t157.5 -55t55.5 -160q0 -104 -56 -161.5t-157 -57.5z" />
<glyph unicode="&#xe24;&#xe32;" horiz-adv-x="1961" d="M1833 -410h-301v1131q0 111 -40 156t-128 45q-131 0 -236 -72q27 -86 27 -172v-1088h-307v1086q0 126 -52 185t-171 59q-67 0 -137.5 -23t-110.5 -57l147 -129v-31q-48 -46 -66 -102t-18 -146v-143q0 -80 76 -80q68 0 121 31l12 -7v-200q-82 -53 -213 -53q-137 0 -220 81 t-83 220v129q0 96 24.5 160t78.5 114l-179 156v30q103 136 255 206.5t321 70.5q236 0 371 -111q64 49 162.5 80t207.5 31q248 0 353.5 -101t105.5 -317v-1139z" />
<glyph unicode="&#xe26;&#xe32;" horiz-adv-x="2027" d="M1898 -410h-301v1131q0 111 -40 156t-127 45q-118 0 -228 -68q27 -89 27 -176v-1088h-307v1086q0 125 -52.5 184.5t-171.5 59.5q-68 0 -144.5 -23.5t-115.5 -56.5l174 -129v-31q-32 -57 -40.5 -99.5t-8.5 -119.5v-180q0 -139 -83 -220t-220 -81q-130 0 -203 47v200l13 6 q41 -24 104 -24q82 0 82 80v143q0 97 13.5 146t54.5 106l-213 160v30q101 134 262 203.5t334 69.5q232 0 366 -107q66 48 163.5 77.5t203.5 29.5q248 0 353 -101t105 -317v-1139z" />
<glyph unicode="fi" horiz-adv-x="1400" d="M1251 0h-307v791h-418q6 -64 6 -148v-643h-307v791h-178v233h178v84q0 80 23 144t62.5 106t95 69.5t116.5 39.5t131 12q110 0 187 -31v-229l-21 -11q-73 27 -129 27q-211 0 -211 -139q0 -18 8 -72h764v-1024zM1272 1303q0 -71 -49.5 -118.5t-122.5 -47.5q-72 0 -120 47.5 t-48 118.5q0 72 48 121t120 49q73 0 122.5 -49t49.5 -121z" />
<glyph unicode="fl" horiz-adv-x="1431" d="M1303 0h-308v791h-469q6 -64 6 -148v-643h-307v791h-178v233h178v84q0 80 23 144t62.5 106t95 69.5t116.5 39.5t131 12q110 0 187 -31v-229l-21 -11q-73 27 -129 27q-211 0 -211 -139q0 -18 8 -72h508v410h308v-1434z" />
<glyph unicode="&#xd;" horiz-adv-x="634" />
<glyph unicode=" "  horiz-adv-x="634" />
<glyph unicode="&#x09;" horiz-adv-x="634" />
<glyph unicode="&#xa0;" horiz-adv-x="634" />
<glyph unicode="!" horiz-adv-x="598" d="M459 430h-320v1004h320v-1004zM469 145q0 -70 -46.5 -117.5t-123.5 -47.5t-123.5 47.5t-46.5 117.5q0 72 46 120t124 48t124 -48t46 -120z" />
<glyph unicode="&#x22;" horiz-adv-x="790" d="M336 1030h-260l-15 424h289zM715 1030h-260l-15 424h289z" />
<glyph unicode="#" horiz-adv-x="1585" d="M1434 344h-299l-101 -344h-315l102 344h-264l-100 -344h-316l103 344h-187v258h267l77 266h-249v258h329l88 308h314l-88 -308h262l88 308h315l-90 -308h158v-258h-236l-78 -266h220v-258zM899 602l78 266h-260l-80 -266h262z" />
<glyph unicode="$" horiz-adv-x="1267" d="M780 -205h-245v211q-153 17 -271.5 68t-195.5 114l118 234h25q44 -44 179 -104t274 -60q102 0 160.5 36t58.5 101q0 22 -6 40.5t-23.5 35t-33.5 28.5t-51 28.5t-59.5 26.5t-76.5 31.5t-86 35.5q-170 73 -229 109q-128 79 -161 196q-14 49 -14 108q0 164 100 264.5 t292 126.5v213h245v-211q233 -21 394 -145l-117 -223h-27q-41 38 -135 77.5t-217 39.5q-217 0 -217 -123q0 -29 11.5 -51t28.5 -37t50.5 -31.5t63.5 -27.5t82.5 -30.5t93.5 -37.5q63 -27 96.5 -42.5t84.5 -42t78 -46.5t60.5 -51t50 -62t28 -72.5t11.5 -89.5 q0 -181 -109 -290.5t-311 -135.5v-211z" />
<glyph unicode="%" horiz-adv-x="1628" d="M459 -20h-328l1038 1474h326zM752 1106q0 -146 -99 -246t-250 -100t-248.5 99.5t-97.5 246.5t98 247.5t248 100.5q151 0 250 -101t99 -247zM403 1001q46 0 74.5 30t28.5 75t-28.5 74.5t-74.5 29.5t-74 -29.5t-28 -74.5t28 -75t74 -30zM1571 326q0 -146 -98.5 -246 t-249.5 -100t-248.5 99.5t-97.5 246.5t98 247.5t248 100.5q151 0 249.5 -100.5t98.5 -247.5zM1223 221q46 0 74 30t28 75t-28 74.5t-74 29.5t-74.5 -29.5t-28.5 -74.5t28.5 -75t74.5 -30z" />
<glyph unicode="&#x26;" horiz-adv-x="1560" d="M586 924q67 48 95 83t28 85q0 59 -30.5 92t-84.5 33t-84.5 -33t-30.5 -92q0 -46 22.5 -77.5t84.5 -90.5zM846 297l-316 311q-89 -37 -125 -88.5t-36 -130.5t56.5 -120.5t162.5 -41.5q161 0 258 70zM1548 0h-397l-107 109q-185 -129 -440 -129q-158 0 -280 45.5 t-194.5 139.5t-72.5 224q0 126 63.5 222.5t201.5 181.5q-77 78 -113.5 147.5t-36.5 151.5q0 165 116 263.5t306 98.5q184 0 301 -103.5t117 -258.5q0 -104 -52.5 -182t-171.5 -162l224 -220q47 85 51 240l268 -47l10 -6q-12 -133 -36.5 -220.5t-77.5 -179.5z" />
<glyph unicode="'" horiz-adv-x="413" d="M338 1030h-262l-15 424h291z" />
<glyph unicode="(" horiz-adv-x="686" d="M629 -121l-230 -153q-158 172 -250 422t-92 524t92 524t250 422l230 -154v-8q-250 -329 -250 -784q0 -456 250 -785v-8z" />
<glyph unicode=")" horiz-adv-x="686" d="M287 -274l-230 153v8q250 329 250 785q0 455 -250 784v8l230 154q158 -172 250 -422t92 -524t-92 -524t-250 -422z" />
<glyph unicode="*" horiz-adv-x="958" d="M858 874l-203 -182l-176 193l-176 -193l-203 182l164 160l-196 92l108 224l158 -88l-12 192h313l-10 -192l157 88l109 -224l-197 -92z" />
<glyph unicode="+" horiz-adv-x="1179" d="M1083 530h-364v-325h-258v325h-365v256h365v324h258v-324h364v-256z" />
<glyph unicode="," horiz-adv-x="532" d="M330 -252h-273l105 469h313z" />
<glyph unicode="-" horiz-adv-x="923" d="M866 569h-809v260h809v-260z" />
<glyph unicode="." horiz-adv-x="417" d="M360 129q0 -60 -45 -104.5t-106 -44.5q-65 0 -108.5 44t-43.5 105q0 62 43.5 106t108.5 44q62 0 106.5 -44.5t44.5 -105.5z" />
<glyph unicode="/" horiz-adv-x="1073" d="M385 -20h-328l631 1474h328z" />
<glyph unicode="0" horiz-adv-x="1568" d="M784 242q198 0 302 122t104 353t-104 353t-302 122q-196 0 -300.5 -122.5t-104.5 -352.5t104.5 -352.5t300.5 -122.5zM784 -20q-336 0 -531.5 201t-195.5 536t195.5 536t531.5 201q338 0 532.5 -200.5t194.5 -536.5t-194.5 -536.5t-532.5 -200.5z" />
<glyph unicode="1" horiz-adv-x="946" d="M694 0h-317v1096l-189 -58l-79 256l585 176v-1470z" />
<glyph unicode="2" horiz-adv-x="1185" d="M1128 0h-1062v217l475 455q43 41 61 58.5t53 54t51 59.5t36 55.5t28 63t8 61.5q0 79 -53.5 123.5t-167.5 44.5q-207 0 -356 -129h-17l-127 203q91 85 229.5 136.5t297.5 51.5q132 0 233.5 -34.5t162 -95t90.5 -136.5t30 -164q0 -46 -11 -91.5t-25 -81.5t-45 -80.5 t-52.5 -72.5t-67.5 -75t-69.5 -70t-77.5 -74l-234 -221h610v-258z" />
<glyph unicode="3" horiz-adv-x="1163" d="M70 119l-13 262l17 4q91 -74 211.5 -108.5t234.5 -34.5q137 0 208 45.5t71 132.5q0 98 -61.5 137t-211.5 39h-172v238h172q139 0 196.5 47.5t57.5 144.5q0 80 -57.5 123t-192.5 43q-201 0 -344 -129h-16l-111 237q72 59 195.5 106.5t282.5 47.5q142 0 250 -32 t172.5 -88.5t96 -128t31.5 -156.5q0 -110 -45 -192t-151 -142q108 -45 161.5 -126.5t53.5 -209.5q0 -82 -35 -152.5t-103 -126.5t-179 -88t-252 -32q-298 0 -467 139z" />
<glyph unicode="4" horiz-adv-x="1361" d="M1085 0h-317v291h-702v237l661 906h358v-906h220v-237h-220v-291zM784 528v527l-376 -527h376z" />
<glyph unicode="5" horiz-adv-x="1193" d="M90 106l-12 263l16 4q176 -131 445 -131q148 0 214 54.5t66 178.5q0 127 -64 176t-227 49h-411l39 734h888v-258h-591l-17 -218h193q110 0 196.5 -26.5t142.5 -72t92.5 -110t52 -135.5t15.5 -153q0 -97 -35.5 -182t-104 -152.5t-180.5 -107t-253 -39.5q-276 0 -465 126z " />
<glyph unicode="6" horiz-adv-x="1245" d="M866 473q0 116 -61.5 177t-183.5 61q-103 0 -170.5 -63.5t-67.5 -172.5q0 -101 64 -168t171 -67q115 0 181.5 63.5t66.5 169.5zM1065 1118l-16 -4q-86 45 -152 61.5t-162 16.5q-262 0 -332 -270q108 51 271 51q228 0 371 -134t143 -356q0 -221 -154.5 -362t-415.5 -141 q-122 0 -222.5 38.5t-177 114t-119 198t-42.5 281.5q0 202 50.5 364t138 265.5t202 158t246.5 54.5q228 0 350 -82z" />
<glyph unicode="7" horiz-adv-x="1179" d="M551 0h-334l549 1176h-719v258h1075v-207z" />
<glyph unicode="8" horiz-adv-x="1265" d="M848 1018q0 84 -54.5 130t-160.5 46t-160.5 -46t-54.5 -130q0 -87 56.5 -133.5t158.5 -46.5t158.5 46.5t56.5 133.5zM887 414q0 186 -254 186t-254 -186q0 -178 254 -178t254 178zM1010 731q198 -108 198 -325q0 -189 -155.5 -307.5t-419.5 -118.5q-265 0 -420.5 118.5 t-155.5 307.5q0 216 199 325q-160 120 -160 291q0 84 31.5 159t94 137t168.5 99t243 37t243 -37t168 -99t93.5 -137t31.5 -159q0 -172 -159 -291z" />
<glyph unicode="9" horiz-adv-x="1261" d="M870 958q0 101 -64 168.5t-171 67.5q-115 0 -181.5 -63.5t-66.5 -169.5q0 -116 62 -177t184 -61q103 0 170 63t67 172zM188 61l-20 254l16 4q145 -77 342 -77q134 0 227 70.5t111 211.5q-133 -63 -284 -63q-228 0 -371 133.5t-143 355.5q0 221 154 362.5t415 141.5 q122 0 222.5 -38.5t177 -114.5t119 -198.5t42.5 -281.5q0 -409 -169.5 -625t-453.5 -216q-110 0 -217 20t-168 61z" />
<glyph unicode=":" horiz-adv-x="438" d="M381 139q0 -65 -48 -112t-114 -47q-69 0 -115.5 46.5t-46.5 112.5q0 67 46 113.5t116 46.5q66 0 114 -47t48 -113zM381 846q0 -65 -48 -112.5t-114 -47.5q-69 0 -115.5 47t-46.5 113q0 67 46 113.5t116 46.5q66 0 114 -47t48 -113z" />
<glyph unicode=";" horiz-adv-x="532" d="M330 -252h-273l105 469h313zM459 846q0 -65 -48 -112.5t-114 -47.5q-69 0 -115.5 47t-46.5 113q0 67 46 113.5t116 46.5q66 0 114 -47t48 -113z" />
<glyph unicode="&#x3c;" horiz-adv-x="1159" d="M928 113l-819 477v145l819 475l121 -217l-596 -331l596 -330z" />
<glyph unicode="=" horiz-adv-x="1159" d="M1010 707h-860v229h860v-229zM1010 340h-860v229h860v-229z" />
<glyph unicode="&#x3e;" horiz-adv-x="1159" d="M1049 590l-818 -477l-122 219l598 330l-598 331l122 217l818 -475v-145z" />
<glyph unicode="?" horiz-adv-x="1128" d="M690 389h-309v66q0 133 46 226.5t153 170.5q105 76 137.5 115.5t32.5 101.5q0 61 -52.5 92t-144.5 31q-123 0 -218 -38t-134 -75h-27l-117 224q196 151 498 151q246 0 381 -102.5t135 -288.5q0 -81 -30.5 -145.5t-80.5 -113.5t-145 -120q-66 -51 -95.5 -101t-29.5 -118 v-76zM713 145q0 -68 -50 -116.5t-120 -48.5q-73 0 -121.5 48.5t-48.5 116.5q0 71 48.5 119.5t121.5 48.5q71 0 120.5 -49t49.5 -119z" />
<glyph unicode="@" horiz-adv-x="1652" d="M936 631v55q-44 -20 -105 -29q-64 -10 -88 -31t-24 -63q0 -65 92 -65q59 0 92 33.5t33 99.5zM1282 293l-25 -211q-89 -50 -211.5 -76t-250.5 -26q-227 0 -395.5 94.5t-255.5 261t-87 383.5q0 162 58 299.5t159.5 233.5t244.5 150t308 54q168 0 307 -41t242.5 -121 t161 -208t57.5 -293q0 -115 -45 -215.5t-128 -162t-185 -61.5q-68 0 -107 23t-71 72q-103 -123 -285 -123q-137 0 -220 58t-83 173q0 50 16 88t40 63t65 45t79.5 31t94.5 23q72 16 111.5 31t50 26t10.5 25q0 51 -100 51q-134 0 -238 -84h-18l-62 182q60 40 148 68.5 t186 28.5q169 0 247.5 -68.5t78.5 -204.5v-248q0 -23 14 -37t33 -14q47 0 78.5 59.5t31.5 168.5q0 225 -137 334.5t-373 109.5q-104 0 -195 -33.5t-161.5 -96.5t-111 -162.5t-40.5 -223.5q0 -243 132 -382.5t376 -139.5q113 0 229 26.5t204 75.5z" />
<glyph unicode="A" horiz-adv-x="1581" d="M1524 0h-338l-111 315h-569l-111 -315h-338l543 1434h381zM987 565l-196 561l-197 -561h393z" />
<glyph unicode="B" horiz-adv-x="1384" d="M786 0h-657v1434h664q220 0 336 -103t116 -272q0 -233 -207 -311q127 -38 203 -127.5t76 -217.5q0 -185 -143 -294t-388 -109zM446 858h269q99 0 156 40.5t57 121.5q0 82 -57 122t-158 40h-267v-324zM446 252h306q111 0 177 45.5t66 132.5q0 89 -65.5 135.5t-175.5 46.5 h-308v-360z" />
<glyph unicode="C" horiz-adv-x="1495" d="M1382 375l-28 -252q-182 -143 -494 -143q-179 0 -328 55.5t-250.5 154t-157.5 234.5t-56 295t56 295t156 233t244.5 152t315.5 55q195 0 351 -68t236 -180l-174 -190h-24q-48 80 -141.5 128t-219.5 48q-208 0 -343.5 -127t-135.5 -340q0 -212 137.5 -347.5t370.5 -135.5 q244 0 459 141z" />
<glyph unicode="D" horiz-adv-x="1531" d="M686 0h-557v1434h557q175 0 322 -54.5t246.5 -150t154.5 -227t55 -283.5t-55 -284t-154.5 -228.5t-246.5 -151.5t-322 -55zM446 256h201q223 0 359.5 128t136.5 335q0 206 -136.5 332.5t-359.5 126.5h-201v-922z" />
<glyph unicode="E" horiz-adv-x="1228" d="M1161 0h-1032v1434h1010v-258h-693v-334h650v-260h-650v-324h715v-258z" />
<glyph unicode="F" horiz-adv-x="1159" d="M1049 561h-603v-561h-317v1434h963v-258h-646v-355h603v-260z" />
<glyph unicode="G" horiz-adv-x="1554" d="M1165 303v410h289v-563q-90 -67 -249.5 -118.5t-350.5 -51.5q-189 0 -340 57t-247.5 157t-147.5 234t-51 291q0 332 214 533.5t574 201.5q208 0 369.5 -67t240.5 -181l-174 -190h-22q-124 176 -389 176q-222 0 -357 -124t-135 -349q0 -102 30 -188t88.5 -153t153 -104.5 t216.5 -37.5q189 0 288 67z" />
<glyph unicode="H" horiz-adv-x="1550" d="M1421 0h-317v584h-658v-584h-317v1434h317v-592h658v592h317v-1434z" />
<glyph unicode="I" horiz-adv-x="575" d="M446 0h-317v1434h317v-1434z" />
<glyph unicode="J" horiz-adv-x="892" d="M457 399v1035h317v-1080q0 -184 -109.5 -279t-295.5 -95q-106 0 -200.5 28.5t-141.5 63.5v252h22q109 -82 232 -82q84 0 130 39.5t46 117.5z" />
<glyph unicode="K" horiz-adv-x="1552" d="M1495 0h-401l-420 580l-228 -248v-332h-317v1434h317v-672l623 672h393l-583 -633z" />
<glyph unicode="L" horiz-adv-x="1155" d="M1098 0h-969v1434h317v-1176h652v-258z" />
<glyph unicode="M" horiz-adv-x="1732" d="M1604 0h-310v887l-362 -580h-127l-367 580v-887h-309v1434h279l458 -754l459 754h279v-1434z" />
<glyph unicode="N" horiz-adv-x="1572" d="M1444 0h-316l-682 979v-979h-317v1434h315l682 -977v977h318v-1434z" />
<glyph unicode="O" horiz-adv-x="1683" d="M842 242q196 0 324 130t128 347t-127.5 345t-324.5 128t-325 -128.5t-128 -344.5q0 -217 128.5 -347t324.5 -130zM1616 719q0 -211 -97.5 -379.5t-274.5 -264t-402 -95.5t-402 95.5t-274.5 264t-97.5 379.5q0 159 57 295.5t158 233t245.5 151.5t313.5 55t313.5 -55 t245.5 -151.5t158 -233t57 -295.5z" />
<glyph unicode="P" horiz-adv-x="1316" d="M446 0h-317v1434h578q255 0 398.5 -126t143.5 -331q0 -219 -141.5 -341t-400.5 -122h-261v-514zM446 766h213q129 0 199 52.5t70 158.5q0 205 -269 205h-213v-416z" />
<glyph unicode="Q" horiz-adv-x="1683" d="M1544 -223l-299 -70l-274 281q-55 -8 -129 -8q-225 0 -402 95.5t-274.5 264t-97.5 379.5q0 159 57 295.5t158 233t245.5 151.5t313.5 55t313.5 -55t245.5 -151.5t158 -233t57 -295.5q0 -213 -101 -383.5t-278 -263.5l307 -265v-30zM842 242q195 0 323.5 130t128.5 347 q0 216 -128 344.5t-324 128.5q-197 0 -325 -128.5t-128 -344.5q0 -217 128.5 -347t324.5 -130z" />
<glyph unicode="R" horiz-adv-x="1390" d="M1333 0h-370l-390 567h-127v-567h-317v1434h582q253 0 389.5 -121t136.5 -322q0 -167 -92.5 -279t-241.5 -139zM446 815h218q125 0 188 48t63 138q0 181 -251 181h-218v-367z" />
<glyph unicode="S" horiz-adv-x="1267" d="M1057 1079h-27q-41 38 -135 77.5t-217 39.5q-107 0 -162 -34t-55 -99q0 -25 7 -45t25.5 -37.5t35.5 -29.5t53 -27.5t60.5 -25t75 -28t81.5 -30.5q56 -22 93.5 -37.5t83.5 -39t76 -46t60.5 -54.5t48 -67.5t28.5 -82t11 -101.5q0 -207 -143 -319.5t-404 -112.5 q-196 0 -343 56t-242 132l118 233h25q44 -44 179 -103.5t274 -59.5q102 0 160.5 36t58.5 101q0 22 -6.5 40.5t-24.5 35t-35 29t-52 28.5t-62 27t-77.5 31.5t-86.5 35.5q-77 33 -129 59.5t-106.5 66t-87 82t-53 102.5t-20.5 132q0 195 137 302.5t396 107.5q302 0 498 -151z " />
<glyph unicode="T" horiz-adv-x="1257" d="M786 0h-317v1176h-432v258h1184v-258h-435v-1176z" />
<glyph unicode="U" horiz-adv-x="1540" d="M1094 547v887h317v-887q0 -177 -87 -307.5t-231 -195t-323 -64.5t-323 64.5t-231 195t-87 307.5v887h317v-887q0 -134 86.5 -219.5t237.5 -85.5t237.5 85.5t86.5 219.5z" />
<glyph unicode="V" horiz-adv-x="1585" d="M981 0h-377l-547 1434h338l398 -1133l397 1133h338z" />
<glyph unicode="W" horiz-adv-x="2183" d="M1729 0h-351l-286 993l-289 -993h-348l-398 1434h338l260 -1059l301 1059h269l301 -1063l262 1063h338z" />
<glyph unicode="X" horiz-adv-x="1550" d="M1493 0h-360l-357 494l-358 -494h-361l545 725l-534 709h358l350 -480l348 480h357l-533 -709z" />
<glyph unicode="Y" horiz-adv-x="1480" d="M901 0h-317v535l-527 899h336l348 -631l346 631h336l-522 -891v-543z" />
<glyph unicode="Z" horiz-adv-x="1355" d="M1268 0h-1180v182l741 994h-702v258h1120v-183l-735 -993h756v-258z" />
<glyph unicode="[" horiz-adv-x="765" d="M709 -205h-580v1843h557v-258h-240v-1327h263v-258z" />
<glyph unicode="\" horiz-adv-x="1073" d="M1016 -20h-328l-631 1474h328z" />
<glyph unicode="]" horiz-adv-x="765" d="M637 -205h-580v258h262v1327h-239v258h557v-1843z" />
<glyph unicode="^" horiz-adv-x="1114" d="M1057 909h-307l-193 369l-192 -369h-308l316 545h368z" />
<glyph unicode="_" horiz-adv-x="948" d="M948 -362h-948v260h948v-260z" />
<glyph unicode="`" horiz-adv-x="598" d="M535 1556h-293l-179 429h320z" />
<glyph unicode="a" horiz-adv-x="1198" d="M1141 199l-33 -168q-17 -17 -61 -34t-107 -17q-174 0 -221 141q-42 -69 -122.5 -105t-182.5 -36q-163 0 -260 85.5t-97 221.5q0 61 21 110.5t54 82.5t84.5 59.5t101 41.5t114.5 29q27 6 59 12.5t51 10t41.5 8.5t35.5 9t27 9t21 10t13.5 12t9 15t2.5 19q0 84 -155 84 q-190 0 -318 -107h-22l-78 232q74 48 193.5 84t258.5 36q430 0 430 -364v-414q0 -40 11.5 -55.5t40.5 -15.5q38 0 67 18zM688 348v119q-61 -30 -143 -47q-97 -22 -137.5 -45t-40.5 -66q0 -46 37 -73t110 -27q71 0 122.5 37t51.5 102z" />
<glyph unicode="b" horiz-adv-x="1288" d="M334 0h-205v1434h307v-504q53 55 134.5 84.5t174.5 29.5q212 0 349 -146t137 -384q0 -242 -140.5 -388t-361.5 -146q-240 0 -348 165zM676 219q112 0 178 81.5t66 211.5t-66 210.5t-178 80.5t-178 -80.5t-66 -210.5q0 -131 66 -212t178 -81z" />
<glyph unicode="c" horiz-adv-x="1093" d="M1004 289l-21 -217q-62 -44 -160 -68t-200 -24q-135 0 -244 42.5t-178.5 116t-106.5 170t-37 207.5q0 233 155 380.5t419 147.5q254 0 405 -137l-125 -192h-18q-76 86 -225 86q-139 0 -219 -79.5t-80 -209.5q0 -131 87.5 -213t252.5 -82q72 0 144.5 22.5t125.5 57.5z" />
<glyph unicode="d" horiz-adv-x="1288" d="M1159 0h-297v115q-108 -135 -315 -135q-217 0 -353.5 145.5t-136.5 384.5q0 246 142.5 390t365.5 144q188 0 287 -102v492h307v-1434zM612 219q111 0 176.5 81.5t65.5 211.5q0 131 -65.5 211t-176.5 80q-112 0 -177.5 -80.5t-65.5 -210.5q0 -129 66 -211t177 -82z" />
<glyph unicode="e" horiz-adv-x="1150" d="M1022 299l-21 -225q-63 -45 -162.5 -69.5t-199.5 -24.5q-138 0 -250 42.5t-183.5 116.5t-110 171.5t-38.5 209.5q0 226 144.5 375t378.5 149q104 0 195.5 -31.5t163.5 -91.5t113.5 -157t41.5 -219v-105h-732q25 -97 113 -155t242 -58q76 0 151.5 22.5t130.5 57.5z M360 629h439q0 72 -54 125t-155 53q-94 0 -153 -48t-77 -130z" />
<glyph unicode="f" horiz-adv-x="856" d="M532 0h-307v791h-178v233h178v84q0 371 387 371q110 0 187 -31v-229l-21 -11q-73 27 -129 27q-170 0 -170 -139q0 -18 8 -72h308v-233h-269q6 -64 6 -148v-643z" />
<glyph unicode="g" horiz-adv-x="1173" d="M485 244h322q148 0 228.5 -78.5t80.5 -210.5q0 -79 -31.5 -145t-95.5 -117t-171 -80t-249 -29q-107 0 -195 17t-146 45t-97.5 65.5t-56.5 77.5t-17 82q0 80 57.5 131.5t155.5 69.5q-112 56 -112 161q0 110 110 177q-186 89 -186 286q0 153 119.5 244.5t355.5 103.5 l510 25v-143l-195 10q77 -39 119.5 -105t42.5 -151q0 -152 -126.5 -240t-346.5 -88q-63 0 -131 10q-31 -28 -31 -59q0 -29 23.5 -44t62.5 -15zM719 688q0 73 -44 113.5t-118 40.5t-119 -41t-45 -113t45 -112.5t121 -40.5q74 0 117 40t43 113zM727 -25h-328q-49 -24 -49 -84 q0 -50 55.5 -81t169.5 -31q124 0 185 36.5t61 88.5q0 38 -23 54.5t-71 16.5z" />
<glyph unicode="h" horiz-adv-x="1251" d="M1133 0h-308v623q0 87 -45.5 133.5t-134.5 46.5q-93 0 -151 -52t-58 -147v-604h-307v1434h301v-529q103 139 324 139q180 0 279.5 -88.5t99.5 -255.5v-700z" />
<glyph unicode="i" horiz-adv-x="598" d="M469 1303q0 -71 -49.5 -118.5t-122.5 -47.5q-72 0 -120 47.5t-48 118.5q0 72 48 121t120 49q73 0 122.5 -49t49.5 -121zM453 0h-308v1024h308v-1024z" />
<glyph unicode="j" horiz-adv-x="708" d="M580 1303q0 -71 -48.5 -118.5t-121.5 -47.5q-72 0 -120 47.5t-48 118.5q0 72 48 121t120 49q73 0 121.5 -49t48.5 -121zM-10 -397l-45 221l18 14q47 -16 94 -16q100 0 149.5 59t49.5 187v956h307v-918q0 -262 -101 -394t-335 -132q-82 0 -137 23z" />
<glyph unicode="k" horiz-adv-x="1220" d="M1163 0h-358l-273 393l-96 -96v-297h-307v1434h307v-770l355 360h370l-418 -420z" />
<glyph unicode="l" horiz-adv-x="565" d="M436 0h-307v1434h307v-1434z" />
<glyph unicode="m" horiz-adv-x="1849" d="M1731 0h-308v627q0 84 -46.5 130t-121.5 46q-77 0 -124.5 -47t-47.5 -133v-623h-307v625q0 85 -46 131.5t-122 46.5q-75 0 -123.5 -47.5t-48.5 -134.5v-621h-307v1024h297v-129q36 69 111 109t180 40q107 0 186.5 -40.5t116.5 -122.5q100 163 321 163q173 0 281.5 -93 t108.5 -269v-682z" />
<glyph unicode="n" horiz-adv-x="1251" d="M1133 0h-308v623q0 87 -45.5 133.5t-134.5 46.5q-93 0 -151 -52t-58 -147v-604h-307v1024h299v-123q101 143 326 143q180 0 279.5 -88.5t99.5 -255.5v-700z" />
<glyph unicode="o" horiz-adv-x="1228" d="M1171 512q0 -240 -154.5 -386t-402.5 -146t-402.5 146t-154.5 386t154.5 386t402.5 146t402.5 -146t154.5 -386zM614 219q115 0 180.5 81.5t65.5 211.5t-65.5 210.5t-180.5 80.5t-180 -80.5t-65 -210.5q0 -131 65 -212t180 -81z" />
<glyph unicode="p" horiz-adv-x="1284" d="M436 -410h-307v1434h297v-115q49 61 130 98t189 37q215 0 348.5 -145t133.5 -385q0 -247 -138 -390.5t-360 -143.5q-195 0 -293 110v-500zM674 223q111 0 176 80t65 209q0 130 -65 211.5t-176 81.5q-112 0 -178 -81t-66 -212q0 -129 66 -209t178 -80z" />
<glyph unicode="q" horiz-adv-x="1288" d="M1159 -410h-307v500q-98 -110 -295 -110q-224 0 -362 143.5t-138 386.5q0 242 138.5 388t355.5 146q208 0 311 -133v113h297v-1434zM612 223q112 0 177 79.5t65 209.5q0 131 -65.5 212t-176.5 81q-112 0 -177.5 -81.5t-65.5 -211.5q0 -129 65.5 -209t177.5 -80z" />
<glyph unicode="r" horiz-adv-x="843" d="M436 0h-307v1024h299v-150q80 170 293 170q42 0 76 -6v-254l-25 -10q-49 29 -108 29q-228 0 -228 -297v-506z" />
<glyph unicode="s" horiz-adv-x="985" d="M813 723h-18q-29 27 -107.5 59.5t-165.5 32.5q-57 0 -86.5 -16t-29.5 -43q0 -35 48 -61t183 -74q159 -58 225 -124.5t66 -177.5q0 -166 -120.5 -252.5t-334.5 -86.5q-154 0 -262.5 42t-153.5 87l95 210h18q141 -112 309 -112q72 0 109 22.5t37 51.5q0 19 -15 34t-45 26.5 t-63 21.5t-82.5 25.5t-89.5 31.5q-111 47 -173.5 120t-62.5 187q0 158 117 237.5t313 79.5q139 0 241.5 -34.5t141.5 -73.5z" />
<glyph unicode="t" horiz-adv-x="847" d="M791 246v-219q-41 -20 -110.5 -33.5t-133.5 -13.5q-159 0 -244.5 72t-85.5 247v492h-160v233h160v262h307v-262h248v-233h-248v-424q0 -78 28.5 -108t90.5 -30q76 0 127 31z" />
<glyph unicode="u" horiz-adv-x="1249" d="M1120 0h-299v127q-92 -147 -323 -147q-179 0 -279 88.5t-100 255.5v700h307v-623q0 -86 45 -132t131 -46q94 0 152.5 50t58.5 145v606h307v-1024z" />
<glyph unicode="v" horiz-adv-x="1259" d="M791 0h-322l-412 1024h316l258 -772l256 772h315z" />
<glyph unicode="w" horiz-adv-x="1759" d="M1374 0h-291l-202 674l-205 -674h-291l-328 1024h316l168 -713l207 713h280l195 -709l163 709h316z" />
<glyph unicode="x" horiz-adv-x="1200" d="M1143 0h-348l-193 328l-196 -328h-349l346 512l-335 512h348l184 -324l184 324h346l-335 -512z" />
<glyph unicode="y" horiz-adv-x="1259" d="M588 -410h-307l186 412l-410 1022h336l225 -717l269 717h315z" />
<glyph unicode="z" horiz-adv-x="1007" d="M950 0h-893v156l490 635h-457v233h836v-152l-465 -639h489v-233z" />
<glyph unicode="{" horiz-adv-x="774" d="M717 -203h-178q-263 0 -263 285v362q0 144 -131 144h-88v258h88q131 0 131 143v363q0 284 263 284h178v-219h-25q-57 0 -77.5 -24t-20.5 -101v-350q0 -141 -113 -225q113 -84 113 -225v-351q0 -77 20.5 -101t77.5 -24h25v-219z" />
<glyph unicode="|" horiz-adv-x="575" d="M446 -205h-317v1843h317v-1843z" />
<glyph unicode="}" horiz-adv-x="774" d="M236 -203h-179v219h25q57 0 77.5 24t20.5 101v351q0 141 113 225q-113 84 -113 225v350q0 77 -20.5 101t-77.5 24h-25v219h179q262 0 262 -284v-363q0 -143 131 -143h88v-258h-88q-131 0 -131 -144v-362q0 -285 -262 -285z" />
<glyph unicode="~" horiz-adv-x="1146" d="M1090 899l-23 -268q-85 -94 -225 -94q-52 0 -114.5 21t-110 45.5t-103 45.5t-96.5 21q-141 0 -240 -119h-10l-111 213q57 69 145 116.5t181 47.5q58 0 124 -21t115 -45.5t109 -45.5t107 -21q152 0 237 108z" />
<glyph horiz-adv-x="1024" />
<glyph unicode="&#xa1;" horiz-adv-x="598" d="M139 594h320v-1004h-320v1004zM469 879q0 -72 -46 -120t-124 -48t-124 48t-46 120q0 70 46.5 117.5t123.5 47.5t123.5 -47.5t46.5 -117.5z" />
<glyph unicode="&#xa2;" horiz-adv-x="1093" d="M750 -205h-246v195q-213 33 -330 178.5t-117 347.5t118.5 342.5t328.5 175.5v195h246v-195q168 -25 286 -127l-125 -192h-18q-76 86 -225 86q-139 0 -219 -79.5t-80 -209.5q0 -131 87.5 -213t252.5 -82q72 0 144.5 22.5t125.5 57.5l25 -8l-21 -217q-86 -62 -233 -82v-195 z" />
<glyph unicode="&#xa3;" horiz-adv-x="954" d="M897 0h-840v233h129q60 78 60 226v258h-178v233h178v158q0 371 387 371q109 0 186 -31v-229l-20 -11q-73 27 -129 27q-170 0 -170 -139q0 -92 8 -146h307v-233h-268q6 -64 6 -148v-104q0 -140 -49 -232h393v-233z" />
<glyph unicode="&#xa4;" horiz-adv-x="1167" d="M584 414q62 0 103.5 42t41.5 103t-42.5 104.5t-102.5 43.5q-61 0 -103.5 -43t-42.5 -105q0 -61 42 -103t104 -42zM991 94l-180 139q-92 -69 -227 -69q-136 0 -228 69l-180 -139l-117 144l174 129q-55 79 -55 192q0 62 11 106t42 89l-174 129l123 151l178 -143 q84 63 226 63q141 0 225 -63l178 143l123 -151l-174 -129q31 -45 42 -89t11 -106q0 -113 -55 -192l174 -129z" />
<glyph unicode="&#xa5;" horiz-adv-x="1480" d="M1151 150h-250v-150h-317v150h-273v188h273v90h-273v188h224l-478 818h336l348 -631l346 631h336l-479 -818h207v-188h-250v-90h250v-188z" />
<glyph unicode="&#xa6;" horiz-adv-x="575" d="M446 897h-317v741h317v-741zM446 -205h-317v742h317v-742z" />
<glyph unicode="&#xa7;" horiz-adv-x="1247" d="M57 -199l119 234h25q44 -44 178.5 -104t273.5 -60q102 0 160.5 36t58.5 101q0 22 -6.5 40.5t-24.5 35.5t-35 29t-52.5 28.5t-61.5 27.5t-77.5 31.5t-86.5 35.5q-77 33 -129 59.5t-106.5 66t-86.5 82t-52.5 102.5t-20.5 132q0 88 49 184q-49 100 -49 182q0 195 137 302.5 t396 107.5q301 0 497 -151l-116 -224h-27q-41 38 -135 77.5t-217 39.5q-107 0 -162 -34t-55 -99q0 -25 7 -45t25.5 -37.5t35 -29.5t52.5 -27.5t60.5 -25t75 -28t81.5 -30.5q56 -22 93.5 -37.5t84 -39t76 -46t60.5 -54.5t48.5 -67.5t28.5 -82t11 -101.5q0 -113 -49 -187 q49 -66 49 -180q0 -207 -143 -319.5t-404 -112.5q-196 0 -343.5 56t-242.5 132zM899 373q0 3 1 20t1 21q0 28 -17.5 54.5t-40 45t-66.5 41t-73.5 34.5t-85.5 34q-40 14 -109.5 47.5t-100.5 54.5q-5 -20 -5 -47t14 -50.5t35 -41.5t61.5 -39t76 -35.5t96.5 -38.5 q37 -13 111.5 -47.5t101.5 -52.5z" />
<glyph unicode="&#xa8;" horiz-adv-x="909" d="M360 1696q0 -62 -43 -106t-108 -44t-108.5 44t-43.5 106t43.5 105.5t108.5 43.5t108 -43.5t43 -105.5zM852 1696q0 -62 -43.5 -106t-108.5 -44t-108 44t-43 106t43 105.5t108 43.5t108.5 -43.5t43.5 -105.5z" />
<glyph unicode="&#xa9;" horiz-adv-x="1593" d="M797 -20q-212 0 -380.5 93.5t-264 262.5t-95.5 383t95.5 382t264 260.5t380.5 92.5t380.5 -92.5t263.5 -260.5t95 -382t-95 -383t-263.5 -262.5t-380.5 -93.5zM797 170q109 0 205 39.5t166.5 109.5t111.5 173.5t41 226.5q0 244 -150 394.5t-374 150.5q-109 0 -205.5 -39 t-167 -108.5t-111.5 -172.5t-41 -225q0 -123 41 -226.5t111.5 -173.5t167 -109.5t205.5 -39.5zM1145 537l-15 -181q-108 -77 -301 -77q-113 0 -203.5 35.5t-148.5 97t-88.5 141.5t-30.5 172q0 195 129 318.5t349 123.5q211 0 338 -116l-105 -158h-16q-63 70 -185 70 q-116 0 -183 -66.5t-67 -173.5q0 -109 72.5 -177.5t208.5 -68.5q125 0 227 66z" />
<glyph unicode="&#xaa;" horiz-adv-x="851" d="M795 881l-23 -115q-12 -12 -42 -23.5t-73 -11.5q-116 0 -151 96q-29 -47 -82.5 -71.5t-122.5 -24.5q-112 0 -178 58.5t-66 152.5q0 51 20 89.5t59 63t79.5 39.5t97.5 27q18 4 39.5 8t34.5 6.5t28 6t24 6t18.5 5.5t14.5 6.5t9.5 8.5t6 10.5t1.5 12.5q0 57 -104 57 q-131 0 -217 -71h-16l-54 157q50 33 133 57.5t177 24.5q292 0 292 -248v-280q0 -28 7.5 -38.5t27.5 -10.5q25 0 45 12zM485 985v80q-37 -21 -96 -33q-65 -15 -93 -31t-28 -45q0 -67 101 -67q47 0 81.5 25.5t34.5 70.5z" />
<glyph unicode="&#xab;" horiz-adv-x="1359" d="M578 170l-521 448v99l521 448l176 -219l-330 -278l330 -279zM1126 170l-520 448v99l520 448l177 -219l-330 -278l330 -279z" />
<glyph unicode="&#xac;" horiz-adv-x="923" d="M866 342h-260v227h-549v260h809v-487z" />
<glyph unicode="&#xad;" horiz-adv-x="923" d="M866 569h-809v260h809v-260z" />
<glyph unicode="&#xae;" horiz-adv-x="1593" d="M797 -20q-212 0 -380.5 93.5t-264 262.5t-95.5 383t95.5 382t264 260.5t380.5 92.5t380.5 -92.5t263.5 -260.5t95 -382t-95 -383t-263.5 -262.5t-380.5 -93.5zM797 170q109 0 205 39.5t166.5 109.5t111.5 173.5t41 226.5q0 244 -150 394.5t-374 150.5q-109 0 -205.5 -39 t-167 -108.5t-111.5 -172.5t-41 -225q0 -123 41 -226.5t111.5 -173.5t167 -109.5t205.5 -39.5zM1133 319h-213l-187 324h-80v-326h-176v828h344q146 0 220.5 -69t74.5 -187q0 -97 -53 -161t-139 -79zM653 788h131q71 0 108.5 28t37.5 79q0 104 -146 104h-131v-211z" />
<glyph unicode="&#xaf;" horiz-adv-x="796" d="M739 1606h-682v217h682v-217z" />
<glyph unicode="&#xb0;" horiz-adv-x="735" d="M678 1171q0 -139 -88 -223t-225 -84q-134 0 -221 84t-87 223t87 225.5t221 86.5q138 0 225.5 -86t87.5 -226zM365 1065q47 0 76.5 28.5t29.5 77.5q0 51 -29.5 81t-76.5 30q-42 0 -72.5 -30.5t-30.5 -80.5q0 -48 30.5 -77t72.5 -29z" />
<glyph unicode="&#xb1;" horiz-adv-x="1179" d="M1083 612h-364v-284h-258v284h-365v256h365v283h258v-283h364v-256zM1083 0h-987v211h987v-211z" />
<glyph unicode="&#xb2;" horiz-adv-x="671" d="M614 1024h-553v147l213 187q60 51 82.5 81t22.5 66q0 51 -74 51q-83 0 -155 -59h-9l-84 143q43 40 120 66.5t155 26.5q131 0 199.5 -57t68.5 -154q0 -78 -40.5 -139t-121.5 -130l-71 -61h247v-168z" />
<glyph unicode="&#xb3;" horiz-adv-x="679" d="M276 1296h-65v158h65q65 0 90 16t25 46q0 59 -100 59q-93 0 -170 -62h-8l-45 146q30 27 104 50.5t156 23.5q146 0 216 -56.5t70 -140.5q0 -109 -98 -162q107 -39 107 -162q0 -88 -74 -141t-227 -53q-66 0 -139 16.5t-120 50.5l-6 168l9 2q44 -35 102.5 -52t112.5 -17 q68 0 93 14t25 43q0 30 -26.5 41.5t-96.5 11.5z" />
<glyph unicode="&#xb4;" horiz-adv-x="598" d="M356 1556h-293l152 429h320z" />
<glyph unicode="&#xb5;" horiz-adv-x="1259" d="M1130 0h-299v127q-92 -147 -303 -147q-54 0 -92 10v-377h-307v1411h307v-639q0 -162 176 -162q94 0 152.5 50t58.5 145v606h307v-1024z" />
<glyph unicode="&#xb6;" horiz-adv-x="1347" d="M1219 -387h-314v1563h-186v-1563h-313v1022q-64 6 -124 33t-111.5 73.5t-82.5 121.5t-31 167q0 96 36 175.5t93.5 128t125 74.5t134.5 26h773v-1821z" />
<glyph unicode="&#xb7;" horiz-adv-x="417" d="M360 731q0 -60 -45 -104.5t-106 -44.5q-65 0 -108.5 44t-43.5 105q0 62 43.5 106t108.5 44q62 0 106.5 -44.5t44.5 -105.5z" />
<glyph unicode="&#xb8;" horiz-adv-x="591" d="M74 -467l-17 135l11 2q79 -47 180 -47q98 0 98 82q0 42 -24 59t-82 17h-142l72 219h190l-36 -109q103 -4 157 -53.5t54 -136.5q0 -99 -70 -156t-191 -57q-119 0 -200 45z" />
<glyph unicode="&#xb9;" horiz-adv-x="567" d="M438 1024h-215v461l-110 -37l-56 170l381 117v-711z" />
<glyph unicode="&#xba;" horiz-adv-x="841" d="M420 731q-158 0 -260.5 100t-102.5 265q0 162 102 261t261 99q160 0 262 -99t102 -261q0 -165 -102.5 -265t-261.5 -100zM422 913q70 0 117 51t47 132q0 78 -47 128t-117 50q-71 0 -118.5 -49.5t-47.5 -128.5q0 -81 47.5 -132t118.5 -51z" />
<glyph unicode="&#xbb;" horiz-adv-x="1359" d="M1303 618l-521 -448l-176 219l330 279l-330 278l176 219l521 -448v-99zM754 618l-521 -448l-176 219l330 279l-330 278l176 219l521 -448v-99z" />
<glyph unicode="&#xbc;" horiz-adv-x="1406" d="M1262 0h-183v147h-354v160l334 410h203v-410h88v-160h-88v-147zM1081 307v193l-155 -193h155zM438 743h-215v461l-110 -37l-56 170l381 117v-711zM365 -20h-287l938 1474h287z" />
<glyph unicode="&#xbd;" horiz-adv-x="1447" d="M365 -20h-287l938 1474h287zM438 743h-215v461l-110 -37l-56 170l381 117v-711zM1391 0h-553v147l213 187q59 50 81.5 80.5t22.5 66.5q0 51 -74 51q-83 0 -155 -59h-8l-84 143q43 40 119.5 66.5t154.5 26.5q131 0 199.5 -57t68.5 -154q0 -78 -40.5 -139t-121.5 -130 l-71 -61h248v-168z" />
<glyph unicode="&#xbe;" horiz-adv-x="1478" d="M1333 0h-182v147h-354v160l333 410h203v-410h88v-160h-88v-147zM1153 307v193l-156 -193h156zM436 -20h-286l937 1474h287zM276 1018h-65v158h65q65 0 90 15.5t25 45.5q0 59 -100 59q-94 0 -170 -61h-8l-45 145q30 27 104 50.5t156 23.5q146 0 216 -56.5t70 -140.5 q0 -108 -98 -161q107 -39 107 -162q0 -88 -74 -141.5t-227 -53.5q-65 0 -138.5 17t-120.5 51l-6 168l9 2q44 -35 103 -52.5t112 -17.5q68 0 93 14.5t25 43.5q0 30 -26.5 41.5t-96.5 11.5z" />
<glyph unicode="&#xbf;" horiz-adv-x="1128" d="M426 635h309v-66q0 -133 -45.5 -226.5t-152.5 -170.5q-105 -76 -137.5 -115.5t-32.5 -101.5q0 -61 52 -92t144 -31q123 0 218 38t134 75h27l117 -224q-196 -151 -498 -151q-246 0 -381 102.5t-135 288.5q0 81 30.5 145.5t80.5 113.5t145 120q66 51 95.5 101t29.5 118v76z M403 879q0 68 50 116.5t120 48.5q73 0 121.5 -48.5t48.5 -116.5q0 -71 -48.5 -119.5t-121.5 -48.5q-71 0 -120.5 49t-49.5 119z" />
<glyph unicode="&#xc0;" horiz-adv-x="1581" d="M1524 0h-338l-111 315h-569l-111 -315h-338l543 1434h381zM987 565l-196 561l-197 -561h393zM918 1556h-293l-179 429h320z" />
<glyph unicode="&#xc1;" horiz-adv-x="1581" d="M1524 0h-338l-111 315h-569l-111 -315h-338l543 1434h381zM987 565l-196 561l-197 -561h393zM940 1556h-293l152 429h320z" />
<glyph unicode="&#xc2;" horiz-adv-x="1581" d="M1524 0h-338l-111 315h-569l-111 -315h-338l543 1434h381zM987 565l-196 561l-197 -561h393zM1229 1556h-270l-168 246l-168 -246h-271l305 406h267z" />
<glyph unicode="&#xc3;" horiz-adv-x="1581" d="M1524 0h-338l-111 315h-569l-111 -315h-338l543 1434h381zM987 565l-196 561l-197 -561h393zM1184 1841l-15 -219q-29 -32 -76.5 -53t-91.5 -21q-65 0 -168 46t-149 46q-57 0 -97 -23t-81 -75h-10l-99 176q46 62 112 96.5t142 34.5q61 0 125 -23t122 -46t106 -23 q50 0 84 18t81 70z" />
<glyph unicode="&#xc4;" horiz-adv-x="1581" d="M1524 0h-338l-111 315h-569l-111 -315h-338l543 1434h381zM987 565l-196 561l-197 -561h393zM696 1696q0 -62 -43 -106t-108 -44t-108.5 44t-43.5 106t43.5 105.5t108.5 43.5t108 -43.5t43 -105.5zM1188 1696q0 -62 -43.5 -106t-108.5 -44t-108 44t-43 106t43 105.5 t108 43.5t108.5 -43.5t43.5 -105.5z" />
<glyph unicode="&#xc5;" horiz-adv-x="1581" d="M1524 0h-338l-111 315h-569l-111 -315h-338l543 1434h381zM987 565l-196 561l-197 -561h393zM1065 1769q0 -122 -77.5 -196t-198.5 -74q-119 0 -195 74.5t-76 195.5q0 123 76.5 199t194.5 76q122 0 199 -75.5t77 -199.5zM885 1769q0 46 -27 72.5t-69 26.5 q-37 0 -64.5 -27t-27.5 -72q0 -42 27.5 -68t64.5 -26q42 0 69 25.5t27 68.5z" />
<glyph unicode="&#xc6;" horiz-adv-x="1916" d="M1860 0h-930v315h-424l-111 -315h-338l543 1434h1237v-258h-600v-334h557v-260h-557v-324h623v-258zM930 565v611h-129l-207 -611h336z" />
<glyph unicode="&#xc7;" horiz-adv-x="1495" d="M600 -467l-16 135l10 2q79 -47 180 -47q98 0 98 82q0 42 -24 59t-82 17h-141l69 213q-289 45 -457.5 243t-168.5 482q0 159 56 295t156 233t244.5 152t315.5 55q195 0 351 -68t236 -180l-174 -190h-24q-48 80 -141.5 128t-219.5 48q-208 0 -343.5 -127t-135.5 -340 q0 -212 137.5 -347.5t370.5 -135.5q244 0 459 141l26 -8l-28 -252q-171 -136 -475 -143l-29 -89q103 -4 157 -53.5t54 -136.5q0 -99 -70 -156t-190 -57t-201 45z" />
<glyph unicode="&#xc8;" horiz-adv-x="1228" d="M1161 0h-1032v1434h1010v-258h-693v-334h650v-260h-650v-324h715v-258zM811 1556h-293l-179 429h320z" />
<glyph unicode="&#xc9;" horiz-adv-x="1228" d="M1161 0h-1032v1434h1010v-258h-693v-334h650v-260h-650v-324h715v-258zM729 1556h-293l152 429h319z" />
<glyph unicode="&#xca;" horiz-adv-x="1228" d="M1161 0h-1032v1434h1010v-258h-693v-334h650v-260h-650v-324h715v-258zM1061 1556h-270l-168 246l-168 -246h-271l305 406h267z" />
<glyph unicode="&#xcb;" horiz-adv-x="1228" d="M1161 0h-1032v1434h1010v-258h-693v-334h650v-260h-650v-324h715v-258zM543 1696q0 -62 -43.5 -106t-108.5 -44t-108 44t-43 106t43 105.5t108 43.5t108.5 -43.5t43.5 -105.5zM1034 1696q0 -62 -43 -106t-108 -44t-108.5 44t-43.5 106t43.5 105.5t108.5 43.5t108 -43.5 t43 -105.5z" />
<glyph unicode="&#xcc;" horiz-adv-x="608" d="M463 0h-318v1434h318v-1434zM438 1556h-293l-178 429h320z" />
<glyph unicode="&#xcd;" horiz-adv-x="608" d="M463 0h-318v1434h318v-1434zM457 1556h-293l151 429h320z" />
<glyph unicode="&#xce;" horiz-adv-x="608" d="M463 0h-318v1434h318v-1434zM741 1556h-270l-168 246l-168 -246h-270l305 406h266z" />
<glyph unicode="&#xcf;" horiz-adv-x="608" d="M463 0h-318v1434h318v-1434zM211 1696q0 -62 -43.5 -106t-108.5 -44t-108 44t-43 106t43 105.5t108 43.5t108.5 -43.5t43.5 -105.5zM702 1696q0 -62 -43 -106t-108 -44t-108.5 44t-43.5 106t43.5 105.5t108.5 43.5t108 -43.5t43 -105.5z" />
<glyph unicode="&#xd0;" horiz-adv-x="1589" d="M743 0h-557v586h-129v252h129v596h557q176 0 322.5 -54.5t246.5 -150t155 -227t55 -283.5t-55 -284t-155 -228.5t-247 -151.5t-322 -55zM866 586h-362v-330h201q222 0 358.5 128t136.5 335q0 206 -136.5 332.5t-358.5 126.5h-201v-340h362v-252z" />
<glyph unicode="&#xd1;" horiz-adv-x="1572" d="M1444 0h-316l-682 979v-979h-317v1434h315l682 -977v977h318v-1434zM1198 1841l-15 -219q-29 -32 -76 -53t-91 -21q-65 0 -168.5 46t-149.5 46q-57 0 -97 -23t-81 -75h-10l-99 176q46 62 112 96.5t142 34.5q61 0 125 -23t122 -46t106 -23q50 0 84 18t81 70z" />
<glyph unicode="&#xd2;" horiz-adv-x="1683" d="M842 242q196 0 324 130t128 347t-127.5 345t-324.5 128t-325 -128.5t-128 -344.5q0 -217 128.5 -347t324.5 -130zM1616 719q0 -211 -97.5 -379.5t-274.5 -264t-402 -95.5t-402 95.5t-274.5 264t-97.5 379.5q0 159 57 295.5t158 233t245.5 151.5t313.5 55t313.5 -55 t245.5 -151.5t158 -233t57 -295.5zM967 1556h-293l-179 429h320z" />
<glyph unicode="&#xd3;" horiz-adv-x="1683" d="M842 242q196 0 324 130t128 347t-127.5 345t-324.5 128t-325 -128.5t-128 -344.5q0 -217 128.5 -347t324.5 -130zM1616 719q0 -211 -97.5 -379.5t-274.5 -264t-402 -95.5t-402 95.5t-274.5 264t-97.5 379.5q0 159 57 295.5t158 233t245.5 151.5t313.5 55t313.5 -55 t245.5 -151.5t158 -233t57 -295.5zM979 1556h-293l152 429h319z" />
<glyph unicode="&#xd4;" horiz-adv-x="1683" d="M842 242q196 0 324 130t128 347t-127.5 345t-324.5 128t-325 -128.5t-128 -344.5q0 -217 128.5 -347t324.5 -130zM1616 719q0 -211 -97.5 -379.5t-274.5 -264t-402 -95.5t-402 95.5t-274.5 264t-97.5 379.5q0 159 57 295.5t158 233t245.5 151.5t313.5 55t313.5 -55 t245.5 -151.5t158 -233t57 -295.5zM1280 1556h-270l-168 246l-168 -246h-271l306 406h266z" />
<glyph unicode="&#xd5;" horiz-adv-x="1683" d="M842 242q196 0 324 130t128 347t-127.5 345t-324.5 128t-325 -128.5t-128 -344.5q0 -217 128.5 -347t324.5 -130zM1616 719q0 -211 -97.5 -379.5t-274.5 -264t-402 -95.5t-402 95.5t-274.5 264t-97.5 379.5q0 159 57 295.5t158 233t245.5 151.5t313.5 55t313.5 -55 t245.5 -151.5t158 -233t57 -295.5zM1237 1841l-15 -219q-29 -32 -76 -53t-91 -21q-65 0 -168.5 46t-149.5 46q-57 0 -97 -23t-81 -75h-10l-99 176q46 62 112 96.5t142 34.5q61 0 125 -23t122 -46t106 -23q50 0 84 18t81 70z" />
<glyph unicode="&#xd6;" horiz-adv-x="1683" d="M842 242q196 0 324 130t128 347t-127.5 345t-324.5 128t-325 -128.5t-128 -344.5q0 -217 128.5 -347t324.5 -130zM1616 719q0 -211 -97.5 -379.5t-274.5 -264t-402 -95.5t-402 95.5t-274.5 264t-97.5 379.5q0 159 57 295.5t158 233t245.5 151.5t313.5 55t313.5 -55 t245.5 -151.5t158 -233t57 -295.5zM745 1696q0 -62 -43 -106t-108 -44t-108.5 44t-43.5 106t43.5 105.5t108.5 43.5t108 -43.5t43 -105.5zM1237 1696q0 -62 -43.5 -106t-108.5 -44t-108 44t-43 106t43 105.5t108 43.5t108.5 -43.5t43.5 -105.5z" />
<glyph unicode="&#xd7;" horiz-adv-x="1179" d="M850 223l-260 260l-260 -260l-174 174l260 260l-260 261l174 174l260 -261l260 261l174 -174l-260 -261l260 -260z" />
<glyph unicode="&#xd8;" horiz-adv-x="1683" d="M569 -133h-225l90 211q-172 95 -269 263t-97 378q0 159 57 295.5t158 233t245.5 151.5t313.5 55q86 0 174 -16l41 96h225l-70 -160q188 -90 296 -262.5t108 -392.5q0 -211 -97.5 -379.5t-274.5 -264t-402 -95.5q-113 0 -215 24zM1102 1114l-369 -862q58 -10 109 -10 q195 0 322.5 130t127.5 347q0 132 -50 233.5t-140 161.5zM547 344l360 844q-40 4 -65 4q-197 0 -325 -128.5t-128 -344.5q0 -120 42 -216t116 -159z" />
<glyph unicode="&#xd9;" horiz-adv-x="1540" d="M1094 547v887h317v-887q0 -177 -87 -307.5t-231 -195t-323 -64.5t-323 64.5t-231 195t-87 307.5v887h317v-887q0 -134 86.5 -219.5t237.5 -85.5t237.5 85.5t86.5 219.5zM916 1556h-293l-179 429h320z" />
<glyph unicode="&#xda;" horiz-adv-x="1540" d="M1094 547v887h317v-887q0 -177 -87 -307.5t-231 -195t-323 -64.5t-323 64.5t-231 195t-87 307.5v887h317v-887q0 -134 86.5 -219.5t237.5 -85.5t237.5 85.5t86.5 219.5zM903 1556h-293l152 429h319z" />
<glyph unicode="&#xdb;" horiz-adv-x="1540" d="M1094 547v887h317v-887q0 -177 -87 -307.5t-231 -195t-323 -64.5t-323 64.5t-231 195t-87 307.5v887h317v-887q0 -134 86.5 -219.5t237.5 -85.5t237.5 85.5t86.5 219.5zM1208 1556h-270l-168 246l-168 -246h-270l305 406h266z" />
<glyph unicode="&#xdc;" horiz-adv-x="1540" d="M1094 547v887h317v-887q0 -177 -87 -307.5t-231 -195t-323 -64.5t-323 64.5t-231 195t-87 307.5v887h317v-887q0 -134 86.5 -219.5t237.5 -85.5t237.5 85.5t86.5 219.5zM678 1696q0 -62 -43.5 -106t-108.5 -44t-108 44t-43 106t43 105.5t108 43.5t108.5 -43.5 t43.5 -105.5zM1169 1696q0 -62 -43 -106t-108 -44t-108.5 44t-43.5 106t43.5 105.5t108.5 43.5t108 -43.5t43 -105.5z" />
<glyph unicode="&#xdd;" horiz-adv-x="1480" d="M901 0h-317v535l-527 899h336l348 -631l346 631h336l-522 -891v-543zM872 1556h-293l152 429h320z" />
<glyph unicode="&#xde;" horiz-adv-x="1306" d="M707 258h-269v-258h-309v1434h309v-256h269q255 0 398.5 -126t143.5 -331q0 -219 -141.5 -341t-400.5 -122zM438 510h221q129 0 199 52.5t70 158.5q0 205 -269 205h-221v-416z" />
<glyph unicode="&#xdf;" horiz-adv-x="1355" d="M518 74l-20 213l22 8q118 -76 273 -76q192 0 192 203q0 101 -65 148.5t-177 47.5h-165v234h127q96 0 154.5 52t58.5 138q0 88 -56.5 140.5t-165.5 52.5q-140 0 -204 -85t-64 -235v-915h-309v967q0 101 35.5 191.5t103.5 162t177 114t245 42.5q121 0 218 -25.5t158.5 -67 t102.5 -97.5t57.5 -112t16.5 -116q0 -233 -207 -311q125 -37 198.5 -130t73.5 -223q0 -183 -115 -299t-313 -116q-99 0 -193.5 24t-158.5 70z" />
<glyph unicode="&#xe0;" horiz-adv-x="1198" d="M1141 199l-33 -168q-17 -17 -61 -34t-107 -17q-174 0 -221 141q-42 -69 -122.5 -105t-182.5 -36q-163 0 -260 85.5t-97 221.5q0 61 21 110.5t54 82.5t84.5 59.5t101 41.5t114.5 29q27 6 59 12.5t51 10t41.5 8.5t35.5 9t27 9t21 10t13.5 12t9 15t2.5 19q0 84 -155 84 q-190 0 -318 -107h-22l-78 232q74 48 193.5 84t258.5 36q430 0 430 -364v-414q0 -40 11.5 -55.5t40.5 -15.5q38 0 67 18zM688 348v119q-61 -30 -143 -47q-97 -22 -137.5 -45t-40.5 -66q0 -46 37 -73t110 -27q71 0 122.5 37t51.5 102zM736 1146h-293l-179 429h320z" />
<glyph unicode="&#xe1;" horiz-adv-x="1198" d="M1141 199l-33 -168q-17 -17 -61 -34t-107 -17q-174 0 -221 141q-42 -69 -122.5 -105t-182.5 -36q-163 0 -260 85.5t-97 221.5q0 61 21 110.5t54 82.5t84.5 59.5t101 41.5t114.5 29q27 6 59 12.5t51 10t41.5 8.5t35.5 9t27 9t21 10t13.5 12t9 15t2.5 19q0 84 -155 84 q-190 0 -318 -107h-22l-78 232q74 48 193.5 84t258.5 36q430 0 430 -364v-414q0 -40 11.5 -55.5t40.5 -15.5q38 0 67 18zM688 348v119q-61 -30 -143 -47q-97 -22 -137.5 -45t-40.5 -66q0 -46 37 -73t110 -27q71 0 122.5 37t51.5 102zM692 1147h-293l152 428h319z" />
<glyph unicode="&#xe2;" horiz-adv-x="1198" d="M1141 199l-33 -168q-17 -17 -61 -34t-107 -17q-174 0 -221 141q-42 -69 -122.5 -105t-182.5 -36q-163 0 -260 85.5t-97 221.5q0 61 21 110.5t54 82.5t84.5 59.5t101 41.5t114.5 29q27 6 59 12.5t51 10t41.5 8.5t35.5 9t27 9t21 10t13.5 12t9 15t2.5 19q0 84 -155 84 q-190 0 -318 -107h-22l-78 232q74 48 193.5 84t258.5 36q430 0 430 -364v-414q0 -40 11.5 -55.5t40.5 -15.5q38 0 67 18zM688 348v119q-61 -30 -143 -47q-97 -22 -137.5 -45t-40.5 -66q0 -46 37 -73t110 -27q71 0 122.5 37t51.5 102zM1012 1147h-271l-168 246l-167 -246 h-271l305 405h267z" />
<glyph unicode="&#xe3;" horiz-adv-x="1198" d="M1141 199l-33 -168q-17 -17 -61 -34t-107 -17q-174 0 -221 141q-42 -69 -122.5 -105t-182.5 -36q-163 0 -260 85.5t-97 221.5q0 61 21 110.5t54 82.5t84.5 59.5t101 41.5t114.5 29q27 6 59 12.5t51 10t41.5 8.5t35.5 9t27 9t21 10t13.5 12t9 15t2.5 19q0 84 -155 84 q-190 0 -318 -107h-22l-78 232q74 48 193.5 84t258.5 36q430 0 430 -364v-414q0 -40 11.5 -55.5t40.5 -15.5q38 0 67 18zM688 348v119q-61 -30 -143 -47q-97 -22 -137.5 -45t-40.5 -66q0 -46 37 -73t110 -27q71 0 122.5 37t51.5 102zM963 1434l-15 -220q-29 -32 -76.5 -52.5 t-91.5 -20.5q-65 0 -168 46t-149 46q-57 0 -97 -23t-81 -75h-11l-98 176q46 62 112 96.5t142 34.5q61 0 124.5 -23t121.5 -46t106 -23q50 0 84.5 18t81.5 70z" />
<glyph unicode="&#xe4;" horiz-adv-x="1198" d="M1141 199l-33 -168q-17 -17 -61 -34t-107 -17q-174 0 -221 141q-42 -69 -122.5 -105t-182.5 -36q-163 0 -260 85.5t-97 221.5q0 61 21 110.5t54 82.5t84.5 59.5t101 41.5t114.5 29q27 6 59 12.5t51 10t41.5 8.5t35.5 9t27 9t21 10t13.5 12t9 15t2.5 19q0 84 -155 84 q-190 0 -318 -107h-22l-78 232q74 48 193.5 84t258.5 36q430 0 430 -364v-414q0 -40 11.5 -55.5t40.5 -15.5q38 0 67 18zM688 348v119q-61 -30 -143 -47q-97 -22 -137.5 -45t-40.5 -66q0 -46 37 -73t110 -27q71 0 122.5 37t51.5 102zM477 1280q0 -62 -43 -106t-108 -44 t-108.5 44t-43.5 106t43.5 105.5t108.5 43.5t108 -43.5t43 -105.5zM969 1280q0 -62 -43.5 -106t-108.5 -44t-108 44t-43 106t43 105.5t108 43.5t108.5 -43.5t43.5 -105.5z" />
<glyph unicode="&#xe5;" horiz-adv-x="1198" d="M1141 199l-33 -168q-17 -17 -61 -34t-107 -17q-174 0 -221 141q-42 -69 -122.5 -105t-182.5 -36q-163 0 -260 85.5t-97 221.5q0 61 21 110.5t54 82.5t84.5 59.5t101 41.5t114.5 29q27 6 59 12.5t51 10t41.5 8.5t35.5 9t27 9t21 10t13.5 12t9 15t2.5 19q0 84 -155 84 q-190 0 -318 -107h-22l-78 232q74 48 193.5 84t258.5 36q430 0 430 -364v-414q0 -40 11.5 -55.5t40.5 -15.5q38 0 67 18zM688 348v119q-61 -30 -143 -47q-97 -22 -137.5 -45t-40.5 -66q0 -46 37 -73t110 -27q71 0 122.5 37t51.5 102zM838 1423q0 -122 -78 -196t-199 -74 q-118 0 -194 74t-76 196q0 123 76 199t194 76q122 0 199.5 -75.5t77.5 -199.5zM657 1423q0 46 -27 72.5t-69 26.5q-37 0 -64.5 -27t-27.5 -72q0 -42 27.5 -68t64.5 -26q42 0 69 25.5t27 68.5z" />
<glyph unicode="&#xe6;" horiz-adv-x="1789" d="M1661 297l-21 -223q-63 -45 -162.5 -69.5t-199.5 -24.5q-281 0 -404 178q-75 -88 -194 -133t-266 -45q-163 0 -260 85.5t-97 221.5q0 61 21 110.5t54 82.5t84.5 59.5t101 41.5t114.5 29q27 6 59 12.5t51 10t42 8.5t36 9t27 9t21.5 10t14 12t9 15t2.5 19q0 86 -157 86 q-190 0 -318 -107h-22l-78 230q74 48 193.5 84t258.5 36q104 0 191 -32t135 -92q55 56 141.5 90t180.5 34q104 0 195.5 -31.5t163.5 -91.5t113.5 -157t41.5 -219v-105h-736q57 -215 359 -215q76 0 151.5 22.5t130.5 57.5zM997 629h445q0 71 -55.5 124.5t-157.5 53.5 q-93 0 -153 -45.5t-79 -124.5v-8zM688 346v123q-61 -30 -143 -47q-96 -22 -137 -46t-41 -67q0 -46 37.5 -74t109.5 -28q71 0 122.5 37t51.5 102z" />
<glyph unicode="&#xe7;" horiz-adv-x="1093" d="M350 -463l-10 127l10 2q78 -45 174 -45q44 0 71.5 20t27.5 62q0 78 -119 78h-88l76 211q-208 36 -321.5 180t-113.5 344q0 233 155 380.5t419 147.5q254 0 405 -137l-125 -192h-18q-76 86 -225 86q-139 0 -219 -79.5t-80 -209.5q0 -131 87.5 -213t252.5 -82 q72 0 144.5 22.5t125.5 57.5l25 -8l-21 -217q-61 -43 -154 -66.5t-192 -25.5l-31 -97q93 -5 150 -49.5t57 -130.5q0 -99 -76.5 -158t-181.5 -59q-114 0 -205 51z" />
<glyph unicode="&#xe8;" horiz-adv-x="1150" d="M1022 299l-21 -225q-63 -45 -162.5 -69.5t-199.5 -24.5q-138 0 -250 42.5t-183.5 116.5t-110 171.5t-38.5 209.5q0 226 144.5 375t378.5 149q104 0 195.5 -31.5t163.5 -91.5t113.5 -157t41.5 -219v-105h-732q25 -97 113 -155t242 -58q76 0 151.5 22.5t130.5 57.5z M360 629h439q0 72 -54 125t-155 53q-94 0 -153 -48t-77 -130zM735 1147h-293l-178 428h320z" />
<glyph unicode="&#xe9;" horiz-adv-x="1150" d="M1022 299l-21 -225q-63 -45 -162.5 -69.5t-199.5 -24.5q-138 0 -250 42.5t-183.5 116.5t-110 171.5t-38.5 209.5q0 226 144.5 375t378.5 149q104 0 195.5 -31.5t163.5 -91.5t113.5 -157t41.5 -219v-105h-732q25 -97 113 -155t242 -58q76 0 151.5 22.5t130.5 57.5z M360 629h439q0 72 -54 125t-155 53q-94 0 -153 -48t-77 -130zM700 1147h-292l151 428h320z" />
<glyph unicode="&#xea;" horiz-adv-x="1150" d="M1022 299l-21 -225q-63 -45 -162.5 -69.5t-199.5 -24.5q-138 0 -250 42.5t-183.5 116.5t-110 171.5t-38.5 209.5q0 226 144.5 375t378.5 149q104 0 195.5 -31.5t163.5 -91.5t113.5 -157t41.5 -219v-105h-732q25 -97 113 -155t242 -58q76 0 151.5 22.5t130.5 57.5z M360 629h439q0 72 -54 125t-155 53q-94 0 -153 -48t-77 -130zM1034 1147h-270l-168 246l-168 -246h-270l305 405h266z" />
<glyph unicode="&#xeb;" horiz-adv-x="1150" d="M1022 299l-21 -225q-63 -45 -162.5 -69.5t-199.5 -24.5q-138 0 -250 42.5t-183.5 116.5t-110 171.5t-38.5 209.5q0 226 144.5 375t378.5 149q104 0 195.5 -31.5t163.5 -91.5t113.5 -157t41.5 -219v-105h-732q25 -97 113 -155t242 -58q76 0 151.5 22.5t130.5 57.5z M360 629h439q0 72 -54 125t-155 53q-94 0 -153 -48t-77 -130zM487 1280q0 -62 -43 -106t-108 -44t-108.5 44t-43.5 106t43.5 106t108.5 44t108 -44t43 -106zM979 1280q0 -62 -43.5 -106t-108.5 -44t-108 44t-43 106t43 106t108 44t108.5 -44t43.5 -106z" />
<glyph unicode="&#xec;" horiz-adv-x="598" d="M453 0h-308v1024h308v-1024zM449 1146h-293l-179 429h320z" />
<glyph unicode="&#xed;" horiz-adv-x="598" d="M453 0h-308v1024h308v-1024zM449 1147h-293l151 428h320z" />
<glyph unicode="&#xee;" horiz-adv-x="598" d="M453 0h-308v1024h308v-1024zM737 1146h-270l-168 246l-168 -246h-271l305 406h267z" />
<glyph unicode="&#xef;" horiz-adv-x="598" d="M453 0h-308v1024h308v-1024zM205 1280q0 -62 -43.5 -106t-108.5 -44t-108 44t-43 106t43 106t108 44t108.5 -44t43.5 -106zM696 1280q0 -62 -43 -106t-108 -44t-108.5 44t-43.5 106t43.5 106t108.5 44t108 -44t43 -106z" />
<glyph unicode="&#xf0;" horiz-adv-x="1245" d="M1133 1386l-134 -112q189 -219 189 -639q0 -159 -42.5 -285t-118.5 -206t-177.5 -122t-222.5 -42q-261 0 -415.5 141t-154.5 362q0 220 141.5 344.5t372.5 124.5q173 0 281 -51q-6 120 -61 197l-127 -109l-99 119l97 82q-59 16 -117 16q-152 0 -316 -92l-16 4l20 242 q71 43 171 68.5t198 25.5q155 0 279 -78l149 129zM862 475q0 109 -67 172.5t-170 63.5q-120 0 -183 -60t-63 -174q0 -109 65.5 -173t182.5 -64q107 0 171 67t64 168z" />
<glyph unicode="&#xf1;" horiz-adv-x="1251" d="M1133 0h-308v623q0 87 -45.5 133.5t-134.5 46.5q-93 0 -151 -52t-58 -147v-604h-307v1024h299v-123q101 143 326 143q180 0 279.5 -88.5t99.5 -255.5v-700zM1041 1433l-15 -219q-29 -32 -76 -53t-91 -21q-65 0 -168.5 46t-149.5 46q-57 0 -97 -23t-81 -75h-10l-99 176 q46 62 112 96.5t142 34.5q61 0 125 -23t122 -46t106 -23q50 0 84 18t81 70z" />
<glyph unicode="&#xf2;" horiz-adv-x="1228" d="M1171 512q0 -240 -154.5 -386t-402.5 -146t-402.5 146t-154.5 386t154.5 386t402.5 146t402.5 -146t154.5 -386zM614 219q115 0 180.5 81.5t65.5 211.5t-65.5 210.5t-180.5 80.5t-180 -80.5t-65 -210.5q0 -131 65 -212t180 -81zM752 1146h-293l-179 429h320z" />
<glyph unicode="&#xf3;" horiz-adv-x="1228" d="M1171 512q0 -240 -154.5 -386t-402.5 -146t-402.5 146t-154.5 386t154.5 386t402.5 146t402.5 -146t154.5 -386zM614 219q115 0 180.5 81.5t65.5 211.5t-65.5 210.5t-180.5 80.5t-180 -80.5t-65 -210.5q0 -131 65 -212t180 -81zM752 1147h-293l151 428h320z" />
<glyph unicode="&#xf4;" horiz-adv-x="1228" d="M1171 512q0 -240 -154.5 -386t-402.5 -146t-402.5 146t-154.5 386t154.5 386t402.5 146t402.5 -146t154.5 -386zM614 219q115 0 180.5 81.5t65.5 211.5t-65.5 210.5t-180.5 80.5t-180 -80.5t-65 -210.5q0 -131 65 -212t180 -81zM1053 1147h-271l-168 246l-168 -246h-270 l305 405h267z" />
<glyph unicode="&#xf5;" horiz-adv-x="1228" d="M1171 512q0 -240 -154.5 -386t-402.5 -146t-402.5 146t-154.5 386t154.5 386t402.5 146t402.5 -146t154.5 -386zM614 219q115 0 180.5 81.5t65.5 211.5t-65.5 210.5t-180.5 80.5t-180 -80.5t-65 -210.5q0 -131 65 -212t180 -81zM1008 1434l-15 -220q-29 -32 -76.5 -52.5 t-91.5 -20.5q-65 0 -168 46t-149 46q-57 0 -97 -23t-81 -75h-11l-98 176q46 62 112 96.5t142 34.5q61 0 124.5 -23t121.5 -46t106 -23q50 0 84.5 18t81.5 70z" />
<glyph unicode="&#xf6;" horiz-adv-x="1228" d="M1171 512q0 -240 -154.5 -386t-402.5 -146t-402.5 146t-154.5 386t154.5 386t402.5 146t402.5 -146t154.5 -386zM614 219q115 0 180.5 81.5t65.5 211.5t-65.5 210.5t-180.5 80.5t-180 -80.5t-65 -210.5q0 -131 65 -212t180 -81zM518 1280q0 -62 -43 -106t-108 -44 t-108.5 44t-43.5 106t43.5 105.5t108.5 43.5t108 -43.5t43 -105.5zM1010 1280q0 -62 -43.5 -106t-108.5 -44t-108 44t-43 106t43 105.5t108 43.5t108.5 -43.5t43.5 -105.5z" />
<glyph unicode="&#xf7;" horiz-adv-x="1179" d="M743 1026q0 -64 -42.5 -108t-110.5 -44t-111 44t-43 108t43 108t111 44t110.5 -44t42.5 -108zM743 291q0 -64 -42.5 -108t-110.5 -44t-111 44t-43 108t43 107.5t111 43.5t110.5 -43.5t42.5 -107.5zM1063 530h-967v256h967v-256z" />
<glyph unicode="&#xf8;" horiz-adv-x="1228" d="M430 -133h-184l78 180q-126 65 -196.5 185.5t-70.5 279.5q0 240 154.5 386t402.5 146q70 0 131 -12l56 125h184l-78 -182q124 -66 194 -186t70 -277q0 -240 -154.5 -386t-402.5 -146q-70 0 -131 12zM428 291l223 520q-24 4 -37 4q-119 0 -187.5 -84t-68.5 -219 q0 -139 70 -221zM801 731l-226 -522q12 -2 39 -2q119 0 187.5 85t68.5 220t-69 219z" />
<glyph unicode="&#xf9;" horiz-adv-x="1249" d="M1120 0h-299v127q-92 -147 -323 -147q-179 0 -279 88.5t-100 255.5v700h307v-623q0 -86 45 -132t131 -46q94 0 152.5 50t58.5 145v606h307v-1024zM773 1146h-293l-179 429h320z" />
<glyph unicode="&#xfa;" horiz-adv-x="1249" d="M1120 0h-299v127q-92 -147 -323 -147q-179 0 -279 88.5t-100 255.5v700h307v-623q0 -86 45 -132t131 -46q94 0 152.5 50t58.5 145v606h307v-1024zM758 1147h-293l151 428h320z" />
<glyph unicode="&#xfb;" horiz-adv-x="1249" d="M1120 0h-299v127q-92 -147 -323 -147q-179 0 -279 88.5t-100 255.5v700h307v-623q0 -86 45 -132t131 -46q94 0 152.5 50t58.5 145v606h307v-1024zM1061 1147h-270l-168 246l-168 -246h-271l305 405h267z" />
<glyph unicode="&#xfc;" horiz-adv-x="1249" d="M1120 0h-299v127q-92 -147 -323 -147q-179 0 -279 88.5t-100 255.5v700h307v-623q0 -86 45 -132t131 -46q94 0 152.5 50t58.5 145v606h307v-1024zM522 1280q0 -62 -43 -106t-108 -44t-108.5 44t-43.5 106t43.5 106t108.5 44t108 -44t43 -106zM1014 1280q0 -62 -43.5 -106 t-108.5 -44t-108 44t-43 106t43 106t108 44t108.5 -44t43.5 -106z" />
<glyph unicode="&#xfd;" horiz-adv-x="1259" d="M588 -410h-307l186 412l-410 1022h336l225 -717l269 717h315zM751 1146h-293l152 429h320z" />
<glyph unicode="&#xfe;" horiz-adv-x="1288" d="M436 -410h-307v1842h297v-523q49 61 130 98t189 37q216 0 351 -145t135 -385q0 -246 -140 -390t-362 -144q-195 0 -293 110v-500zM674 223q111 0 176 80t65 209q0 130 -65 211.5t-176 81.5q-112 0 -178 -81t-66 -212q0 -129 66 -209t178 -80z" />
<glyph unicode="&#xff;" horiz-adv-x="1259" d="M588 -410h-307l186 412l-410 1022h336l225 -717l269 717h315zM549 1280q0 -62 -43.5 -106t-108.5 -44t-108 44t-43 106t43 106t108 44t108.5 -44t43.5 -106zM1040 1280q0 -62 -43 -106t-108 -44t-108.5 44t-43.5 106t43.5 106t108.5 44t108 -44t43 -106z" />
<glyph unicode="&#x131;" horiz-adv-x="598" d="M453 0h-308v1024h308v-1024z" />
<glyph unicode="&#x141;" horiz-adv-x="1361" d="M1305 0h-969v481l-121 -69l-102 186l223 129v707h317v-523l174 101l111 -187l-285 -163v-404h652v-258z" />
<glyph unicode="&#x142;" horiz-adv-x="837" d="M569 0h-307v481l-125 -69l-102 186l227 131v705h307v-529l142 82l110 -186l-252 -144v-657z" />
<glyph unicode="&#x152;" horiz-adv-x="2392" d="M2324 0h-1032v131q-146 -151 -471 -151q-166 0 -307.5 56t-239 153.5t-152 234.5t-54.5 295q0 159 54.5 295t152.5 233t238.5 152t307.5 55q325 0 471 -151v131h1010v-258h-692v-334h649v-260h-649v-324h714v-258zM842 242q195 0 322.5 130t127.5 347q0 216 -127.5 344.5 t-322.5 128.5q-197 0 -325 -128.5t-128 -344.5q0 -217 128.5 -347t324.5 -130z" />
<glyph unicode="&#x153;" horiz-adv-x="1957" d="M1829 299l-21 -225q-63 -45 -162.5 -69.5t-199.5 -24.5q-149 0 -247 38t-179 123q-80 -86 -174 -123.5t-232 -37.5q-248 0 -402.5 146t-154.5 386t154.5 386t402.5 146q135 0 228 -36t172 -119q76 82 160.5 118.5t211.5 36.5q104 0 195.5 -31.5t163.5 -91.5t114 -157 t42 -219v-105h-732q25 -97 113 -155t242 -58q76 0 151.5 22.5t130.5 57.5zM614 219q115 0 180.5 81.5t65.5 211.5t-65.5 210.5t-180.5 80.5t-180 -80.5t-65 -210.5q0 -131 65 -212t180 -81zM1167 629h439q0 72 -54 125t-155 53q-94 0 -153 -48t-77 -130z" />
<glyph unicode="&#x160;" horiz-adv-x="1267" d="M1057 1079h-27q-41 38 -135 77.5t-217 39.5q-107 0 -162 -34t-55 -99q0 -25 7 -45t25.5 -37.5t35.5 -29.5t53 -27.5t60.5 -25t75 -28t81.5 -30.5q56 -22 93.5 -37.5t83.5 -39t76 -46t60.5 -54.5t48 -67.5t28.5 -82t11 -101.5q0 -207 -143 -319.5t-404 -112.5 q-196 0 -343 56t-242 132l118 233h25q44 -44 179 -103.5t274 -59.5q102 0 160.5 36t58.5 101q0 22 -6.5 40.5t-24.5 35t-35 29t-52 28.5t-62 27t-77.5 31.5t-86.5 35.5q-77 33 -129 59.5t-106.5 66t-87 82t-53 102.5t-20.5 132q0 195 137 302.5t396 107.5q302 0 498 -151z M785 1556h-267l-305 406h271l168 -246l168 246h270z" />
<glyph unicode="&#x161;" horiz-adv-x="985" d="M813 723h-18q-29 27 -107.5 59.5t-165.5 32.5q-57 0 -86.5 -16t-29.5 -43q0 -35 48 -61t183 -74q159 -58 225 -124.5t66 -177.5q0 -166 -120.5 -252.5t-334.5 -86.5q-154 0 -262.5 42t-153.5 87l95 210h18q141 -112 309 -112q72 0 109 22.5t37 51.5q0 19 -15 34t-45 26.5 t-63 21.5t-82.5 25.5t-89.5 31.5q-111 47 -173.5 120t-62.5 187q0 158 117 237.5t313 79.5q139 0 241.5 -34.5t141.5 -73.5zM627 1147h-267l-305 405h271l168 -245l168 245h270z" />
<glyph unicode="&#x178;" horiz-adv-x="1480" d="M901 0h-317v535l-527 899h336l348 -631l346 631h336l-522 -891v-543zM647 1696q0 -62 -43 -106t-108 -44t-108.5 44t-43.5 106t43.5 105.5t108.5 43.5t108 -43.5t43 -105.5zM1139 1696q0 -62 -43.5 -106t-108.5 -44t-108 44t-43 106t43 105.5t108 43.5t108.5 -43.5 t43.5 -105.5z" />
<glyph unicode="&#x17d;" horiz-adv-x="1355" d="M1268 0h-1180v182l741 994h-702v258h1120v-183l-735 -993h756v-258zM840 1556h-267l-305 406h271l168 -246l167 246h271z" />
<glyph unicode="&#x17e;" horiz-adv-x="1007" d="M950 0h-893v156l490 635h-457v233h836v-152l-465 -639h489v-233zM657 1147h-266l-305 405h270l168 -245l168 245h271z" />
<glyph unicode="&#x192;" horiz-adv-x="878" d="M-174 -424l47 229l23 11q67 -27 122 -27q168 0 199 139q2 10 3.5 33.5t4.5 38.5l168 791h-178l49 233h178l17 84q70 371 467 371q109 0 180 -31l-49 -229l-23 -11q-68 27 -123 27q-169 0 -200 -139q-1 -7 -6 -72h307l-49 -233h-269q-10 -73 -26 -148l-154 -727 q-17 -80 -54.5 -144t-86.5 -106t-110.5 -69.5t-125.5 -39.5t-133 -12q-109 0 -178 31z" />
<glyph unicode="&#x2c6;" horiz-adv-x="991" d="M934 1556h-270l-168 246l-168 -246h-271l305 406h267z" />
<glyph unicode="&#x2c7;" horiz-adv-x="991" d="M629 1556h-267l-305 406h271l168 -246l168 246h270z" />
<glyph unicode="&#x2d8;" horiz-adv-x="849" d="M563 1931h230q0 -178 -102.5 -267t-270.5 -89q-163 0 -263 89t-100 267h226q0 -72 39.5 -114.5t97.5 -42.5q65 0 104 41.5t39 115.5z" />
<glyph unicode="&#x2d9;" horiz-adv-x="417" d="M360 1696q0 -62 -43 -106t-108 -44t-108.5 44t-43.5 106t43.5 105.5t108.5 43.5t108 -43.5t43 -105.5z" />
<glyph unicode="&#x2da;" horiz-adv-x="661" d="M604 1769q0 -122 -77.5 -196t-198.5 -74q-119 0 -195 74.5t-76 195.5q0 123 76.5 199t194.5 76q122 0 199 -75.5t77 -199.5zM424 1769q0 46 -27 72.5t-69 26.5q-37 0 -64.5 -27t-27.5 -72q0 -42 27.5 -68t64.5 -26q42 0 69 25.5t27 68.5z" />
<glyph unicode="&#x2db;" horiz-adv-x="571" d="M514 -207l-18 -188q-89 -56 -211 -56q-105 0 -166.5 48.5t-61.5 138.5q0 80 46.5 149t123.5 115h256q-93 -59 -128.5 -102t-35.5 -88q0 -56 62 -56q68 0 119 43z" />
<glyph unicode="&#x2dc;" horiz-adv-x="901" d="M844 1841l-15 -219q-29 -32 -76 -53t-91 -21q-65 0 -168.5 46t-149.5 46q-57 0 -97 -23t-81 -75h-10l-99 176q46 62 112 96.5t142 34.5q61 0 125 -23t122 -46t106 -23q50 0 84 18t81 70z" />
<glyph unicode="&#x2dd;" horiz-adv-x="1036" d="M344 1491h-287l170 469h314zM784 1491h-286l168 469h313z" />
<glyph unicode="&#x3a9;" horiz-adv-x="1638" d="M1581 0h-680v219q356 194 356 512q0 231 -115.5 346t-322.5 115t-322.5 -115t-115.5 -346q0 -318 356 -512v-219h-680v258h217q-101 90 -158 216t-57 263q0 155 51 286.5t146.5 227t240 149.5t322.5 54t322.5 -54t240 -149.5t146.5 -227t51 -286.5q0 -137 -57 -263 t-158 -216h217v-258z" />
<glyph unicode="&#x3bc;" horiz-adv-x="1259" d="M1130 0h-299v127q-92 -147 -303 -147q-54 0 -92 10v-377h-307v1411h307v-639q0 -162 176 -162q94 0 152.5 50t58.5 145v606h307v-1024z" />
<glyph unicode="&#x3c0;" horiz-adv-x="1372" d="M1315 246v-219q-41 -20 -110.5 -33.5t-133.5 -13.5q-148 0 -233.5 84t-85.5 262v440h-195v-766h-311v766h-189v258h1194v-258h-188v-399q0 -79 24.5 -108.5t79.5 -29.5q76 0 127 31z" />
<glyph unicode="&#xe00;" horiz-adv-x="399" />
<glyph unicode="&#xe01;" horiz-adv-x="1284" d="M1155 0h-307v676q0 126 -52 185t-171 59q-67 0 -137.5 -23t-110.5 -57l147 -129v-31q-48 -46 -66 -102t-18 -146v-432h-307v410q0 96 24.5 160t78.5 114l-179 156v30q103 136 255 206.5t321 70.5q242 0 382 -119.5t140 -349.5v-678z" />
<glyph unicode="&#xe02;" horiz-adv-x="1208" d="M774 397v729h305v-700q0 -92 -35 -173.5t-99 -142t-159.5 -95.5t-210.5 -35q-224 0 -355.5 107.5t-131.5 287.5v35q0 47 21 102.5t51 105t59.5 95.5t50.5 87.5t21 67.5q0 31 -18 46.5t-60 15.5q-57 0 -109 -33l-12 4l-35 180q54 28 136.5 47t144.5 19q246 0 246 -205 q0 -62 -30 -134t-65.5 -127.5t-65.5 -127.5t-30 -135v-47q0 -72 51 -118t131 -46q199 0 199 190z" />
<glyph unicode="&#xe03;" horiz-adv-x="1228" d="M795 397v729h305v-700q0 -92 -35 -173.5t-99 -142t-159.5 -95.5t-210.5 -35q-224 0 -355.5 107.5t-131.5 287.5v43q0 60 41 135t90 131.5t90 113.5t41 85q-55 -49 -140 -49q-84 0 -129 52.5t-45 123.5q0 62 31 116h193l4 -8q-19 -43 -19 -74q0 -53 68 -53q95 0 98 135 h186q31 -71 31 -145q0 -62 -17.5 -121.5t-43.5 -103t-56.5 -89t-56.5 -82t-43.5 -80.5t-17.5 -85v-49q0 -72 51 -118t131 -46q199 0 199 190z" />
<glyph unicode="&#xe04;" horiz-adv-x="1337" d="M1208 0h-307v686q0 125 -54.5 179.5t-178.5 54.5q-114 0 -173 -62t-59 -176v-137q38 40 100 64t115 24q95 0 152 -45v-191l-12 -6q-59 21 -132 21q-79 0 -139.5 -34.5t-83.5 -109.5v-268h-307v645q0 246 139.5 374t399.5 128t400 -128t140 -374v-645z" />
<glyph unicode="&#xe05;" horiz-adv-x="1337" d="M1208 0h-307v774q0 83 -15 114.5t-59 31.5q-68 0 -79 -82h-156q-15 82 -80 82q-43 0 -59.5 -36.5t-16.5 -119.5v-219q38 40 100 64t115 24q95 0 152 -45v-191l-12 -6q-59 21 -132 21q-79 0 -139.5 -34.5t-83.5 -109.5v-268h-307v768q0 184 76 281.5t227 97.5 q82 0 148.5 -32t93.5 -89q27 56 99 88.5t155 32.5q148 0 214 -95.5t66 -283.5v-768z" />
<glyph unicode="&#xe06;" horiz-adv-x="1298" d="M862 403v723h307v-747q0 -79 -24 -150t-70.5 -127t-121.5 -89t-169 -33q-239 0 -358 157v-137h-297v319q0 98 25 183t60.5 141t71 100.5t60.5 79.5t25 60q-55 -49 -140 -49q-84 0 -129 52.5t-45 123.5q0 62 31 116h193l4 -8q-19 -43 -19 -74q0 -53 68 -53q95 0 98 135 h186q31 -71 31 -145t-22 -136.5t-53.5 -106.5t-62.5 -84.5t-53 -89t-22 -101.5v-17q0 -113 62 -176t168 -63q196 0 196 196z" />
<glyph unicode="&#xe07;" horiz-adv-x="1140" d="M492 0h-117l-359 868h291l250 -620q111 23 167 117t56 237q0 318 -213 318q-78 0 -139 -37l-12 4l-41 198q35 26 108.5 44t137.5 18q116 0 204.5 -40t143.5 -113.5t82.5 -172t27.5 -219.5q0 -128 -37.5 -237t-109 -190.5t-184.5 -128t-256 -46.5z" />
<glyph unicode="&#xe08;" horiz-adv-x="1167" d="M551 0h-191l-84 379h-174v235h390l83 -374q126 23 179 97.5t53 227.5q0 172 -67.5 253t-221.5 81q-115 0 -237 -35.5t-201 -93.5l-19 4l21 234q200 139 455 139q273 0 421 -147t148 -427q0 -264 -151 -418.5t-404 -154.5z" />
<glyph unicode="&#xe09;" horiz-adv-x="1269" d="M1141 0h-297v137q-119 -157 -352 -157q-175 0 -273 114t-98 299v211h307v-186q0 -118 37 -164.5t125 -46.5q106 0 175 81.5t69 217.5v59q0 74 -6.5 124t-24 92.5t-50 67t-83 37.5t-123.5 13q-114 0 -254.5 -36.5t-216.5 -92.5l-19 4l21 234q92 64 221.5 101.5t265.5 37.5 q303 0 439.5 -142.5t136.5 -431.5v-573z" />
<glyph unicode="&#xe0a;" horiz-adv-x="1216" d="M1087 496v-70q0 -201 -137 -323.5t-370 -122.5q-225 0 -358.5 108t-133.5 287v35q0 47 21 102.5t51 105t59.5 95.5t50.5 87.5t21 67.5q0 31 -18 46.5t-60 15.5q-57 0 -109 -33l-12 4l-35 180q54 28 136.5 47t144.5 19q246 0 246 -205q0 -62 -30 -134t-65.5 -127.5 t-65.5 -127.5t-30 -135v-47q0 -71 53.5 -117.5t133.5 -46.5q96 0 149 47t53 143v88q0 168 -133 168h-43l35 205h90q50 57 69.5 122t22.5 167h264q-7 -130 -41 -223t-110 -148q77 -38 114 -115.5t37 -164.5z" />
<glyph unicode="&#xe0b;" horiz-adv-x="1251" d="M1122 496v-70q0 -201 -137.5 -323.5t-370.5 -122.5q-225 0 -358 108t-133 287v43q0 49 25.5 107t62 109t73 97.5t62 87t25.5 64.5q-55 -49 -140 -49q-84 0 -129 52.5t-45 123.5q0 62 31 116h193l4 -8q-19 -43 -19 -74q0 -53 68 -53q95 0 98 135h186q31 -71 31 -145 t-23 -142.5t-55.5 -120t-64.5 -99.5t-55 -99t-23 -100v-49q0 -72 53 -118t133 -46q97 0 150 47t53 143v113q0 76 -25 109.5t-87 33.5h-43l34 205h70q50 57 69.5 122t22.5 167h264q-7 -130 -41 -223t-110 -148q77 -38 114 -115.5t37 -164.5z" />
<glyph unicode="&#xe0c;" horiz-adv-x="1935" d="M1104 0h-293v676q0 126 -47.5 185t-159.5 59q-59 0 -123 -23t-104 -57l147 -129v-31q-48 -46 -67 -102.5t-19 -145.5v-143q0 -80 78 -80q68 0 121 31l12 -7v-200q-82 -53 -213 -53q-137 0 -220 81t-83 220v129q0 96 24.5 160t78.5 114l-179 156v30q103 136 248.5 206.5 t306.5 70.5q234 0 368 -119t134 -350v-172q0 -137 57.5 -218t151.5 -81q96 0 137 46.5t41 149.5v723h305v-747q0 -80 -21 -150t-63 -126.5t-114 -89.5t-166 -33q-219 0 -338 157v-137z" />
<glyph unicode="&#xe0d;" horiz-adv-x="1953" d="M907 -238l-20 238l18 2q68 -57 175.5 -92t230.5 -35q241 0 241 127q0 38 -28 74q-93 -35 -215 -35q-246 0 -372 116.5t-126 362.5v156q0 126 -47.5 185t-159.5 59q-59 0 -123 -23t-104 -57l147 -129v-31q-48 -46 -67 -102.5t-19 -145.5v-143q0 -80 78 -80q68 0 121 31 l12 -7v-200q-82 -53 -213 -53q-137 0 -220 81t-83 220v129q0 96 24.5 160t78.5 114l-179 156v30q103 136 248.5 206.5t306.5 70.5q234 0 368 -119t134 -350v-217q0 -101 48.5 -147t144.5 -46q194 0 194 197v661h305v-645q0 -140 -80 -252q54 -56 76.5 -110t22.5 -129 q0 -150 -139 -244t-359 -94q-260 0 -420 110z" />
<glyph unicode="&#xe0e;" horiz-adv-x="1357" d="M1229 -410h-246q-46 47 -125 76t-172 29q-92 0 -188.5 -31t-167.5 -82l-13 4l15 224q80 64 165.5 92t204.5 28q51 0 116.5 -12t103.5 -31v789q0 125 -52.5 184.5t-171.5 59.5q-68 0 -144.5 -23.5t-115.5 -56.5l174 -129v-31q-32 -57 -40.5 -99.5t-8.5 -119.5v-180 q0 -139 -83 -220t-220 -81q-130 0 -203 47v200l13 6q41 -24 104 -24q82 0 82 80v143q0 97 13.5 146t54.5 106l-213 160v30q101 134 262 203.5t334 69.5q242 0 382 -119.5t140 -349.5v-1088z" />
<glyph unicode="&#xe0f;" horiz-adv-x="1357" d="M922 -119v795q0 125 -52.5 184.5t-171.5 59.5q-68 0 -144.5 -23.5t-115.5 -56.5l174 -129v-31q-32 -57 -40.5 -99.5t-8.5 -119.5v-180q0 -139 -83 -220t-220 -81q-130 0 -203 47v200l13 6q41 -24 104 -24q82 0 82 80v143q0 97 13.5 146t54.5 106l-213 160v30 q101 134 262 203.5t334 69.5q242 0 382 -119.5t140 -349.5v-758q0 -163 -84 -251.5t-232 -88.5q-66 0 -133.5 27.5t-99.5 68.5q-28 -44 -82.5 -70t-120.5 -26q-131 0 -231 64l-21 227l19 2q109 -78 200 -78q51 0 87 25.5t40 81.5h199q11 -107 84 -107q68 0 68 86z" />
<glyph unicode="&#xe10;" horiz-adv-x="1255" d="M551 0h-191l-84 379h-174v235h390l83 -374q126 23 179 97.5t53 227.5q0 172 -67.5 253t-221.5 81q-115 0 -237 -35.5t-201 -93.5l-19 4l21 234q200 139 455 139q191 0 321 -74q69 45 72 123h264q-13 -102 -61.5 -166t-122.5 -92q96 -140 96 -365q0 -264 -151 -418.5 t-404 -154.5zM1094 -78v-45q0 -129 -88 -213t-232 -84q-67 0 -136 27.5t-101 68.5q-28 -44 -82.5 -70t-120.5 -26q-132 0 -232 64l-20 221l18 2q101 -76 201 -76q119 0 127 103h199q6 -53 34 -78t64 -25q33 0 57.5 20.5t24.5 65.5v45h287z" />
<glyph unicode="&#xe11;" horiz-adv-x="1312" d="M1184 0h-307v766q0 84 -21.5 119t-79.5 35q-67 0 -140.5 -86.5t-122 -216.5t-48.5 -248v-369h-307v338q0 90 26 178t57 143.5t57 112.5t26 92q-66 -30 -119 -30q-66 0 -107 42t-41 117q0 79 31 133h188l5 -8q-19 -43 -19 -74q0 -53 68 -53q95 0 98 135h160q12 -24 12 -59 q0 -32 -8 -59l6 -4q49 61 128 102t173 41q84 0 141.5 -26t88 -76.5t43 -112t12.5 -144.5v-788z" />
<glyph unicode="&#xe12;" horiz-adv-x="2019" d="M1188 0h-293v758q0 91 -17 126.5t-67 35.5q-41 0 -59.5 -22t-26.5 -69h-156q-5 48 -23 69.5t-59 21.5q-55 0 -87.5 -89t-32.5 -280q0 -179 62 -261.5t200 -82.5q78 0 139 37l12 -4l41 -199q-34 -26 -107.5 -43.5t-138.5 -17.5q-251 0 -379 153.5t-128 431.5 q0 121 23 224.5t68.5 184.5t120 127t171.5 46q87 0 128.5 -27.5t69.5 -85.5q31 52 91.5 82.5t138.5 30.5q319 0 319 -379v-262q0 -137 57.5 -218t151.5 -81q96 0 137 46.5t41 149.5v723h305v-747q0 -80 -21 -150t-63 -126.5t-114 -89.5t-166 -33q-219 0 -338 157v-137z" />
<glyph unicode="&#xe13;" horiz-adv-x="1935" d="M1806 0h-293v137q-119 -157 -337 -157q-94 0 -166 33t-114.5 89.5t-63.5 126.5t-21 150v297q0 126 -47.5 185t-159.5 59q-59 0 -123 -23t-104 -57l147 -129v-31q-48 -46 -67 -102.5t-19 -145.5v-143q0 -80 78 -80q68 0 121 31l12 -7v-200q-82 -53 -213 -53 q-137 0 -220 81t-83 220v129q0 96 24.5 160t78.5 114l-179 156v30q103 136 248.5 206.5t306.5 70.5q234 0 368 -119t134 -350v-275q0 -102 42 -149t138 -47q94 0 151.5 81t57.5 218v620h303v-1126z" />
<glyph unicode="&#xe14;" horiz-adv-x="1351" d="M1223 0h-308v657q0 131 -60 197t-198 66q-144 0 -217 -91t-73 -264q0 -181 62.5 -269.5t199.5 -88.5q78 0 139 37l12 -4l41 -199q-34 -26 -107.5 -43.5t-138.5 -17.5q-251 0 -379 153.5t-128 431.5q0 269 152.5 425.5t436.5 156.5q281 0 423.5 -135t142.5 -385v-627z" />
<glyph unicode="&#xe15;" horiz-adv-x="1351" d="M1223 0h-308v758q0 89 -19 125.5t-69 36.5q-41 0 -62.5 -22.5t-29.5 -68.5h-155q-9 91 -93 91q-55 0 -87.5 -89t-32.5 -280q0 -179 62 -261.5t200 -82.5q78 0 139 37l12 -4l41 -199q-34 -26 -107.5 -43.5t-138.5 -17.5q-251 0 -379 153.5t-128 431.5q0 121 23 224.5 t68.5 184.5t120 127t171.5 46q88 0 134.5 -28.5t73.5 -84.5q31 52 94 82.5t142 30.5q165 0 246.5 -97.5t81.5 -281.5v-768z" />
<glyph unicode="&#xe16;" horiz-adv-x="1284" d="M1155 0h-307v676q0 126 -52 185t-171 59q-67 0 -137.5 -23t-110.5 -57l147 -129v-31q-48 -46 -66 -102t-18 -146v-143q0 -80 76 -80q68 0 121 31l12 -7v-200q-82 -53 -213 -53q-137 0 -220 81t-83 220v129q0 96 24.5 160t78.5 114l-179 156v30q103 136 255 206.5 t321 70.5q242 0 382 -119.5t140 -349.5v-678z" />
<glyph unicode="&#xe17;" horiz-adv-x="1298" d="M1169 0h-307v723q0 104 -37 150.5t-127 46.5q-108 0 -185 -82.5t-77 -216.5v-621h-307v1126h297v-137q58 71 158 114.5t223 43.5q93 0 164 -33t113.5 -89.5t63.5 -126.5t21 -150v-748z" />
<glyph unicode="&#xe18;" horiz-adv-x="1128" d="M909 836h-20q-25 25 -126.5 55.5t-203.5 30.5q-98 0 -151.5 -18t-53.5 -50q0 -12 7 -22.5t22.5 -19.5t33 -16t46.5 -15.5t53.5 -15t63.5 -16.5t69 -18q226 -63 319 -152t93 -231q0 -168 -131 -268t-375 -100q-227 0 -358 86.5t-131 267.5v131h296v-107q0 -95 48 -124 t161 -29q112 0 153.5 34t41.5 107q0 68 -66.5 106.5t-248.5 88.5q-83 23 -140 43t-108.5 46.5t-81.5 57t-47 71.5t-17 93q0 97 67.5 165t178 99t254.5 31q131 0 256 -33.5t188 -81.5z" />
<glyph unicode="&#xe19;" horiz-adv-x="1298" d="M1169 0h-297v137q-119 -157 -358 -157q-94 0 -169 33.5t-121.5 91t-70.5 131t-24 157.5v733h307v-708q0 -112 42.5 -161.5t139.5 -49.5q106 0 175 81.5t69 217.5v620h307v-1126z" />
<glyph unicode="&#xe1a;" horiz-adv-x="1331" d="M895 420v706h307v-680q0 -218 -145.5 -342t-390.5 -124t-391 124t-146 342v680h307v-706q0 -103 63.5 -158t166.5 -55t166 55t63 158z" />
<glyph unicode="&#xe1b;" horiz-adv-x="1331" d="M895 420v1014h307v-988q0 -218 -145.5 -342t-390.5 -124t-391 124t-146 342v680h307v-706q0 -103 63.5 -158t166.5 -55t166 55t63 158z" />
<glyph unicode="&#xe1c;" horiz-adv-x="1380" d="M1251 0h-266l-295 485l-295 -485h-266v846q0 139 83 220t220 81q131 0 213 -53v-201l-12 -6q-53 31 -121 31q-40 0 -67 -21.5t-27 -62.5v-410l207 344h131l207 -342v700h288v-1126z" />
<glyph unicode="&#xe1d;" horiz-adv-x="1380" d="M1251 0h-266l-295 485l-295 -485h-266v846q0 139 83 220t220 81q131 0 213 -53v-201l-12 -6q-53 31 -121 31q-40 0 -67 -21.5t-27 -62.5v-410l207 344h131l207 -342v1110h288v-1536z" />
<glyph unicode="&#xe1e;" horiz-adv-x="1548" d="M1253 0h-229l-250 731l-250 -731h-229l-238 1126h291l109 -630l221 630h192l222 -630l108 630h291z" />
<glyph unicode="&#xe1f;" horiz-adv-x="1556" d="M1253 0h-229l-250 731l-250 -731h-229l-238 1126h291l109 -630l221 630h192l222 -630l137 938h280z" />
<glyph unicode="&#xe20;" horiz-adv-x="1357" d="M1229 0h-307v676q0 125 -52.5 184.5t-171.5 59.5q-68 0 -144.5 -23.5t-115.5 -56.5l174 -129v-31q-32 -57 -40.5 -99.5t-8.5 -119.5v-180q0 -139 -83 -220t-220 -81q-130 0 -203 47v200l13 6q41 -24 104 -24q82 0 82 80v143q0 97 13.5 146t54.5 106l-213 160v30 q101 134 262 203.5t334 69.5q242 0 382 -119.5t140 -349.5v-678z" />
<glyph unicode="&#xe21;" horiz-adv-x="1298" d="M862 403v723h307v-747q0 -79 -24 -150t-70.5 -127t-121.5 -89t-169 -33q-239 0 -358 157v-137h-297v1126h307v-620q0 -137 62.5 -218t167.5 -81q196 0 196 196z" />
<glyph unicode="&#xe22;" horiz-adv-x="1263" d="M829 432v694h306v-677q0 -220 -144 -344.5t-405 -124.5q-254 0 -386 96t-132 270q0 159 131 252q-56 41 -89.5 103.5t-33.5 136.5q0 140 99 224.5t267 84.5q64 0 137.5 -18t108.5 -44l-41 -196l-12 -4q-61 37 -139 37q-62 0 -93.5 -29t-31.5 -80q0 -121 147 -121h152 v-186h-162q-68 0 -107 -39t-39 -105q0 -73 57.5 -114t166.5 -41q114 0 178.5 58t64.5 167z" />
<glyph unicode="&#xe23;" horiz-adv-x="1089" d="M891 829h-21q-28 28 -117.5 60.5t-189.5 32.5q-85 0 -127.5 -21t-42.5 -70q0 -20 10 -37t24.5 -28.5t43 -24t53.5 -21.5t68.5 -24.5t75.5 -27.5q54 -21 83 -32.5t72.5 -32.5t67.5 -38t53 -43.5t43.5 -54t24.5 -65t10 -80.5q0 -342 -463 -342q-156 0 -287 46t-204 103 l94 205h18q35 -33 156 -81t231 -48q87 0 129.5 20t42.5 70q0 16 -6 29.5t-21 25.5t-30.5 21.5t-43.5 21.5t-51.5 21t-63.5 24t-70 27q-72 29 -115.5 49.5t-92 52t-74.5 65t-43 82t-17 109.5q0 152 119.5 238t330.5 86q134 0 244 -34.5t178 -86.5z" />
<glyph unicode="&#xe24;" horiz-adv-x="1284" d="M1155 -410h-307v1086q0 126 -52 185t-171 59q-67 0 -137.5 -23t-110.5 -57l147 -129v-31q-48 -46 -66 -102t-18 -146v-143q0 -80 76 -80q68 0 121 31l12 -7v-200q-82 -53 -213 -53q-137 0 -220 81t-83 220v129q0 96 24.5 160t78.5 114l-179 156v30q103 136 255 206.5 t321 70.5q242 0 382 -119.5t140 -349.5v-1088z" />
<glyph unicode="&#xe25;" horiz-adv-x="1257" d="M1231 205l-33 -170q-19 -19 -65 -37t-115 -18q-105 0 -162 64t-57 175v303q-40 -22 -203 -59q-134 -30 -181.5 -60.5t-47.5 -93.5q0 -56 30 -79t90 -23q83 0 144 37l12 -4l39 -199q-34 -26 -106.5 -43.5t-137.5 -17.5q-182 0 -276 86t-94 249q0 80 32 142.5t91 103.5 t126.5 67t155.5 44q194 41 257 68t63 73q0 58 -50 82.5t-168 24.5q-112 0 -221 -30.5t-176 -84.5l-18 4l18 235q69 45 191 74t256 29q467 0 467 -399v-486q0 -41 12.5 -57.5t38.5 -16.5q43 0 80 25z" />
<glyph unicode="&#xe26;" horiz-adv-x="1357" d="M1229 -410h-307v1086q0 125 -52.5 184.5t-171.5 59.5q-68 0 -144.5 -23.5t-115.5 -56.5l174 -129v-31q-32 -57 -40.5 -99.5t-8.5 -119.5v-180q0 -139 -83 -220t-220 -81q-130 0 -203 47v200l13 6q41 -24 104 -24q82 0 82 80v143q0 97 13.5 146t54.5 106l-213 160v30 q101 134 262 203.5t334 69.5q242 0 382 -119.5t140 -349.5v-1088z" />
<glyph unicode="&#xe27;" horiz-adv-x="1171" d="M68 156l122 176h11q72 -55 140.5 -80t158.5 -25q142 0 223.5 86.5t81.5 261.5q0 162 -86 243t-232 81q-216 0 -397 -139l-18 4l20 235q181 148 434 148q276 0 427 -154.5t151 -417.5q0 -272 -153.5 -433.5t-420.5 -161.5q-148 0 -268 46t-194 130z" />
<glyph unicode="&#xe28;" horiz-adv-x="1337" d="M1208 0h-307v686q0 125 -54.5 179.5t-178.5 54.5q-114 0 -173 -62t-59 -176v-137q38 40 100 64t115 24q95 0 152 -45v-191l-12 -6q-59 21 -132 21q-79 0 -139.5 -34.5t-83.5 -109.5v-268h-307v645q0 246 139.5 374t399.5 128q167 0 290 -57q47 41 50 106h264 q-22 -171 -148 -242q84 -119 84 -309v-645z" />
<glyph unicode="&#xe29;" horiz-adv-x="1357" d="M1290 547h-88v-101q0 -218 -145.5 -342t-390.5 -124t-391 124t-146 342v680h307v-706q0 -103 63.5 -158t166.5 -55t166 55t63 158v127h-223v248h223v331h307v-331h88v-248z" />
<glyph unicode="&#xe2a;" horiz-adv-x="1247" d="M1098 0h-293v522q-45 -25 -213 -59q-131 -28 -178 -59.5t-47 -94.5q0 -56 30 -79t90 -23q83 0 144 37l12 -4l39 -199q-34 -26 -106.5 -43.5t-137.5 -17.5q-182 0 -276 86t-94 249q0 81 31.5 143t89.5 103t125.5 67t154.5 44q201 41 265.5 69.5t64.5 75.5q0 53 -53 78 t-175 25q-112 0 -219 -30.5t-174 -84.5l-18 4l18 235q69 45 189.5 74t253.5 29q164 0 270 -49q36 36 39 98h264q-19 -168 -143 -240q47 -83 47 -208v-748z" />
<glyph unicode="&#xe2b;" horiz-adv-x="1290" d="M1161 0h-307v410q0 113 -52.5 163t-160.5 50q-119 0 -205 -39v-584h-307v1126h307v-331q93 41 213 41q71 0 111 -7q56 38 75 113.5t19 204.5h307q0 -147 -38.5 -239t-123.5 -154q90 -53 126 -134.5t36 -216.5v-403z" />
<glyph unicode="&#xe2c;" horiz-adv-x="1468" d="M1217 0h-242l-236 557l-235 -557h-209l-238 1126h291l109 -712l196 456h172l199 -456l76 401q4 28 4 37q0 39 -21 57.5t-69 18.5h-72l29 188h139q42 38 63 112.5t21 162.5h264q-6 -130 -52 -240t-116 -152q86 -55 86 -172q0 -31 -6 -69z" />
<glyph unicode="&#xe2d;" horiz-adv-x="1269" d="M629 432h-281q0 -105 71.5 -165t203.5 -60q80 0 137 26.5t88.5 77t45 112.5t13.5 142q0 179 -78 267t-266 88q-117 0 -235 -39.5t-201 -100.5l-18 4l20 234q186 129 451 129q314 0 468 -155t154 -427t-147.5 -428.5t-425.5 -156.5q-261 0 -411 127t-150 350q0 116 24 200 h537v-225z" />
<glyph unicode="&#xe2e;" horiz-adv-x="1286" d="M629 432h-281q0 -105 71.5 -165t203.5 -60q80 0 137 26.5t88.5 77t45 112.5t13.5 142q0 179 -78 267t-266 88q-117 0 -235 -39.5t-201 -100.5l-18 4l20 234q186 129 451 129q189 0 317 -55q44 38 47 104h264q-20 -162 -135 -233q129 -147 129 -398q0 -272 -147.5 -428.5 t-425.5 -156.5q-261 0 -411 127t-150 350q0 116 24 200h537v-225z" />
<glyph unicode="&#xe2f;" horiz-adv-x="1136" d="M1008 0h-316v475q-100 -41 -211 -41q-120 0 -214.5 39t-152 120.5t-57.5 194.5q0 161 97 260t249 99q64 0 129.5 -17t100.5 -43l-39 -198l-12 -4q-58 35 -129 35q-42 0 -72.5 -30.5t-30.5 -80.5q0 -66 48.5 -95.5t125.5 -29.5q124 0 189 39v403h295v-1126z" />
<glyph unicode="&#xe30;" horiz-adv-x="677" d="M621 692h-316q-118 0 -183 52t-65 149q0 90 45 168h228l6 -10q-29 -43 -29 -90q0 -54 58 -54h256v-215zM621 94h-316q-118 0 -183 52t-65 149q0 90 45 168h228l6 -10q-29 -43 -29 -91q0 -53 58 -53h256v-215z" />
<glyph unicode="&#xe31;" d="M78 1319h-561q-125 0 -190.5 51t-65.5 152q0 83 43 161h227l6 -10q-29 -43 -29 -90q0 -26 16.5 -42.5t41.5 -16.5h512v-205z" />
<glyph unicode="&#xe32;" horiz-adv-x="989" d="M860 0h-301v721q0 111 -40 156t-128 45q-140 0 -248 -82h-20l-92 196q64 49 162.5 80t207.5 31q248 0 353.5 -101t105.5 -317v-729z" />
<glyph unicode="&#xe33;" horiz-adv-x="989" d="M860 0h-301v721q0 111 -40 156t-128 45q-140 0 -248 -82h-20l-92 196q64 49 162.5 80t207.5 31q248 0 353.5 -101t105.5 -317v-729zM-197 1477q0 46 -26.5 68t-63.5 22t-63.5 -22t-26.5 -68t26.5 -68.5t63.5 -22.5t63.5 22.5t26.5 68.5zM-31 1477q0 -114 -71.5 -179 t-184.5 -65t-184.5 65t-71.5 179t71.5 178.5t184.5 64.5t184.5 -64.5t71.5 -178.5z" />
<glyph unicode="&#xe34;" d="M-129 1319h-946l39 205h907v-205z" />
<glyph unicode="&#xe35;" d="M-129 1319h-946l39 205h643v170h264v-375z" />
<glyph unicode="&#xe36;" d="M-299 1456q30 0 52 20t22 56q0 35 -22 55.5t-52 20.5t-52 -20.5t-22 -55.5q0 -36 22 -56t52 -20zM-319 1319h-756l39 205h516v30q0 78 61 130.5t152 52.5q99 0 161 -55.5t62 -151.5q0 -97 -61 -154t-174 -57z" />
<glyph unicode="&#xe37;" d="M-129 1319h-946l39 205h377v170h213v-170h98v170h219v-375z" />
<glyph unicode="&#xe38;" d="M-129 -647h-240v203q0 88 -75 88q-68 0 -115 -27l-12 6v191q87 53 219 53q117 0 170 -56t53 -194v-264z" />
<glyph unicode="&#xe39;" d="M-373 -395v252h244v-244q0 -248 -324 -248q-299 0 -299 223q0 43 -11 59.5t-42 16.5q-45 0 -84 -22l-12 6v174q71 45 192 45q89 0 134 -48t45 -136v-80q0 -56 77 -56q39 0 59.5 16.5t20.5 41.5z" />
<glyph unicode="&#xe3a;" d="M-115 -279q0 -63 -38 -104t-109 -41t-109.5 41t-38.5 104t38.5 104.5t109.5 41.5q70 0 108.5 -41.5t38.5 -104.5z" />
<glyph unicode="&#xe3f;" horiz-adv-x="1384" d="M770 -205h-246v205h-395v1434h395v204h246v-204h23q220 0 336 -103t116 -272q0 -233 -207 -311q127 -38 203 -127.5t76 -217.5q0 -185 -143 -294t-388 -109h-16v-205zM438 252h314q111 0 177 45.5t66 132.5q0 89 -65.5 135.5t-175.5 46.5h-316v-360zM438 858h277 q99 0 156 40.5t57 121.5q0 82 -57 122t-158 40h-275v-324z" />
<glyph unicode="&#xe40;" horiz-adv-x="702" d="M645 233v-200q-82 -53 -213 -53q-137 0 -220 81t-83 220v845h307v-837q0 -80 76 -80q68 0 121 31z" />
<glyph unicode="&#xe41;" horiz-adv-x="1292" d="M645 233v-200q-82 -53 -213 -53q-137 0 -220 81t-83 220v845h307v-837q0 -80 76 -80q68 0 121 31zM1235 233v-200q-82 -53 -213 -53q-137 0 -220 81t-83 220v845h307v-837q0 -80 76 -80q68 0 121 31z" />
<glyph unicode="&#xe42;" horiz-adv-x="874" d="M817 233v-200q-82 -53 -213 -53q-137 0 -220 81t-83 220v919q0 73 -15.5 105.5t-58.5 54.5l-186 94v213q82 74 191 117t229 43q94 0 183.5 -16.5t127.5 -41.5l19 -198l-13 -6q-27 16 -101.5 32.5t-141.5 16.5q-131 0 -209 -31v-8l143 -74q84 -43 111.5 -118.5 t27.5 -217.5v-876q0 -80 76 -80q68 0 121 31z" />
<glyph unicode="&#xe43;" horiz-adv-x="796" d="M739 233v-200q-82 -53 -213 -53q-137 0 -220 81t-83 220v823q0 69 22 125t53.5 91t63.5 65.5t54 64.5t22 72q0 30 -27 49.5t-75 19.5q-149 0 -279 -71l-16 4l20 235q139 68 314 68q180 0 270 -63.5t90 -200.5q0 -56 -15 -103.5t-38 -79t-49.5 -65.5t-49.5 -64t-38 -74 t-15 -96v-792q0 -80 76 -80q68 0 121 31z" />
<glyph unicode="&#xe44;" horiz-adv-x="811" d="M754 233v-200q-82 -53 -213 -53q-137 0 -220 81t-83 220v874q0 304 149 447h-346v225h733v-191q-128 -65 -178.5 -176t-50.5 -301v-870q0 -80 76 -80q67 0 120 31z" />
<glyph unicode="&#xe45;" horiz-adv-x="995" d="M866 -410h-301v1131q0 111 -40 156t-128 45q-139 0 -247 -82h-21l-92 196q64 49 163 80t208 31q248 0 353 -101t105 -317v-1139z" />
<glyph unicode="&#xe46;" horiz-adv-x="1243" d="M1114 0h-307v786q0 72 -17 103t-53 31q-72 0 -78 -99h-149q-6 99 -68 99q-33 0 -56.5 -34t-23.5 -106q0 -67 37.5 -102t92.5 -35q74 0 135 37l12 -4l39 -195q-35 -26 -103.5 -43.5t-132.5 -17.5q-165 0 -269.5 90t-104.5 258q0 180 83.5 279.5t233.5 99.5q138 0 207 -92 q33 41 91.5 66.5t115.5 25.5q174 0 244.5 -101t70.5 -305v-741z" />
<glyph unicode="&#xe47;" d="M-229 1298h-90q-75 0 -131.5 29t-77.5 74q-23 -44 -87 -77.5t-137 -33.5q-116 0 -188 68.5t-72 175.5q0 132 89.5 199t252.5 67h195q184 0 258 39l14 -4l-6 -154q-90 -45 -256 -45h-203q-135 0 -135 -92q0 -38 22 -60t56 -22q44 0 68.5 22.5t33.5 69.5h187q6 -48 33 -67 t79 -19h95v-170z" />
<glyph unicode="&#xe48;" d="M-135 1806h-252v353h252v-353z" />
<glyph unicode="&#xe49;" d="M41 1806h-569v174q0 25 -9.5 35t-33.5 10h-103l12 162h203q80 0 111 -33.5t31 -97.5v-65h358v-185z" />
<glyph unicode="&#xe4a;" d="M-113 1806h-159v164q0 51 -37 51q-35 0 -35 -53v-26h-143v26q0 53 -33 53q-41 0 -41 -75q0 -67 37 -140h-189q-47 85 -47 168q0 103 57 160t146 57q87 0 141 -61q20 26 63.5 42.5t90.5 16.5q77 0 115 -42.5t38 -108.5v-90h11q13 0 22.5 10.5t9.5 28.5v196h162v-190 q0 -92 -50 -139.5t-159 -47.5z" />
<glyph unicode="&#xe4b;" d="M12 1929h-153v-123h-240v123h-156v144h156v125h240v-125h153v-144z" />
<glyph unicode="&#xe4c;" d="M-29 1849h-340q-65 0 -65 -53q0 -51 24 -90l-6 -10h-227q-39 71 -39 162q0 202 256 202h397v-211z" />
<glyph unicode="&#xe4d;" d="M-197 1477q0 46 -26.5 68t-63.5 22t-63.5 -22t-26.5 -68t26.5 -68.5t63.5 -22.5t63.5 22.5t26.5 68.5zM-31 1477q0 -114 -71.5 -179t-184.5 -65t-184.5 65t-71.5 179t71.5 178.5t184.5 64.5t184.5 -64.5t71.5 -178.5z" />
<glyph unicode="&#xe4e;" d="M-305 1462l24 -116q-24 -22 -67 -35t-88 -13q-125 0 -185.5 40.5t-60.5 113.5q0 71 49.5 117t145.5 59q-76 37 -76 107q0 52 56 87.5t153 35.5q83 0 151 -39l13 -117l-13 -2q-39 20 -71 20q-50 0 -50 -34q0 -16 19.5 -30.5t56.5 -23.5v-104q-79 22 -141 22q-28 0 -44 -14 t-16 -39q0 -19 18 -35t42 -16q42 0 72 18z" />
<glyph unicode="&#xe4f;" horiz-adv-x="1216" d="M1159 514q0 -246 -149.5 -390t-401.5 -144t-401.5 144t-149.5 390q0 245 149.5 387.5t401.5 142.5t401.5 -142.5t149.5 -387.5zM608 193q151 0 232.5 83t81.5 238q0 154 -81 234.5t-233 80.5t-232.5 -80.5t-80.5 -234.5q0 -155 81.5 -238t231.5 -83zM608 293 q-101 0 -157 57.5t-56 161.5q0 105 55.5 160t157.5 55t157.5 -55t55.5 -160q0 -104 -56 -161.5t-157 -57.5z" />
<glyph unicode="&#xe50;" horiz-adv-x="1261" d="M1204 514q0 -247 -157 -390.5t-416 -143.5q-260 0 -417 143.5t-157 390.5q0 245 157 387.5t417 142.5q259 0 416 -142.5t157 -387.5zM631 227q127 0 200.5 75t73.5 212q0 136 -73 209.5t-201 73.5t-201.5 -73.5t-73.5 -209.5t74.5 -211.5t200.5 -75.5z" />
<glyph unicode="&#xe51;" horiz-adv-x="1312" d="M602 -201l-57 230l6 10q100 24 171.5 54.5t118.5 68.5t74.5 89t38.5 109t11 136q0 156 -80.5 232.5t-225.5 76.5q-138 0 -224.5 -64.5t-86.5 -185.5q0 -104 53 -157.5t150 -53.5q80 0 141 37l13 -4l38 -191q-34 -26 -107 -43.5t-138 -17.5q-201 0 -321 116t-120 314 q0 152 77.5 264t212.5 168.5t312 56.5q298 0 447 -144t149 -408q0 -101 -19.5 -187t-66 -167.5t-120.5 -145t-187 -114t-260 -79.5z" />
<glyph unicode="&#xe52;" horiz-adv-x="1519" d="M1411 739v-227q0 -116 -40 -212t-118 -167.5t-203 -111t-286 -39.5q-185 0 -332.5 66t-230 184t-82.5 268v635h274v-629q0 -123 97.5 -201t275.5 -78q185 0 279 66.5t94 187.5v240q0 66 -14.5 90.5t-47.5 24.5q-25 0 -44 -19.5t-19 -48.5v-68h-193v68q0 68 -51 68 q-28 0 -50 -38t-22 -110q0 -172 142 -172q72 0 133 37l12 -4l39 -176q-40 -23 -101.5 -38.5t-121.5 -15.5q-165 0 -255.5 87.5t-90.5 265.5q0 185 70 278.5t182 93.5q88 0 137 -26t82 -82q83 108 223 108q262 0 262 -305z" />
<glyph unicode="&#xe53;" horiz-adv-x="1374" d="M1255 0h-305v670q0 73 -18 103t-60 30q-36 0 -56.5 -27t-20.5 -69v-152h-240v152q0 39 -20.5 67.5t-59.5 28.5q-57 0 -92 -78t-35 -223q0 -80 20.5 -138.5t56 -89t74.5 -44t83 -13.5q80 0 141 37l12 -4l37 -209q-34 -26 -106.5 -43.5t-137.5 -17.5q-213 0 -342 132.5 t-129 389.5q0 250 98 396t287 146q170 0 236 -120q33 55 108.5 87.5t149.5 32.5q166 0 242.5 -92.5t76.5 -287.5v-664z" />
<glyph unicode="&#xe54;" horiz-adv-x="1320" d="M1245 0h-231q-154 0 -228 59q-35 -35 -109 -57t-149 -22q-228 0 -349.5 130.5t-121.5 366.5q0 264 175.5 405.5t529.5 141.5q365 0 483 113l19 -7l-25 -235q-121 -113 -477 -113q-98 0 -171.5 -15t-130.5 -49.5t-86.5 -95t-29.5 -145.5q0 -137 47 -204.5t150 -67.5 q39 0 57 14q-17 27 -28 74.5t-11 87.5q0 153 100.5 231t298.5 78q66 0 147.5 -18t115.5 -43l-37 -209l-13 -4q-25 15 -70.5 26t-88.5 11q-83 0 -126.5 -28.5t-43.5 -82.5q0 -64 48.5 -94.5t149.5 -30.5h205v-217z" />
<glyph unicode="&#xe55;" horiz-adv-x="1320" d="M1245 0h-231q-154 0 -228 59q-35 -35 -109 -57t-149 -22q-228 0 -349.5 130.5t-121.5 366.5q0 188 107.5 313t308.5 175q-100 68 -104 168h268q3 -61 49 -119q25 2 78 2q156 0 285.5 29t195.5 92l19 -7l-25 -235q-121 -113 -477 -113q-98 0 -171.5 -15t-130.5 -49.5 t-86.5 -95t-29.5 -145.5q0 -137 47 -204.5t150 -67.5q39 0 57 14q-17 27 -28 74.5t-11 87.5q0 153 100.5 231t298.5 78q66 0 147.5 -18t115.5 -43l-37 -209l-13 -4q-25 15 -70.5 26t-88.5 11q-83 0 -126.5 -28.5t-43.5 -82.5q0 -64 48.5 -94.5t149.5 -30.5h205v-217z" />
<glyph unicode="&#xe56;" horiz-adv-x="1380" d="M330 59l39 220l12 4q29 -18 113.5 -37t160.5 -19q142 0 224 34t113.5 97.5t31.5 169.5q0 269 -264 269q-220 0 -283 -191h-268l-193 529h291l82 -232q70 74 168 107.5t240 33.5q135 0 237 -38t164.5 -107.5t93.5 -162.5t31 -208q0 -120 -34.5 -217.5t-106 -172.5 t-192 -116.5t-281.5 -41.5q-116 0 -225 23t-154 56z" />
<glyph unicode="&#xe57;" horiz-adv-x="1812" d="M1243 0h-305v670q0 73 -18 103t-60 30q-36 0 -57 -27t-21 -69v-152h-231v152q0 39 -20.5 67.5t-59.5 28.5q-57 0 -90 -77.5t-33 -223.5q0 -80 20.5 -138.5t56 -89t74.5 -44t83 -13.5q80 0 141 37l12 -4l37 -209q-34 -26 -106.5 -43.5t-137.5 -17.5q-213 0 -342 132.5 t-129 389.5q0 251 96.5 396.5t284.5 145.5q166 0 232 -120q34 56 107 88t147 32q163 0 229 -90.5t66 -289.5v-418h22q88 0 133 47t45 160v682h275v-689q0 -222 -116 -334t-335 -112z" />
<glyph unicode="&#xe58;" horiz-adv-x="1333" d="M1276 414v-58q0 -169 -92 -271.5t-260 -102.5t-238 137q-86 -137 -258 -137q-371 0 -371 510q0 268 171 410t509 142q168 0 291 19t193 72l18 -7l-25 -235q-130 -86 -477 -86q-195 0 -294 -72.5t-99 -242.5q0 -143 35 -209t92 -66q88 0 88 88v84h250v-84q0 -88 90 -88 q109 0 109 137v49q0 40 -25.5 65.5t-71.5 25.5q-56 0 -96 -29l-12 4l-37 201q39 22 104 37.5t127 15.5q132 0 205.5 -84.5t73.5 -224.5z" />
<glyph unicode="&#xe59;" horiz-adv-x="1513" d="M1085 0h-260l-245 717q-17 49 -40.5 68.5t-62.5 19.5q-60 0 -96.5 -76.5t-36.5 -230.5q0 -289 170 -289q80 0 141 37l13 -4l37 -201q-34 -26 -106.5 -43.5t-137.5 -17.5q-404 0 -404 518q0 250 108.5 398t313.5 148q163 0 250 -120q32 52 92.5 86t128.5 34 q109 0 164.5 -58t69.5 -165q94 52 104 223h209q-7 -146 -82.5 -261t-204.5 -185h-200q0 207 -101 207q-51 0 -84 -29z" />
<glyph unicode="&#xe5b;" horiz-adv-x="2398" d="M2341 532h-94q-65 0 -100.5 -51t-37.5 -133h-186l-41 184l-47 -235h-184l-56 229l-45 -272h-196l-35 274q-18 -110 -61 -199t-102.5 -150t-136 -101.5t-159.5 -59t-174 -18.5q-296 0 -462.5 149.5t-166.5 430.5q0 263 139 404.5t396 141.5q203 0 324.5 -108t121.5 -305 q0 -65 -17.5 -138.5t-43.5 -107.5l-209 41l-4 12q37 61 37 142q0 106 -45 165.5t-156 59.5q-125 0 -188.5 -71t-63.5 -226q0 -184 84 -266t254 -82q205 0 315.5 120t110.5 340v261h248l63 -228l50 197h198l58 -199l40 158h177l86 -236q60 88 188 88h121v-211z" />
<glyph unicode="&#x2000;" horiz-adv-x="1099" />
<glyph unicode="&#x2001;" horiz-adv-x="2198" />
<glyph unicode="&#x2002;" horiz-adv-x="1099" />
<glyph unicode="&#x2003;" horiz-adv-x="2198" />
<glyph unicode="&#x2004;" horiz-adv-x="732" />
<glyph unicode="&#x2005;" horiz-adv-x="549" />
<glyph unicode="&#x2006;" horiz-adv-x="366" />
<glyph unicode="&#x2007;" horiz-adv-x="366" />
<glyph unicode="&#x2008;" horiz-adv-x="274" />
<glyph unicode="&#x2009;" horiz-adv-x="439" />
<glyph unicode="&#x200a;" horiz-adv-x="122" />
<glyph unicode="&#x2010;" horiz-adv-x="739" d="M682 569h-625v260h625v-260z" />
<glyph unicode="&#x2011;" horiz-adv-x="923" d="M866 569h-809v260h809v-260z" />
<glyph unicode="&#x2012;" horiz-adv-x="923" d="M866 569h-809v260h809v-260z" />
<glyph unicode="&#x2013;" horiz-adv-x="1429" d="M1372 569h-1315v260h1315v-260z" />
<glyph unicode="&#x2014;" horiz-adv-x="1589" d="M1532 569h-1475v260h1475v-260z" />
<glyph unicode="&#x2018;" horiz-adv-x="524" d="M387 928h-330l121 526h289z" />
<glyph unicode="&#x2019;" horiz-adv-x="524" d="M346 928h-289l80 526h330z" />
<glyph unicode="&#x201a;" horiz-adv-x="524" d="M346 -309h-289l80 526h330z" />
<glyph unicode="&#x201c;" horiz-adv-x="966" d="M829 928h-329l121 526h288zM387 928h-330l121 526h289z" />
<glyph unicode="&#x201d;" horiz-adv-x="966" d="M346 928h-289l80 526h330zM788 928h-288l80 526h329z" />
<glyph unicode="&#x201e;" horiz-adv-x="966" d="M346 -309h-289l80 526h330zM788 -309h-288l80 526h329z" />
<glyph unicode="&#x2020;" horiz-adv-x="1071" d="M694 -225h-317v1052h-320v258h320v349h317v-349h320v-258h-320v-1052z" />
<glyph unicode="&#x2021;" horiz-adv-x="1071" d="M694 -225h-317v348h-320v258h320v446h-320v258h320v349h317v-349h320v-258h-320v-446h320v-258h-320v-348z" />
<glyph unicode="&#x2022;" horiz-adv-x="679" d="M340 381q-122 0 -202.5 82.5t-80.5 214.5q0 130 80.5 211.5t202.5 81.5t202.5 -81.5t80.5 -211.5q0 -132 -80.5 -214.5t-202.5 -82.5z" />
<glyph unicode="&#x2026;" horiz-adv-x="1232" d="M360 129q0 -60 -45 -104.5t-106 -44.5q-65 0 -108.5 44t-43.5 105q0 62 43.5 106t108.5 44q62 0 106.5 -44.5t44.5 -105.5zM768 129q0 -60 -45.5 -104.5t-106.5 -44.5q-65 0 -108 44t-43 105q0 62 43 106t108 44q62 0 107 -44.5t45 -105.5zM1176 129q0 -60 -45.5 -104.5 t-106.5 -44.5q-65 0 -108.5 44t-43.5 105q0 62 43.5 106t108.5 44q62 0 107 -44.5t45 -105.5z" />
<glyph unicode="&#x202f;" horiz-adv-x="439" />
<glyph unicode="&#x2030;" horiz-adv-x="2377" d="M459 -20h-328l1038 1474h326zM752 1106q0 -146 -99 -246t-250 -100t-248.5 99.5t-97.5 246.5t98 247.5t248 100.5q151 0 250 -101t99 -247zM403 1001q46 0 74.5 30t28.5 75t-28.5 74.5t-74.5 29.5t-74 -29.5t-28 -74.5t28 -75t74 -30zM1571 326q0 -146 -98.5 -246 t-249.5 -100t-248.5 99.5t-97.5 246.5t98 247.5t248 100.5q151 0 249.5 -100.5t98.5 -247.5zM1223 221q46 0 74 30t28 75t-28 74.5t-74 29.5t-74.5 -29.5t-28.5 -74.5t28.5 -75t74.5 -30zM2320 326q0 -146 -98.5 -246t-249.5 -100t-248.5 99.5t-97.5 246.5t98 247.5 t248 100.5q151 0 249.5 -100.5t98.5 -247.5zM1972 221q46 0 74.5 30t28.5 75t-28.5 74.5t-74.5 29.5t-74 -29.5t-28 -74.5t28 -75t74 -30z" />
<glyph unicode="&#x2039;" horiz-adv-x="811" d="M578 170l-521 448v99l521 448l176 -219l-330 -278l330 -279z" />
<glyph unicode="&#x203a;" horiz-adv-x="811" d="M754 618l-521 -448l-176 219l330 279l-330 278l176 219l521 -448v-99z" />
<glyph unicode="&#x2044;" horiz-adv-x="811" d="M254 -20h-328l631 1474h328z" />
<glyph unicode="&#x205f;" horiz-adv-x="549" />
<glyph unicode="&#x20ac;" horiz-adv-x="1308" d="M1243 371l-29 -248q-98 -77 -194.5 -110t-243.5 -33q-231 0 -379 116t-194 307h-146v197h103v162h-103v194h129q20 106 66.5 195.5t116 157.5t168.5 106.5t217 38.5q327 0 497 -207l-168 -178h-24q-52 69 -113.5 98t-165.5 29q-107 0 -185 -65.5t-95 -174.5h489v-194 h-508v-162h508v-197h-465q22 -79 95 -122t180 -43q118 0 215 36t203 105z" />
<glyph unicode="&#x2113;" horiz-adv-x="940" d="M612 377h271q0 -189 -88 -293t-254 -104q-169 0 -255.5 91t-86.5 265v151l-142 -38v262q76 19 142 45v331q0 175 87 271t251 96q167 0 254.5 -94.5t87.5 -261.5q0 -171 -100 -292t-283 -206v-283q0 -100 59 -100q31 0 44 37t13 123zM489 1126v-243q99 79 99 217 q0 117 -53 117q-27 0 -36.5 -21t-9.5 -70z" />
<glyph unicode="&#x2122;" horiz-adv-x="1251" d="M1194 928h-166v248l-127 -197h-31l-127 195v-246h-165v526h151l156 -244l155 244h154v-526zM389 928h-168v387h-164v139h475v-139h-143v-387z" />
<glyph unicode="&#x2126;" horiz-adv-x="1638" d="M1581 0h-680v219q356 194 356 512q0 231 -115.5 346t-322.5 115t-322.5 -115t-115.5 -346q0 -318 356 -512v-219h-680v258h217q-101 90 -158 216t-57 263q0 155 51 286.5t146.5 227t240 149.5t322.5 54t322.5 -54t240 -149.5t146.5 -227t51 -286.5q0 -137 -57 -263 t-158 -216h217v-258z" />
<glyph unicode="&#x212e;" horiz-adv-x="1624" d="M1257 766v494q-69 69 -184 111t-260 42q-282 0 -444 -149v-498h888zM1425 309h64q-119 -190 -269 -265t-376 -75q-160 0 -305.5 58.5t-251 157.5t-168 237.5t-62.5 292.5q0 142 40.5 264t111 210t166 150t207 92.5t231.5 30.5q148 0 285 -52.5t241 -144t166 -225 t62 -286.5v-39h-1198v-512q63 -78 197 -131.5t278 -53.5q204 0 341.5 66.5t239.5 224.5z" />
<glyph unicode="&#x2202;" horiz-adv-x="1316" d="M582 240q117 0 204.5 86.5t87.5 208.5q0 83 -53.5 129.5t-140.5 46.5q-135 0 -220 -83t-85 -229q0 -159 207 -159zM375 1114l-15 4l74 254q139 82 350 82q103 0 189 -36.5t149.5 -106t99 -178t35.5 -246.5q0 -125 -30 -275q-67 -318 -248 -475t-449 -157 q-210 0 -340.5 112t-130.5 291q0 159 84.5 295t229 215.5t313.5 79.5q168 0 272 -94q0 157 -62 235t-208 78q-93 0 -153.5 -15.5t-159.5 -62.5z" />
<glyph unicode="&#x2206;" horiz-adv-x="1351" d="M1294 0h-1237v188l480 1266h278l479 -1266v-188zM969 258l-293 778l-293 -778h586z" />
<glyph unicode="&#x220f;" horiz-adv-x="1306" d="M1178 -123h-312v1360h-426v-1360h-311v1618h1049v-1618z" />
<glyph unicode="&#x2211;" horiz-adv-x="1251" d="M1194 -272h-1137v174l506 678l-506 682v172h1137v-258h-741l456 -596l-454 -594h739v-258z" />
<glyph unicode="&#x2212;" horiz-adv-x="1159" d="M1063 530h-967v256h967v-256z" />
<glyph unicode="&#x2215;" horiz-adv-x="811" d="M254 -20h-328l631 1474h328z" />
<glyph unicode="&#x2219;" horiz-adv-x="417" d="M360 731q0 -60 -45 -104.5t-106 -44.5q-65 0 -108.5 44t-43.5 105q0 62 43.5 106t108.5 44q62 0 106.5 -44.5t44.5 -105.5z" />
<glyph unicode="&#x221a;" horiz-adv-x="1513" d="M827 0h-280l-250 688h-240v260h478l155 -463l436 1219h330z" />
<glyph unicode="&#x221e;" horiz-adv-x="1634" d="M717 702q-38 64 -99.5 102t-138.5 38q-60 0 -95.5 -38.5t-35.5 -98.5t35.5 -101t95.5 -41q76 0 138 37t100 102zM817 473q-131 -141 -348 -141q-195 0 -303.5 104.5t-108.5 268.5q0 165 107.5 268.5t304.5 103.5q103 0 193.5 -40t154.5 -103q64 63 154.5 103t193.5 40 q197 0 304.5 -103.5t107.5 -268.5q0 -164 -108.5 -268.5t-303.5 -104.5q-217 0 -348 141zM918 702q38 -65 99.5 -102t137.5 -37q60 0 95.5 41t35.5 101t-35.5 98.5t-95.5 38.5q-77 0 -138 -38t-99 -102z" />
<glyph unicode="&#x222b;" horiz-adv-x="954" d="M57 -379v229l21 11q73 -27 129 -27q170 0 170 139q0 74 -26.5 208t-26.5 245v682q0 371 387 371q109 0 186 -31v-229l-20 -11q-73 27 -129 27q-170 0 -170 -139q0 -74 26.5 -208t26.5 -245v-682q0 -371 -387 -371q-110 0 -187 31z" />
<glyph unicode="&#x2248;" horiz-adv-x="1159" d="M1032 600l-12 -227q-78 -84 -203 -84q-46 0 -101.5 18.5t-98 41t-92.5 41t-87 18.5q-70 0 -119.5 -28t-93.5 -79h-8l-92 191q47 59 125.5 97t163.5 38q48 0 105 -18.5t101.5 -41t98.5 -41t96 -18.5q129 0 205 96zM1032 954l-12 -225q-80 -86 -203 -86q-46 0 -101.5 18.5 t-98 41t-92.5 41t-87 18.5q-70 0 -119.5 -28t-93.5 -79h-8l-92 191q47 59 125.5 97t163.5 38q48 0 105 -18.5t101.5 -41t98.5 -41t96 -18.5q127 0 205 96z" />
<glyph unicode="&#x2260;" horiz-adv-x="1138" d="M989 340h-457l-94 -219h-192l94 219h-190v229h288l60 138h-348v229h446l78 180h192l-78 -180h201v-229h-299l-59 -138h358v-229z" />
<glyph unicode="&#x2264;" horiz-adv-x="1159" d="M928 276l-819 445v145l819 443l121 -209l-605 -307l605 -306zM1073 0h-987v211h987v-211z" />
<glyph unicode="&#x2265;" horiz-adv-x="1185" d="M1051 721l-820 -445l-120 211l604 306l-604 307l120 209l820 -443v-145zM1073 0h-987v211h987v-211z" />
<glyph unicode="&#x25ca;" horiz-adv-x="1222" d="M715 0h-205l-453 715l455 719h201l452 -719zM614 340l238 375l-238 375l-241 -375z" />
<glyph unicode="&#x25fc;" horiz-adv-x="1024" d="M0 1024h1024v-1024h-1024v1024z" />
<glyph unicode="&#xf700;" horiz-adv-x="1255" d="M551 0h-191l-84 379h-174v235h390l83 -374q126 23 179 97.5t53 227.5q0 172 -67.5 253t-221.5 81q-115 0 -237 -35.5t-201 -93.5l-19 4l21 234q200 139 455 139q191 0 321 -74q69 45 72 123h264q-13 -102 -61.5 -166t-122.5 -92q96 -140 96 -365q0 -264 -151 -418.5 t-404 -154.5z" />
<glyph unicode="&#xf701;" d="M-524 1319h-736l39 205h697v-205z" />
<glyph unicode="&#xf702;" d="M-524 1319h-736l39 205h443v170h254v-375z" />
<glyph unicode="&#xf703;" d="M-709 1319h-551l39 205h324q0 100 61.5 156.5t155.5 56.5q97 0 152 -54.5t55 -152.5q0 -97 -61.5 -154t-174.5 -57zM-682 1456q30 0 52 20t22 56q0 35 -22 55.5t-52 20.5t-52 -20.5t-22 -55.5q0 -36 22 -56t52 -20z" />
<glyph unicode="&#xf704;" d="M-524 1319h-736l39 205h258v170h172v-170h93v170h174v-375z" />
<glyph unicode="&#xf705;" d="M-616 1319h-275v375h275v-375z" />
<glyph unicode="&#xf706;" d="M-522 1319h-539v194q0 25 -9.5 35.5t-33.5 10.5h-102l12 182h215q80 0 110.5 -33.5t30.5 -97.5v-97h316v-194z" />
<glyph unicode="&#xf707;" d="M-674 1319h-160v166q0 53 -36 53q-39 0 -39 -55v-23h-142v23q0 55 -28 55q-45 0 -45 -74q0 -66 47 -145h-193q-49 90 -49 176q0 108 56.5 167.5t140.5 59.5q89 0 143 -65q21 29 64.5 46t91.5 17q76 0 114.5 -45t38.5 -114v-82h11q28 0 28 39v196h166v-201 q0 -97 -48 -145.5t-161 -48.5z" />
<glyph unicode="&#xf708;" d="M-514 1440h-150v-121h-241v121h-152v172h152v123h241v-123h150v-172z" />
<glyph unicode="&#xf709;" d="M-500 1473h-260q-65 0 -65 -54q0 -51 24 -90l-6 -10h-227q-39 71 -39 162q0 202 256 202h317v-210z" />
<glyph unicode="&#xf70a;" d="M-141 1319h-275v375h275v-375z" />
<glyph unicode="&#xf70b;" d="M10 1319h-702v194q0 25 -9.5 35.5t-33.5 10.5h-103l13 182h219q80 0 110.5 -33.5t30.5 -97.5v-97h475v-194z" />
<glyph unicode="&#xf70c;" d="M-246 1319h-188v172q0 29 -14 41t-31 12q-20 0 -33.5 -13.5t-13.5 -41.5v-29h-150v29q0 24 -11.5 39.5t-29.5 15.5q-22 0 -37.5 -19t-15.5 -61q0 -65 41 -145h-215q-49 90 -49 176q0 107 65 167t160 60q48 0 96 -21t72 -50q22 29 71 49t97 20q82 0 126 -45t44 -114v-82 h31q14 0 24 10.5t10 28.5v196h183v-201q0 -94 -58.5 -144t-173.5 -50z" />
<glyph unicode="&#xf70d;" d="M-129 1440h-156v-121h-243v121h-158v172h158v123h243v-123h156v-172z" />
<glyph unicode="&#xf70e;" d="M-25 1473h-340q-65 0 -65 -54q0 -51 24 -90l-6 -10h-227q-39 71 -39 162q0 202 256 202h397v-210z" />
<glyph unicode="&#xf70f;" horiz-adv-x="1953" d="M1501 465v661h305v-645q0 -84 -30.5 -161t-89.5 -140t-156.5 -101t-220.5 -38q-246 0 -372 116.5t-126 362.5v156q0 126 -47.5 185t-159.5 59q-59 0 -123 -23t-104 -57l147 -129v-31q-48 -46 -67 -102.5t-19 -145.5v-143q0 -80 78 -80q68 0 121 31l12 -7v-200 q-82 -53 -213 -53q-137 0 -220 81t-83 220v129q0 96 24.5 160t78.5 114l-179 156v30q103 136 248.5 206.5t306.5 70.5q234 0 368 -119t134 -350v-217q0 -101 48.5 -147t144.5 -46q194 0 194 197z" />
<glyph unicode="&#xf710;" d="M-508 1319h-391q-125 0 -190.5 51t-65.5 152q0 83 43 161h227l6 -10q-28 -42 -28 -90q0 -26 16 -42.5t41 -16.5h342v-205z" />
<glyph unicode="&#xf711;" d="M-684 1477q0 46 -26.5 68t-63.5 22t-63.5 -22t-26.5 -68t26.5 -68.5t63.5 -22.5t63.5 22.5t26.5 68.5zM-518 1477q0 -114 -71.5 -179t-184.5 -65t-184.5 65t-71.5 179t71.5 178.5t184.5 64.5t184.5 -64.5t71.5 -178.5z" />
<glyph unicode="&#xf712;" d="M-549 1298h-55q-127 0 -172 103q-21 -45 -80 -78t-127 -33q-108 0 -172 68t-64 176q0 133 80.5 199.5t233.5 66.5h164q173 0 243 39l15 -4l-6 -154q-83 -45 -242 -45h-172q-119 0 -119 -92q0 -82 64 -82q43 0 65.5 22t30.5 70h168q4 -48 25 -67t61 -19h59v-170z" />
<glyph unicode="&#xf713;" d="M-530 1806h-242v353h242v-353z" />
<glyph unicode="&#xf714;" d="M-324 1806h-569v174q0 25 -9.5 35t-33.5 10h-102l12 162h203q80 0 110.5 -33.5t30.5 -97.5v-65h358v-185z" />
<glyph unicode="&#xf715;" d="M-481 1806h-160v164q0 51 -37 51q-35 0 -35 -53v-26h-143v26q0 53 -33 53q-41 0 -41 -75q0 -67 37 -140h-188q-47 85 -47 168q0 104 57 160.5t145 56.5t142 -61q20 26 63 42.5t90 16.5q77 0 115.5 -42.5t38.5 -108.5v-90h10q13 0 23 10.5t10 28.5v196h162v-190 q0 -92 -50 -139.5t-159 -47.5z" />
<glyph unicode="&#xf716;" d="M-379 1929h-153v-123h-238v123h-156v144h156v125h238v-125h153v-144z" />
<glyph unicode="&#xf717;" d="M-233 1790h-340q-66 0 -66 -53q0 -50 25 -90l-7 -11h-227q-39 71 -39 162q0 101 65.5 152t190.5 51h398v-211z" />
<glyph unicode="&#xf718;" d="M-129 -924h-240v203q0 88 -75 88q-70 0 -115 -26l-12 6v190q87 53 219 53q117 0 170 -55.5t53 -193.5v-265z" />
<glyph unicode="&#xf719;" d="M-373 -672v252h244v-244q0 -112 -80 -179.5t-219 -67.5q-131 0 -202.5 63.5t-71.5 159.5q0 43 -11.5 59.5t-42.5 16.5q-43 0 -84 -23l-12 6v174q71 45 193 45q89 0 133.5 -48t44.5 -136v-80q0 -27 16 -41t37 -14q25 0 40 16.5t15 40.5z" />
<glyph unicode="&#xf71a;" d="M-115 -555q0 -60 -41.5 -102.5t-105.5 -42.5q-68 0 -108 42t-40 103q0 62 40 103.5t108 41.5q65 0 106 -42t41 -103z" />
<glyph unicode="&#xf71b;" horiz-adv-x="1357" d="M1229 -328h-246q-46 47 -125 76t-172 29q-92 0 -188.5 -31t-167.5 -82l-13 4l15 203q81 64 166.5 92.5t203.5 28.5q51 0 116.5 -12t103.5 -31v727q0 125 -52.5 184.5t-171.5 59.5q-68 0 -144.5 -23.5t-115.5 -56.5l174 -129v-31q-32 -57 -40.5 -99.5t-8.5 -119.5v-180 q0 -139 -83 -220t-220 -81q-130 0 -203 47v200l13 6q41 -24 104 -24q82 0 82 80v143q0 97 13.5 146t54.5 106l-213 160v30q101 134 262 203.5t334 69.5q242 0 382 -119.5t140 -349.5v-1006z" />
<glyph unicode="&#xf71c;" horiz-adv-x="1357" d="M922 -78v754q0 125 -52.5 184.5t-171.5 59.5q-68 0 -144.5 -23.5t-115.5 -56.5l174 -129v-31q-32 -57 -40.5 -99.5t-8.5 -119.5v-180q0 -139 -83 -220t-220 -81q-130 0 -203 47v200l13 6q41 -24 104 -24q82 0 82 80v143q0 97 13.5 146t54.5 106l-213 160v30 q101 134 262 203.5t334 69.5q242 0 382 -119.5t140 -349.5v-676q0 -163 -84 -251.5t-232 -88.5q-66 0 -133.5 27.5t-99.5 68.5q-28 -44 -82.5 -70t-120.5 -26q-131 0 -231 64l-19 186l19 2q109 -78 198 -78q51 0 87 25.5t40 81.5h199q11 -107 84 -107q68 0 68 86z" />
<glyph unicode="&#xf71d;" horiz-adv-x="1429" d="M1212 0h-241l-238 479l-237 -479h-209l-230 1126h291l109 -774l186 381h180l193 -381l61 393q2 12 2 33q0 42 -19.5 61t-68.5 19h-71l26 176h139q80 72 86 221h265q-12 -243 -170 -337q86 -55 86 -173q0 -31 -6 -69z" />
<glyph unicode="&#xf8ff;" horiz-adv-x="1568" d="M1251 37q-149 -55 -467 -55t-467 55q-148 55 -204 205q-56 151 -56 467t56 467q55 149 204 204q151 56 467 56t467 -56q150 -56 205 -204q55 -149 55 -467t-55 -467q-55 -150 -205 -205zM1221 293v457q0 173 -125.5 287t-311.5 114t-311 -113.5t-125 -287.5v-457h174 l195 209q33 -13 67 -13q78 0 131.5 53t53.5 132t-53.5 131.5t-131.5 52.5q-79 0 -132.5 -52.5t-53.5 -131.5q0 -52 27 -99l-133 -145v320q0 121 83.5 196.5t208.5 75.5t209 -75.5t84 -196.5v-457h144zM784 596q-31 0 -54 23t-23 55q0 31 23 53.5t54 22.5t53.5 -22t22.5 -54 t-22.5 -55t-53.5 -23z" />
<glyph horiz-adv-x="989" d="M860 0h-301v721q0 111 -40 156t-128 45q-140 0 -248 -82h-20l-92 196q64 49 162.5 80t207.5 31q248 0 353.5 -101t105.5 -317v-729zM-684 1477q0 46 -26.5 68t-63.5 22t-63.5 -22t-26.5 -68t26.5 -68.5t63.5 -22.5t63.5 22.5t26.5 68.5zM-518 1477q0 -114 -71.5 -179 t-184.5 -65t-184.5 65t-71.5 179t71.5 178.5t184.5 64.5t184.5 -64.5t71.5 -178.5z" />
<glyph d="M-612 1462l24 -116q-24 -22 -67 -35t-88 -13q-125 0 -185.5 40.5t-60.5 113.5q0 71 49 117t145 59q-75 37 -75 107q0 52 55.5 87.5t152.5 35.5q84 0 152 -39l12 -117l-12 -2q-39 20 -72 20q-49 0 -49 -34q0 -16 19.5 -30.5t56.5 -23.5v-104q-79 22 -141 22q-28 0 -44 -14 t-16 -39q0 -19 18 -35t42 -16q41 0 71 18z" />
<glyph horiz-adv-x="1288" d="M854 72v37q-101 -113 -299 -113q-221 0 -359.5 142.5t-138.5 377.5q0 236 138 382t354 146q209 0 313 -133v113h297v-936q0 -249 -151 -383.5t-426 -134.5q-255 0 -396 102l-18 258l22 9q52 -52 148 -86.5t211 -34.5q305 0 305 254zM612 240q112 0 177 78.5t65 201.5 q0 125 -65.5 205t-176.5 80q-112 0 -177.5 -80.5t-65.5 -204.5t65.5 -202t177.5 -78z" />
</font>
</defs>
</svg>
