<?xml version="1.0" encoding="UTF-8" standalone="no"?>
<!DOCTYPE svg  PUBLIC '-//W3C//DTD SVG 1.1//EN'  'http://www.w3.org/Graphics/SVG/1.1/DTD/svg11.dtd'>
<svg xmlns="http://www.w3.org/2000/svg">
<defs>
<font id="DBThaiTextX-Regular" horiz-adv-x="0">
<font-face underline-position="-390" font-weight="400" descent="-820" panose-1="2 0 5 6 6 0 0 2 0 4" units-per-em="4096" unicode-range="U+0020-2265" bbox="-1315 -1032 4030 3031" x-height="1253" underline-thickness="143" font-family="DBThaiTextX" ascent="3276" cap-height="1741"/>
<missing-glyph horiz-adv-x="4096"/>
<glyph glyph-name="plusminus" horiz-adv-x="1397" unicode="+-" d="M127 0v147h1147v-147h-1147zM782 844v-488h-168v488h-487v168h487v487h168v-487h488v-168h-488z"/>
<glyph glyph-name="ellipsis" horiz-adv-x="2388" unicode="..." d="M274 0v250h250v-250h-250zM1069 0v250h250v-250h-250zM1868 0v250h246v-250h-246z"/>
<glyph glyph-name="lessequal" horiz-adv-x="1397" unicode="&lt;=" d="M106 307v193l1172 -496v-192zM106 635v168l1172 495v-192l-946 -385l946 -389v-193z"/>
<glyph glyph-name="greaterequal" horiz-adv-x="1397" unicode="&gt;=" d="M119 -188v192l1167 496v-193zM119 139v193l934 389l-934 385v192l1167 -495v-168z"/>
<glyph glyph-name=".notdef" horiz-adv-x="4096"/>
<glyph glyph-name=".null"/>
<glyph glyph-name="nonmarkingreturn" horiz-adv-x="4096"/>
<glyph glyph-name="space" horiz-adv-x="1024" unicode=" "/>
<glyph glyph-name="exclam" horiz-adv-x="664" unicode="!" d="M299 0v250h201v-250h-201zM446 401h-98l-49 484v856h201v-856z"/>
<glyph glyph-name="quotedbl" horiz-adv-x="848" unicode='&quot;' d="M287 1106h-99l-61 324v270h221v-270zM664 1106h-95l-65 324v270h225v-270z"/>
<glyph glyph-name="numbersign" horiz-adv-x="1327" unicode="#" d="M557 1062l-65 -365h303l61 365h-299zM1044 1062l-65 -365h242v-192h-279l-90 -504h-184l90 504h-303l-95 -504h-180l90 504h-241v192h274l66 365h-250v192h282l86 463h185l-86 -463l307 -4l82 467h188l-82 -463h217v-192h-254z"/>
<glyph glyph-name="dollar" horiz-adv-x="1327" unicode="$" d="M1036 446q0 73 -30 122t-76 82t-101 52.5t-104 34.5v-622q72 15 130 41t98 66t61.5 95t21.5 129zM582 1547q-53 1 -102.5 -19t-88.5 -56t-63.5 -84t-25.5 -102q-2 -68 20.5 -121.5t61 -92.5t90 -63.5t108.5 -33.5v572zM1237 451q0 -99 -37 -183.5t-104.5 -149.5 t-161.5 -108t-209 -59v-250h-143v242q-119 11 -214.5 52.5t-161.5 112t-97.5 162.5t-31.5 198q0 16 1 32h184q3 -73 17 -136t49 -112.5t96 -84t158 -52.5v647q-101 13 -187.5 54.5t-149 108.5t-94.5 152.5t-32 182.5v23q3 98 40 176.5t98.5 134t145 87t179.5 35.5v123h143 v-120q95 -1 182 -41t152 -106t97.5 -145t32.5 -156q0 -15 -1 -30h-193q3 61 -18 115.5t-58 96t-87.5 66.5t-106.5 28v-593q104 -25 197 -64t163 -99t111 -143.5t41 -196.5z"/>
<glyph glyph-name="percent" horiz-adv-x="2126" unicode="%" d="M721 1279q0 51 -20 95t-53 76.5t-77 51t-92 18.5q-51 0 -95.5 -19.5t-76.5 -52.5t-50.5 -76.5t-18.5 -92.5q0 -52 19 -96t52 -76.5t77 -51t93 -18.5q51 0 95 19.5t77 53t51.5 77.5t18.5 92zM1884 410q0 52 -19.5 96t-52.5 76.5t-77 51t-93 18.5q-51 0 -95 -20t-76.5 -53 t-51 -77t-18.5 -92q0 -50 20 -94t53 -76.5t76.5 -51.5t91.5 -19q51 0 95 19.5t76.5 52.5t51.5 77t19 92zM889 1279q0 -87 -33 -162t-89.5 -130t-131 -86.5t-156.5 -31.5q-88 0 -163 33t-129.5 89t-85.5 130.5t-31 157.5q0 87 33 162t89 129.5t130 86t157 31.5 q87 0 161.5 -33t130 -89.5t87 -130.5t31.5 -156zM680 1h-176l942 1741h176zM2052 410q0 -88 -33 -163t-89 -129.5t-130.5 -85.5t-157.5 -31q-81 0 -154.5 32.5t-129 88t-88.5 130t-33 158.5q0 85 33 159.5t88.5 130t129 88t154.5 32.5q87 0 162 -33t130 -89.5t86.5 -131 t31.5 -156.5z"/>
<glyph glyph-name="ampersand" horiz-adv-x="1593" unicode="&amp;" d="M618 803q-21 -14 -51.5 -33.5t-64.5 -45.5t-67 -59t-58.5 -73.5t-39.5 -90t-9 -108.5q4 -51 31 -98t69 -82.5t96.5 -56.5t114.5 -21q58 0 107 15t92.5 41t84 60.5t81.5 72.5zM700 1528q-30 -2 -60.5 -12.5t-55 -30t-41 -48t-19.5 -65.5q-4 -47 7 -89.5t33 -82t52 -77 t64 -74.5q39 17 76 38t68.5 48.5t55 61.5t35.5 76q15 50 3.5 97.5t-42.5 83.5t-76.5 56.5t-99.5 17.5zM1257 0l-147 176q-51 -49 -97.5 -88.5t-96.5 -68.5t-107.5 -47.5t-130.5 -24.5q-32 -3 -63 -3q-78 0 -162.5 22t-158 79t-118 144t-49.5 200q-1 18 -1 36q0 63 13 123.5 t44.5 116.5t80 102.5t113.5 88.5l127 82q-60 85 -98 149.5t-57.5 116t-24.5 92.5t1 80q11 75 46 134t87.5 100.5t119 63t140.5 21.5q82 0 157 -32t131.5 -87t86 -123t29.5 -137v-18q-2 -50 -19.5 -96t-45.5 -86t-64 -74t-75 -59l-127 -82l332 -412q14 28 28 61t25 68t18 73 t7 77h188q4 -49 -6 -105.5t-29 -113.5t-46 -111.5t-58 -99.5l274 -338h-267z"/>
<glyph glyph-name="quotesingle" horiz-adv-x="459" unicode="&apos;" d="M274 1106h-94l-65 324v266h225v-266z"/>
<glyph glyph-name="parenleft" horiz-adv-x="795" unicode="(" d="M557 -508q-81 106 -151 239.5t-122 281.5t-82 302.5t-30 302.5t29.5 302t81 301t122 280t152.5 240h143q-93 -155 -155 -310.5t-99.5 -302t-53 -277t-15.5 -233.5q0 -137 20.5 -281.5t61 -289.5t101 -285.5t140.5 -269.5h-143z"/>
<glyph glyph-name="parenright" horiz-adv-x="795" unicode=")" d="M614 618q0 -148 -29.5 -302.5t-81.5 -302.5t-122.5 -281.5t-151.5 -239.5h-143q94 157 156.5 312.5t100 300.5t52.5 275.5t15 237.5q0 104 -15 234t-52 276t-99.5 302t-157.5 311h143q82 -107 152.5 -240.5t122 -280.5t81 -300.5t29.5 -301.5z"/>
<glyph glyph-name="asterisk" horiz-adv-x="930" unicode="*" d="M561 1380l160 -213l-115 -86l-147 226l-156 -222l-115 86l164 209l-254 74l45 143l250 -94l-8 275h147l-12 -275l250 90l49 -151z"/>
<glyph glyph-name="plus" horiz-adv-x="1397" unicode="+" d="M782 487v-487h-168v487h-487v168h487v488h168v-488h488v-168h-488z"/>
<glyph glyph-name="comma" horiz-adv-x="664" unicode="," d="M459 0q0 -81 -26 -145.5t-64 -111t-81.5 -73t-78.5 -30.5v110q37 17 64.5 43.5t46 59t27.5 70.5t9 77h-143v250h246v-250z"/>
<glyph glyph-name="hyphen" horiz-adv-x="999" unicode="-" d="M106 483v176h783v-176h-783z"/>
<glyph glyph-name="period" horiz-adv-x="664" unicode="." d="M209 0v250h250v-250h-250z"/>
<glyph glyph-name="slash" horiz-adv-x="664" unicode="/" d="M119 -49h-139l569 1745h135z"/>
<glyph glyph-name="zero" horiz-adv-x="1327" unicode="0" d="M1008 819q0 62 -4 136t-17 149t-37 145.5t-63.5 125t-97.5 87.5t-138 33q-78 0 -133.5 -33.5t-94 -88t-61.5 -125.5t-35 -146t-16 -148.5t-4 -134.5q0 -80 6 -161t21 -156t40.5 -139.5t64 -112.5t91.5 -75.5t124 -27.5q77 0 133 27.5t95.5 75t64 112.5t38 139.5 t18.5 155.5t5 162zM1212 819q0 -69 -5 -143.5t-17 -149.5t-32 -148t-50.5 -138.5t-72 -120.5t-97 -95t-123.5 -61.5t-150 -21.5h-8q-114 1 -199 41t-146.5 106.5t-102 154.5t-64.5 185t-33.5 198t-9.5 193q0 93 9.5 193.5t33.5 198t64 185.5t102 154.5t147 106.5t199 41h6 q113 0 199 -38.5t147.5 -105.5t101 -155.5t62 -187t31 -199.5t8.5 -193z"/>
<glyph glyph-name="one" horiz-adv-x="1327" unicode="1" d="M651 0v1196h-385v160q43 6 87.5 12t87.5 16.5t82 28t71 45.5q26 23 44 52t31 60.5t22 64t18 61.5h143v-1696h-201z"/>
<glyph glyph-name="two" horiz-adv-x="1327" unicode="2" d="M1221 1192q0 -78 -21 -143t-58 -120t-86.5 -100.5t-106.5 -84.5t-119 -73.5t-122 -66.5t-125.5 -70.5t-123 -87t-99.5 -109t-53 -136.5h901v-201h-1126q-1 26 -1 51q0 112 32.5 218t108 203t189.5 176.5t263 148.5q63 29 123 67.5t107 87.5t75.5 108.5t28.5 131.5 q0 69 -25 126t-69 98.5t-103.5 64t-129.5 22.5q-99 0 -168.5 -30.5t-112.5 -84t-59.5 -121t-16.5 -137.5v-24h-205q-2 25 -2 48q0 113 39.5 213.5t120 175.5t191.5 114t239 39q107 0 201 -40.5t163.5 -109.5t109.5 -160.5t40 -193.5z"/>
<glyph glyph-name="three" horiz-adv-x="1327" unicode="3" d="M1208 459q0 -117 -46 -212.5t-125.5 -163t-185 -104t-224.5 -36.5q-123 0 -225.5 39.5t-175.5 112t-110.5 170t-37.5 210.5v17h201v-7q0 -73 21 -136.5t64.5 -111.5t108 -75t150.5 -27q74 0 141.5 20.5t118.5 60t81.5 98.5t30.5 137q0 106 -26 170t-82.5 98t-141.5 44.5 t-196 10.5h-21v180q98 0 174.5 8t129 37t79.5 86.5t27 155.5q0 66 -23.5 115.5t-63.5 82t-93 48.5t-111 16q-172 0 -252 -88t-80 -268h-200q2 126 34 227.5t95.5 173.5t158.5 110t221 38h7q107 -2 202.5 -29.5t168 -86t115 -149.5t42.5 -219q0 -59 -14.5 -107.5t-41.5 -89 t-65 -74.5t-84 -64q72 -34 120.5 -77.5t78 -96t42.5 -114t13 -130.5z"/>
<glyph glyph-name="four" horiz-adv-x="1327" unicode="4" d="M795 1356h-4l-533 -758h537v758zM995 397v-397h-200v397h-725v226l770 1073h155v-1098h254v-201h-254z"/>
<glyph glyph-name="five" horiz-adv-x="1327" unicode="5" d="M1225 532q0 -118 -42.5 -225t-118.5 -188t-180.5 -128.5t-228.5 -47.5q-108 0 -206.5 29.5t-176 88.5t-127.5 148t-59 209h213q22 -127 106.5 -199t233.5 -72q84 0 150 24t111.5 73t70 122t24.5 171q0 76 -22 145t-64 121.5t-103 84t-138 34.5q-53 2 -100 -8t-89 -30 t-79.5 -49t-71.5 -65h-193l135 926h873v-201h-709l-65 -475l4 -4q67 59 140.5 80.5t154.5 21.5q131 0 234.5 -44t175 -122t109.5 -185.5t38 -234.5z"/>
<glyph glyph-name="six" horiz-adv-x="1327" unicode="6" d="M1016 516q0 82 -25 147t-69 109.5t-104 68t-130 23.5q-38 0 -79.5 -7t-81.5 -23.5t-76 -43.5t-63.5 -66.5t-43.5 -92.5t-16 -123q0 -95 30.5 -165.5t79.5 -117t110.5 -70t123.5 -23.5q88 0 152.5 29t107 80.5t63.5 121.5t21 153zM1225 516q0 -123 -42 -228t-116.5 -181.5 t-176.5 -120t-222 -43.5q-126 0 -221.5 43.5t-163 118.5t-108 175.5t-55.5 214.5q-18 132 -18 256q0 15 1.5 92t16.5 216q15 128 57.5 244t114 204t173 138.5t235.5 50.5h5q106 -1 190 -33.5t145 -91t99 -139.5t53 -179h-209q-3 60 -28 106.5t-63.5 78.5t-87 48.5 t-99.5 16.5q-94 0 -162 -42.5t-115 -109t-74 -148t-39 -159.5q-8 -55 -12 -102t-4 -86q76 110 175 155.5t231 45.5q102 0 196 -37t166 -106.5t115 -170t43 -227.5z"/>
<glyph glyph-name="seven" horiz-adv-x="1327" unicode="7" d="M1241 1516q-61 -79 -119.5 -165.5t-112 -174.5t-101.5 -174.5t-89 -165.5q-50 -95 -91 -197.5t-74 -209t-58.5 -215t-42.5 -214.5h-225q51 240 131.5 459.5t195.5 425.5q87 156 179 313t186 297h-905v201h1126v-180z"/>
<glyph glyph-name="eight" horiz-adv-x="1327" unicode="8" d="M1008 459q0 79 -28 141.5t-75.5 105.5t-111 66t-134.5 23q-81 0 -147.5 -23.5t-113 -67.5t-69 -104.5t-22.5 -130.5v-18q3 -80 31.5 -139.5t76 -98.5t110 -58.5t134.5 -19.5q69 0 132 25.5t111 69t77 102.5t29 127zM954 1239q-1 66 -24 115.5t-63 82.5t-95 49.5 t-119 16.5q-63 0 -116.5 -16.5t-92 -48.5t-60.5 -80.5t-22 -111.5t19.5 -112t55 -83t85.5 -53.5t111 -22.5q62 -3 120 14t103 51.5t72 85t26 113.5zM658 -57h-12q-108 0 -208 36.5t-178.5 105t-124.5 163.5t-46 208q0 80 19.5 144.5t55.5 117t87 94.5t114 77 q-99 60 -155.5 144t-58.5 201q-1 60 16 117.5t49.5 108.5t78.5 94t102 73.5t121.5 48t136.5 17.5q87 0 175.5 -25.5t161.5 -76t120.5 -126.5t53.5 -176q1 -19 1 -36q0 -50 -10 -99.5t-36.5 -96t-68 -86.5t-98.5 -78q59 -31 109 -72.5t87 -93t57.5 -113.5t20.5 -134 q0 -125 -47 -224t-126 -168t-182 -106t-215 -39z"/>
<glyph glyph-name="nine" horiz-adv-x="1327" unicode="9" d="M303 1126q0 -83 25 -147.5t69 -109t104 -68t130 -23.5q38 0 79.5 7t81.5 23.5t76 43.5t63.5 66.5t43.5 92.5t16 123q0 94 -30.5 165t-79.5 117.5t-110.5 70t-123.5 23.5q-88 0 -152.5 -29t-107 -80.5t-63.5 -122t-21 -152.5zM94 1126q0 123 42 228t116.5 181.5t176.5 120 t222 43.5q126 0 221.5 -43.5t163 -118.5t108 -175.5t55.5 -214.5q18 -135 18 -262q0 -13 -1 -88t-17 -214q-15 -128 -57 -244t-114 -204t-174 -138.5t-235 -50.5h-5q-106 1 -190 33.5t-145 91t-99 139.5t-53 179h209q3 -60 28 -106.5t63.5 -78.5t87 -48.5t99.5 -16.5 q94 0 162 42.5t115 109t74 148t39 159.5q8 55 12 102t4 86q-76 -110 -175 -155.5t-231 -45.5q-102 0 -196 37t-166 106.5t-115 170t-43 227.5z"/>
<glyph glyph-name="colon" horiz-adv-x="664" unicode=":" d="M262 0v250h250v-250h-250zM262 1008v245h250v-245h-250z"/>
<glyph glyph-name="semicolon" horiz-adv-x="664" unicode=";" d="M512 0q0 -54 -18.5 -113t-52 -110t-80 -88.5t-103.5 -48.5v110q37 18 63.5 45.5t44.5 61t28 70.5t12 73h-144v250h250v-250zM262 1008v245h250v-245h-250z"/>
<glyph glyph-name="less" horiz-adv-x="1397" unicode="&lt;" d="M106 471v168l1172 496v-193l-946 -385l946 -389v-193z"/>
<glyph glyph-name="equal" horiz-adv-x="1397" unicode="=" d="M123 270v164h1151v-164h-1151zM123 676v164h1151v-164h-1151z"/>
<glyph glyph-name="greater" horiz-adv-x="1397" unicode="&gt;" d="M119 -25v193l934 389l-934 385v193l1167 -496v-168z"/>
<glyph glyph-name="question" horiz-adv-x="1327" unicode="?" d="M573 0v250h222v-250h-222zM1093 993q-45 -51 -97 -95.5t-96.5 -91.5t-74.5 -101.5t-30 -126.5v-111h-222v143q0 72 31 134t77 116.5t100 102t99 90.5q29 27 51 59t36.5 67.5t21.5 73t6 73.5q-1 56 -21.5 102.5t-58 80.5t-90 52.5t-116.5 19.5h-6q-79 0 -141.5 -26.5 t-103.5 -76t-56 -108.5t-15 -115q0 -25 2 -51h-205q-1 17 -1 34q0 52 8 112t32 122.5t63.5 116t98 93t135.5 61t173 21.5h9q103 0 194.5 -27.5t160.5 -82t111 -136.5t46 -191q0 -54 -6 -98t-20 -83.5t-37.5 -76.5t-57.5 -76z"/>
<glyph glyph-name="at" horiz-adv-x="2425" unicode="@" d="M1450 901q-3 36 -20.5 68.5t-46.5 57t-67 39t-81 14.5q-65 0 -117.5 -23t-93.5 -61.5t-72 -89t-52.5 -106t-34.5 -112t-19 -107.5q-2 -19 -2 -36q0 -51 20.5 -100t63.5 -84.5t98.5 -49.5t111.5 -4t105.5 45.5t79.5 98.5q21 43 45 100.5t43.5 118.5t31 121t7.5 110z M1802 156q-34 -11 -72 -18t-76.5 -9.5t-76 0.5t-70.5 14q-60 20 -99.5 62t-51.5 102q-17 -22 -44.5 -47.5t-64 -48.5t-80 -41.5t-91 -27t-98 -4.5t-101.5 26q-71 31 -120 78.5t-79 106t-41.5 118.5t-11.5 115q0 13 1 27q4 87 29 168.5t67 152.5t98.5 129.5t123.5 100 t141.5 64t153.5 22.5q50 0 97.5 -16t87 -44.5t68.5 -68t44 -85.5l53 160h197l-230 -717q-12 -39 -9.5 -75t19 -61.5t47.5 -37.5t75 -2q93 19 166.5 76.5t125 136t79 171t27.5 182.5q0 107 -35 202t-96 174t-143.5 142t-176.5 107t-196 67t-201 23h-7q-123 0 -242 -35.5 t-225 -100.5t-194.5 -155t-152 -196t-99 -223.5t-35.5 -238.5q0 -115 35 -219t96.5 -193t144 -161.5t178 -124.5t199 -81t205.5 -31h27q57 0 118.5 7.5t124.5 21t120 31t107 33.5l70 -160q-216 -82 -453 -100q-43 -3 -86 -3q-94 0 -212.5 20t-250 75.5t-247 139.5 t-201.5 192.5t-135.5 239.5t-49.5 279q0 164 47.5 317t132 285.5t201.5 240t255 182t274 106.5t257 32q37 0 75 -3q109 -5 222.5 -36t220 -85.5t200 -129.5t163 -166.5t110 -198t40.5 -223.5q0 -125 -30.5 -246.5t-89.5 -224.5t-146.5 -179.5t-202.5 -111.5z"/>
<glyph glyph-name="A" horiz-adv-x="1585" unicode="A" d="M811 1532l-299 -823h553zM1319 0l-184 537h-684l-197 -537h-221l631 1741h282l606 -1741h-233z"/>
<glyph glyph-name="B" horiz-adv-x="1577" unicode="B" d="M1270 512q0 89 -32.5 147t-86.5 91.5t-123.5 47t-142.5 13.5h-504v-627h594q81 0 137 32t91.5 80.5t51 106t15.5 109.5zM1188 1253q0 25 -5 57.5t-19 67t-39.5 67t-67 58.5t-101 42t-141.5 16h-434v-582h500q94 0 153.5 26t93.5 66t47 88.5t13 93.5zM1470 500 q0 -90 -31 -179.5t-91 -160.5t-148 -115.5t-202 -44.5h-826v1741h762q94 0 178.5 -34.5t147.5 -95t100 -142t37 -175.5q0 -60 -15 -116t-43 -105t-69.5 -87.5t-93.5 -63.5q142 -59 218 -160.5t76 -261.5z"/>
<glyph glyph-name="C" horiz-adv-x="1712" unicode="C" d="M1606 639q-28 -148 -92.5 -276.5t-160 -223t-214.5 -145.5t-254 -51h-21q-127 3 -232.5 39.5t-190.5 100t-148.5 149.5t-106 186.5t-63.5 213t-21 228.5q0 115 22 227t65 213t107 187t148.5 148.5t189.5 98t230 35.5q142 0 256 -41t202 -115.5t150.5 -178.5t100.5 -230 h-217q-30 85 -74.5 155t-104.5 120.5t-135 78t-165 27.5q-131 0 -235.5 -55t-177 -151.5t-111 -229.5t-38.5 -289q0 -91 14.5 -180t44 -170t75.5 -150.5t108.5 -120t142 -79.5t177.5 -29q91 0 172.5 32t148 95.5t116.5 159t79 221.5h213z"/>
<glyph glyph-name="D" horiz-adv-x="1708" unicode="D" d="M1368 864v28q0 74 -9.5 154t-34.5 157.5t-66 143t-99.5 113t-135.5 74.5t-175 27h-442v-1377h503q88 0 156 30.5t118.5 82t85 119.5t56 143.5t31.5 154t12 150.5zM1575 871q0 -77 -15 -171t-46.5 -191t-79 -188.5t-112 -163t-147.5 -114.5t-184 -43h-794v1741h671 q122 0 222 -32.5t178.5 -91t136 -139t95.5 -177.5t56.5 -206t18.5 -224z"/>
<glyph glyph-name="E" horiz-adv-x="1577" unicode="E" d="M201 0v1741h1208v-180h-1003v-574h954v-184h-954v-619h1044v-184h-1249z"/>
<glyph glyph-name="F" horiz-adv-x="1442" unicode="F" d="M406 1561v-574h835v-184h-835v-803h-205v1741h1167v-180h-962z"/>
<glyph glyph-name="G" horiz-adv-x="1843" unicode="G" d="M1536 -12l-53 217q-49 -49 -104 -96t-126.5 -84t-165 -59.5t-219.5 -22.5q-125 0 -231 37t-192.5 101.5t-152.5 152t-111 188.5t-68 211t-23 219q0 122 26.5 237t76.5 217t123 187.5t166 146.5t206 95t242 34q86 0 170 -16.5t161 -48.5t144.5 -79t119.5 -108.5t86 -136.5 t44 -163h-201q-9 60 -45.5 125t-102 119t-159.5 89t-217 35q-143 0 -260.5 -54.5t-201 -152t-126.5 -228t-43 -278.5v-20q3 -149 45 -281.5t121.5 -232t196 -157.5t268.5 -58q86 0 163 22.5t141.5 62.5t115.5 96.5t84.5 125t45 131t11.5 112.5q0 32 -4 64h-541v189h733v-938 h-143z"/>
<glyph glyph-name="H" horiz-adv-x="1708" unicode="H" d="M1315 0v803h-926v-803h-205v1741h205v-754h926v754h209v-1741h-209z"/>
<glyph glyph-name="I" horiz-adv-x="647" unicode="I" d="M233 0v1741h209v-1741h-209z"/>
<glyph glyph-name="J" horiz-adv-x="1196" unicode="J" d="M1012 462q0 -128 -42.5 -226.5t-112 -165t-156 -99t-173.5 -32.5h-16q-13 -1 -26 -1q-83 0 -164 30.5t-146.5 90t-104 140.5t-38.5 174v184h209v-180q0 -56 21.5 -102.5t57.5 -80t83.5 -52.5t99.5 -19q88 0 145.5 34t91.5 89t48 125t14 141v1229h209v-1279z"/>
<glyph glyph-name="K" horiz-adv-x="1577" unicode="K" d="M1307 0l-623 897l-303 -299v-598h-209v1741h209v-889l893 889h270l-708 -709l712 -1032h-241z"/>
<glyph glyph-name="L" horiz-adv-x="1311" unicode="L" d="M176 0v1741h209v-1553h868v-188h-1077z"/>
<glyph glyph-name="M" horiz-adv-x="1974" unicode="M" d="M1593 0v1462l-503 -1462h-213l-504 1462v-1462h-209v1741h303l516 -1499l516 1499h303v-1741h-209z"/>
<glyph glyph-name="N" horiz-adv-x="1708" unicode="N" d="M1286 0l-917 1446v-1446h-201v1741h246l909 -1458v1458h205v-1741h-242z"/>
<glyph glyph-name="O" horiz-adv-x="1843" unicode="O" d="M1548 860q0 152 -41 285t-121 231.5t-197.5 155.5t-270.5 57q-147 0 -264.5 -53.5t-200 -150t-126.5 -230.5t-44 -295q0 -160 43.5 -295t125 -232.5t199.5 -151.5t267 -54q104 0 191.5 27t157.5 75t122.5 115t88 148.5t53 174.5t17.5 193zM1757 860q0 -125 -27.5 -241.5 t-78.5 -218.5t-125 -186.5t-167.5 -145t-203 -93t-230.5 -32.5h-7q-133 1 -247.5 36t-208 97.5t-166 148.5t-122 187.5t-75 215.5t-25.5 232q0 126 27 242.5t78.5 217.5t125.5 183.5t167.5 141.5t206 91.5t239.5 32.5q132 0 245.5 -34t206.5 -94.5t165 -145t121.5 -185.5 t75 -215t25.5 -235z"/>
<glyph glyph-name="P" horiz-adv-x="1577" unicode="P" d="M1249 1257q-6 69 -31.5 125t-67.5 96t-98 61.5t-122 21.5h-516v-639h575q70 0 121.5 33t83.5 82.5t45.5 108.5t9.5 111zM1458 1257q1 -17 1 -34q0 -75 -16.5 -143t-50 -126t-80 -99t-98 -67.5t-106 -38.5t-104.5 -12h-590v-737h-213v1741h729q123 0 218.5 -33.5 t162.5 -96t104.5 -152t42.5 -202.5z"/>
<glyph glyph-name="Q" horiz-adv-x="1843" unicode="Q" d="M1544 860q0 146 -40.5 277.5t-119.5 231t-195 158t-267 58.5q-147 0 -264 -53.5t-198.5 -149.5t-125 -229t-43.5 -293q0 -159 43.5 -293t124.5 -231t197 -151t262 -54q33 0 67.5 2t71 9.5t74.5 21t77 37.5l-188 155l110 136l222 -181q51 55 87 121t59.5 137.5t34.5 145 t11 145.5zM1757 860q0 -94 -15 -186.5t-45 -179t-76.5 -165t-109.5 -145.5l226 -184l-115 -143l-250 209q-110 -66 -217 -94.5t-210 -28.5h-27q-201 6 -358 79t-265 196.5t-164.5 288.5t-56.5 353q0 127 26.5 243.5t77 217.5t124 184t167 141.5t206.5 90.5t243 32 q132 0 246 -33.5t207 -94t165 -145t121 -185.5t74.5 -215.5t25.5 -235.5z"/>
<glyph glyph-name="R" horiz-adv-x="1708" unicode="R" d="M1331 1245v18q0 73 -23 130.5t-68.5 95t-109.5 55t-139 17.5h-577v-631h577q61 -1 120.5 10t107 45t78 96.5t34.5 163.5zM1368 0q-29 70 -43.5 145.5t-14.5 145.5q0 60 -2 119t-11 111.5t-28 97.5t-53 77.5t-86 51t-126 18.5h-590v-766h-209v1741h782q126 0 228.5 -26.5 t174.5 -85t111 -152t39 -228.5q0 -67 -17 -125.5t-47.5 -107.5t-72.5 -88.5t-92 -67.5q65 -41 103.5 -78.5t59.5 -84t28 -108t9 -151.5q1 -68 3.5 -126t10.5 -110.5t26 -102t51 -99.5h-234z"/>
<glyph glyph-name="S" horiz-adv-x="1577" unicode="S" d="M1450 508v-14q0 -120 -51.5 -220.5t-143.5 -172.5t-208.5 -107t-238.5 -35h-26q-129 3 -248 36.5t-211.5 104t-148.5 182t-59 271.5h192q3 -109 41 -186.5t101 -127t147 -73t180 -23.5q52 0 106 8t105 24.5t97 41.5t80.5 60.5t55 80.5t22.5 101q1 33 -7.5 65t-25.5 59.5 t-42 49t-57 35.5q-84 35 -170 62.5t-172 51t-170.5 45.5t-165.5 47q-70 22 -122 65t-86 98.5t-51 117.5t-17 122q3 121 54.5 213t134 154t187.5 93.5t213 31.5q148 0 269.5 -30.5t208 -95.5t135 -166.5t51.5 -243.5h-201v15q0 93 -37.5 160t-102.5 109.5t-148.5 61 t-169.5 18.5q-70 0 -141 -18.5t-128.5 -56.5t-93.5 -95t-36 -135q0 -66 31 -120.5t85 -86.5t133 -54.5t172 -47.5t192.5 -49.5t198.5 -56.5q59 -20 110.5 -56.5t90.5 -85t61.5 -106.5t24.5 -121z"/>
<glyph glyph-name="T" horiz-adv-x="1446" unicode="T" d="M827 1561v-1561h-209v1561h-577v180h1360v-180h-574z"/>
<glyph glyph-name="U" horiz-adv-x="1708" unicode="U" d="M1524 504q0 -94 -26 -171.5t-72.5 -140t-110 -109t-137.5 -78t-156 -47t-166 -15.5q-85 0 -167.5 16.5t-156.5 48.5t-137 79.5t-109 109t-72 138t-26 165.5v1241h209v-1241q0 -89 33.5 -159.5t94.5 -119.5t145.5 -75.5t185.5 -26.5q90 0 172.5 25t146.5 73.5t102 119.5 t38 163v1241h209v-1237z"/>
<glyph glyph-name="V" horiz-adv-x="1577" unicode="V" d="M913 0h-241l-615 1741h226l520 -1520l495 1520h226z"/>
<glyph glyph-name="W" horiz-adv-x="2249" unicode="W" d="M1765 0h-245l-398 1424l-393 -1424h-246l-438 1741h234l333 -1449l408 1448h209l404 -1444l345 1445h234z"/>
<glyph glyph-name="X" horiz-adv-x="1577" unicode="X" d="M1266 0l-471 725l-492 -725h-258l610 893l-565 848h254l455 -680l450 680h254l-581 -848l606 -893h-262z"/>
<glyph glyph-name="Y" horiz-adv-x="1585" unicode="Y" d="M901 688v-688h-201v688l-655 1053h254l504 -844l495 844h254z"/>
<glyph glyph-name="Z" horiz-adv-x="1446" unicode="Z" d="M57 0v180l1057 1376h-991v185h1257v-189l-1061 -1364h1061v-188h-1323z"/>
<glyph glyph-name="bracketleft" horiz-adv-x="664" unicode="[" d="M156 -508v2245h442v-176h-242v-1889h242v-180h-442z"/>
<glyph glyph-name="backslash" horiz-adv-x="664" unicode="\" d="M545 -49l-570 1790h144l565 -1790h-139z"/>
<glyph glyph-name="bracketright" horiz-adv-x="664" unicode="]" d="M57 -512v180h242v1893h-242v176h443v-2249h-443z"/>
<glyph glyph-name="asciicircum" horiz-adv-x="1122" unicode="^" d="M848 795l-287 708l-291 -708h-164l369 909h172l369 -909h-168z"/>
<glyph glyph-name="underscore" horiz-adv-x="1327" unicode="_" d="M0 -451v148h1327v-148h-1327z"/>
<glyph glyph-name="grave" horiz-adv-x="795" unicode="`" d="M406 1417l-353 352h275l229 -352h-151z"/>
<glyph glyph-name="a" horiz-adv-x="1311" unicode="a" d="M942 623q-87 -25 -170 -35.5t-174 -18.5q-57 -5 -113 -19t-101 -41t-73 -70t-28 -107q0 -50 20.5 -87t54 -61.5t76 -36.5t86.5 -12q78 0 153.5 19t135.5 59.5t96.5 103.5t36.5 150v156zM1270 8q-29 -8 -64 -18t-67 -10q-38 0 -73 10t-61.5 30t-42 50t-12.5 69 q-184 -172 -438 -172q-86 0 -162 22.5t-133.5 69t-91.5 115.5t-35 162q0 160 108.5 258.5t329.5 126.5l193 24q24 3 59.5 7t69 13t59 24.5t29.5 41.5q2 17 3 32.5t1 29.5q0 64 -24 107t-64 68t-90.5 35.5t-104.5 10.5q-75 0 -133.5 -14.5t-100.5 -46.5t-67 -83.5t-34 -125.5 h-177q4 114 46 197.5t111 138t160.5 80.5t194.5 26q97 0 182.5 -20.5t148.5 -67.5t99.5 -123t36.5 -186v-660q0 -65 27 -80q27 -14 121 19z"/>
<glyph glyph-name="b" horiz-adv-x="1311" unicode="b" d="M1044 590q1 19 1 37q0 89 -18 178t-63.5 161t-117.5 114t-174 42q-95 0 -164.5 -40.5t-116 -108t-69.5 -156.5t-23 -186q0 -94 19 -184.5t63 -161.5t115.5 -114.5t175.5 -43.5q100 0 170 41t114 107t65 148.5t23 166.5zM1237 627q0 -141 -29 -263t-94 -212t-171 -141.5 t-259 -51.5q-56 0 -112 14t-107 40.5t-93.5 63.5t-72.5 83v-160h-184v1741h184v-635q75 87 174 135.5t219 48.5q97 0 175 -26.5t138.5 -73t104 -109.5t72 -136.5t42 -154.5t13.5 -163z"/>
<glyph glyph-name="c" horiz-adv-x="1225" unicode="c" d="M1167 455q-21 -111 -63 -201.5t-107 -154.5t-154 -98t-205 -34h-7q-150 1 -258 51.5t-177.5 139t-102 209t-32.5 260.5q0 87 16.5 170t49 156t80.5 134.5t111.5 105.5t141.5 68.5t171 24.5q108 0 196 -26t154 -80.5t109 -138.5t61 -201h-180q-37 136 -120.5 209 t-219.5 73q-71 0 -126.5 -20t-98 -55.5t-72 -83t-48.5 -102.5t-27.5 -114.5t-8.5 -119.5q0 -93 21 -182.5t66.5 -159t117.5 -112t176 -42.5q147 0 233 86t115 238h188z"/>
<glyph glyph-name="d" horiz-adv-x="1311" unicode="d" d="M987 631q0 98 -24 187.5t-71.5 158t-118 109t-163.5 40.5q-75 0 -132.5 -23t-100 -62.5t-71 -92.5t-45.5 -112.5t-23 -122.5t-5 -123q3 -92 25.5 -176t68 -149t115.5 -103.5t168 -38.5q71 0 127 21.5t97.5 58.5t70.5 87t47.5 106.5t26.5 116.5t8 118zM983 0v160 q-31 -49 -74.5 -86.5t-94.5 -63t-106.5 -38.5t-109.5 -13q-153 0 -259 51.5t-171 141.5t-94 212t-29 263q0 131 33 251t100.5 211.5t170 146t241.5 54.5q120 0 219 -48.5t174 -135.5v635h184v-1741h-184z"/>
<glyph glyph-name="e" horiz-adv-x="1311" unicode="e" d="M1049 733q-11 84 -39 154.5t-75 122t-114 80t-157 28.5q-87 0 -154 -31t-114 -83.5t-75 -122.5t-38 -148h766zM1245 623q0 -13 -2 -27t-2 -27h-971q8 -92 36 -171.5t76.5 -138t118.5 -91.5t163 -33q139 1 229.5 74t130.5 197h197q-32 -102 -83.5 -184t-122 -139.5 t-159 -88.5t-192.5 -31q-119 0 -225 42t-185.5 124.5t-125.5 206t-46 287.5q0 134 36.5 255.5t109.5 214t181.5 147t254.5 54.5q100 0 181.5 -25.5t146.5 -71t112.5 -108.5t78.5 -137.5t46.5 -158t15.5 -170.5z"/>
<glyph glyph-name="f" horiz-adv-x="655" unicode="f" d="M389 1090v-1090h-184v1090h-168v163h168v177q0 148 61 233q62 86 209 86q29 0 61.5 -2t77.5 -6v-176q-41 16 -63.5 18t-42.5 2q-45 -1 -69.5 -18.5t-35 -45t-12.5 -63.5t-2 -74v-131h225v-163h-225z"/>
<glyph glyph-name="g" horiz-adv-x="1311" unicode="g" d="M967 623q-1 88 -23 173t-67 151t-114 106.5t-165 40.5q-94 0 -163 -36.5t-115 -96.5t-69.5 -137.5t-25.5 -159.5v-19q0 -86 17.5 -173t62 -158t116.5 -114.5t177 -43.5q85 0 153.5 37.5t117 101.5t73.5 147t25 174v7zM1155 156q0 -62 -5 -123.5t-17.5 -120.5t-33 -114.5 t-51.5 -104.5q-38 -60 -87.5 -102t-107.5 -68.5t-121.5 -38.5t-129.5 -12q-135 0 -229.5 35t-155 89.5t-90 120.5t-33.5 127h176q10 -58 41 -98t76 -64.5t100 -35.5t115 -11q77 0 134 22.5t98 61t67.5 90.5t41.5 111t21 121.5t7 122.5q-80 -85 -182 -130.5t-211 -45.5 q-92 0 -167.5 25.5t-135 70t-104 105.5t-73.5 132t-43 149t-14 157q0 133 29.5 249t94.5 201.5t167.5 135t249.5 49.5q55 0 109.5 -11.5t105 -34.5t95 -58.5t79.5 -84.5v180h184v-1097z"/>
<glyph glyph-name="h" horiz-adv-x="1278" unicode="h" d="M930 0v815q0 146 -65 214.5t-206 68.5q-88 0 -148.5 -36.5t-98.5 -95t-55 -132.5t-17 -150v-684h-184v1741h184v-627q73 82 154 121t186 39q107 0 188.5 -33.5t136 -93t82 -142.5t27.5 -182v-823h-184z"/>
<glyph glyph-name="i" horiz-adv-x="520" unicode="i" d="M156 0v1253h184v-1253h-184zM156 1499v242h184v-242h-184z"/>
<glyph glyph-name="j" horiz-adv-x="520" unicode="j" d="M352 -274q0 -54 -37 -127q-36 -74 -143 -107q-54 -16 -93.5 -17.5t-57.5 -1.5q-37 0 -70 3v176l127 12q49 7 69 43q21 34 21 64v1482h184v-1527zM168 1499v242h184v-242h-184z"/>
<glyph glyph-name="k" horiz-adv-x="1188" unicode="k" d="M963 0l-443 672l-209 -201v-471h-184v1741h184v-1041l566 553h245l-475 -458l524 -795h-208z"/>
<glyph glyph-name="l" horiz-adv-x="520" unicode="l" d="M156 0v1741h184v-1741h-184z"/>
<glyph glyph-name="m" horiz-adv-x="2015" unicode="m" d="M1667 0v860q0 130 -55 196t-182 66q-95 0 -159.5 -41t-103.5 -105.5t-56 -143.5t-17 -156v-676h-185v860q0 130 -55 196t-182 66q-97 0 -161.5 -40.5t-103.5 -104.5t-55 -143.5t-16 -157.5v-676h-184v1253h184v-143q33 44 74 77t87.5 55t97 33t101.5 11q125 0 215.5 -48 t141.5 -161q135 209 401 209q122 0 199 -36.5t121 -99t60.5 -146.5t16.5 -179v-825h-184z"/>
<glyph glyph-name="n" horiz-adv-x="1311" unicode="n" d="M963 0v811q0 73 -15.5 130t-50 95t-89 58t-132.5 20q-94 0 -159.5 -39.5t-106.5 -102.5t-59.5 -142t-18.5 -158v-672h-185v1253h172v-151q84 89 174 136.5t203 47.5q109 0 193 -35t141.5 -97.5t87 -149t29.5 -189.5v-815h-184z"/>
<glyph glyph-name="o" horiz-adv-x="1339" unicode="o" d="M1044 623q0 102 -22 192t-69 157.5t-121.5 106.5t-180.5 39q-105 0 -179.5 -42.5t-122 -112.5t-69.5 -158.5t-22 -181.5q0 -101 23 -191t71.5 -158t122.5 -107.5t176 -39.5q104 0 178.5 42.5t122 112.5t70 159t22.5 182zM1233 623q0 -149 -42.5 -271t-119 -208 t-183.5 -133.5t-237 -47.5q-120 0 -225.5 41.5t-184.5 125t-125 207t-46 286.5q0 135 37.5 255t110.5 210t181.5 142t251.5 52q147 0 256.5 -52t181.5 -142t108 -210t36 -255z"/>
<glyph glyph-name="p" horiz-adv-x="1311" unicode="p" d="M1044 664q-3 90 -25.5 173t-67 147.5t-113.5 103t-166 38.5q-70 0 -125 -21.5t-96.5 -58t-70.5 -85.5t-47 -105t-26 -116t-8 -117q0 -100 23.5 -189.5t70 -156.5t116.5 -106.5t163 -39.5q102 0 174 42t117.5 114t63.5 160.5t18 179.5q0 18 -1 37zM1237 627 q0 -131 -33 -251t-100.5 -212t-170 -146.5t-241.5 -54.5q-120 0 -219 48.5t-174 135.5v-671h-184v1777h184v-159q36 44 79.5 81t93 63.5t103 41t109.5 14.5q155 0 261 -52.5t171 -143t93 -212t28 -259.5z"/>
<glyph glyph-name="q" horiz-adv-x="1311" unicode="q" d="M238 664q-1 -19 -1 -37q0 -90 18 -179t63.5 -161t117.5 -114t174 -42q93 0 163 39.5t116.5 106.5t70 156.5t23.5 189.5q0 57 -8 117t-26 116t-47 105t-70.5 85.5t-96.5 58t-125 21.5q-97 0 -166 -38.5t-113.5 -103t-67 -147.5t-25.5 -173zM45 627q0 138 28 259.5t93 212 t171 143t261 52.5q112 0 212.5 -51t172.5 -149v159h184v-1777h-184v671q-75 -87 -174 -135.5t-219 -48.5q-139 0 -241.5 54.5t-170 146.5t-100.5 212t-33 251z"/>
<glyph glyph-name="r" horiz-adv-x="778" unicode="r" d="M750 1094h-20q-81 0 -154 -22.5t-128 -74t-85.5 -131t-30.5 -186.5v-680h-185v1253h185v-211q33 63 72 109.5t80.5 77t83 46t79.5 15.5h103v-196z"/>
<glyph glyph-name="s" horiz-adv-x="1188" unicode="s" d="M1077 340q0 -71 -22 -126.5t-59.5 -97t-88 -70t-107 -46t-116.5 -25.5t-117 -8q-105 0 -192.5 32t-151 90.5t-100.5 141t-41 183.5h176q17 -150 100.5 -216.5t238.5 -66.5q50 0 102.5 11.5t95.5 37t70.5 65t27.5 95.5q0 39 -12 69.5t-39 49.5q-48 33 -102.5 53t-111.5 34 t-113 26.5t-105 29.5q-60 21 -114 45.5t-95 61t-65.5 89t-24.5 129.5q0 97 38 165t100 111t141.5 63t162.5 20q106 0 191.5 -22.5t148 -72t100 -128t47.5 -191.5h-180q-11 69 -35.5 117t-63 77.5t-90.5 42.5t-118 13q-258 0 -258 -188q0 -58 29 -94t77.5 -59.5t111 -39 t130.5 -32.5q39 -10 79 -20t77.5 -22.5t73 -28t65.5 -36.5q61 -42 100 -105t39 -157z"/>
<glyph glyph-name="t" horiz-adv-x="700" unicode="t" d="M430 1094v-863q0 -62 46 -71t82 -9t77 6v-168q-82 -20 -145 -20q-16 0 -60.5 4t-92 31.5t-69.5 70t-22 88.5v931h-185v159h185v340h184v-340h213v-159h-213z"/>
<glyph glyph-name="u" horiz-adv-x="1311" unicode="u" d="M954 0v143q-27 -31 -59.5 -62t-76 -56.5t-99.5 -41.5t-129 -16q-119 0 -204.5 32t-140.5 92t-80.5 146.5t-25.5 196.5v819h185v-815q0 -151 70 -225t216 -74q93 0 158.5 38.5t106.5 100t60 139.5t19 156v680h185v-1253h-185z"/>
<glyph glyph-name="v" horiz-adv-x="1188" unicode="v" d="M676 0h-184l-476 1253h201l373 -1011l368 1011h205z"/>
<glyph glyph-name="w" horiz-adv-x="1720" unicode="w" d="M1282 0h-176l-256 973l-260 -973h-197l-381 1253h197l283 -983l270 983h184l254 -974l295 974h197z"/>
<glyph glyph-name="x" horiz-adv-x="1188" unicode="x" d="M946 0l-356 508l-373 -508h-217l479 647l-442 606h221l328 -471l336 471h225l-451 -606l467 -647h-217z"/>
<glyph glyph-name="y" horiz-adv-x="1237" unicode="y" d="M717 29q-45 -119 -86.5 -213.5t-88 -160t-102 -100t-129.5 -34.5q-37 0 -73.5 4t-73.5 16v164q22 -5 39 -9t32 -6.5t29 -3.5t31 -1q44 0 79.5 35.5t62.5 86.5t45.5 107t29.5 98l-475 1241h205l368 -1007l365 1007h205z"/>
<glyph glyph-name="z" horiz-adv-x="1188" unicode="z" d="M49 0v147l770 947h-717v159h971l-4 -143l-766 -950h803v-160h-1057z"/>
<glyph glyph-name="braceleft" horiz-adv-x="799" unicode="{" d="M487 -504q-32 1 -66.5 21.5t-63 57.5t-47.5 89.5t-19 118.5v450q0 58 -6.5 108.5t-26.5 90t-57.5 66.5t-98.5 39v163q63 15 100.5 43.5t57 68.5t25.5 89.5t6 106.5v442q0 65 18 118.5t46 91.5t63 59t69 22l172 4v-156q-56 -8 -92 -12.5t-57.5 -16.5t-30 -38t-8.5 -76 v-442q0 -98 -24.5 -168t-55 -116t-58 -70.5t-34.5 -31.5q7 -7 35 -31.5t58.5 -70.5t54.5 -115.5t24 -167.5v-421q0 -62 10.5 -94.5t33 -47.5t58.5 -18.5t86 -7.5v-156z"/>
<glyph glyph-name="bar" horiz-adv-x="623" unicode="|" d="M242 -516v2257h143v-2257h-143z"/>
<glyph glyph-name="braceright" horiz-adv-x="799" unicode="}" d="M70 -512v156q50 4 86 7.5t58.5 18.5t33 47.5t10.5 94.5v421q0 98 24 167.5t54.5 115.5t58.5 70.5t35 31.5q-7 7 -34.5 31.5t-58 70.5t-55 116t-24.5 168v442q0 50 -8.5 76t-30 38t-58 16.5t-91.5 12.5v156l172 -4q34 -1 69 -22t63 -59t46 -91.5t18 -118.5v-442 q0 -57 6 -106.5t25.5 -89.5t57 -68.5t100.5 -43.5v-163q-62 -12 -99 -39t-57 -66.5t-26.5 -90t-6.5 -108.5v-450q0 -66 -19 -118.5t-47.5 -89.5t-63.5 -57.5t-66 -21.5z"/>
<glyph glyph-name="asciitilde" horiz-adv-x="1397" unicode="~" d="M1212 983q1 -13 1 -25q0 -45 -11 -90q-14 -58 -44 -107t-74 -83t-99 -44q-16 -3 -33 -3q-80 0 -178 65l-254 164q-49 32 -90 28q-42 -4 -70 -29q-28 -26 -42 -70t-11 -93h-127q5 137 47 213q26 46 64 80q39 33 83 49q35 12 72 13q10 0 20 -1q48 -4 95 -34l311 -189 q52 -33 96 -31t74 27t43 67t5 93h122z"/>
<glyph glyph-name="uni00A0" horiz-adv-x="1024" unicode=" "/>
<glyph glyph-name="cent" horiz-adv-x="1327" unicode="¢" d="M614 1249q-66 -18 -110.5 -58t-71.5 -92.5t-39 -112.5t-12 -118q0 -78 15.5 -143t45.5 -114.5t73.5 -83t98.5 -48.5v770zM1090 754q-13 -77 -42.5 -144.5t-74.5 -120t-105.5 -87.5t-134.5 -46v-209h-119v209q-69 11 -123 39t-95 68t-69.5 88.5t-46.5 101.5t-26 108 t-8 107q0 87 23.5 172.5t69.5 155t115 117t160 59.5v213h119v-213q258 -37 340 -323h-135q-26 85 -76.5 136.5t-128.5 67.5v-774q172 33 225 275h132z"/>
<glyph glyph-name="sterling" horiz-adv-x="1319" unicode="£" d="M1065 1227q-3 80 -25 148t-63 117.5t-100 77t-136 27.5q-66 0 -121 -26t-94.5 -69t-61.5 -98.5t-22 -113.5v-446h447v-164h-447v-508h783v-172h-1168v172h201v508h-201v164h201v430q0 110 36.5 202.5t101 159.5t152 104.5t189.5 37.5q97 0 188.5 -36.5t162.5 -106.5 t114 -172.5t43 -235.5h-180z"/>
<glyph glyph-name="yen" horiz-adv-x="1585" unicode="¥" d="M1143 1077h356v-172h-463l-135 -217h598v-172h-598v-516h-201v516h-622v172h622l-135 217h-487v172h381l-414 664h254l504 -840l495 840h254z"/>
<glyph glyph-name="copyright" horiz-adv-x="1929" unicode="©" d="M1405 733q-16 -90 -50 -161t-87 -119.5t-125 -74.5t-164 -26q-122 0 -207.5 42t-139.5 114t-79 167.5t-25 201.5q0 104 30 199t88 167t141.5 115t191.5 43q172 0 277 -84t137 -264h-140q-24 120 -94.5 172.5t-179.5 52.5q-84 0 -142.5 -35t-95 -92t-53 -129t-16.5 -145 q0 -74 16.5 -146t53 -129t95 -92t142.5 -35q64 0 112.5 18t83 51.5t55.5 81t32 107.5h143zM1724 877q0 106 -28 203.5t-78 181.5t-120 152.5t-154 117.5t-179.5 75.5t-197.5 26.5q-106 0 -203.5 -27.5t-182.5 -77.5t-154 -120t-118.5 -154t-76.5 -180t-27 -198 q0 -106 27 -203.5t76.5 -182t119 -154t154.5 -119t182.5 -76.5t202.5 -27q108 0 206 28t182 79t152 121t116.5 155t74.5 181t26 198zM1876 877q0 -125 -33 -242t-93 -219t-143.5 -186t-184.5 -144.5t-216.5 -93.5t-238.5 -33q-129 0 -247 34t-220 95t-185.5 146t-142.5 187 t-91 218t-32 238q0 126 34 242t95 217t146 184t187 142t217.5 91.5t238.5 32.5q126 0 243 -33.5t218 -94t183.5 -144.5t141.5 -185t91 -215.5t32 -236.5z"/>
<glyph glyph-name="guillemotleft" horiz-adv-x="1327" unicode="«" d="M233 545v213l377 295v-205l-258 -197l258 -196v-205zM717 545v213l373 295v-205l-250 -197l250 -196v-205z"/>
<glyph glyph-name="registered" horiz-adv-x="1761" unicode="®" d="M1225 1102q0 57 -22.5 92t-59.5 53.5t-84 24.5t-96 6h-295v-360h307q47 0 92 7t80 26.5t56.5 55.5t21.5 95zM1352 1098q0 -76 -25.5 -128t-69 -84.5t-101.5 -48t-124 -18.5l307 -471h-147l-295 471h-229v-471h-123v1020h475q67 0 127 -15t105.5 -47.5t72.5 -84t27 -123.5 zM1683 860q0 108 -29.5 209.5t-83 190.5t-127.5 162.5t-162.5 126t-189 81.5t-206.5 29q-112 0 -214.5 -29.5t-192 -82.5t-162.5 -126.5t-125 -162.5t-80.5 -190t-28.5 -208q0 -112 29 -214.5t81 -191.5t125 -162t162 -125t192 -80.5t214 -29.5q109 0 210.5 30t190.5 83.5 t162 128t125 163.5t81 190t29 208zM1794 860q0 -127 -33 -244.5t-93 -219.5t-144 -185.5t-185 -143t-216 -92t-238 -32.5q-129 0 -247 34t-220 95t-185.5 146t-142.5 186.5t-91 217t-32 238.5q0 126 34 242t95 217t145.5 184t186.5 142t218 91.5t239 32.5q127 0 244 -33.5 t218 -94.5t183.5 -145t141 -185t90.5 -215.5t32 -235.5z"/>
<glyph glyph-name="guillemotright" horiz-adv-x="1327" unicode="»" d="M233 250v205l263 196l-250 197v205l348 -295v-213zM709 250v205l258 196l-250 197v205l360 -295v-213z"/>
<glyph glyph-name="onequarter" horiz-adv-x="1679" unicode="¼" d="M1327 659q-26 -38 -56.5 -85.5t-61.5 -94l-58 -87t-45 -64.5h221v331zM258 881v581h-192v107q39 6 66 11.5t46 11t32 12t23 14.5q24 23 58 119h98v-856h-131zM274 0h-176l1245 1741h177zM1458 197v-197h-131v197h-364v131l393 536h102v-536h127v-131h-127z"/>
<glyph glyph-name="onehalf" horiz-adv-x="1679" unicode="½" d="M258 881v585h-192v107q39 6 65 10.5t45 10t32 12t25 16.5q17 15 29 43t29 76h98v-860h-131zM233 0h-176l1246 1741h176zM1597 602q0 -51 -18.5 -93t-48 -76.5t-67.5 -62t-78 -49.5q-34 -18 -71.5 -35t-71 -37.5t-59 -48.5t-35.5 -69h445v-131h-598q4 91 23.5 153.5 t57 109t94 83t133.5 76.5q30 15 57.5 32t49.5 38t35 48t13 62q0 45 -19 71.5t-44.5 41t-50.5 18.5t-37 4q-47 0 -77 -15.5t-48 -42t-26 -61t-9 -73.5h-135q15 164 90.5 241.5t216.5 77.5q56 0 106.5 -20.5t88.5 -56t60.5 -83t22.5 -102.5z"/>
<glyph glyph-name="threequarters" horiz-adv-x="1679" unicode="¾" d="M1339 631l-221 -303h221v303zM655 1123q0 -65 -25.5 -113t-67.5 -79.5t-97 -47t-113 -15.5q-89 0 -145.5 28.5t-89.5 72.5t-46 97t-14 101h131q2 -38 10.5 -70.5t26.5 -56t47 -36.5t72 -13q32 0 63 8.5t55 25.5t39 43.5t15 61.5q0 53 -17.5 82.5t-46.5 43t-68 16t-81 2.5 v119q40 0 73.5 3.5t58 16t38.5 37.5t14 70q0 30 -10 51t-27 34t-40 19t-50 6q-81 0 -116 -39t-35 -133h-135q4 150 76 224.5t206 74.5q62 0 113 -14.5t87 -44t55.5 -75t19.5 -108.5q0 -61 -26.5 -106t-59.5 -66q31 -18 52.5 -42.5t34 -53t18 -60t5.5 -64.5zM1470 197v-197 h-131v197h-364v131l393 536h102v-536h127v-131h-127zM377 0h-176l1245 1741h176z"/>
<glyph glyph-name="multiply" horiz-adv-x="1282" unicode="×" d="M766 578l344 -349l-131 -131l-344 344l-356 -352l-123 123l352 356l-361 361l132 131l360 -361l360 361l127 -127z"/>
<glyph glyph-name="divide" horiz-adv-x="1397" unicode="÷" d="M573 -4v250h250v-250h-250zM119 492v167h1159v-167h-1159zM573 905v250h250v-250h-250z"/>
<glyph glyph-name="kokaithai" horiz-adv-x="1479" unicode="ก" d="M1098 0v963q0 79 -34 138t-88.5 98.5t-122.5 59t-136 19.5q-107 0 -208.5 -38.5t-180.5 -104.5q164 -46 295 -156q-105 -29 -163.5 -103t-58.5 -180v-696h-172v688q0 51 8.5 93.5t28 78t50.5 63t77 48.5q-77 54 -152.5 81t-154.5 38q60 71 131.5 130.5t151.5 102 t167.5 66.5t180.5 24q114 0 214.5 -28t174.5 -84t117 -140.5t43 -197.5v-963h-168z"/>
<glyph glyph-name="khokhaithai" horiz-adv-x="1507" unicode="ข" d="M348 946q28 0 51 10t40 27t26.5 40.5t9.5 49.5q0 28 -10 51t-27.5 40t-40.5 26.5t-49 9.5q-28 0 -51 -10t-40 -27.5t-26.5 -40.5t-9.5 -49q0 -28 10 -51t27 -40t40.5 -26.5t49.5 -9.5zM1294 266q0 -84 -13.5 -136t-47 -81t-91.5 -39t-147 -10h-561v147h172v492 q0 64 21 113t47.5 94.5t50.5 92t29 105.5q6 62 -18.5 111t-67 79.5t-97 40.5t-108.5 -5q79 -26 111 -84.5t32 -125.5v-16q-4 -60 -29 -106t-65 -76t-91 -42.5t-106 -4.5q-63 9 -110.5 36t-77 67.5t-38 80t-8.5 68.5q0 27 5 55q12 67 53 121t98.5 91.5t125 58t133.5 20.5 q99 0 175.5 -31t129.5 -81.5t80.5 -114.5t27.5 -129q0 -47 -10 -85t-25 -71t-32.5 -64t-32.5 -64.5t-25 -72t-10 -86.5v-467h221q36 0 60.5 5.5t39.5 19t21 36.5t6 58v1118h172v-1118z"/>
<glyph glyph-name="khokhuatthai" horiz-adv-x="1597" unicode="ฃ" d="M315 750q27 0 50 9.5t40.5 26t27 39.5t9.5 49q0 28 -10 51t-27.5 39.5t-40.5 25.5t-49 9q-27 0 -50 -9.5t-40.5 -26.5t-27 -40t-9.5 -49q0 -28 10.5 -50.5t27.5 -39t40 -25.5t49 -9zM1384 266q0 -84 -12 -136t-45 -81t-90 -39t-147 -10h-562v147h168v746q0 48 6.5 79.5 t22 55.5t40.5 44.5t62 45.5q30 21 26 48.5t-25 53t-49 44t-46 22.5l-172 -115l-196 115q-92 -29 -138 -99q-23 -35 -33 -66t-9 -56q12 15 28.5 25t34 16t35 9t32.5 3q59 0 106 -17.5t80 -50t50.5 -78.5t17.5 -104q0 -63 -24.5 -109t-62 -76t-82 -45t-85.5 -15 q-80 0 -143 39.5t-100 108.5t-41 124.5t-4 73.5q0 80 26 170q14 47 39 87t56.5 72t66 56t67 39t52.5 19t32 4q11 0 19 -3l176 -110l164 110q41 -12 88 -35.5t87.5 -57.5t67.5 -77.5t27 -95.5q0 -24 -5.5 -42.5t-14.5 -33t-20.5 -26t-23.5 -21.5q-35 -30 -49 -63.5t-14 -75.5 v-738h222q36 0 60.5 5.5t39.5 19t21 36.5t6 58v1118h167v-1118z"/>
<glyph glyph-name="khokhwaithai" horiz-adv-x="1495" unicode="ค" d="M672 705q27 0 50 9.5t40.5 26t27 39.5t9.5 49q0 28 -10 51t-27.5 39.5t-40.5 25.5t-49 9q-27 0 -50.5 -9.5t-40.5 -26.5t-26.5 -40t-9.5 -49q0 -28 10 -50.5t27.5 -39t40.5 -25.5t49 -9zM1114 0v926q0 89 -37 157t-97.5 114t-137.5 69.5t-156 23.5q-84 0 -161 -25 t-136.5 -73t-95 -117t-35.5 -157q0 -91 26.5 -166.5t80.5 -124.5v110q0 75 19.5 138t58.5 108.5t96.5 71.5t132.5 26q56 0 102 -19.5t79 -53.5t51 -80t18 -99q0 -57 -19 -103.5t-52.5 -79t-79 -50.5t-99.5 -18q-45 0 -86 14t-66 39v-631h-172v459q-115 78 -180.5 198.5 t-65.5 268.5q0 82 24.5 150.5t67 123.5t100 96.5t123 69t136.5 42t141 15.5h7q107 0 212 -30t188 -91t134 -150.5t51 -205.5v-946h-172z"/>
<glyph glyph-name="khokhonthai" horiz-adv-x="1495" unicode="ฅ" d="M672 705q27 0 50 9.5t40.5 26t27 39.5t9.5 49q0 28 -10 51t-27.5 39.5t-40.5 25.5t-49 9q-27 0 -50.5 -9.5t-40.5 -26.5t-26.5 -40t-9.5 -49q0 -28 10 -50.5t27.5 -39t40.5 -25.5t49 -9zM1114 0v926q0 75 -8.5 127t-27.5 89.5t-49.5 66t-74.5 57.5l-221 -144 q-36 23 -65.5 43t-56 37.5t-50.5 33.5t-49 30q-135 -62 -194 -151t-59 -194q0 -91 26 -168t80 -126v110q0 143 75 244q76 100 232 100q56 0 102 -19.5t79 -53.5t51 -80t18 -99q0 -57 -19 -103.5t-52.5 -79t-79 -50.5t-99.5 -18q-45 0 -86 14t-66 39v-631h-172v459 q-115 78 -180.5 198.5t-65.5 268.5q0 83 33 156t88 134.5t126 111t147 85.5l237 -164l230 164q104 -54 167.5 -113.5t98 -120.5t46 -120t11.5 -113v-946h-172z"/>
<glyph glyph-name="khorakhangthai" horiz-adv-x="1872" unicode="ฆ" d="M733 475q-42 -2 -75 -18.5t-56 -43t-35.5 -61t-12.5 -72.5q0 -28 8 -58t24 -55t40 -39.5t56 -10.5q51 6 51 71v287zM348 750q27 0 50 9.5t40.5 26t27 39.5t9.5 49q0 28 -10 51t-27.5 39.5t-40.5 25.5t-49 9q-27 0 -50 -9.5t-40.5 -26.5t-27 -40t-9.5 -49 q0 -28 10.5 -50.5t27.5 -39t40 -25.5t49 -9zM1487 0q-14 69 -46 129t-77.5 110t-101.5 89.5t-116.5 68t-123 46.5t-121.5 24v-269q0 -113 -60 -168t-169 -55q-65 0 -114.5 26.5t-82.5 70t-49 99.5t-14 116q1 60 21 116t59 100t98 72t139 31v242q0 53 4 90.5t17.5 67 t39.5 55.5t70 57q15 10 20.5 23t4.5 26.5t-8 27t-17 25.5q-21 25 -49.5 43.5t-44.5 22.5l-172 -115l-193 115q-30 -10 -62.5 -30t-59 -48t-43.5 -62t-15 -73q14 13 31.5 21.5t35.5 14t35 7.5t29 2q55 0 101.5 -16.5t80.5 -48t53 -78.5t19 -107q0 -63 -25 -109t-63 -76 t-83.5 -45t-86.5 -15q-82 0 -143.5 38.5t-98.5 108.5q-36 70 -41 126.5t-5 76.5q0 77 26 166q15 52 51 102t82.5 89t96.5 61t94 22h8l176 -110l164 110q41 -12 88 -35.5t87.5 -57.5t67.5 -77.5t27 -95.5q0 -30 -11 -53t-27.5 -42.5t-35 -37.5t-33.5 -39q-20 -29 -20 -90 v-279q111 -8 205.5 -43t169.5 -82t128.5 -98.5t82.5 -91.5v1093h172v-1384h-172z"/>
<glyph glyph-name="ngonguthai" horiz-adv-x="1176" unicode="ง" d="M713 1024q28 0 51 10t40 27t26.5 40.5t9.5 49.5q0 28 -10 51t-27.5 40t-40.5 26.5t-49 9.5q-28 0 -51 -10t-40 -27t-26.5 -40t-9.5 -50q0 -28 10 -51.5t27 -40t40 -26t50 -9.5zM963 180q0 -42 -13.5 -77t-37.5 -62t-56.5 -45t-71.5 -24q-21 -4 -42 -4l-38 4 q-37 5 -71.5 21t-63.5 42t-49 59l-459 774l136 78l458 -774q29 -50 82 -45q54 4 54 66v723q-20 -11 -40.5 -13t-37.5 -2q-56 0 -102 19.5t-79 53.5t-51 80t-18 99q0 57 18.5 103.5t52 79.5t79.5 51t100 18q58 0 104.5 -20t78.5 -54.5t49.5 -82t17.5 -101.5v-967z"/>
<glyph glyph-name="chochanthai" horiz-adv-x="1356" unicode="จ" d="M553 573q27 0 50 10t40.5 27t27 39.5t9.5 48.5q0 27 -10.5 50t-27.5 39.5t-40.5 26t-48.5 9.5q-27 0 -50 -10t-40.5 -27t-27 -39.5t-9.5 -48.5q0 -27 10.5 -50t27.5 -39.5t40 -26t49 -9.5zM983 0q-5 71 -37 170q-72 218 -180 403q-12 -30 -35.5 -54t-52.5 -40 t-61.5 -24.5t-63.5 -8.5q-56 0 -102 19t-79 52t-51 79t-18 100q0 56 19 102.5t52.5 80.5t79.5 52.5t99 18.5q78 0 145.5 -40.5t108.5 -123.5l176 -360v532q0 92 -33 154.5t-85.5 100t-118.5 53.5t-132 16q-75 0 -139 -16.5t-118 -47.5t-100 -74t-85 -95l-106 81 q28 41 73 90.5t112 92t158.5 71.5t213.5 29q109 0 204.5 -28t166.5 -84t112 -139.5t41 -194.5v-967h-164z"/>
<glyph glyph-name="chochingthai" horiz-adv-x="1597" unicode="ฉ" d="M336 594q28 0 51 9.5t40 26.5t26.5 39.5t9.5 49.5q0 28 -10 51t-27.5 39.5t-40.5 25.5t-49 9q-27 0 -50.5 -9.5t-40.5 -26.5t-26.5 -40t-9.5 -49q0 -28 10 -51t27.5 -39.5t40.5 -25.5t49 -9zM1438 274q0 33 -8.5 64.5t-25 57t-42 42.5t-59.5 21v-312q0 -36 24 -36 q30 0 51 17t34.5 41.5t19.5 53t6 51.5zM1565 274q0 -61 -19.5 -115t-55.5 -95t-86 -65t-110 -24q-50 0 -82 18.5t-51 49t-26 68.5t-7 77v271q-82 -12 -153.5 -39.5t-132 -65t-108 -82.5t-80.5 -91.5t-50.5 -93t-17.5 -87.5h-168v490q-20 -14 -45 -18.5t-37 -4.5 q-56 0 -102 19.5t-79 53.5t-51 80t-18 99q0 57 18.5 103.5t52 79.5t79.5 51t100 18q56 0 102 -20t79 -54.5t51 -81t18 -98.5v-418q108 132 255 202q150 72 289 93v360q0 84 -28.5 146t-78 102.5t-116 60t-141.5 19.5q-68 0 -129.5 -18t-116 -49.5t-101 -75t-83.5 -95.5 l-107 86q46 68 106 120.5t129.5 88.5t145.5 55t156 19q111 0 208.5 -29t170.5 -87t115.5 -143.5t42.5 -199.5v-360q132 -25 197 -108.5t65 -211.5z"/>
<glyph glyph-name="chochangthai" horiz-adv-x="1507" unicode="ช" d="M348 946q28 0 51 10t40 27t26.5 40.5t9.5 49.5q0 28 -10 51t-27.5 40t-40.5 26.5t-49 9.5q-28 0 -51 -10t-40 -27.5t-26.5 -40.5t-9.5 -49q0 -28 10 -51t27 -40t40.5 -26.5t49.5 -9.5zM1126 799q0 54 -13 100.5t-40.5 79.5t-69 50.5t-98.5 14.5q2 -60 -13.5 -104.5 t-48.5 -87.5q-38 -53 -53.5 -104t-15.5 -113v-488h225q36 0 60.5 5.5t39.5 19t21 36.5t6 58v533zM1446 1413q-57 -113 -146 -188t-202 -111q52 -6 89.5 -33t61 -66t34.5 -86t11 -93v-570q0 -84 -13.5 -136t-47 -81t-91.5 -39t-147 -10h-561v147h172v512q0 35 3.5 61.5 t11.5 48.5t20 42.5t30 44.5q34 45 56 89t27 99q5 62 -18.5 111t-65.5 80t-96 41t-111 -6q79 -26 111 -84.5t32 -125.5v-16q-4 -60 -29 -105t-64.5 -74t-90.5 -42t-107 -8q-61 5 -108.5 31.5t-78.5 68t-39.5 81.5t-8.5 67q0 29 6 59q15 75 54 130t94 91t121 53t137 17 q63 0 124 -16.5t114 -48t93.5 -77.5t61.5 -104q85 7 156 42t134 87q39 32 77 79.5t75 111.5z"/>
<glyph glyph-name="sosothai" horiz-adv-x="1597" unicode="ซ" d="M315 750q27 0 50 9.5t40.5 26t27 39.5t9.5 49q0 28 -10 51t-27.5 39.5t-40.5 25.5t-49 9q-27 0 -50 -9.5t-40.5 -26.5t-27 -40t-9.5 -49q0 -28 10.5 -50.5t27.5 -39t40 -25.5t49 -9zM1217 836q0 37 -6 71.5t-20 63.5t-37 52.5t-56 37.5q-26 11 -56.5 13.5t-62.5 -1.5 q-15 -24 -34.5 -36t-36.5 -27.5t-28.5 -42.5t-11.5 -82v-738h222q36 0 60.5 5.5t39.5 19t21 36.5t6 58v570zM1548 1446q-32 -55 -73 -102t-89 -85.5t-101.5 -68.5t-108.5 -51q55 -6 94.5 -37t64.5 -74.5t37 -94t12 -97.5v-570q0 -84 -12 -136t-45 -81t-90 -39t-147 -10h-562 v147h168v746q0 58 12 94.5t31 60.5t42.5 39.5t45.5 30.5q15 10 20.5 22t4.5 25t-8 26t-17 25q-11 12 -23.5 24t-25.5 21.5t-24.5 16t-20.5 8.5l-172 -115l-196 115q-76 -24 -124 -79t-53 -134q13 13 30.5 22t34.5 14t33.5 7t28.5 2q55 0 101.5 -16.5t80.5 -48.5t53 -78.5 t19 -106.5q0 -63 -24.5 -109t-62 -76t-82 -45t-85.5 -15q-80 0 -143 39.5t-100 108.5t-41 124.5t-4 73.5q0 80 26 170q14 47 38.5 85.5t55 69.5t64 54t66 38t60.5 21.5t48 5.5l176 -110l164 110q75 -20 126 -54.5t83 -72.5q20 -23 34.5 -46t26.5 -48q88 23 160 67t135 100 q74 66 131 173z"/>
<glyph glyph-name="chochoethai" horiz-adv-x="2019" unicode="ฌ" d="M479 102q27 0 50 10t40.5 27t27 39.5t9.5 48.5q0 27 -10.5 50t-27.5 39.5t-40.5 26t-48.5 9.5q-27 0 -50 -10t-40.5 -27t-27 -39.5t-9.5 -48.5q0 -27 10.5 -50t27.5 -39.5t40 -26t49 -9.5zM1004 393q-30 -5 -49 -20t-29 -36.5t-13.5 -47.5t-3.5 -51q0 -16 4 -35 t12.5 -35.5t21.5 -27.5t32 -11q25 0 25 35v229zM1638 0q-7 16 -26.5 44.5t-50 63t-71 72.5t-89.5 74t-105.5 67.5t-119.5 51.5v-217q0 -82 -41 -131.5t-123 -49.5q-57 0 -99 25.5t-69 65.5t-40 89.5t-13 98.5q0 53 13.5 98.5t40.5 79.5t67 55t92 25v508q0 72 -29.5 123 t-77 83t-108 46t-122.5 12q-55 -2 -100 -10t-85 -21t-76.5 -30.5t-73.5 -38.5q84 -29 158.5 -72.5t140.5 -99.5q-60 -9 -103.5 -33t-71 -60t-41 -83t-14.5 -103v-278q14 8 38 14t48 6q55 0 99 -20t75 -54t47.5 -79.5t16.5 -96.5q0 -54 -18.5 -100t-51.5 -79t-78 -52t-97 -19 q-57 0 -103.5 19t-79.5 53t-50.5 80.5t-17.5 101.5v496q0 48 10 93.5t31 84.5t53.5 69.5t77.5 47.5q-72 51 -152 83t-163 52q118 129 266 193.5t312 64.5q108 0 201.5 -18.5t162.5 -63.5t108.5 -120.5t39.5 -190.5v-512q41 -8 100.5 -37t123.5 -70.5t127 -92.5t111 -103 v1179h168v-1384h-168z"/>
<glyph glyph-name="yoyingthai" horiz-adv-x="2019" unicode="ญ" d="M1057 -487q23 0 43 9t35 24t23.5 35t8.5 42q0 24 -9 44t-24 35t-35 23.5t-42 8.5q-25 0 -46 -8.5t-36.5 -23t-24 -35t-8.5 -44.5q0 -25 9 -45.5t25 -34.5t37 -22t44 -8zM479 102q27 0 50 10t40.5 27t27 39.5t9.5 48.5q0 27 -10.5 50t-27.5 39.5t-40.5 26t-48.5 9.5 q-27 0 -50 -10t-40.5 -27t-27 -39.5t-9.5 -48.5q0 -27 10.5 -50t27.5 -39.5t40 -26t49 -9.5zM1794 -147q1 -18 1 -35q0 -91 -33.5 -179.5t-100 -160.5t-157.5 -115.5t-193 -50.5q-19 -1 -38 -1q-33 0 -78.5 4t-101 18.5t-105.5 38.5t-88.5 59t-61.5 81.5t-23 105.5 q0 41 13.5 85t43.5 80t77.5 59t115.5 23q54 0 97 -19t73 -51.5t46 -77t16 -95.5q-2 -62 -30 -112t-75 -79h20q114 0 205 41q61 28 102.5 68t66 88.5t33.5 105t7 119.5h168zM1806 266q0 -84 -12 -136t-44.5 -81t-90 -39t-148.5 -10h-675v147h168v873q0 72 -29 122t-76 81.5 t-107 45.5t-122 14q-92 0 -177.5 -28t-160.5 -71q84 -29 158.5 -72.5t140.5 -99.5q-121 -19 -176.5 -93t-56.5 -186l-1 -279q14 8 36.5 14.5t53.5 6.5q55 0 99 -20t75 -54t47.5 -79.5t16.5 -96.5q0 -54 -17.5 -100t-49 -79t-75.5 -52t-96 -19q-57 0 -104.5 19t-81.5 53 t-53 80.5t-19 101.5v496q0 48 10 93.5t31 84.5t53.5 69.5t77.5 47.5q-72 51 -152 83t-163 52q118 129 266 193.5t312 64.5q108 0 201.5 -18.5t162.5 -63.5t108.5 -120.5t39.5 -190.5v-873h335q36 0 60.5 5.5t39.5 19t21 36.5t6 58v1118h168v-1118z"/>
<glyph glyph-name="dochadathai" horiz-adv-x="1651" unicode="ฎ" d="M774 -324q-125 39 -203 39h-8q-35 0 -67 -8t-57.5 -24.5t-40.5 -42.5t-15 -63q0 -52 31 -83t77 -43q57 -14 102.5 2t81 50.5t60 81t39.5 91.5zM319 102q27 0 50 10t40.5 27t27 39.5t9.5 48.5q0 27 -10.5 50t-27.5 39.5t-40.5 26t-48.5 9.5q-27 0 -50 -9.5t-40 -26.5 t-26.5 -40t-9.5 -49q0 -27 10 -50t27 -39.5t40 -26t49 -9.5zM1282 -696q-81 102 -176 176.5t-201 134.5q-17 -55 -50 -111.5t-83 -101.5t-111 -70t-128 -25q-12 0 -25 1q-59 3 -108.5 24t-85 56.5t-55.5 84.5t-20 109q0 97 48.5 160t121 89t153.5 26q18 0 80 -4t173 -46 q18 54 29.5 101t19.5 96l140 -41q-6 -54 -17.5 -108.5t-31.5 -106.5q40 -20 83.5 -45t85 -54t78.5 -60.5t64 -63.5v1438q0 81 -33 140.5t-87 98.5t-122.5 57.5t-138.5 18.5q-106 0 -206.5 -39t-178.5 -104q78 -26 153.5 -63t137.5 -93q-105 -29 -163.5 -103t-58.5 -180v-475 q0 -57 -19 -102.5t-53 -77.5t-79.5 -49t-98.5 -17q-56 0 -102.5 19t-80 52.5t-52 79t-18.5 99.5q0 57 19.5 103t53.5 79t80.5 50.5t99.5 17.5q20 0 41.5 -3t40.5 -13v229q0 51 8 93.5t26.5 78t49.5 63t76 48.5q-77 54 -152.5 81t-154.5 38q61 70 132.5 129t151.5 102 t167 67.5t180 24.5q114 0 215 -28t176 -84t118.5 -140.5t43.5 -197.5v-1659h-156z"/>
<glyph glyph-name="topatakthai" horiz-adv-x="1651" unicode="ฏ" d="M627 -406q-84 56 -149 56q-17 0 -32 -4q-47 -13 -71 -43t-24 -72q0 -23 9.5 -42t25 -33t35 -21.5t40.5 -7.5q37 -2 63 20q35 29 59.5 68.5t43.5 78.5zM319 102q27 0 50 10t40.5 27t27 39.5t9.5 48.5q0 27 -10.5 50t-27.5 39.5t-40.5 26t-48.5 9.5q-27 0 -50 -9.5 t-40 -26.5t-26.5 -40t-9.5 -49q0 -27 10 -50t27 -39.5t40 -26t49 -9.5zM1274 -696l-193 229l-204 -229q-33 51 -67.5 98.5t-76.5 89.5q-24 -40 -55 -76t-67.5 -62.5t-75.5 -40t-77 -13.5h-16q-59 2 -103.5 21.5t-74 52.5t-43 78.5t-10.5 99.5q2 43 17 79t39 63.5t55.5 46.5 t66.5 28t72.5 10t75 -6.5t73 -23.5t66.5 -40q19 50 32 91t22 75.5t14 64t10 56.5l135 -37q-14 -93 -38.5 -178.5t-59.5 -165.5q29 -26 54 -52t48 -55l180 185l193 -197v1467q0 81 -33 140.5t-87 98.5t-122.5 57.5t-138.5 18.5q-106 0 -206.5 -39t-178.5 -104 q78 -26 153.5 -63t137.5 -93q-105 -29 -163.5 -103t-58.5 -180v-475q0 -57 -19 -102.5t-53 -77.5t-79.5 -49t-98.5 -17q-56 0 -102.5 19t-80 52.5t-52 79t-18.5 99.5q0 57 19.5 103t53.5 79t80.5 50.5t99.5 17.5q50 0 82 -17v230q0 51 8 93.5t26.5 78t49.5 63t76 48.5 q-77 54 -152.5 81t-154.5 38q61 70 132.5 129t151.5 102t167 67.5t180 24.5q114 0 215 -28t176 -84t118.5 -140.5t43.5 -197.5v-1659h-164z"/>
<glyph glyph-name="thothanthai" horiz-adv-x="1319" unicode="ฐ" d="M393 -545q-14 12 -28.5 24t-30 22.5t-32.5 17t-36 6.5q-23 0 -40 -8t-29 -20.5t-19 -29t-8 -32.5q-1 -17 4 -33t16.5 -28.5t30 -20.5t45.5 -8q31 0 55 17.5t39.5 38.5t23.5 38zM909 -426q33 0 55 14.5t33 36.5t11 47.5t-11 47.5t-33 36.5t-55 14.5t-54.5 -14.5 t-32.5 -36.5t-11 -47.5t11 -47.5t32.5 -36.5t54.5 -14.5zM512 475q27 0 50 10t40.5 27t27 39.5t9.5 48.5q0 27 -10.5 50t-27.5 39.5t-40.5 26t-48.5 9.5q-27 0 -50 -10t-39.5 -27t-25.5 -39.5t-9 -48.5q0 -27 10 -50t26.5 -39.5t39 -26t48.5 -9.5zM1106 -569q0 -33 -9.5 -56 t-25.5 -40.5t-37.5 -31.5t-46.5 -28l-119 -66l-151 103l-164 -94l-86 143q-35 -66 -87 -97t-112 -31q-11 0 -22 1q-93 8 -141 61.5t-48 134.5v13q4 61 39 106.5t88.5 67t117 15t124.5 -49.5q12 49 19 87.5t10.5 70.5t4 59t-0.5 54h127v-21q0 -173 -62 -348q19 -26 37 -52.5 t29 -45.5l127 69l160 -102l61 41q20 12 20 49v19.5t-1 24.5q-9 -5 -23 -8t-25 -3q-44 0 -81 15.5t-63 43t-40.5 64t-13.5 78.5t17 78t43 62.5t62.5 41t75.5 14.5q45 0 81.5 -16.5t62 -44t39.5 -65t14 -79.5v-237zM1303 1192q-94 -42 -172 -42q-13 0 -25 1q-43 4 -83.5 12.5 t-78.5 21.5q-40 14 -77.5 29.5t-74.5 29t-75 22t-78 8.5q-21 0 -48 -5t-55 -15.5t-53 -28t-41 -41.5q96 -23 184.5 -44.5t180.5 -49.5q106 -32 166 -70.5t89.5 -88t36.5 -111.5t7 -140v-340q0 -10 -0.5 -39t-0.5 -66.5t-0.5 -79t-0.5 -76t0.5 -57t1.5 -22.5h-205 q-8 42 -20 85t-32 97t-50 124.5t-74 168.5q-12 -32 -35 -56t-52 -39.5t-62 -23.5t-64 -8q-56 0 -102 19t-79 52t-51 79t-18 100q0 56 19 102.5t52.5 80.5t79.5 52.5t99 18.5q78 0 146.5 -41.5t107.5 -122.5l168 -348v332q0 73 -12.5 123.5t-40.5 85t-73.5 57t-111.5 41.5 q-137 40 -266 62.5t-258 39.5q29 58 75.5 117t106.5 107t132 78t153 30q66 0 125 -14.5t115.5 -33.5t112.5 -37.5t118 -25.5q11 -1 23 -1q61 0 133 34z"/>
<glyph glyph-name="thonangmonthothai" horiz-adv-x="1921" unicode="ฑ" d="M315 750q27 0 50 9.5t40.5 26t27 39.5t9.5 49q0 28 -10 51t-27.5 39.5t-40.5 25.5t-49 9q-27 0 -50 -9.5t-40.5 -26.5t-27 -40t-9.5 -49q0 -28 10.5 -50.5t27.5 -39t40 -25.5t49 -9zM1540 0v1073q0 28 -4 57t-15.5 51.5t-31.5 37t-51 14.5q-35 0 -79 -34t-91.5 -94.5 t-96 -142.5t-92.5 -178q-44 -95 -83.5 -198t-69 -205.5t-44 -192.5t-14.5 -161v-27h-172v893q0 116 43 156q22 20 44 37t44 32q30 21 26 48.5t-25 53t-49 44t-46 22.5l-172 -115l-196 115q-33 -12 -64 -31.5t-55.5 -46t-40 -60.5t-17.5 -75q13 13 30.5 21.5t35.5 13.5 t35 7.5t29 2.5q54 0 100 -16.5t79.5 -48.5t52.5 -78.5t19 -106.5q0 -63 -24.5 -109t-62 -76t-82 -45t-85.5 -15h-4q-78 0 -140 39t-99 108.5t-41 125t-4 73.5q0 80 26 170q14 47 39 87t56.5 72t66 56t67 39t52.5 19t32 4q11 0 19 -3l176 -110l164 110q41 -12 88 -35.5 t87.5 -57.5t67.5 -77.5t27 -95.5q0 -24 -5.5 -42.5t-14.5 -33t-20.5 -26t-23.5 -21.5q-35 -30 -49 -59t-14 -71v-230q37 100 77.5 189.5t86.5 170.5q21 37 47 78.5t56.5 81.5t65.5 76t74 63.5t82 44t89 16.5q67 0 116.5 -26.5t81.5 -70t48 -99.5t16 -115v-1073h-168z"/>
<glyph glyph-name="thophuthaothai" horiz-adv-x="2130" unicode="ฒ" d="M1114 393q-30 -6 -48.5 -21.5t-28.5 -36.5t-13.5 -46.5t-3.5 -50.5q0 -17 4 -36t12.5 -35t22 -27t32.5 -11q23 0 23 35v229zM696 676q28 0 51 10t40 27t26.5 40.5t9.5 49.5q0 28 -10 51t-27.5 40t-40.5 26.5t-49 9.5q-28 0 -51 -10t-40 -27.5t-26.5 -40.5t-9.5 -49 q0 -28 10 -51t27 -40t40.5 -26.5t49.5 -9.5zM1749 0q-6 16 -25 44.5t-49.5 63t-71 72.5t-90 74t-107 67.5t-120.5 51.5v-217q0 -82 -41 -131.5t-123 -49.5q-57 0 -99 25.5t-69 65.5t-40 89.5t-13 98.5q0 53 13.5 98.5t40.5 79.5t67 55t92 25v406q0 62 -5.5 111.5t-23 90.5 t-49 76.5t-82.5 69.5l-221 -144l-221 144q-69 -36 -118 -78.5t-80 -89.5t-45.5 -99t-15.5 -106q-1 -47 8 -94.5t25.5 -96.5t39.5 -98.5t51 -99.5q1 -3 13.5 -25t27 -52t27 -61t14.5 -51q15 33 34 67t41 66t46.5 61t50.5 52q-48 15 -82.5 40.5t-57.5 58t-34 70.5t-11 79 q0 55 21 101t56 78.5t80 50.5t93 18q56 0 102 -21.5t79 -57.5t51 -82.5t18 -96.5q0 -52 -14 -89.5t-37 -62.5q-69 -74 -132 -149.5t-114 -155t-88.5 -164.5t-56.5 -178h-172q20 64 20 122q0 18 -5 62.5t-33 113t-67 135.5t-74 140t-55.5 147.5t-20.5 153.5q0 17 1 35 q4 90 38 166t88 139t124.5 113t147.5 86l237 -164l230 164q104 -53 167.5 -104.5t98 -110t46 -127t11.5 -153.5v-410q63 -17 128 -51.5t126.5 -77.5t115.5 -89.5t93 -88.5v1183h168v-1384h-168z"/>
<glyph glyph-name="nonenthai" horiz-adv-x="2077" unicode="ณ" d="M479 102q27 0 50 10t40.5 27t27 39.5t9.5 48.5q0 27 -10.5 50t-27.5 39.5t-40.5 26t-48.5 9.5q-27 0 -50 -10t-40.5 -27t-27 -39.5t-9.5 -48.5q0 -27 10.5 -50t27.5 -39.5t40 -26t49 -9.5zM1917 283q0 77 -31 126.5t-104 57.5v-311q0 -36 21 -43.5t46.5 9.5t46.5 58 t21 103zM2048 283q0 -61 -20 -117t-55.5 -99t-85 -69t-109.5 -26q-35 0 -65 11.5t-52 31.5t-34.5 48.5t-12.5 63.5v332q-74 -20 -145 -62.5t-130.5 -103t-104.5 -135.5t-67 -158h-163v1020q0 72 -29.5 122.5t-77.5 81.5t-108.5 45t-122.5 14q-91 0 -176.5 -26t-157.5 -73 q84 -29 158.5 -72.5t140.5 -99.5q-121 -19 -177.5 -93t-56.5 -186v-279q14 8 36.5 14.5t53.5 6.5q55 0 99 -20t75 -54t47.5 -79.5t16.5 -96.5q0 -54 -18.5 -100t-50.5 -79t-76.5 -52t-96.5 -19q-57 0 -104 19t-80.5 53t-51.5 80.5t-18 101.5v496q0 48 10 93.5t31 84.5 t53.5 69.5t77.5 47.5q-72 51 -152 83t-163 52q118 129 266 193.5t312 64.5q108 0 201.5 -18.5t162.5 -63.5t108.5 -120.5t39.5 -190.5v-721q37 58 86.5 106t106.5 85.5t119.5 64t125.5 43.5v786h168v-786q138 -21 202 -101.5t64 -213.5z"/>
<glyph glyph-name="dodekthai" horiz-adv-x="1495" unicode="ด" d="M696 676q28 0 51 10t40 27t26.5 40.5t9.5 49.5q0 28 -10 51t-27.5 40t-40.5 26.5t-49 9.5q-28 0 -51 -10t-40 -27.5t-26.5 -40.5t-9.5 -49q0 -28 10 -51t27 -40t40.5 -26.5t49.5 -9.5zM1114 0v926q0 96 -32 165.5t-87.5 114.5t-131 66.5t-163.5 21.5q-98 0 -180.5 -24.5 t-142.5 -73t-93.5 -121.5t-33.5 -170q0 -87 23 -162.5t53.5 -148t61 -147t46.5 -160.5q15 27 31.5 53t39 57.5t53 71t73.5 92.5q-48 15 -84 43t-60 64t-34.5 79t-6.5 89q5 51 27 91.5t55.5 69.5t76.5 44.5t91 15.5q56 0 102 -21.5t79 -56.5t51 -80t18 -92q0 -58 -14 -96.5 t-37 -63.5q-83 -91 -153 -175.5t-138 -172.5q-100 -129 -133 -299h-168q16 70 16 133q0 33 -4 64q-9 60 -28 118.5t-42.5 116.5t-48.5 115.5t-46 116.5t-34.5 120t-13.5 125q0 118 40.5 213t117.5 162.5t188 104t252 36.5q123 0 230 -33.5t186 -98.5t124.5 -159.5 t45.5 -215.5v-918h-172z"/>
<glyph glyph-name="totaothai" horiz-adv-x="1495" unicode="ต" d="M696 676q28 0 51.5 9.5t40.5 27t26 40.5t9 50q0 28 -10 51t-27.5 40t-40.5 26.5t-49 9.5q-28 0 -51 -10t-40 -27.5t-26.5 -40.5t-9.5 -49q0 -28 10 -51t27 -40t40.5 -26.5t49.5 -9.5zM1114 0v918q0 63 -11.5 112.5t-35 91t-59.5 76.5t-86 68l-222 -144l-221 144 q-118 -67 -173.5 -155.5t-55.5 -209.5q0 -94 28 -188.5t78 -200.5q26 -57 46.5 -112.5t31.5 -112.5q15 27 31.5 53t39 57.5t53 71t73.5 92.5q-96 31 -140.5 99t-44.5 149v18q3 50 24 92.5t55.5 73t78.5 47.5t92 17q56 0 102 -21.5t79 -57.5t51 -82.5t18 -96.5q0 -52 -14 -89 t-37 -63q-81 -90 -152 -175t-139 -173q-100 -129 -133 -299h-168q16 70 16 133q0 33 -4 64q-12 86 -47 167.5t-74 167.5q-19 43 -37 87.5t-31 91t-19 88.5t-6 79q0 16 1 31q4 89 30.5 168t73 143.5t111.5 113.5t146 79l237 -164l230 164q85 -43 151.5 -90t112 -105.5 t69 -131.5t23.5 -168v-918h-172z"/>
<glyph glyph-name="thothungthai" horiz-adv-x="1479" unicode="ถ" d="M479 102q27 0 50 10t40.5 27t27 39.5t9.5 48.5q0 27 -10.5 50t-27.5 39.5t-40.5 26t-48.5 9.5q-27 0 -50 -10t-40.5 -27t-27 -39.5t-9.5 -48.5q0 -27 10.5 -50t27.5 -39.5t40 -26t49 -9.5zM1098 0v963q0 79 -34 138t-88.5 98.5t-122.5 59t-136 19.5q-107 0 -208.5 -38.5 t-180.5 -104.5q164 -46 295 -156q-51 -15 -92.5 -42t-71 -63.5t-45.5 -81.5t-17 -96v-239q14 8 36.5 13t53.5 5q57 0 101 -20t74.5 -54t46.5 -79.5t16 -96.5q0 -54 -18.5 -100t-51 -79t-77 -52t-96.5 -19q-57 0 -104 19t-80 53t-51 80.5t-18 101.5v459q0 51 8.5 93.5t28 78 t50.5 63t77 48.5q-77 54 -152.5 81t-154.5 38q60 71 131.5 130.5t151.5 102t167.5 66.5t180.5 24q114 0 214.5 -28t174.5 -84t117 -140.5t43 -197.5v-963h-168z"/>
<glyph glyph-name="thothahanthai" horiz-adv-x="1642" unicode="ท" d="M336 1024q28 0 51.5 9.5t40 27t26 40.5t9.5 50q0 28 -9.5 51.5t-27 40.5t-40.5 26t-50 9q-28 0 -51 -10t-40 -27t-26.5 -40t-9.5 -50q0 -28 10 -51.5t27 -40t40 -26t50 -9.5zM1257 0v1073q0 28 -4 57t-15 51.5t-31 37t-52 14.5q-34 0 -77 -34t-90.5 -94.5t-96 -143 t-93.5 -177.5t-85 -198t-69 -205.5t-43.5 -192.5t-14.5 -161v-27h-168v921q-14 -8 -36 -14t-48 -6q-56 0 -101.5 19.5t-78 53.5t-50.5 80t-18 99q0 56 19 102.5t52.5 79.5t79.5 51.5t99 18.5q56 0 102 -20t79 -54.5t51 -81t18 -98.5v-487q48 118 100.5 225.5t116.5 210.5 q33 52 72 103t84 91t97 65t111 25q68 0 117.5 -27.5t82 -71.5t48 -99.5t15.5 -112.5v-1073h-173z"/>
<glyph glyph-name="thothongthai" horiz-adv-x="1311" unicode="ธ" d="M1180 1225q-84 -34 -153 -34q-9 0 -18 1q-58 3 -113 16.5t-110 28t-109.5 26t-111.5 11.5t-97.5 -20.5t-66 -47t-38.5 -49.5t-15 -27q128 -8 243.5 -28.5t229.5 -51.5q73 -20 123.5 -46.5t82 -64t45 -90t13.5 -124.5v-459q0 -84 -12.5 -136t-44 -81t-86.5 -39t-139 -10 h-610v147h159v693h160v-693h291q37 0 60.5 5.5t37.5 19t19.5 36.5t5.5 58v443q0 40 -2.5 70.5t-12.5 53.5t-30.5 40.5t-57.5 31.5q-72 28 -158.5 50t-177 37t-161.5 20.5t-121 5.5q-30 0 -58 -2q-5 0 -5 11q0 7 3.5 26t18.5 57q19 48 55.5 101.5t90 98.5t122.5 74t154 29 q65 0 120.5 -12t107.5 -28t103 -31t107 -21q9 -1 18 -1q50 0 109 28z"/>
<glyph glyph-name="nonuthai" horiz-adv-x="1606" unicode="น" d="M336 1024q28 0 51.5 9.5t40 27t26 40.5t9.5 50q0 28 -9.5 51.5t-27 40.5t-40.5 26t-50 9q-28 0 -51 -10t-40 -27t-26.5 -40t-9.5 -50q0 -28 10 -51.5t27 -40t40 -26t50 -9.5zM1446 283q0 78 -33 127t-102 57v-311q0 -36 21 -43.5t46.5 9.5t46.5 58t21 103zM1573 283 q0 -62 -20 -118t-56 -99t-86 -68.5t-110 -25.5q-34 0 -63.5 11t-51.5 31t-34.5 48.5t-12.5 64.5v340q-123 -21 -222 -87q-50 -33 -99 -77.5t-92.5 -94.5t-79.5 -103.5t-60 -104.5h-168v920q-14 -8 -35 -13.5t-47 -5.5q-56 0 -102 19.5t-79 53.5t-51 80t-18 99q0 56 19 102.5 t52.5 79.5t79.5 51.5t99 18.5q56 0 102 -20t79 -54.5t51 -81t18 -98.5v-885q69 94 145 155.5t149 98.5q75 37 142.5 55.5t116.5 30.5v778h172v-786q138 -22 200 -103.5t62 -211.5z"/>
<glyph glyph-name="bobaimaithai" horiz-adv-x="1597" unicode="บ" d="M336 1024q28 0 51.5 9.5t40 27t26 40.5t9.5 50q0 28 -9.5 51.5t-27 40.5t-40.5 26t-50 9q-28 0 -51 -10t-40 -27t-26.5 -40t-9.5 -50q0 -28 10 -51.5t27 -40t40 -26t50 -9.5zM1384 266q0 -84 -12 -136t-45 -81t-90 -39t-147 -10h-844v147h172v773q-14 -8 -35.5 -13.5 t-47.5 -5.5q-56 0 -102 19.5t-79 53.5t-51.5 80t-18.5 99q0 56 19.5 102.5t53.5 79.5t80 51.5t99 18.5q56 0 102 -20t79 -54.5t51 -81t18 -98.5v-1004h504q36 0 60.5 5.5t39.5 19t21 36.5t6 58v1118h167v-1118z"/>
<glyph glyph-name="poplathai" horiz-adv-x="1597" unicode="ป" d="M336 1024q28 0 51.5 9.5t40 27t26 40.5t9.5 50q0 28 -9.5 51.5t-27 40.5t-40.5 26t-50 9q-28 0 -51 -10t-40 -27t-26.5 -40t-9.5 -50q0 -28 10 -51.5t27 -40t40 -26t50 -9.5zM1384 266q0 -84 -12 -136t-45 -81t-90 -39t-147 -10h-844v147h172v773q-14 -8 -35.5 -13.5 t-47.5 -5.5q-56 0 -102 19.5t-79 53.5t-51.5 80t-18.5 99q0 56 19.5 102.5t53.5 79.5t80 51.5t99 18.5q56 0 102 -20t79 -54.5t51 -81t18 -98.5v-1004h504q36 0 60.5 5.5t39.5 19t21 36.5t6 58v1766h167v-1766z"/>
<glyph glyph-name="phophungthai" horiz-adv-x="1532" unicode="ผ" d="M463 1024q28 0 51 10t40 27t26.5 40.5t9.5 49.5q0 28 -10 51t-27.5 40t-40.5 26.5t-49 9.5q-28 0 -51 -10t-40 -27t-26.5 -40t-9.5 -50q0 -28 10 -51.5t27 -40t40 -26t50 -9.5zM1147 0q0 39 -3.5 73t-12.5 65t-25 59.5t-41 56.5l-299 332l-299 -332q-25 -28 -41 -56.5 t-25 -59.5t-12.5 -65t-3.5 -73h-172v1147q0 57 18 104t50.5 81.5t77.5 53.5t100 19q57 0 103.5 -19.5t80 -53t52 -79.5t18.5 -100q0 -57 -19.5 -103.5t-54 -79.5t-80.5 -51t-100 -18q-40 0 -74 17v-562l381 418l381 -418v1028h168v-1384h-168z"/>
<glyph glyph-name="fofathai" horiz-adv-x="1528" unicode="ฝ" d="M463 1024q28 0 51 10t40 27t26.5 40.5t9.5 49.5q0 28 -10 51t-27.5 40t-40.5 26.5t-49 9.5q-28 0 -51 -10t-40 -27t-26.5 -40t-9.5 -50q0 -28 10 -51.5t27 -40t40 -26t50 -9.5zM1147 0q0 39 -3.5 73t-12.5 65t-25 59.5t-41 56.5l-299 332l-299 -332q-25 -28 -41 -56.5 t-25 -59.5t-12.5 -65t-3.5 -73h-172v1147q0 57 18 104t50.5 81.5t77.5 53.5t100 19q57 0 103.5 -19.5t80 -53t52 -79.5t18.5 -100q0 -57 -19.5 -103.5t-54 -79.5t-80.5 -51t-100 -18q-40 0 -74 17v-562l381 418l381 -418v1676h168v-2032h-168z"/>
<glyph glyph-name="phophanthai" horiz-adv-x="1769" unicode="พ" d="M336 1024q28 0 51.5 9.5t40 27t26 40.5t9.5 50q0 28 -9.5 51.5t-27 40.5t-40.5 26t-50 9q-28 0 -51 -10t-40 -27t-26.5 -40t-9.5 -50q0 -28 10 -51.5t27 -40t40 -26t50 -9.5zM1413 0q-1 -1 -2.5 16t-5.5 43.5t-11 56.5t-18 56l-377 885l-376 -885q-19 -42 -25 -85.5 t-12 -86.5h-168v918q-29 -17 -82 -17q-56 0 -102 19.5t-79 53.5t-51 80t-18 99q0 56 19 102.5t52.5 79.5t79.5 51.5t99 18.5q56 0 102 -20t79 -54.5t51 -81t18 -98.5v-700l413 933l414 -942v942h168v-1384h-168z"/>
<glyph glyph-name="fofanthai" horiz-adv-x="1794" unicode="ฟ" d="M336 1024q28 0 51.5 9.5t40 27t26 40.5t9.5 50q0 28 -9.5 51.5t-27 40.5t-40.5 26t-50 9q-28 0 -51 -10t-40 -27t-26.5 -40t-9.5 -50q0 -28 10 -51.5t27 -40t40 -26t50 -9.5zM1413 0q-1 -1 -2.5 16t-5.5 43.5t-11 56.5t-18 56l-377 885l-376 -885q-19 -42 -25 -85.5 t-12 -86.5h-168v918q-29 -17 -82 -17q-56 0 -102 19.5t-79 53.5t-51 80t-18 99q0 56 19 102.5t52.5 79.5t79.5 51.5t99 18.5q56 0 102 -20t79 -54.5t51 -81t18 -98.5v-700l413 933l414 -942v1590h168v-2032h-168z"/>
<glyph glyph-name="phosamphaothai" horiz-adv-x="1651" unicode="ภ" d="M319 102q27 0 50 10t40.5 27t27 39.5t9.5 48.5q0 27 -10.5 50t-27.5 39.5t-40.5 26t-48.5 9.5q-27 0 -50 -9.5t-40 -26.5t-26.5 -40t-9.5 -49q0 -27 10 -50t27 -39.5t40 -26t49 -9.5zM1266 0v963q0 155 -113 235t-268 80q-106 0 -206.5 -39t-178.5 -104q78 -26 153.5 -63 t137.5 -93q-105 -29 -163.5 -103t-58.5 -180v-475q0 -57 -19 -102.5t-53 -77.5t-79.5 -49t-98.5 -17q-56 0 -102.5 19t-80 52.5t-52 79t-18.5 99.5q0 57 19.5 103t53.5 79t80.5 50.5t99.5 17.5q51 0 82 -16v229q0 51 8 93.5t26.5 78t49.5 63t76 48.5q-77 54 -152.5 81 t-154.5 38q61 70 132.5 129t151.5 102t167 67.5t180 24.5q114 0 215 -28t176 -84t118.5 -140.5t43.5 -197.5v-963h-172z"/>
<glyph glyph-name="momathai" horiz-adv-x="1634" unicode="ม" d="M496 475q-52 -1 -87.5 -21.5t-56.5 -53.5t-28 -74t-1 -83q4 -24 13.5 -48t25 -42.5t36 -28.5t46.5 -7q52 6 52 71v287zM418 1024q28 0 51 10t40 27t26.5 40.5t9.5 49.5q0 28 -10 51t-27.5 40t-40.5 26.5t-49 9.5q-28 0 -51 -10t-40 -27t-26.5 -40t-9.5 -50 q0 -28 10 -51.5t27 -40t40 -26t50 -9.5zM1253 0q-3 44 -21.5 86.5t-47 81.5t-64.5 74t-74 65t-76 54t-71 40q-54 26 -111.5 43t-119.5 23v-254q0 -54 -14.5 -97.5t-43 -75t-72 -48.5t-100.5 -17q-65 0 -114.5 26.5t-82.5 70t-49 99.5t-14 116q1 60 21 116t59.5 100t98.5 72 t139 31v312q-29 -17 -78 -17q-57 0 -103.5 19t-80 52.5t-52 80t-18.5 100.5q0 57 19.5 103.5t53.5 79.5t80.5 51t100.5 18q56 0 102 -20t79 -54.5t51 -81t18 -98.5v-545q110 -8 204 -43t168.5 -82t128.5 -98.5t84 -91.5v1093h168v-1384h-168z"/>
<glyph glyph-name="yoyakthai" horiz-adv-x="1421" unicode="ย" d="M479 1057q38 -1 64 16.5t39 44.5t12.5 57.5t-13 57.5t-38.5 44t-64 17q-27 0 -48.5 -9t-37.5 -25t-24.5 -38t-8.5 -47q0 -27 9 -49t25 -37t38 -23.5t47 -8.5zM1208 266q0 -84 -13.5 -136t-47 -81t-91.5 -39t-147 -10h-590q-29 0 -54.5 11.5t-44 30.5t-29.5 44.5t-11 52.5 v205q0 58 11.5 102t29.5 77t41 56t45.5 38t43 24t34.5 14q-128 48 -193 140.5t-65 224.5q0 74 26.5 144.5t74 126t112 89t139.5 33.5q51 0 95 -19t75.5 -52t49.5 -76.5t18 -92.5q0 -54 -18 -98t-49.5 -75.5t-75.5 -48.5t-95 -17q-47 0 -79.5 11.5t-53.5 25.5t-32.5 27.5 t-14.5 17.5v-18q0 -66 28.5 -117t76 -84.5t102.5 -48.5t100 -15h25v-155q-63 1 -115 -12.5t-89.5 -42.5t-58 -74t-20.5 -106v-142q0 -54 53 -54h508q36 0 60.5 5.5t39.5 19t21 36.5t6 58v1118h172v-1118z"/>
<glyph glyph-name="roruathai" horiz-adv-x="1188" unicode="ร" d="M676 102q27 0 50 10t40.5 27t27 39.5t9.5 48.5q0 27 -10.5 50t-27.5 39.5t-40.5 26t-48.5 9.5q-27 0 -50.5 -9.5t-40.5 -26.5t-26.5 -40t-9.5 -49q0 -28 10 -51t27.5 -39.5t40.5 -25.5t49 -9zM1077 1225q-85 -33 -155 -33h-15q-58 3 -113 16.5t-110 28t-109.5 26 t-111.5 11.5t-97.5 -20.5t-66.5 -47t-39 -49.5t-14 -27q121 -10 223 -29.5t200 -50.5q35 -11 74.5 -25t74 -34t60.5 -47.5t35 -63.5q13 -48 13 -155v-520q0 -56 -20 -99t-54 -72t-79.5 -44t-96.5 -15q-56 0 -103 19t-80.5 52t-52 79t-18.5 100q0 57 19.5 103t54 79t81 50.5 t99.5 17.5q62 0 94 -16v271q0 38 -3.5 64t-14 45t-31 34t-53.5 32q-34 17 -83 31.5t-105 27t-116.5 22t-118.5 16.5t-109.5 10.5t-90.5 3.5q-5 0 -5 11q0 7 3.5 26t17.5 57q19 49 55.5 102.5t90 98t122.5 73.5t154 29q61 0 116 -12t108 -28t105.5 -31t108.5 -21q9 -1 18 -1 q51 0 110 28z"/>
<glyph glyph-name="ruthai" horiz-adv-x="1479" unicode="ฤ" d="M479 102q27 0 50 10t40.5 27t27 39.5t9.5 48.5q0 27 -10.5 50t-27.5 39.5t-40.5 26t-48.5 9.5q-27 0 -50 -10t-40.5 -27t-27 -39.5t-9.5 -48.5q0 -27 10.5 -50t27.5 -39.5t40 -26t49 -9.5zM1098 -725v1688q0 79 -34 138t-88.5 98.5t-122.5 59t-136 19.5 q-107 0 -208.5 -38.5t-180.5 -104.5q164 -46 295 -156q-104 -31 -162 -105.5t-60 -177.5v-240q14 8 34.5 13.5t51.5 5.5q55 0 99 -20t75 -54t47.5 -79.5t16.5 -96.5q0 -54 -17.5 -100t-49 -79t-75.5 -52t-96 -19q-57 0 -104.5 19t-81.5 53t-53 80.5t-19 101.5v459 q0 51 8.5 93.5t28 78t50.5 63t77 48.5q-77 54 -152.5 81t-154.5 38q60 71 131.5 130.5t151.5 102t167.5 66.5t180.5 24q114 0 214.5 -28t174.5 -84t117 -140.5t43 -197.5v-1688h-168z"/>
<glyph glyph-name="lolingthai" horiz-adv-x="1430" unicode="ล" d="M475 98q57 0 92 36t35 91q0 29 -9.5 52.5t-27 40t-40.5 25.5t-50 9q-28 0 -51 -10t-40 -27.5t-26.5 -40.5t-9.5 -49q0 -28 10 -51t27 -40t40.5 -26.5t49.5 -9.5zM1044 0q2 17 0 45.5t-14 67.5q-11 34 -26 86t-35 113.5t-45 128t-55.5 130.5t-67 121t-78.5 99t-91 65.5 t-104 20.5q-53 -3 -87.5 -33.5t-55 -75.5t-29 -98.5t-9.5 -104.5q-1 -36 1 -68t6 -55q28 17 56 25t65 8q54 0 100 -19t79 -52t52 -78t19 -97q0 -57 -19 -103.5t-52 -80t-79 -52t-100 -18.5q-75 0 -125 31t-82 81.5t-47.5 114.5t-21 126t-5.5 118q0 9 0.5 45.5t2.5 86.5 q3 78 20 153.5t53 136.5t93 102t141 50q60 6 115 -10t103.5 -47.5t90.5 -75t77 -92.5t62 -100.5t45 -98.5q19 -48 29.5 -76t17.5 -48v482q0 83 -32 144t-85 101t-121.5 59.5t-141.5 19.5q-135 0 -247 -58.5t-188 -162.5l-110 86q24 41 73 88t119.5 87.5t161.5 67.5t199 27 q115 0 214.5 -30t173 -88.5t115.5 -144t42 -196.5v-954h-173z"/>
<glyph glyph-name="luthai" horiz-adv-x="1651" unicode="ฦ" d="M319 102q27 0 50 10t40.5 27t27 39.5t9.5 48.5q0 27 -10.5 50t-27.5 39.5t-40.5 26t-48.5 9.5q-27 0 -50 -9.5t-40 -26.5t-26.5 -40t-9.5 -49q0 -27 10 -50t27 -39.5t40 -26t49 -9.5zM1266 -725v1688q0 81 -33 140.5t-87 98.5t-122.5 57.5t-138.5 18.5q-106 0 -206.5 -39 t-178.5 -104q78 -26 153.5 -63t137.5 -93q-51 -14 -92 -40.5t-70 -63.5t-44.5 -82.5t-15.5 -96.5v-475q0 -57 -19 -102.5t-53 -77.5t-79.5 -49t-98.5 -17q-56 0 -102.5 19t-80 52.5t-52 79t-18.5 99.5q0 57 19.5 103t53.5 79t80.5 50.5t99.5 17.5q51 0 82 -16v229 q0 51 8 93.5t26.5 78t49.5 63t76 48.5q-77 54 -152.5 81t-154.5 38q63 72 135 131t151 102t165.5 66.5t179.5 23.5q114 0 215 -28t176 -84t118.5 -140.5t43.5 -197.5v-1688h-172z"/>
<glyph glyph-name="wowaenthai" horiz-adv-x="1282" unicode="ว" d="M803 102q27 0 50 10t40.5 27t27 39.5t9.5 48.5q0 27 -10.5 50t-27.5 39.5t-40.5 26t-48.5 9.5q-27 0 -50.5 -9.5t-40.5 -26.5t-26.5 -40t-9.5 -49q0 -28 10 -51t27.5 -39.5t40.5 -25.5t49 -9zM1090 240q0 -46 -18 -93.5t-53.5 -86.5t-86.5 -62t-114 -23h-11 q-56 1 -104.5 19.5t-84 51t-55.5 78t-20 101.5q0 57 20.5 103t56 79t82.5 50.5t101 17.5q71 0 127 -24v503q0 80 -26 141t-72.5 101.5t-109.5 61t-136 20.5q-64 0 -124 -17t-113 -48t-97 -74t-76 -95l-102 86q42 67 98.5 119.5t123 89t140 55.5t150.5 19q109 0 201 -31 t159.5 -90t105.5 -144.5t38 -193.5v-714z"/>
<glyph glyph-name="sosalathai" horiz-adv-x="1495" unicode="ศ" d="M672 705q27 0 50 9.5t40.5 26t27 39.5t9.5 49q0 28 -10 51t-27.5 39.5t-40.5 25.5t-49 9q-27 0 -50.5 -9.5t-40.5 -26.5t-26.5 -40t-9.5 -49q0 -28 10 -50.5t27.5 -39t40.5 -25.5t49 -9zM1044 1130q-64 83 -154 121.5t-194 38.5q-37 0 -83.5 -6t-95 -22t-95 -42.5 t-83 -67t-59 -95.5t-22.5 -128q0 -45 6.5 -89.5t20 -82.5t33.5 -69t47 -49v98q0 75 19.5 138t58.5 108.5t96.5 71.5t132.5 26q25 0 50.5 -4.5t49.5 -13.5t44.5 -22.5t35.5 -32.5q54 21 102 53t90 69zM1413 1397q-29 -75 -70.5 -142.5t-97.5 -119.5q23 -51 32 -95t9 -94v-946 h-172v972q0 8 -1.5 20t-6.5 24q-46 -35 -95.5 -63.5t-101.5 -43.5q15 -38 16 -60.5t1 -33.5q0 -53 -21.5 -97t-57 -75t-81 -48t-94.5 -17q-45 0 -86 14t-66 39v-631h-172v455q-115 78 -180.5 198t-65.5 273q0 124 51.5 217t135.5 155t190.5 92.5t216.5 30.5q130 0 248.5 -39 t210.5 -125q13 17 28 43t29.5 55t26.5 59t18 56z"/>
<glyph glyph-name="sorusithai" horiz-adv-x="1642" unicode="ษ" d="M336 1024q28 0 51.5 9.5t40 27t26 40.5t9.5 50q0 28 -9.5 51.5t-27 40.5t-40.5 26t-50 9q-28 0 -51 -10t-40 -27t-26.5 -40t-9.5 -50q0 -28 10 -51.5t27 -40t40 -26t50 -9.5zM909 668q24 0 44 8.5t35 23.5t23.5 35t8.5 43q0 24 -9 44.5t-24 35t-35.5 23t-42.5 8.5 q-50 0 -80 -32t-30 -79q0 -50 31 -80t79 -30zM1651 979q-5 -103 -33 -174t-67.5 -119t-84.5 -77t-82 -48v-295q0 -84 -12 -136t-45 -81t-90 -39t-147 -10h-844v147h172v771q-29 -17 -82 -17q-56 0 -102.5 19.5t-80 53.5t-52 80t-18.5 99q0 56 19.5 102.5t53.5 79.5 t80.5 51.5t99.5 18.5q56 0 102 -20t79 -54.5t51 -81t18 -98.5v-1004h504q36 0 60.5 5.5t39.5 19t21 36.5t6 58v246q-50 -12 -136 -12q-41 0 -85.5 7t-88.5 22t-83.5 37.5t-69.5 52.5t-48 69t-18 86q0 33 10 71.5t35 72t68 55.5t108 22q50 0 92 -17t72.5 -47t47.5 -70.5 t17 -86.5q-1 -42 -16.5 -81t-48.5 -62q36 -7 74 -6t70 10v749h167v-688q10 7 29.5 24.5t40.5 50t39 83t23 125.5h135z"/>
<glyph glyph-name="sosuathai" horiz-adv-x="1430" unicode="ส" d="M475 98q57 0 92 36t35 91q0 29 -9.5 52.5t-27 40t-40.5 25.5t-50 9q-28 0 -51 -10t-40 -27.5t-26.5 -40.5t-9.5 -49q0 -28 10 -51t27 -40t40.5 -26.5t49.5 -9.5zM1044 954q0 16 -0.5 27.5t-1 20t-2 16.5t-4.5 18q-60 -44 -115 -78.5t-114 -56.5q43 -44 77.5 -95.5 t63 -106t52 -111.5t44.5 -113v479zM1311 1430q-23 -75 -57 -143.5t-87 -119.5q31 -47 40.5 -103t9.5 -110v-954h-173q4 32 -14 113q-19 81 -53.5 180.5t-83.5 205.5q-15 32 -35.5 73.5t-47 85t-57.5 85t-67 73t-75.5 49t-82.5 12.5q-46 -6 -78 -31.5t-52.5 -63.5t-31 -84 t-14 -93t-1.5 -90.5t7 -75.5q18 14 49 25t68 11q54 0 100 -19t79 -52t52 -78t19 -97q0 -57 -19 -103.5t-52 -80t-79 -52t-100 -18.5q-65 0 -110 21.5t-75 57.5t-47.5 83t-27 98.5t-13 103t-5.5 97.5q-3 62 0 127t14.5 127t33 118.5t57 100.5t85 73.5t117.5 37.5 q33 4 61.5 1.5t55 -9.5t52 -18t52.5 -23q76 33 139.5 78t122.5 98q-63 69 -149 100t-174 31q-135 0 -247 -58.5t-188 -162.5l-110 86q33 48 83 96t118.5 86.5t156 63t195.5 24.5q56 0 112.5 -7.5t110 -24t101 -43t85.5 -64.5q28 51 46 100t28 105z"/>
<glyph glyph-name="hohipthai" horiz-adv-x="1642" unicode="ห" d="M336 1024q28 0 51.5 9.5t40 27t26 40.5t9.5 50q0 28 -9.5 51.5t-27 40.5t-40.5 26t-50 9q-28 0 -51 -10t-40 -27t-26.5 -40t-9.5 -50q0 -28 10 -51.5t27 -40t40 -26t50 -9.5zM1180 1028q27 0 50 10t40.5 27t27 39.5t9.5 48.5q0 27 -10.5 50t-27.5 39.5t-40.5 26 t-48.5 9.5q-27 0 -50.5 -9.5t-40.5 -26.5t-26.5 -40t-9.5 -49q0 -28 10 -51t27.5 -39.5t40.5 -25.5t49 -9zM1257 0v655q0 34 -6.5 66.5t-20 62t-34.5 53.5t-49 40q-69 -35 -130 -78.5t-113.5 -93.5t-96.5 -104.5t-80 -111.5q-36 -56 -62.5 -113.5t-44 -113.5t-26 -109 t-8.5 -100v-53h-168v920q-14 -8 -35 -13.5t-47 -5.5q-56 0 -102 19.5t-79 53.5t-51 80t-18 99q0 56 19 102.5t52.5 79.5t79.5 51.5t99 18.5q56 0 102 -20t79 -54.5t51 -81t18 -98.5v-635q49 102 114.5 180.5t143.5 143.5q78 64 168 114q-46 38 -69.5 89.5t-23.5 108.5 q0 55 21 101.5t57 80t83 52.5t100 19q56 0 102 -21t79 -56t51.5 -81t18.5 -96q-2 -72 -36.5 -128.5t-91.5 -88.5q35 -24 59 -56t39 -68.5t22 -76t7 -78.5v-655h-173z"/>
<glyph glyph-name="lochulathai" horiz-adv-x="1769" unicode="ฬ" d="M336 1024q28 0 51.5 9.5t40 27t26 40.5t9.5 50q0 28 -9.5 51.5t-27 40.5t-40.5 26t-50 9q-28 0 -51 -10t-40 -27t-26.5 -40t-9.5 -50q0 -28 10 -51.5t27 -40t40 -26t50 -9.5zM1352 1274q35 0 58.5 16t35.5 39.5t12 51t-12 51t-35.5 39.5t-58.5 16q-36 0 -59.5 -16 t-35.5 -39.5t-12 -51t12 -51t35.5 -39.5t59.5 -16zM1847 1487q-24 -66 -63 -117t-81.5 -88t-82.5 -59.5t-64 -30.5v-1192h-172v16q0 17 -1.5 43.5t-6.5 57t-16 55.5l-365 807l-372 -807q-20 -43 -28.5 -86t-8.5 -86h-168v918q-29 -17 -82 -17q-56 0 -102 19.5t-79 53.5 t-51 80t-18 99q0 56 19 102.5t52.5 79.5t79.5 51.5t99 18.5q56 0 102 -20t79 -54.5t51 -81t18 -98.5v-709l409 885l389 -885v713q-59 -3 -106 11.5t-80 44t-50.5 73.5t-17.5 100q0 50 19 89.5t50.5 67t73 42t87.5 14.5q48 0 89.5 -20t71 -53t44 -75.5t8.5 -88.5 q55 35 94 85.5t57 110.5z"/>
<glyph glyph-name="oangthai" horiz-adv-x="1462" unicode="อ" d="M479 618q27 0 50 10t40.5 27t27 39.5t9.5 48.5q0 28 -10 51t-27.5 39.5t-40.5 25.5t-49 9q-27 0 -50 -9.5t-40.5 -26.5t-27 -40t-9.5 -49q0 -27 10.5 -50t27.5 -39.5t40 -26t49 -9.5zM1249 266q0 -84 -12 -136t-45 -81t-90.5 -39t-147.5 -10h-426q-89 0 -147 10t-92 39 t-47 81t-13 136v475q0 19 4.5 45.5t15 54.5t29 56t47.5 49.5t68.5 35t93.5 13.5q55 0 100.5 -19.5t78 -53t50 -79.5t17.5 -98q0 -56 -19 -101.5t-52 -78.5t-78 -51t-97 -18q-28 0 -44.5 4t-41.5 12v-246q0 -38 7 -61t22 -36t39 -17.5t59 -4.5h426q36 0 60.5 5.5t39.5 19 t21 36.5t6 58v701q0 82 -33 142.5t-86.5 100t-122 59t-139.5 21.5h-16q-59 0 -118 -14t-114.5 -43t-103.5 -71t-86 -93l-106 86q28 43 77.5 90.5t118.5 87.5t157.5 66t195.5 26q115 0 214.5 -30.5t172.5 -88.5t115 -143t42 -196v-701z"/>
<glyph glyph-name="honokhukthai" horiz-adv-x="1462" unicode="ฮ" d="M479 496q27 0 50 9.5t40.5 26t27 39.5t9.5 49q0 28 -10 51t-27.5 39.5t-40.5 25.5t-49 9q-27 0 -50 -9.5t-40.5 -26.5t-27 -40t-9.5 -49q0 -28 10.5 -50.5t27.5 -39t40 -25.5t49 -9zM1044 1167q-38 37 -83 62.5t-94.5 40.5t-101 21.5t-101.5 6.5q-46 0 -101 -6.5 t-103 -20.5t-80 -36.5t-32 -54.5q0 -33 31 -53t78 -31.5t102.5 -15t104.5 -3.5t100 5t100 15.5t94.5 27.5t85.5 42zM1421 1339q-39 -58 -84.5 -106.5t-99.5 -86.5q2 -3 7 -21.5t5 -33.5v-825q0 -84 -12 -136t-45 -81t-90.5 -39t-147.5 -10h-426q-89 0 -147 10t-92 39t-47 81 t-13 136v352q0 19 4.5 45.5t15 54.5t29 56t47.5 49.5t68.5 35t93.5 13.5q56 0 101.5 -19.5t77.5 -53.5t49.5 -80t17.5 -99q0 -56 -18.5 -102t-51.5 -79t-78 -51.5t-98 -18.5q-28 0 -47 5.5t-39 14.5v-123q0 -38 7 -61t22 -36t39 -17.5t59 -4.5h426q36 0 60.5 5.5t39.5 19 t21 36.5t6 58v774q-20 -18 -65 -36.5t-102.5 -33.5t-123 -24t-126.5 -8q-53 1 -109.5 7t-110.5 18t-101.5 30t-83.5 43t-57.5 57.5t-21.5 73.5q0 46 22 83.5t60 66t87 49t103 34t108.5 19.5t103.5 6q67 0 134 -8.5t130.5 -27t121 -48t105.5 -71.5q37 33 74 76t74 88z"/>
<glyph glyph-name="paiyannoithai" horiz-adv-x="1401" unicode="ฯ" d="M426 1036q27 0 50 10t39 27t25 39.5t9 48.5q0 27 -9.5 50t-26 39.5t-39 26t-48.5 9.5q-27 0 -50 -10t-39 -27t-25 -39.5t-9 -48.5q0 -27 9.5 -50t26 -39.5t39 -26t48.5 -9.5zM1147 434q0 -208 -101 -320q-101 -110 -329 -167l-45 155q94 25 153.5 52t93.5 65.5t47 94 t13 137.5v458q-30 -69 -73.5 -123.5t-98.5 -91.5t-114.5 -53t-118.5 -16q-13 0 -27 1q-90 6 -165.5 40.5t-130.5 91t-86 132t-32 163.5v8q0 65 16 127.5t51 113t89 81t129 30.5q55 0 101 -19t79 -52t51 -78.5t17 -98.5q-1 -51 -18.5 -96t-48 -78.5t-73 -53t-92.5 -19.5 q-41 0 -73.5 7t-61.5 29q15 -43 41.5 -76.5t61.5 -56.5t75.5 -35t83.5 -12q60 -1 115 24t102.5 68.5t86 102.5t65 127t38.5 134.5t12 126.5q0 14 -1 27h168v-950z"/>
<glyph glyph-name="saraathai" horiz-adv-x="1130" unicode="ะ" d="M328 156q40 0 66.5 17.5t39.5 44t13 57t-13 57t-39.5 44t-66.5 17.5q-39 0 -65 -17.5t-39 -44t-13 -57t13 -57t39 -44t65 -17.5zM328 1065q29 0 51 10t37 26.5t22.5 38t7.5 44.5q0 21 -7.5 42.5t-22.5 38.5t-37 27.5t-51 10.5q-39 0 -65 -17.5t-39 -44t-13 -57.5 t13 -57.5t39 -44t65 -17.5zM979 475v-18q0 -106 -33.5 -191t-101 -145t-165 -90.5t-220.5 -30.5q-97 0 -167 21.5t-115.5 57t-69 81t-25 72.5t-1.5 33q0 40 14.5 82.5t47 78t79.5 57t106 21.5q63 0 109 -19t75.5 -49.5t44.5 -70t16 -80.5t-10.5 -80t-34.5 -70 q41 3 77.5 12.5t70.5 28.5q30 16 55.5 40.5t44 59.5t27 84t4.5 115h172zM979 1384v-18q0 -107 -33.5 -192.5t-101 -145t-165 -89.5t-220.5 -30q-97 0 -167 21.5t-115.5 57t-68.5 81t-24.5 72.5t-1.5 35q0 39 14.5 81t46.5 77.5t79 57t106 21.5q64 0 110.5 -20.5t76.5 -53 t44 -73.5t14 -82q0 -37 -11.5 -73t-33.5 -67q41 4 77.5 13t70.5 28q30 16 55.5 40.5t44 59.5t27 84t4.5 115h172z"/>
<glyph glyph-name="maihanakatthai" d="M-717 1868q38 4 62 24t34 47.5t7 57.5t-18 55t-42.5 40.5t-66.5 12.5t-64 -23t-36 -48t-8 -59t18.5 -56t44 -40t69.5 -11zM262 2159q-20 -89 -76.5 -177.5t-140.5 -161t-191 -121t-227 -57.5q-34 -3 -67 -3q-100 0 -209.5 29.5t-214.5 105.5q-35 26 -61 64.5t-38 90.5 q-7 29 -7 59q0 19 5 53.5t31 76.5t72 71t112 35q13 1 26 1q50 0 96.5 -18t81 -54.5t51 -84t13 -97t-29 -95t-74.5 -78.5q50 -12 103 -17t98 1q92 12 174.5 48t148 92t110.5 129.5t63 160.5z" unicode="ั"/>
<glyph glyph-name="saraaathai" horiz-adv-x="1208" unicode="า" d="M827 0v1012q0 69 -24.5 120t-65.5 85.5t-96.5 51.5t-116.5 17t-114 -18.5t-96.5 -50.5t-77.5 -76.5t-56 -96.5l-127 62q31 61 70.5 116.5t95 98t130 67.5t175.5 25q97 0 183 -26t150 -77.5t101 -128t37 -177.5v-1004h-168z"/>
<glyph glyph-name="saraamthai" horiz-adv-x="1208" unicode="ำ" d="M827 0v1012q0 69 -24.5 120t-65.5 85.5t-96.5 51.5t-116.5 17t-114 -18.5t-96.5 -50.5t-77.5 -76.5t-56 -96.5l-127 62q31 61 70.5 116.5t95 98t130 67.5t175.5 25q97 0 183 -26t150 -77.5t101 -128t37 -177.5v-1004h-168zM-299 1761q28 0 51.5 10t40.5 27.5t26 41 t9 50.5q0 28 -9.5 52t-27 41t-40.5 26.5t-50 9.5q-28 0 -52 -10t-41.5 -27.5t-27.5 -41t-10 -50.5q0 -29 10.5 -52.5t28.5 -40.5t41.5 -26.5t50.5 -9.5zM-299 1642q-56 0 -102.5 19t-80.5 52.5t-52.5 79t-18.5 99.5q0 57 19.5 103t54 78.5t81 50.5t99.5 18q57 0 103 -19 t78.5 -52.5t50.5 -79t18 -99.5q0 -57 -19 -103t-52.5 -79t-79 -50.5t-99.5 -17.5z"/>
<glyph glyph-name="saraithai" d="M-352 1749q-15 37 -40.5 85t-69 92.5t-108.5 78.5t-159 43q-55 5 -112.5 -7.5t-108.5 -40t-91 -68t-61 -89.5q97 12 155.5 14t81.5 2q72 0 144 -8q98 -11 193.5 -33t175.5 -69zM-176 1597q-128 45 -256 79.5t-260 47.5q-119 11 -231 11q-45 0 -143.5 -4t-248.5 -23 q13 68 45 131.5t77.5 118.5t102.5 99t121 73t119 39t95 10q29 0 59 -4q114 -14 205 -67t157.5 -131.5t106.5 -177t51 -202.5z" unicode="ิ"/>
<glyph glyph-name="saraiithai" d="M-350 1749q-15 37 -40.5 85t-69 92.5t-108.5 78.5t-159 43q-55 5 -112.5 -7.5t-108.5 -40t-91 -68t-61 -89.5q97 12 155.5 14t81.5 2q72 0 144 -8q98 -11 193.5 -33t175.5 -69zM-172 1597q-128 45 -256 79.5t-260 47.5q-119 11 -231 11q-45 0 -143.5 -4t-248.5 -23 q14 68 45.5 131.5t77 118.5t103 99.5t121.5 73.5t118 38.5t94 9.5q30 0 60 -4q106 -14 182 -51.5t133 -91.5v307h156v-553q20 -57 30.5 -106.5t18.5 -82.5z" unicode="ี"/>
<glyph glyph-name="sarauethai" d="M-348 1749q-17 37 -41.5 84t-66.5 91.5t-106.5 78.5t-162.5 45q-50 5 -107.5 -8.5t-110.5 -41t-94.5 -67.5t-60.5 -88q97 12 155.5 14t81.5 2q72 0 144 -8q99 -11 193.5 -32.5t175.5 -69.5zM-373 2040q22 0 40.5 8t32.5 22t22 32.5t8 39.5q0 22 -8.5 41t-22.5 32.5 t-32.5 21.5t-39.5 8q-22 0 -40.5 -8.5t-32 -22.5t-21.5 -32.5t-8 -39.5q0 -22 8 -41t22 -32.5t32.5 -21t39.5 -7.5zM-154 2134q0 -39 -10.5 -73.5t-29 -61.5t-43.5 -46t-54 -28q50 -80 76 -162t43 -166q-128 45 -256.5 79.5t-259.5 47.5q-119 11 -231 11q-45 0 -143.5 -4 t-248.5 -23q14 68 45.5 131.5t77 118t103 98.5t121.5 73.5t119 39t97 9.5q28 0 56 -3q28 -4 51 -8t47 -13q1 45 19.5 82t48.5 63.5t69 41t80 14.5q51 0 92 -16.5t70 -45.5t45 -70t16 -89z" unicode="ึ"/>
<glyph glyph-name="saraueethai" d="M-348 1749q-17 37 -41 84.5t-66 91.5t-107 78.5t-163 44.5q-51 5 -108 -7t-109.5 -39t-94 -67.5t-61.5 -91.5q97 12 155.5 14t81.5 2q72 0 144 -8q99 -11 190 -33.5t179 -68.5zM-172 1597q-128 45 -256 79.5t-260 47.5q-119 11 -231 11q-45 0 -143.5 -4t-248.5 -23 q14 68 45.5 131.5t77 118t103 98t123 72.5t122 39t98.5 10q31 0 62 -4v166h152v-205q46 -20 82.5 -46t68.5 -56v307h156v-553q20 -57 30.5 -106.5t18.5 -82.5z" unicode="ื"/>
<glyph glyph-name="sarauthai" d="M-451 -553q55 0 87 34.5t32 86.5q0 55 -33.5 88t-85.5 33q-27 0 -49 -9.5t-37 -26t-23.5 -38.5t-8.5 -47q0 -54 33.5 -87.5t84.5 -33.5zM-377 -999v343q-20 -5 -36.5 -8.5t-41.5 -3.5q-51 0 -94 19t-74 51.5t-48 75.5t-17 92q0 54 18 98t50 74.5t75.5 47.5t93.5 17 q54 0 98 -17t75 -48t48 -73.5t17 -94.5v-573h-164z" unicode="ุ"/>
<glyph glyph-name="sarauuthai" d="M-815 -553q41 0 68.5 18t41 45t13.5 58t-13.5 58t-41 45t-68.5 18q-54 0 -86.5 -35t-32.5 -86q0 -54 34 -87.5t85 -33.5zM-213 -793q0 -56 -23.5 -100t-61 -75t-84 -47.5t-93.5 -16.5q-52 0 -99.5 18t-83.5 50t-57.5 75.5t-21.5 95.5v134q-26 -6 -42.5 -7.5t-39.5 -1.5 q-51 0 -94 19t-74 51t-48.5 75.5t-17.5 92.5q0 54 18 98t50 75t75.5 47.5t94.5 16.5q55 0 99.5 -16.5t76 -47.5t49 -74t17.5 -95v-317q0 -30 3 -58.5t13.5 -50.5t30.5 -35.5t55 -13.5q18 0 35 7t30 19.5t21 30.5t8 41v594h164v-584z" unicode="ู"/>
<glyph glyph-name="phinthuthai" d="M-299 -512q-27 0 -50.5 10.5t-40.5 28t-26.5 41t-9.5 49.5q0 27 10 51t27.5 41t40.5 27t49 10q28 0 51.5 -10t40.5 -27.5t26 -41t9 -50.5q0 -29 -9.5 -52.5t-27 -40.5t-40.5 -26.5t-50 -9.5z" unicode="ฺ"/>
<glyph glyph-name="PUCR2005" unicode="฾"/>
<glyph glyph-name="bahtthai" horiz-adv-x="1593" unicode="฿" d="M655 795h-241v-594h241v594zM1270 512q-1 86 -32.5 141t-83.5 86.5t-118.5 43.5t-138.5 12h-98v-594h176h10q75 0 130.5 29t90.5 75.5t50 101.5t14 105zM655 1544h-241v-549h241v549zM1188 1253q0 24 -5 55t-20 64t-41.5 64t-70 55.5t-103.5 38.5t-138 14h-11v-549h94 q90 0 147.5 24.5t90 62t45 83.5t12.5 88zM1487 500q0 -90 -33.5 -179t-92 -160.5t-139 -116t-173.5 -44.5h-250v-299h-144v299h-467v1741h467v217h144v-217h151q95 0 179.5 -34.5t147.5 -95t99.5 -142t36.5 -175.5q0 -60 -15 -116t-43 -105t-69.5 -87.5t-93.5 -63.5 q74 -34 129.5 -73.5t92 -89.5t55 -113.5t18.5 -145.5z"/>
<glyph glyph-name="saraethai" horiz-adv-x="815" unicode="เ" d="M479 102q27 0 50 10t40.5 27t27 39.5t9.5 48.5q0 27 -10.5 50t-27.5 39.5t-40.5 26t-48.5 9.5q-27 0 -50 -10t-40.5 -27t-27 -39.5t-9.5 -48.5q0 -27 10.5 -50t27.5 -39.5t40 -26t49 -9.5zM487 476q54 0 98.5 -20.5t76.5 -55t49.5 -80t17.5 -95.5q0 -57 -19 -103 t-52.5 -78.5t-79.5 -50.5t-99 -18q-57 0 -103 18t-79 50.5t-50.5 78t-17.5 99.5v1163h172v-919q21 5 39.5 8t46.5 3z"/>
<glyph glyph-name="saraaethai" horiz-adv-x="1470" unicode="แ" d="M1134 102q27 0 50 10t40.5 27t27 39.5t9.5 48.5q0 27 -10.5 50t-27.5 39.5t-40.5 26t-48.5 9.5q-27 0 -50 -10t-40.5 -27t-27 -39.5t-9.5 -48.5q0 -27 10.5 -50t27.5 -39.5t40 -26t49 -9.5zM1142 476q54 0 98.5 -20.5t76.5 -55t49.5 -80t17.5 -95.5q0 -57 -19 -103 t-52.5 -78.5t-79.5 -50.5t-99 -18q-57 0 -103 18t-79 50.5t-50.5 78t-17.5 99.5v1163h172v-919q21 5 39.5 8t46.5 3zM479 102q27 0 50 10t40.5 27t27 39.5t9.5 48.5q0 27 -10.5 50t-27.5 39.5t-40.5 26t-48.5 9.5q-27 0 -50 -10t-40.5 -27t-27 -39.5t-9.5 -48.5 q0 -27 10.5 -50t27.5 -39.5t40 -26t49 -9.5zM487 476q54 0 98.5 -20.5t76.5 -55t49.5 -80t17.5 -95.5q0 -57 -19 -103t-52.5 -78.5t-79.5 -50.5t-99 -18q-57 0 -103 18t-79 50.5t-50.5 78t-17.5 99.5v1163h172v-919q21 5 39.5 8t46.5 3z"/>
<glyph glyph-name="saraothai" horiz-adv-x="877" unicode="โ" d="M590 102q27 0 50 10t40.5 27t27 39.5t9.5 48.5q0 27 -10.5 50t-27.5 39.5t-40.5 26t-48.5 9.5q-27 0 -50.5 -9.5t-40.5 -26.5t-26.5 -40t-9.5 -49q0 -28 10 -51t27.5 -39.5t40.5 -25.5t49 -9zM893 2191q-94 -69 -170 -76q-16 -1 -32 -1q-59 0 -119.5 20t-125.5 51 q-63 31 -131 31q-47 0 -86.5 -13.5t-76.5 -35.5q45 -23 84.5 -42t73 -38t61.5 -38.5t51 -43.5q22 -24 39 -51.5t28.5 -61.5t17 -75.5t5.5 -92.5v-1263q24 8 43 11t39 3q55 0 100.5 -19.5t77.5 -53t50 -79.5t18 -98q0 -57 -19 -103t-52.5 -78.5t-79.5 -50.5t-99 -18 q-57 0 -103.5 18t-79 50.5t-50 77.5t-17.5 100v1495q0 68 -9 112.5t-31.5 77t-60.5 58t-96 55.5q-48 25 -112.5 55.5t-149.5 67.5q41 46 90.5 86.5t105 70.5t116 47t122.5 17q52 0 100 -15t94 -33.5t92 -34.5t95 -17h5q57 0 126 47z"/>
<glyph glyph-name="saraaimaimuanthai" horiz-adv-x="877" unicode="ใ" d="M590 102q27 0 50 10t40.5 27t27 39.5t9.5 48.5q0 27 -10.5 50t-27.5 39.5t-40.5 26t-48.5 9.5q-27 0 -50.5 -9.5t-40.5 -26.5t-26.5 -40t-9.5 -49q0 -28 10 -51t27.5 -39.5t40.5 -25.5t49 -9zM512 461q24 8 43 11t39 3q55 0 100.5 -19.5t77.5 -53t50 -79.5t18 -98 q0 -57 -19 -103t-52.5 -78.5t-79.5 -50.5t-99 -18q-57 0 -103.5 18t-79 50.5t-50 77.5t-17.5 100v1831q0 40 -7.5 76.5t-25 64.5t-47 44t-72.5 16q-49 0 -77.5 -16t-43 -35.5t-18.5 -35.5l-4 -16q48 3 89 -9t70 -37.5t45.5 -63.5t16.5 -86q0 -40 -12.5 -74.5t-35.5 -60 t-55 -41.5t-71 -19q-36 -3 -70 4.5t-62.5 25t-49.5 43.5t-31 60q-17 58 -18 91.5t-1 41.5q0 50 11.5 99t38 95t66 80t92 53.5t116.5 19.5q145 0 236 -82q92 -83 92 -242v-1587zM70 1855q33 0 54.5 14.5t32.5 36.5t11 47.5t-11 47.5t-32.5 36.5t-54.5 14.5q-25 0 -44.5 -8.5 t-32.5 -22t-19.5 -31.5t-6.5 -36t6.5 -36t19.5 -32t32.5 -22.5t44.5 -8.5z"/>
<glyph glyph-name="saraaimaimalaithai" horiz-adv-x="1020" unicode="ไ" d="M737 102q27 0 50 10t40.5 27t27 39.5t9.5 48.5q0 27 -10.5 50t-27.5 39.5t-40.5 26t-48.5 9.5q-27 0 -50.5 -9.5t-40.5 -26.5t-26.5 -40t-9.5 -49q0 -28 10 -51t27.5 -39.5t40.5 -25.5t49 -9zM655 461q24 8 45 11t41 3q55 0 100.5 -19.5t77.5 -53t50 -79.5t18 -98 q0 -57 -19 -103t-52.5 -78.5t-79.5 -50.5t-99 -18q-57 0 -103.5 18t-79 50.5t-50 77.5t-17.5 100v1954q0 16 -4.5 23.5t-10.5 7.5t-12 -6t-9 -17l-152 -520q-13 -45 -35 -73.5t-67 -28.5t-67 30.5t-36 79.5l-139 504q-10 36 -23.5 63t-50.5 39l82 95q27 -11 46 -28 t32.5 -37.5t22 -43.5t14.5 -47l123 -467l123 475q18 70 66 104.5t106 34.5q69 0 114 -45t45 -135v-1722z"/>
<glyph glyph-name="lakkhangyaothai" horiz-adv-x="1208" unicode="ๅ" d="M827 -725v1737q0 69 -24.5 120t-65.5 85.5t-96.5 51.5t-116.5 17t-114 -18.5t-96.5 -50.5t-77.5 -76.5t-56 -96.5l-127 62q31 61 70.5 116.5t95 98t130 67.5t175.5 25q97 0 183 -26t150 -77.5t101 -128t37 -177.5v-1729h-168z"/>
<glyph glyph-name="maiyamokthai" horiz-adv-x="1454" unicode="ๆ" d="M537 705q24 0 44 8.5t34.5 23.5t23 35t8.5 43q0 24 -9 44t-24 35t-35 23.5t-42 8.5q-50 0 -80.5 -31.5t-30.5 -79.5q0 -51 31.5 -80.5t79.5 -29.5zM1200 -78q0 -208 -107 -321t-327 -162l-45 151q94 25 154 51.5t94 65.5t46.5 92.5t12.5 127.5v12v1040q0 48 -1.5 89.5 t-14 77.5t-42 66t-85.5 54l-164 -99l-193 99q-94 -37 -132.5 -113t-38.5 -165q0 -15 1 -30q13 14 30 28t38.5 25t48.5 18t62 7q51 0 92.5 -17t70.5 -47.5t45 -71.5t15 -89q-1 -49 -18 -90t-47 -71t-70.5 -47t-87.5 -17q-160 0 -242 120q-82 121 -82 289q0 76 24 144.5 t67 123.5t102.5 94t130.5 56l184 -102l164 102q85 -20 144.5 -55.5t97.5 -86.5t55.5 -118t17.5 -149v-1082z"/>
<glyph glyph-name="maitaikhuthai" d="M-406 1724q43 0 69 27.5t26 68.5q0 43 -26.5 70t-68.5 27t-68 -28.5t-26 -68.5q0 -42 27 -69t67 -27zM-164 2408q1 -15 1 -30q0 -171 -130 -232q-71 -32 -147.5 -36.5t-119.5 -4.5q-87 0 -194 9q-40 3 -90 1.5t-93.5 -15t-73 -43t-29.5 -82.5q0 -28 7 -61t29 -75 q29 56 82 89.5t115 33.5q31 0 60 -8.5t56 -22t51.5 -31t45.5 -36.5q10 30 27.5 56.5t41 45.5t53.5 30t66 11q43 0 78.5 -15.5t61 -41.5t39.5 -62t14 -76q0 -42 -15.5 -77t-41.5 -60t-61 -38t-75 -11q-33 2 -62.5 12t-56.5 25t-51.5 33.5t-48.5 38.5q-20 16 -41 34.5t-44 33 t-47.5 23t-49.5 5.5q-41 -4 -70 -25.5t-49.5 -52.5t-32 -67.5t-16.5 -71.5q-39 19 -75.5 56.5t-64 85.5t-43.5 102.5t-16 108.5q0 93 42 148.5t108 83t126 32t99 4.5t77 -3q91 -7 134.5 -8t50.5 -1q72 0 128 15.5t87 55t23 114.5h135z" unicode="็"/>
<glyph glyph-name="maiekthai" d="M-377 2527v475h156v-475h-156z" unicode="่"/>
<glyph glyph-name="maithothai" d="M-635 2728q33 0 54.5 14.5t32.5 36.5t11 47.5t-11 47.5t-32.5 36.5t-54.5 14.5t-54.5 -14.5t-32.5 -36.5t-11 -47.5t11 -47.5t32.5 -36.5t54.5 -14.5zM94 3015q0 -63 -13 -124t-36.5 -116.5t-56.5 -104.5t-74 -90q-82 -81 -192.5 -130.5t-237.5 -49.5q-141 0 -254 29 q19 10 36 23t34 30q28 29 55.5 67.5t43.5 87.5q-23 -9 -54 -9t-54 6q-29 8 -54 23.5t-44 39.5t-30 56t-11 73q0 46 17.5 83.5t47 64.5t68 42t80.5 15q48 0 88.5 -16t70 -44.5t46 -67.5t16.5 -85q0 -88 -32.5 -164t-81.5 -135q98 4 184 45t149.5 108.5t100.5 155.5t37 187 h151z" unicode="้"/>
<glyph glyph-name="maitrithai" d="M-573 2511q30 0 50 13.5t30 33.5t10 43t-10 43t-30 33.5t-50 13.5t-50.5 -13.5t-30.5 -33.5t-10 -43t10 -43t30.5 -33.5t50.5 -13.5zM168 2945q3 -29 3 -57q0 -62 -15 -137.5t-66 -149.5q-33 -47 -82 -79t-104.5 -50t-113.5 -23t-109 0q26 35 47.5 64t37.5 58.5 t24.5 63.5t8.5 78q0 27 -2.5 54.5t-13 49.5t-31 36t-55.5 14q-19 0 -35.5 -7t-30 -18t-25 -25t-20.5 -28q-23 38 -62 58t-81 20q-54 0 -83 -36t-29 -94q46 28 96 28q73 0 118 -45t45 -123q0 -36 -14 -64.5t-37.5 -49t-53 -31.5t-60.5 -11q-58 0 -99.5 25t-68.5 64.5 t-39.5 89.5t-12.5 101q0 48 14.5 93.5t43 81t69.5 57t95 21.5q36 0 73.5 -15.5t77.5 -50.5q33 31 67 48.5t76 17.5q56 0 93 -22.5t58.5 -57.5t30 -79.5t7.5 -87.5q-2 -47 -13 -91t-40 -84q35 15 59.5 30.5t41.5 31t27.5 30t18.5 27.5q31 55 37.5 100.5t6.5 71.5q0 46 -11 98 z" unicode="๊"/>
<glyph glyph-name="maichattawathai" d="M-221 2654v-205h-156v205h-254v135h254v205h156v-205h258v-135h-258z" unicode="๋"/>
<glyph glyph-name="thanthakhatthai" d="M-324 2679q-21 3 -37.5 -2t-28.5 -15.5t-19 -25t-9 -29.5q-4 -31 10.5 -58.5t55.5 -33.5q42 -6 66 15.5t30 51.5q3 15 0.5 31t-10.5 29.5t-22.5 23.5t-35.5 13zM217 2990q-11 -75 -59.5 -122t-120.5 -58q-38 -6 -75 -5t-74 5t-73 8.5t-73 5.5q-36 1 -66 -4t-55 -18 t-44 -35t-32 -55q51 59 123 59q12 0 25 -2q40 -6 70 -24.5t48.5 -45.5t25.5 -61.5t1 -71.5q-6 -41 -25 -72t-46.5 -51t-54.5 -26.5t-48 -6.5q-16 0 -33 3q-51 7 -90.5 33t-65.5 63.5t-36 76.5t-10 72q0 14 2 29q8 72 41 119.5t81.5 74.5t108 36t119.5 3l148 -14 q34 -3 63.5 -0.5t51.5 14t37 33.5t21 58z" unicode="์"/>
<glyph glyph-name="nikhahitthai" d="M-299 1753q30 0 55.5 10.5t44 29t29 43.5t10.5 54q0 31 -11 56.5t-29.5 43.5t-44 28t-54.5 10q-30 0 -55.5 -10.5t-44 -29t-29 -44t-10.5 -54.5q0 -30 11 -55.5t30 -43.5t44 -28t54 -10zM-299 1642q-56 0 -102.5 19t-80.5 52.5t-52.5 79t-18.5 99.5q0 57 19.5 103 t54 78.5t81 50.5t99.5 18q57 0 103 -19t78.5 -52.5t50.5 -79t18 -99.5q0 -57 -19 -103t-52.5 -79t-79 -50.5t-99.5 -17.5z" unicode="ํ"/>
<glyph glyph-name="yamakkanthai" d="M-233 2338q-54 3 -90.5 -18.5t-41.5 -74.5q-2 -22 2 -41.5t13 -36.5t21 -31.5t26 -26.5q-33 -26 -55.5 -57.5t-22.5 -73.5q0 -26 9.5 -43.5t26.5 -29t39 -17.5t48 -8l-8 -139q-49 4 -94.5 23t-80 50.5t-51.5 69.5t-17 77q0 10 1 21q4 42 20 74t37 62q-21 31 -33 64t-8 71 q5 57 27.5 99.5t58.5 70.5t78 40t84 12q10 0 19 -1z" unicode="๎"/>
<glyph glyph-name="fongmanthai" horiz-adv-x="1741" unicode="๏" d="M1147 692q0 114 -80 197q-79 82 -195 82q-114 0 -196 -82t-82 -197t82 -194q83 -80 196 -80q115 0 195 80t80 194zM1237 692q0 -151 -107 -258q-106 -106 -258 -106t-258 106t-106 258t106 258q107 107 258 107t258 -107t107 -258zM1450 692q0 119 -45 225.5t-123.5 186 t-183 125t-221.5 45.5h-5h-7q-75 0 -147.5 -20.5t-137.5 -58.5t-118.5 -91.5t-92 -118.5t-58.5 -138t-20 -148v-7v-7q0 -76 20 -148.5t58.5 -137t92 -117t118.5 -90t139 -57.5t153 -20q120 0 225.5 45t184 123t123.5 183.5t45 225.5zM1565 692q0 -144 -55.5 -268.5 t-149.5 -218.5t-218.5 -149.5t-269.5 -55.5q-95 0 -183 25.5t-164.5 70.5t-140 108.5t-108.5 140t-70 164.5t-26 183q0 95 25.5 183t70.5 165t108.5 140t140 108.5t164.5 70.5t183 25t183.5 -25t165 -70.5t139.5 -108.5t108.5 -140t70.5 -165t26 -183z"/>
<glyph glyph-name="zerothai" horiz-adv-x="1516" unicode="๐" d="M762 119q113 0 198 33.5t142 88.5t86 125.5t29 143.5t-29 143t-86 125t-142 89t-198 34q-114 0 -198.5 -34t-141 -89t-84 -125t-27.5 -143t27.5 -143.5t84 -125.5t141 -88.5t198.5 -33.5zM766 -37q-125 0 -238.5 36.5t-200.5 106.5t-139.5 172t-54.5 232v7 q0 84 24.5 157.5t69 134t105 107t131 78t148 47.5t155.5 16q82 0 161 -16.5t149 -48.5t129 -79t101.5 -108t66.5 -135t24 -160q0 -87 -24 -161.5t-67.5 -135t-102.5 -107.5t-129.5 -78.5t-148.5 -48t-159 -16.5z"/>
<glyph glyph-name="onethai" horiz-adv-x="1516" unicode="๑" d="M725 328q29 0 53 10t41.5 28t27 42t9.5 51q0 29 -10 53t-28 41.5t-42 27t-51 9.5q-29 0 -53 -10t-41.5 -27.5t-27 -41.5t-9.5 -52q0 -29 10 -53.5t28 -41.5t42 -26.5t51 -9.5zM1364 434v-15q0 -85 -22 -161.5t-63.5 -146t-98.5 -130.5t-123 -116l-99 86q40 37 83.5 85 t79.5 108t59.5 132t23.5 158q0 110 -36.5 195t-101 142.5t-152 87.5t-189.5 30q-91 0 -169.5 -27.5t-136.5 -78.5t-91 -123.5t-33 -163.5q0 -72 22.5 -134.5t64 -106.5t91.5 -63t99 -19q18 0 37 2q26 3 63.5 12t69.5 31q-53 -2 -103.5 10t-90 38.5t-65 68.5t-28.5 99 q-3 63 17 112.5t57 84t87.5 53t108.5 18.5q68 0 120.5 -20t88.5 -57t55 -89.5t19 -117.5q0 -172 -119 -283q-119 -110 -295 -110q-105 0 -189.5 36.5t-144.5 100.5t-92.5 150t-32.5 184q0 82 22 154.5t61.5 133.5t94 109.5t120 81.5t136 49t140.5 16h16q142 -4 258.5 -47 t199.5 -121t130 -188.5t51 -249.5z"/>
<glyph glyph-name="twothai" horiz-adv-x="1700" unicode="๒" d="M754 410q53 0 85.5 33.5t32.5 84.5q0 54 -33.5 86.5t-84.5 32.5q-27 0 -48.5 -9t-37.5 -25t-24.5 -38t-8.5 -47q0 -55 34 -86.5t85 -31.5zM1577 324q0 -91 -19.5 -153t-62 -100t-110.5 -54.5t-164 -16.5h-570q-124 0 -211 23.5t-142 75t-80 134t-25 201.5v688q0 37 -3 74 t-13.5 69t-31 58t-55.5 41l143 115q132 -74 132 -271v-782q0 -74 17.5 -125.5t52.5 -83.5t87 -46.5t121 -14.5h578q48 0 83 8t58.5 27.5t35 52t11.5 80.5v356q0 34 -5.5 66t-20 57.5t-39 41t-62.5 15.5q-33 0 -61 -13.5t-51.5 -33.5t-41 -43t-28.5 -43q-12 -19 -18 -33 q-5 -12 -5 -14q-19 32 -43.5 64.5t-54.5 58t-64.5 41.5t-74.5 16q-72 0 -117.5 -34.5t-71.5 -92.5q22 19 49 26t54 7q53 0 96.5 -18.5t75 -50.5t48.5 -75.5t17 -93.5q0 -53 -18 -97t-50 -75t-75.5 -48t-93.5 -17q-64 0 -115.5 22.5t-88 61t-56 91t-19.5 112.5q0 83 23.5 160 t68.5 136t111.5 94.5t152.5 35.5q35 0 70.5 -8.5t68 -24.5t60.5 -37.5t47 -48.5q0 1 3 10q4 10 14 24.5t27 31t42.5 30.5t61 23t82.5 8q58 -1 107.5 -23.5t85.5 -61t56.5 -88.5t20.5 -106v-409zM1077 680v0v0z"/>
<glyph glyph-name="threethai" horiz-adv-x="1700" unicode="๓" d="M467 135q40 0 66.5 18t39.5 45.5t13 59t-13 58.5t-39.5 44.5t-66.5 16.5q-26 -1 -48 -10.5t-38 -25.5t-24.5 -38t-8.5 -47q0 -26 9.5 -48.5t25.5 -38.5t37.5 -25t46.5 -9zM1548 467q-2 -61 -7.5 -122.5t-17 -121t-30 -116t-47.5 -107.5h-189q33 49 54.5 113t34 131.5 t18 132.5t6.5 116v13q0 70 -10 138t-34.5 122.5t-64 86.5t-94.5 32q-54 0 -87.5 -28t-52.5 -69t-25.5 -88t-6.5 -86v-614h-180v614q0 59 -16.5 108.5t-48 85.5t-77 56.5t-104.5 20.5q-55 0 -93.5 -18t-65 -49t-42 -72.5t-23.5 -89t-10.5 -98t-2.5 -99.5q35 23 69 34t74 11 q57 0 102.5 -21t77.5 -56.5t49 -83t17 -100.5q0 -56 -17.5 -103t-51 -82t-81.5 -54.5t-109 -19.5q-157 0 -231.5 138.5t-74.5 422.5q0 93 28 182t80 158t126 110t167 41h4q60 0 108 -15.5t85.5 -39t64 -51t43.5 -50.5q16 -24 24 -39l7 -14q18 45 45 83t62.5 66t77.5 44 t89 16q78 0 137.5 -25.5t102.5 -68.5t71.5 -100t44.5 -120t21 -120t5 -103q0 -16 -1 -32z"/>
<glyph glyph-name="fourthai" horiz-adv-x="1700" unicode="๔" d="M799 393q24 0 44 9t34.5 24t23 35t8.5 43q0 24 -9 44t-24 34.5t-35 23t-42 8.5q-49 0 -80 -31t-31 -79q0 -51 31.5 -81t79.5 -30zM1675 1556q-2 -78 -16.5 -168t-44.5 -176t-75.5 -161.5t-108.5 -124.5q-51 -40 -103 -61t-105 -30t-107 -8t-110 5.5t-113.5 11t-117.5 8.5 q-18 1 -36 1q-78 0 -160.5 -12t-152.5 -50t-112.5 -104t-42.5 -168q0 -88 23.5 -150.5t64.5 -104.5t98 -65t113.5 -30t104.5 -7q23 0 72 2.5t126 15.5q-20 6 -44 16.5t-48 23t-46.5 25t-37.5 21.5q-75 44 -119.5 101.5t-44.5 136.5q0 55 22 98.5t59 74.5t85 47.5t101 16.5 t98 -17.5t77.5 -49t51 -75t18.5 -95.5q0 -64 -32 -114.5t-86 -74.5q84 -62 145 -74q69 -14 132 -20t124 -19q70 -14 168 -75l-70 -143q-25 26 -62 40t-78 20.5t-82 7.5t-73 1q-55 0 -98 -4t-80.5 -10t-73 -12.5t-74 -12.5t-83.5 -10t-103 -4q-98 0 -192 31.5t-168 95.5 t-119 162t-45 231q0 120 56 215.5t156 159t210 85.5t203 22q59 0 121 -7q59 -7 112 -11.5t93 -4.5q26 0 71.5 2.5t105.5 20t107 56.5q52 44 83 109.5t48.5 137.5t24.5 144.5t10 131.5q21 -3 46 -6.5l50 -7t47 -7t37 -4.5z"/>
<glyph glyph-name="fivethai" horiz-adv-x="1700" unicode="๕" d="M803 1020q24 0 44 8.5t34.5 23.5t23 35t8.5 43q0 24 -9 44t-24 35t-35 23.5t-42 8.5q-24 0 -43.5 -9t-34 -24t-22 -35.5t-7.5 -42.5q0 -48 30.5 -79t76.5 -31zM799 393q24 0 44 9t34.5 24t23 35t8.5 43q0 24 -9 44t-24 34.5t-35 23t-42 8.5q-49 0 -80 -31t-31 -79 q0 -51 31.5 -81t79.5 -30zM1675 1556q-2 -78 -16.5 -168t-44.5 -176t-75.5 -161.5t-108.5 -124.5q-51 -40 -103 -61t-105 -30t-107 -8t-110 5.5t-113.5 11t-117.5 8.5q-18 1 -36 1q-78 0 -160.5 -12t-152.5 -50t-112.5 -104t-42.5 -168q0 -88 23.5 -150.5t64.5 -104.5 t98 -65t113.5 -30t104.5 -7q23 0 72 2.5t126 15.5q-20 6 -44 16.5t-48 23t-46.5 25t-37.5 21.5q-75 44 -119.5 101.5t-44.5 136.5q0 55 22 98.5t59 74.5t85 47.5t101 16.5t98 -17.5t77.5 -49t51 -75t18.5 -95.5q0 -64 -32 -114.5t-86 -74.5q84 -62 145 -74q69 -14 132 -20 t124 -19q70 -14 168 -75l-70 -143q-25 26 -62 40t-78 20.5t-82 7.5t-73 1q-55 0 -98 -4t-80.5 -10t-73 -12.5t-74 -12.5t-83.5 -10t-103 -4q-98 0 -192 31.5t-168 95.5t-119 162t-45 231q0 96 36.5 177t103.5 142.5t160 101t207 53.5q-40 60 -40 135q0 51 19.5 96t53 78.5 t78.5 53t96 19.5t96 -19.5t78.5 -53t53 -78.5t19.5 -96q0 -42 -13.5 -79.5t-36.5 -69.5q44 -2 88.5 0t86 10.5t79.5 25t70 42.5q52 44 83 109.5t48.5 137.5t24.5 144.5t10 131.5q21 -3 46 -6.5l50 -7t47 -7t37 -4.5z"/>
<glyph glyph-name="sixthai" horiz-adv-x="1446" unicode="๖" d="M524 221q24 0 44 9t35 24t23.5 35t8.5 43q0 24 -9 44t-24.5 34.5t-35.5 23t-42 8.5q-49 0 -79.5 -31.5t-30.5 -78.5q0 -50 31.5 -80.5t78.5 -30.5zM1257 537q0 -127 -44 -229.5t-121 -174.5t-180.5 -110.5t-223.5 -38.5q-46 0 -94 11t-93.5 32t-85.5 51.5t-70.5 70 t-48 87.5t-17.5 104q0 52 20 95.5t54 75t78.5 49.5t92.5 18q56 0 103.5 -18t82 -50.5t53.5 -77.5t19 -100q0 -54 -21 -97.5t-56 -78.5h22q77 0 142 26.5t112 79t71.5 123.5t24.5 152q0 82 -31 151t-85.5 117t-115.5 66t-114 18q-29 0 -59 -4q-43 -6 -88 -19.5t-88.5 -32 t-83.5 -40.5t-72 -43q-15 195 -74.5 382t-154.5 355l135 69q80 -137 129.5 -278t83.5 -291q164 68 299 68q19 0 38 -1q110 -8 196 -52t145 -114t89.5 -160.5t30.5 -190.5z"/>
<glyph glyph-name="seventhai" horiz-adv-x="1700" unicode="๗" d="M467 115q24 0 44 8.5t35 23.5t23.5 35t8.5 43q0 24 -9 44.5t-24 35t-35.5 23t-42.5 8.5q-49 0 -80 -32t-31 -79q0 -50 32 -80t79 -30zM1679 1421q-33 -35 -53.5 -81.5t-32.5 -99t-16 -108.5t-4.5 -110.5t1.5 -105.5t3 -93q1 -33 1 -66q0 -58 -3 -132.5t-20 -160 t-52.5 -162t-97.5 -138.5q-41 -41 -93 -73t-102 -54.5t-93.5 -35.5t-67.5 -17l-111 118q34 45 61 96.5t47 106.5t33.5 111t21.5 110q6 44 6.5 96.5t-13 98t-44 76t-87.5 30.5q-44 0 -75.5 -26t-52 -63.5t-30.5 -79t-10 -72.5h-136q0 31 -11.5 72.5t-34.5 79t-56.5 63.5 t-77.5 26q-43 0 -75.5 -16.5t-56.5 -43.5t-40.5 -62t-26 -72.5t-13.5 -74.5t-3 -69q1 -78 23 -133q31 51 78.5 77t105.5 26q53 0 96.5 -18t73.5 -50t46 -75.5t13 -94.5q-3 -56 -24.5 -99.5t-56 -74.5t-79 -47t-94.5 -16q-53 0 -99.5 21.5t-85.5 59t-69 89t-51 111t-32 124.5 t-11 131q0 90 29 171.5t80 144t120.5 99t151.5 36.5q38 0 74.5 -9.5t69 -26.5t58.5 -42.5t44 -56.5q0 -1 12.5 20.5t41 47t73.5 47t111 20.5q59 0 105.5 -16t81.5 -44.5t59 -67t38.5 -83t20 -93.5t2.5 -98q-7 -109 -41 -211t-94 -186q132 26 194 113q64 88 82.5 198.5 t18.5 223.5q0 28 -1 56q-3 102 -6 170t-3 105q0 61 6 137t31.5 164t82.5 168z"/>
<glyph glyph-name="eightthai" horiz-adv-x="1700" unicode="๘" d="M1208 324q24 0 44 8.5t35 23.5t23.5 35t8.5 43q0 24 -9 44.5t-24 35t-35.5 23t-42.5 8.5q-50 0 -80 -32t-30 -79q0 -50 31 -80t79 -30zM1593 1098q-5 -87 -32.5 -145.5t-72 -94.5t-105 -53t-104 -18.5t-59.5 -1.5q-57 0 -129 8t-157 22q-86 15 -170 15q-12 0 -65.5 -1.5 t-134.5 -28t-142 -79t-90 -135.5q-14 -40 -12.5 -95t15.5 -110.5t39.5 -103.5t59.5 -72q-3 37 -2.5 81t11.5 83.5t35 70.5t67 43q48 13 91.5 -1t81 -41t69.5 -59.5t57 -57.5q64 -64 108 -105t77 -65t61 -33.5t61 -9.5q39 0 72.5 10t58.5 31t41 53.5t20 77.5q-21 -44 -59 -61 t-84 -17q-53 0 -96.5 17t-75 47.5t-48.5 72.5t-17 92q0 51 18.5 95t51 75.5t75.5 49.5t92 18q72 0 127.5 -32.5t92.5 -84t56 -115t19 -125.5q0 -80 -24 -143t-68.5 -106.5t-106.5 -67t-137 -23.5t-139 24t-119 63.5t-103.5 89.5t-92.5 102q-61 71 -95 57q-32 -12 -41 -63 q-3 -22 -3 -45q0 -42 13.5 -97.5t51.5 -105.5h-205q-58 46 -111 105.5t-91.5 127.5t-54.5 130.5t-16 112.5q0 26 3 52q18 136 79 229t155.5 147t183.5 65.5t148 11.5q70 0 146 -10q108 -15 190 -26t139 -11q26 0 50 2q78 6 126.5 41.5t56.5 112.5q6 57 6.5 120.5t-3.5 121 t-11 104.5t-17 71h168q9 -21 14.5 -53t8 -70t2.5 -68q1 -30 1 -50t-0.5 -49t-2.5 -62.5t-3 -56.5z"/>
<glyph glyph-name="ninethai" horiz-adv-x="1536" unicode="๙" d="M631 139q24 0 44 9t34.5 24t23 35t8.5 43q0 24 -9 44t-24 34.5t-35 23t-42 8.5q-49 0 -80 -31t-31 -79q0 -51 31.5 -81t79.5 -30zM1446 1155q2 -38 2 -73q0 -44 -4 -99t-21 -115q-16 -60 -55.5 -91.5t-101.5 -31.5q-36 0 -68.5 15.5t-60 33t-50 30.5t-38.5 7 q-22 -8 -28 -32.5t-3 -54.5t12.5 -59.5t18.5 -45.5l323 -586l-164 -69l-348 655q-23 43 -56.5 76t-73.5 55.5t-84.5 34.5t-88.5 12q-75 0 -132.5 -34.5t-94.5 -90t-49 -111.5t-12 -99q0 -26 3 -52q11 -75 45.5 -133.5t83.5 -83.5q-7 25 -8.5 45.5t0.5 40.5q6 49 27 85.5 t52.5 61.5t72 37.5t86.5 12.5q48 0 91 -16t76 -44t53.5 -67.5t25.5 -85.5q6 -68 -10.5 -124.5t-52.5 -97t-89 -63.5t-119 -23q-65 0 -139 23.5t-142 70t-120.5 114.5t-73.5 157q-18 75 -18 149q0 79 19.5 150.5t56 132.5t90.5 106t124.5 70.5t157.5 25.5q97 0 179 -37.5 t145 -100.5q-1 31 4 59t17 49.5t33.5 34.5t53.5 14q38 2 77.5 -12t68.5 -35q30 -23 58 -35t49.5 -3t34.5 45t13 108q0 91 -13.5 172.5t-28.5 142.5q-16 60 -30 96q-13 34 -14 35h172q19 -63 31 -111.5t19 -89.5t10.5 -77t5.5 -74zM1208 1507v0v0z"/>
<glyph glyph-name="angkhankhuthai" horiz-adv-x="1802" unicode="๚" d="M426 1036q27 0 50 10t39 27t25 39.5t9 48.5q0 27 -9.5 50t-26 39.5t-39 26t-48.5 9.5q-27 0 -50 -10t-39 -27t-25 -39.5t-9 -48.5q0 -27 9.5 -50t26 -39.5t39 -26t48.5 -9.5zM1147 434q0 -208 -101 -320q-101 -110 -329 -167l-45 155q94 25 153.5 52t93.5 65.5t47 94 t13 137.5v458q-30 -69 -73.5 -123.5t-98.5 -91.5t-114.5 -53t-118.5 -16q-13 0 -27 1q-90 6 -165.5 40.5t-130.5 91t-86 132t-32 163.5v8q0 65 16 127.5t51 113t89 81t129 30.5q55 0 101 -19t79 -52t51 -78.5t17 -98.5q-1 -51 -18.5 -96t-48 -78.5t-73 -53t-92.5 -19.5 q-41 0 -73.5 7t-61.5 29q15 -43 41.5 -76.5t61.5 -56.5t75.5 -35t83.5 -12q60 -1 115 24t102.5 68.5t86 102.5t65 127t38.5 134.5t12 126.5q0 14 -1 27h168v-950zM1548 377q0 -304 -213 -422l-78 139q74 45 98 110q25 65 25 173v1007h168v-1007z"/>
<glyph glyph-name="khomutthai" horiz-adv-x="3391" unicode="๛" d="M766 823q23 0 42.5 9t33.5 24t22 34.5t8 41.5q0 23 -8.5 42.5t-23 34t-33.5 23t-41 8.5q-23 0 -43 -8.5t-34 -23.5t-22 -34.5t-8 -41.5q0 -23 8.5 -43t23 -34.5t34 -23t41.5 -8.5zM2433 623q-33 -45 -80 -86t-96 -74q-3 22 -12 54t-23.5 67t-32.5 71.5t-38 67.5 t-41.5 54.5t-41.5 33.5q-8 -84 -41.5 -164t-86.5 -146.5t-122 -116t-147 -73.5v8q0 74 -17 154t-51 153t-84 131.5t-114 90.5q1 -20 1 -40q0 -57 -10 -122t-42 -141q-37 -90 -98.5 -169.5t-139.5 -139.5t-168.5 -95t-185.5 -35q-125 0 -235 45.5t-191.5 125t-128.5 186 t-47 229.5q0 96 32.5 183t89 157.5t134 120.5t167.5 73q60 16 118 16q18 0 64 -4t103.5 -39.5t92 -100t34.5 -160.5q0 -26 -10 -62t-36 -69t-70.5 -57.5t-112.5 -28.5q-42 -2 -80.5 10t-68.5 35.5t-50 56.5t-27 72q-4 23 -4 43q0 57 33 108.5t119 83.5q-88 -15 -158.5 -52.5 t-120 -94t-76 -130t-26.5 -161.5q0 -103 36 -185t98 -139t145.5 -87.5t179.5 -30.5q64 0 125.5 22.5t116.5 61.5t100.5 92t78.5 113t51.5 124.5t18.5 127.5q0 152 -73 262q112 0 211.5 -39.5t180 -108t137 -161.5t81.5 -199q43 40 74.5 94.5t51 115.5t26.5 124t0 120 q68 -12 126.5 -40.5t106.5 -70t84 -94.5t59 -114q13 5 24 15.5t20 23t15.5 26t10.5 25.5h811v-147h-770z"/>
<glyph glyph-name="endash" horiz-adv-x="2048" unicode="–" d="M53 586v102h1938v-102h-1938z"/>
<glyph glyph-name="emdash" horiz-adv-x="4096" unicode="—" d="M53 586v102h3977v-102h-3977z"/>
<glyph glyph-name="quoteleft" horiz-adv-x="532" unicode="‘" d="M156 1098v254q0 79 14 135t42 95.5t69.5 65.5t95.5 44v-99q-38 -18 -60.5 -43t-34.5 -56.5t-15 -68t-1 -77.5h111v-250h-221z"/>
<glyph glyph-name="quotedblleft" horiz-adv-x="795" unicode="“" d="M115 1098v254q0 79 14 135t42 95.5t69.5 65.5t95.5 44v-99q-39 -15 -62 -41.5t-35 -59.5t-14.5 -70t0.5 -74h111v-250h-221zM717 1597q-41 -16 -65 -42t-36 -59t-14.5 -71t0.5 -77h111v-250h-221v254q0 79 14.5 135.5t43 96t70.5 65t97 43.5v-95z"/>
<glyph glyph-name="quotedblright" horiz-adv-x="795" unicode="”" d="M344 1450q0 -55 -13.5 -108.5t-41 -96.5t-70 -71.5t-100.5 -34.5v94q40 8 62.5 31.5t34 54.5t14.5 66t3 65h-114v246h225v-246zM721 1450q0 -56 -12.5 -109t-39 -95.5t-68.5 -71.5t-101 -35v94q45 8 67.5 34t32.5 58.5t10 66.5v58h-110v246h221v-246z"/>
<glyph glyph-name="Euro" horiz-adv-x="1950" unicode="€" d="M1851 655q-28 -147 -92 -276.5t-159.5 -224.5t-212.5 -145.5t-247 -50.5q-15 0 -30 1q-155 6 -275.5 55t-210 133.5t-149.5 200t-94 254.5h-291v176h262q-7 57 -5 114t9 112h-266v176h299q19 73 49 146.5t72.5 141t99.5 125.5t130.5 101t165.5 67.5t204 24.5 q140 0 254.5 -41.5t203 -116.5t151 -179t100.5 -228h-217q-30 85 -76.5 155.5t-108 120.5t-138 77.5t-166.5 27.5q-101 0 -184 -32.5t-147.5 -89t-110.5 -133.5t-73 -167h557v-176h-590q-6 -57 -9.5 -114.5t5.5 -111.5h594v-176h-565q29 -99 76.5 -182t114 -144t152 -95 t189.5 -34q198 0 329 127.5t187 380.5h213z"/>
<glyph glyph-name="trademark" horiz-adv-x="2003" unicode="™" d="M528 1626v-860h-131v860h-319v115h766v-115h-316zM1753 766v762l-262 -762h-131l-262 762v-762h-131v975h180l278 -807l279 807h180v-975h-131z"/>
</font>
</defs>
</svg>
