<svg data-name="Group 269" xmlns="http://www.w3.org/2000/svg" width="44.912" height="43.926" viewBox="0 0 44.912 43.926">
  <g data-name="Group 26" transform="translate(0 0)">
    <path data-name="Path 19" d="M1364.265,109.562a18.477,18.477,0,1,1,18.479-18.476A18.5,18.5,0,0,1,1364.265,109.562Zm0-33.078a14.6,14.6,0,1,0,14.6,14.6A14.617,14.617,0,0,0,1364.265,76.484Z" transform="translate(-1345.789 -72.607)" fill="#333"/>
  </g>
  <g data-name="Group 27" transform="translate(7.834 7.834)">
    <path data-name="Path 20" d="M1351.769,89.231a1.938,1.938,0,0,1-1.939-1.939,10.656,10.656,0,0,1,10.643-10.645,1.939,1.939,0,1,1,0,3.877,6.774,6.774,0,0,0-6.766,6.768A1.939,1.939,0,0,1,1351.769,89.231Z" transform="translate(-1349.83 -76.648)" fill="#333"/>
  </g>
  <g data-name="Group 28" transform="translate(28.69 27.703)">
    <path data-name="Path 21" d="M1374.873,103.12a1.932,1.932,0,0,1-1.37-.568l-12.347-12.345a1.938,1.938,0,0,1,2.741-2.741l12.347,12.345a1.939,1.939,0,0,1-1.371,3.309Z" transform="translate(-1360.588 -86.898)" fill="#333"/>
  </g>
</svg>